<svg version="1.1" xmlns="http://www.w3.org/2000/svg" xmlns:xlink="http://www.w3.org/1999/xlink" width="14.668" height="60.867"><defs><linearGradient x1="239.85" y1="180.1092" x2="239.85" y2="240.9759" gradientUnits="userSpaceOnUse" id="color-1"><stop offset="0" stop-color="#ffdc3c"/><stop offset="1" stop-color="#ffdc3c" stop-opacity="0"/></linearGradient></defs><g transform="translate(-232.516,-180.1087)"><g data-paper-data="{&quot;isPaintingLayer&quot;:true}" fill="url(#color-1)" fill-rule="nonzero" stroke="none" stroke-width="1" stroke-linecap="butt" stroke-linejoin="miter" stroke-miterlimit="10" stroke-dasharray="" stroke-dashoffset="0" font-family="none" font-weight="none" font-size="none" text-anchor="none" style="mix-blend-mode: normal"><path d="M247.15,180.1087c0.01,0.056 0.034,0.107 0.034,0.167c0,0.552 -0.448,1 -1,1h-3.134v1.708c0,1.481 -1.085,2.706 -2.5,2.942v1.699c1.415,0.236 2.5,1.461 2.5,2.942v3.417c0,1.481 -1.085,2.706 -2.5,2.942v1.699c1.415,0.236 2.5,1.461 2.5,2.942v3.417c0,1.481 -1.085,2.706 -2.5,2.942v1.699c1.415,0.236 2.5,1.461 2.5,2.942v3.417c0,1.481 -1.085,2.706 -2.5,2.942v1.699c1.415,0.236 2.5,1.461 2.5,2.942v3.417c0,1.481 -1.085,2.706 -2.5,2.942v1.699c1.415,0.236 2.5,1.461 2.5,2.942v3.417c0,1.649 -1.342,2.992 -2.992,2.992h-0.417c-1.649,0 -2.992,-1.342 -2.992,-2.992v-3.417c0,-1.481 1.085,-2.706 2.5,-2.942v-1.699c-1.415,-0.236 -2.5,-1.461 -2.5,-2.942v-3.417c0,-1.481 1.085,-2.706 2.5,-2.942v-1.699c-1.415,-0.236 -2.5,-1.461 -2.5,-2.942v-3.417c0,-1.481 1.085,-2.706 2.5,-2.942v-1.699c-1.415,-0.236 -2.5,-1.461 -2.5,-2.942v-3.417c0,-1.481 1.085,-2.706 2.5,-2.942v-1.699c-1.415,-0.236 -2.5,-1.461 -2.5,-2.942v-3.417c0,-1.481 1.085,-2.706 2.5,-2.942v-1.699c-1.415,-0.236 -2.5,-1.461 -2.5,-2.942v-1.708h-3.133c-0.552,0 -1,-0.448 -1,-1c0,-0.059 0.024,-0.11 0.034,-0.167zM238.05,234.5677v3.417c0,0.877 0.714,1.591 1.591,1.591h0.417c0.877,0 1.591,-0.714 1.591,-1.591v-3.417c0,-0.705 -0.464,-1.297 -1.1,-1.505v0.713c0,0.387 -0.313,0.7 -0.7,0.7c-0.387,0 -0.7,-0.313 -0.7,-0.7v-0.714c-0.635,0.208 -1.099,0.801 -1.099,1.506zM238.05,223.5677v3.417c0,0.705 0.464,1.297 1.1,1.505v-0.714c0,-0.387 0.313,-0.7 0.7,-0.7c0.387,0 0.7,0.313 0.7,0.7v0.714c0.636,-0.208 1.1,-0.801 1.1,-1.505v-3.417c0,-0.705 -0.464,-1.297 -1.1,-1.505v0.713c0,0.387 -0.313,0.7 -0.7,0.7c-0.387,0 -0.7,-0.313 -0.7,-0.7v-0.714c-0.636,0.208 -1.1,0.801 -1.1,1.506zM238.05,212.5677v3.417c0,0.705 0.464,1.297 1.1,1.505v-0.714c0,-0.387 0.313,-0.7 0.7,-0.7c0.387,0 0.7,0.313 0.7,0.7v0.714c0.636,-0.208 1.1,-0.801 1.1,-1.505v-3.417c0,-0.705 -0.464,-1.297 -1.1,-1.505v0.713c0,0.387 -0.313,0.7 -0.7,0.7c-0.387,0 -0.7,-0.313 -0.7,-0.7v-0.714c-0.636,0.208 -1.1,0.801 -1.1,1.506zM238.05,201.5677v3.417c0,0.705 0.464,1.297 1.1,1.505v-0.714c0,-0.387 0.313,-0.7 0.7,-0.7c0.387,0 0.7,0.313 0.7,0.7v0.714c0.636,-0.208 1.1,-0.801 1.1,-1.505v-3.417c0,-0.705 -0.464,-1.297 -1.1,-1.505v0.713c0,0.387 -0.313,0.7 -0.7,0.7c-0.387,0 -0.7,-0.313 -0.7,-0.7v-0.714c-0.636,0.208 -1.1,0.801 -1.1,1.506zM238.05,190.5677v3.417c0,0.705 0.464,1.297 1.1,1.505v-0.714c0,-0.387 0.313,-0.7 0.7,-0.7c0.387,0 0.7,0.313 0.7,0.7v0.714c0.636,-0.208 1.1,-0.801 1.1,-1.505v-3.417c0,-0.705 -0.464,-1.297 -1.1,-1.505v0.713c0,0.387 -0.313,0.7 -0.7,0.7c-0.387,0 -0.7,-0.313 -0.7,-0.7v-0.714c-0.636,0.208 -1.1,0.801 -1.1,1.506zM238.05,182.9837c0,0.705 0.464,1.297 1.1,1.505v-0.714c0,-0.387 0.313,-0.7 0.7,-0.7c0.387,0 0.7,0.313 0.7,0.7v0.714c0.636,-0.208 1.1,-0.801 1.1,-1.505v-1.708h-3.6z" id="ID0.605877926107496"/></g></g></svg>