<svg version="1.1" xmlns="http://www.w3.org/2000/svg" xmlns:xlink="http://www.w3.org/1999/xlink" width="46.44897" height="60.24527" viewBox="0,0,46.44897,60.24527"><defs><linearGradient x1="239.59212" y1="226.72189" x2="239.59212" y2="178.90831" gradientUnits="userSpaceOnUse" id="color-1"><stop offset="0" stop-color="#ffffff"/><stop offset="1" stop-color="#ffffff" stop-opacity="0"/></linearGradient><linearGradient x1="236.13804" y1="215.75493" x2="259.83843" y2="226.44565" gradientUnits="userSpaceOnUse" id="color-2"><stop offset="0" stop-color="#ffffff" stop-opacity="0"/><stop offset="1" stop-color="#ffffff"/></linearGradient><linearGradient x1="246.95658" y1="192.07373" x2="270.65698" y2="202.76445" gradientUnits="userSpaceOnUse" id="color-3"><stop offset="0" stop-color="#ffffff" stop-opacity="0"/><stop offset="1" stop-color="#ffffff"/></linearGradient></defs><g transform="translate(-226.18001,-175.01024)"><g data-paper-data="{&quot;isPaintingLayer&quot;:true}" fill-rule="nonzero" stroke-linejoin="miter" stroke-miterlimit="10" stroke-dasharray="" stroke-dashoffset="0" style="mix-blend-mode: normal"><path d="M253.99745,176.01024l-26.25,54.15" data-paper-data="{&quot;origRot&quot;:0,&quot;index&quot;:null}" fill="none" stroke="#ffffff" stroke-width="2" stroke-linecap="round"/><path d="M228.09476,176.71771l25.55013,-0.01388l-26.39489,54.07952z" data-paper-data="{&quot;index&quot;:null}" fill="none" stroke="#ffffff" stroke-width="2" stroke-linecap="round"/><path d="M251.09367,178.90831l-23.00311,47.81358l0.12752,-47.62483z" data-paper-data="{&quot;index&quot;:null}" fill="url(#color-1)" stroke="#000000" stroke-width="0" stroke-linecap="round"/><g data-paper-data="{&quot;index&quot;:null}" stroke-linecap="butt"><path d="M241.4834,203.90474l18.35503,22.54091l-29.04575,1.15948l10.69071,-23.70039" fill="url(#color-2)" stroke="none" stroke-width="1"/><path d="M241.4171,203.71605l18.35503,22.5409l-29.04575,1.15948l10.69071,-23.70039" fill="none" stroke="#ffffff" stroke-width="2"/><path d="M252.30195,180.22354l18.35503,22.54091l-29.04575,1.15948l10.69071,-23.7004" fill="url(#color-3)" stroke="none" stroke-width="1"/><path d="M252.23564,180.03485l18.35503,22.54091l-29.04575,1.15948l10.69071,-23.7004" fill="none" stroke="#ffffff" stroke-width="2"/></g></g></g></svg>