<svg version="1.1" xmlns="http://www.w3.org/2000/svg" xmlns:xlink="http://www.w3.org/1999/xlink" width="46.11306" height="60.24527" viewBox="0,0,46.11306,60.24527"><defs><linearGradient x1="241.65533" y1="226.72189" x2="241.65533" y2="178.90831" gradientUnits="userSpaceOnUse" id="color-1"><stop offset="0" stop-color="#ffffff"/><stop offset="1" stop-color="#ffffff" stop-opacity="0"/></linearGradient><linearGradient x1="245.44533" y1="216.55492" x2="221.74493" y2="227.24564" gradientUnits="userSpaceOnUse" id="color-2"><stop offset="0" stop-color="#ffffff" stop-opacity="0"/><stop offset="1" stop-color="#ffffff"/></linearGradient><linearGradient x1="234.62678" y1="192.87373" x2="210.92638" y2="203.56445" gradientUnits="userSpaceOnUse" id="color-3"><stop offset="0" stop-color="#ffffff" stop-opacity="0"/><stop offset="1" stop-color="#ffffff"/></linearGradient></defs><g transform="translate(-208.95439,-175.01024)"><g data-paper-data="{&quot;isPaintingLayer&quot;:true}" fill-rule="nonzero" stroke-linejoin="miter" stroke-miterlimit="10" stroke-dasharray="" stroke-dashoffset="0" style="mix-blend-mode: normal"><path d="M227.25,176.01024l26.25,54.15" data-paper-data="{&quot;origRot&quot;:0,&quot;index&quot;:null}" fill="none" stroke="#ffffff" stroke-width="2" stroke-linecap="round"/><path d="M253.99745,230.78335l-26.39489,-54.07952l25.55013,0.01388z" data-paper-data="{&quot;index&quot;:null}" fill="none" stroke="#ffffff" stroke-width="2" stroke-linecap="round"/><path d="M253.02937,179.09706l0.12752,47.62483l-23.00311,-47.81358z" data-paper-data="{&quot;index&quot;:null}" fill="url(#color-1)" stroke="#000000" stroke-width="0" stroke-linecap="round"/><g stroke-linecap="butt"><path d="M240.09996,204.70473l10.69071,23.7004l-29.04575,-1.15948l18.35503,-22.54091" fill="url(#color-2)" stroke="none" stroke-width="1"/><path d="M240.16627,204.51604l10.69071,23.7004l-29.04575,-1.15948l18.35503,-22.54091" fill="none" stroke="#ffffff" stroke-width="2"/><path d="M229.28142,181.02353l10.69071,23.7004l-29.04575,-1.15948l18.35503,-22.54091" fill="url(#color-3)" stroke="none" stroke-width="1"/><path d="M229.34772,180.83484l10.69071,23.7004l-29.04575,-1.15948l18.35503,-22.54091" fill="none" stroke="#ffffff" stroke-width="2"/></g></g></g></svg>