<svg version="1.1" xmlns="http://www.w3.org/2000/svg" xmlns:xlink="http://www.w3.org/1999/xlink" width="26.16769" height="26.1678" viewBox="0,0,26.16769,26.1678"><g transform="translate(-240.11908,-195.11966)"><g data-paper-data="{&quot;isPaintingLayer&quot;:true}" fill-rule="nonzero" stroke-linecap="butt" stroke-linejoin="miter" stroke-miterlimit="10" stroke-dasharray="" stroke-dashoffset="0" style="mix-blend-mode: normal"><path d="M253.20292,196.55351c3.2147,0 6.1268,1.3048 8.236,3.414c2.1092,2.1092 3.414,5.0214 3.414,8.2361c0,3.2146 -1.3048,6.1268 -3.41399,8.236c-2.1092,2.1092 -5.0213,3.414 -8.236,3.414c-3.2147,0 -6.1268,-1.3048 -8.236,-3.414c-2.1092,-2.1092 -3.414,-5.0214 -3.414,-8.236c0,-3.2147 1.3048,-6.1269 3.414,-8.2361c2.1092,-2.1092 5.0213,-3.414 8.236,-3.414z" fill="none" stroke="#ffffff" stroke-width="2.8677"/><path d="M253.18752,202.44692c1.587,0 3.0245,0.644 4.0652,1.6847c1.0408,1.0408 1.6848,2.4783 1.6848,4.0653c0,1.587 -0.644,3.0245 -1.6848,4.0652c-1.0407,1.0408 -2.4782,1.6848 -4.0652,1.6848c-1.587,0 -3.0245,-0.644 -4.0652,-1.6848c-1.0408,-1.0407 -1.6848,-2.4782 -1.6848,-4.0652c0,-1.587 0.644,-3.0245 1.6848,-4.0653c1.0407,-1.0407 2.4782,-1.6847 4.0652,-1.6847z" fill="#ff9a00" stroke="none" stroke-width="1.4375"/></g></g></svg>