<svg version="1.1" xmlns="http://www.w3.org/2000/svg" xmlns:xlink="http://www.w3.org/1999/xlink" width="46.51306" height="60.24527" viewBox="0,0,46.51306,60.24527"><defs><linearGradient x1="241.65533" y1="180.0717" x2="241.65533" y2="227.88528" gradientUnits="userSpaceOnUse" id="color-1"><stop offset="0" stop-color="#ffffff"/><stop offset="1" stop-color="#ffffff" stop-opacity="0"/></linearGradient><linearGradient x1="245.04533" y1="193.48504" x2="221.34493" y2="182.79432" gradientUnits="userSpaceOnUse" id="color-2"><stop offset="0" stop-color="#ffffff" stop-opacity="0"/><stop offset="1" stop-color="#ffffff"/></linearGradient><linearGradient x1="234.22678" y1="217.16624" x2="210.52638" y2="206.47552" gradientUnits="userSpaceOnUse" id="color-3"><stop offset="0" stop-color="#ffffff" stop-opacity="0"/><stop offset="1" stop-color="#ffffff"/></linearGradient></defs><g transform="translate(-208.55439,-171.53808)"><g data-paper-data="{&quot;isPaintingLayer&quot;:true}" fill-rule="nonzero" stroke-linejoin="miter" stroke-miterlimit="10" stroke-dasharray="" stroke-dashoffset="0" style="mix-blend-mode: normal"><path d="M227.25,230.78335l26.25,-54.15" data-paper-data="{&quot;origRot&quot;:0,&quot;index&quot;:null}" fill="none" stroke="#ffffff" stroke-width="2" stroke-linecap="round"/><path d="M253.15269,230.07588l-25.55013,0.01388l26.39489,-54.07952z" data-paper-data="{&quot;index&quot;:null}" fill="none" stroke="#ffffff" stroke-width="2" stroke-linecap="round"/><path d="M230.15378,227.88528l23.00311,-47.81358l-0.12752,47.62483z" data-paper-data="{&quot;index&quot;:null}" fill="url(#color-1)" stroke="#000000" stroke-width="0" stroke-linecap="round"/><g data-paper-data="{&quot;index&quot;:null}" stroke-linecap="butt"><path d="M239.69996,205.33523l-18.35504,-22.54091l29.04575,-1.15948l-10.69071,23.70039" fill="url(#color-2)" stroke="none" stroke-width="1"/><path d="M239.76627,205.52392l-18.35504,-22.5409l29.04575,-1.15948l-10.69071,23.70039" fill="none" stroke="#ffffff" stroke-width="2"/><path d="M228.88142,229.01643l-18.35504,-22.54091l29.04575,-1.15948l-10.69071,23.7004" fill="url(#color-3)" stroke="none" stroke-width="1"/><path d="M228.94772,229.20512l-18.35504,-22.54091l29.04575,-1.15948l-10.69071,23.7004" fill="none" stroke="#ffffff" stroke-width="2"/></g></g></g></svg>