<svg version="1.1" xmlns="http://www.w3.org/2000/svg" xmlns:xlink="http://www.w3.org/1999/xlink" width="46.64897" height="60.24527" viewBox="0,0,46.64897,60.24527"><defs><linearGradient x1="239.59212" y1="180.0717" x2="239.59212" y2="227.88528" gradientUnits="userSpaceOnUse" id="color-1"><stop offset="0" stop-color="#ffffff"/><stop offset="1" stop-color="#ffffff" stop-opacity="0"/></linearGradient><linearGradient x1="236.33804" y1="193.68504" x2="260.03844" y2="182.99432" gradientUnits="userSpaceOnUse" id="color-2"><stop offset="0" stop-color="#ffffff" stop-opacity="0"/><stop offset="1" stop-color="#ffffff"/></linearGradient><linearGradient x1="247.15658" y1="217.36624" x2="270.85698" y2="206.67552" gradientUnits="userSpaceOnUse" id="color-3"><stop offset="0" stop-color="#ffffff" stop-opacity="0"/><stop offset="1" stop-color="#ffffff"/></linearGradient></defs><g transform="translate(-226.18,-171.53808)"><g data-paper-data="{&quot;isPaintingLayer&quot;:true}" fill-rule="nonzero" stroke-linejoin="miter" stroke-miterlimit="10" stroke-dasharray="" stroke-dashoffset="0" style="mix-blend-mode: normal"><path d="M227.74745,176.63335l26.25,54.15" data-paper-data="{&quot;origRot&quot;:0,&quot;index&quot;:null}" fill="none" stroke="#ffffff" stroke-width="2" stroke-linecap="round"/><path d="M227.25,176.01024l26.39489,54.07952l-25.55013,-0.01388z" data-paper-data="{&quot;index&quot;:null}" fill="none" stroke="#ffffff" stroke-width="2" stroke-linecap="round"/><path d="M228.21808,227.69653l-0.12752,-47.62483l23.00311,47.81358z" data-paper-data="{&quot;index&quot;:null}" fill="url(#color-1)" stroke="#000000" stroke-width="0" stroke-linecap="round"/><g data-paper-data="{&quot;index&quot;:null}" stroke-linecap="butt"><path d="M241.6834,205.53524l-10.69071,-23.70039l29.04575,1.15948l-18.35503,22.54091" fill="url(#color-2)" stroke="none" stroke-width="1"/><path d="M241.61709,205.72393l-10.69071,-23.70039l29.04575,1.15948l-18.35504,22.5409" fill="none" stroke="#ffffff" stroke-width="2"/><path d="M252.50194,229.21644l-10.69071,-23.7004l29.04575,1.15948l-18.35503,22.54091" fill="url(#color-3)" stroke="none" stroke-width="1"/><path d="M252.43564,229.40513l-10.69071,-23.7004l29.04575,1.15948l-18.35503,22.54091" fill="none" stroke="#ffffff" stroke-width="2"/></g></g></g></svg>