<svg version="1.1" xmlns="http://www.w3.org/2000/svg" xmlns:xlink="http://www.w3.org/1999/xlink" width="26.16769" height="26.1678" viewBox="0,0,26.16769,26.1678"><g transform="translate(-240.11908,-195.11966)"><g data-paper-data="{&quot;isPaintingLayer&quot;:true}" fill-rule="nonzero" stroke-linecap="butt" stroke-linejoin="miter" stroke-miterlimit="10" stroke-dasharray="" stroke-dashoffset="0" style="mix-blend-mode: normal"><path d="M253.20292,196.55351c3.2147,0 6.1268,1.3048 8.236,3.414c2.1092,2.1092 3.414,5.0214 3.414,8.2361c0,3.2146 -1.3048,6.1268 -3.41399,8.236c-2.1092,2.1092 -5.0213,3.414 -8.236,3.414c-3.2147,0 -6.1268,-1.3048 -8.236,-3.414c-2.1092,-2.1092 -3.414,-5.0214 -3.414,-8.236c0,-3.2147 1.3048,-6.1269 3.414,-8.2361c2.1092,-2.1092 5.0213,-3.414 8.236,-3.414z" fill="none" stroke="#ffffff" stroke-width="2.8677"/><path d="M253.35418,200.78024c2.001,0 3.8135,0.812 5.12569,2.12419c1.31231,1.31231 2.12431,3.12481 2.12431,5.12581c0,2.001 -0.812,3.8135 -2.12431,5.12569c-1.31219,1.31231 -3.12469,2.12431 -5.12569,2.12431c-2.001,0 -3.8135,-0.812 -5.12569,-2.12431c-1.31231,-1.31219 -2.12431,-3.12469 -2.12431,-5.12569c0,-2.001 0.812,-3.8135 2.12431,-5.12581c1.31219,-1.31219 3.12469,-2.12419 5.12569,-2.12419z" fill="#7733ff" stroke="none" stroke-width="1.4375"/><path d="M256.16366,202.40994c0.53033,0.53033 0,1.06066 0,1.06066l-0.33333,0.33333c-0.56208,0.54221 -2.92794,2.73954 -4.40925,3.71848c1.33509,-0.00618 2.59861,-0.02853 3.87892,0.13235v-0.13116l1,0c0.41421,0 0.75,0.33579 0.75,0.75c0,0.20711 -0.08395,0.39461 -0.21967,0.53033l-0.57249,0.57249c-0.48876,1.50005 -1.6902,3.31764 -2.76085,4.42751c0,0 -0.53033,0.53033 -1.06066,0c-0.53033,-0.53033 0,-1.06066 0,-1.06066c0.912,-0.86571 1.83265,-2.39197 2.36678,-3.69138c-1.11363,0.28793 -2.91965,-0.02829 -3.83645,-0.02829l-1.33333,0c0,0 0,0 0,0c0,0 0,0 0,0c-0.41421,0 -0.75,-0.33579 -0.75,-0.75c0,-0.20711 0.08395,-0.39461 0.21967,-0.53033l0.66667,-0.66667l0.11073,0.11073c1.4512,-1.76288 3.31548,-2.78613 4.88927,-4.44407l0.33333,-0.33333c0,0 0.53033,-0.53033 1.06066,0z" fill="#ffffff" stroke="none" stroke-width="0.5"/></g></g></svg>