<svg version="1.1" xmlns="http://www.w3.org/2000/svg" xmlns:xlink="http://www.w3.org/1999/xlink" width="18.25" height="18.25" viewBox="0,0,18.25,18.25"><g transform="translate(-244,-198.75)"><g data-paper-data="{&quot;isPaintingLayer&quot;:true}" fill-rule="nonzero" stroke-linecap="butt" stroke-linejoin="miter" stroke-miterlimit="10" stroke-dasharray="" stroke-dashoffset="0" style="mix-blend-mode: normal"><path d="M253.125,199.75c2.242,0 4.273,0.91 5.744,2.381c1.471,1.471 2.381,3.502 2.381,5.744c0,2.242 -0.91,4.273 -2.381,5.744c-1.471,1.471 -3.502,2.381 -5.744,2.381c-2.242,0 -4.273,-0.91 -5.744,-2.381c-1.471,-1.471 -2.381,-3.502 -2.381,-5.744c0,-2.242 0.91,-4.273 2.381,-5.744c1.471,-1.471 3.502,-2.381 5.744,-2.381z" fill="none" stroke="#ffffff" stroke-width="2"/><path d="M253.05,203.8c1.104,0 2.104,0.448 2.828,1.172c0.724,0.724 1.172,1.724 1.172,2.828c0,1.104 -0.448,2.104 -1.172,2.828c-0.724,0.724 -1.724,1.172 -2.828,1.172c-1.104,0 -2.104,-0.448 -2.828,-1.172c-0.724,-0.724 -1.172,-1.724 -1.172,-2.828c0,-1.104 0.448,-2.104 1.172,-2.828c0.724,-0.724 1.724,-1.172 2.828,-1.172z" fill="#00b9ff" stroke="none" stroke-width="1"/></g></g></svg>