<svg version="1.1" xmlns="http://www.w3.org/2000/svg" xmlns:xlink="http://www.w3.org/1999/xlink" width="163.90201" height="27.3429" viewBox="0,0,163.90201,27.3429"><defs><linearGradient x1="251.28385" y1="174.83045" x2="248.8788" y2="179.94717" gradientUnits="userSpaceOnUse" id="color-1"><stop offset="0" stop-color="#ffffff"/><stop offset="1" stop-color="#cacaca"/></linearGradient><linearGradient x1="228.44681" y1="175.69988" x2="230.5576" y2="180.59326" gradientUnits="userSpaceOnUse" id="color-2"><stop offset="0" stop-color="#ffffff"/><stop offset="1" stop-color="#cacaca"/></linearGradient><linearGradient x1="232.42283" y1="170.06827" x2="230.81504" y2="176.9225" gradientUnits="userSpaceOnUse" id="color-3"><stop offset="0" stop-color="#ffffff"/><stop offset="1" stop-color="#cacaca"/></linearGradient><linearGradient x1="247.29439" y1="169.90314" x2="249.0126" y2="176.73051" gradientUnits="userSpaceOnUse" id="color-4"><stop offset="0" stop-color="#ffffff"/><stop offset="1" stop-color="#cacaca"/></linearGradient><linearGradient x1="240" y1="169.4044" x2="240" y2="190.5956" gradientUnits="userSpaceOnUse" id="color-5"><stop offset="0" stop-color="#f32b4e"/><stop offset="1" stop-color="#bc1016"/></linearGradient><linearGradient x1="231.34789" y1="176.98224" x2="237.92972" y2="177.60879" gradientUnits="userSpaceOnUse" id="color-6"><stop offset="0" stop-color="#deca00"/><stop offset="1" stop-color="#e6df97"/></linearGradient><linearGradient x1="242.24749" y1="177.50794" x2="248.8053" y2="177.50794" gradientUnits="userSpaceOnUse" id="color-7"><stop offset="0" stop-color="#e6df97"/><stop offset="1" stop-color="#deca00"/></linearGradient><linearGradient x1="233.76972" y1="184.23595" x2="233.76972" y2="186.56912" gradientUnits="userSpaceOnUse" id="color-8"><stop offset="0" stop-color="#ffffff"/><stop offset="1" stop-color="#cacaca"/></linearGradient><linearGradient x1="236.57064" y1="184.20373" x2="236.57064" y2="186.5369" gradientUnits="userSpaceOnUse" id="color-9"><stop offset="0" stop-color="#ffffff"/><stop offset="1" stop-color="#cacaca"/></linearGradient><linearGradient x1="239.68153" y1="183.92597" x2="239.68153" y2="186.25914" gradientUnits="userSpaceOnUse" id="color-10"><stop offset="0" stop-color="#ffffff"/><stop offset="1" stop-color="#cacaca"/></linearGradient><linearGradient x1="242.48244" y1="183.9493" x2="242.48244" y2="186.28247" gradientUnits="userSpaceOnUse" id="color-11"><stop offset="0" stop-color="#ffffff"/><stop offset="1" stop-color="#cacaca"/></linearGradient><linearGradient x1="246.12625" y1="184.4042" x2="245.27917" y2="186.57816" gradientUnits="userSpaceOnUse" id="color-12"><stop offset="0" stop-color="#ffffff"/><stop offset="1" stop-color="#cacaca"/></linearGradient><linearGradient x1="233.88168" y1="183.79088" x2="233.6378" y2="181.47049" gradientUnits="userSpaceOnUse" id="color-13"><stop offset="0" stop-color="#ffffff"/><stop offset="1" stop-color="#cacaca"/></linearGradient><linearGradient x1="236.39672" y1="183.83364" x2="236.98658" y2="181.57626" gradientUnits="userSpaceOnUse" id="color-14"><stop offset="0" stop-color="#ffffff"/><stop offset="1" stop-color="#cacaca"/></linearGradient><linearGradient x1="239.59376" y1="183.81057" x2="239.59376" y2="181.78439" gradientUnits="userSpaceOnUse" id="color-15"><stop offset="0" stop-color="#ffffff"/><stop offset="1" stop-color="#cacaca"/></linearGradient><linearGradient x1="242.77836" y1="183.77411" x2="242.40157" y2="181.47157" gradientUnits="userSpaceOnUse" id="color-16"><stop offset="0" stop-color="#ffffff"/><stop offset="1" stop-color="#cacaca"/></linearGradient><linearGradient x1="246.13626" y1="183.5994" x2="245.95646" y2="181.27317" gradientUnits="userSpaceOnUse" id="color-17"><stop offset="0" stop-color="#ffffff"/><stop offset="1" stop-color="#cacaca"/></linearGradient></defs><g transform="translate(-226.65549,-167.42779)"><g data-paper-data="{&quot;isPaintingLayer&quot;:true}" fill-rule="nonzero" stroke="#000000" stroke-linejoin="miter" stroke-miterlimit="10" stroke-dasharray="" stroke-dashoffset="0" style="mix-blend-mode: normal"><path d="M248.80682,174.94061c0,0 1.39778,0.69552 2.09163,0.6389c0.68338,-0.05577 1.95042,-0.30583 1.95042,-0.30583c0,0 -0.16647,1.86209 -0.60838,2.67343c-0.4685,0.86015 -2.1275,2.3496 -2.1275,2.3496z" data-paper-data="{&quot;index&quot;:null}" fill="url(#color-1)" stroke-width="0.5" stroke-linecap="round"/><path d="M229.3518,181.11338c0,0 -1.54009,-1.297 -1.9569,-2.11107c-0.39315,-0.76788 -0.4771,-2.64288 -0.4771,-2.64288c0,0 1.2128,0.0864 1.87019,0.05239c0.66745,-0.03452 2.04543,-0.92888 2.04543,-0.92888z" fill="url(#color-2)" stroke-width="0.5" stroke-linecap="round"/><path d="M230.05799,176.8494c0,0 -1.61214,-3.08309 -1.39551,-4.27059c0.20434,-1.1201 0.94713,-4.26748 0.94713,-4.26748c0,0 2.07406,2.34302 2.6057,2.77867c0.53979,0.44233 2.19961,0.45794 2.19961,0.45794z" fill="url(#color-3)" stroke-width="0.5" stroke-linecap="round"/><path d="M245.32646,171.41476c0,0 1.65935,-0.0424 2.19193,-0.49338c0.52455,-0.44418 2.5357,-2.919 2.5357,-2.919c0,0 0.64585,3.38191 0.86824,4.49857c0.23577,1.18385 -1.1902,4.62539 -1.1902,4.62539z" data-paper-data="{&quot;index&quot;:null}" fill="url(#color-4)" stroke-width="0.5" stroke-linecap="round"/><path d="M229.40439,180c0,-5.85179 4.74382,-10.59561 10.59561,-10.59561c5.85179,0 10.59561,4.74382 10.59561,10.59561c0,5.85179 -4.74382,10.59561 -10.59561,10.59561c-5.85179,0 -10.59561,-4.74382 -10.59561,-10.59561z" fill="url(#color-5)" stroke-width="0.5" stroke-linecap="butt"/><path d="M232.9363,175.19163c0.50652,0.4574 1.25557,1.8833 1.7316,2.31317c0.47617,0.43001 3.31427,1.50378 3.0808,1.89327c-0.22762,0.37973 -2.93973,0.36369 -3.55005,0.23082c-0.47529,-0.10345 -2.65072,0.21936 -3.05058,-0.22514c-0.47379,-0.52668 1.41769,-4.54675 1.78823,-4.21214z" fill="url(#color-6)" stroke-width="0.5" stroke-linecap="round"/><path d="M248.79557,179.10057c-0.43772,0.44095 -2.29673,0.47971 -2.81294,0.57898c-0.66288,0.12747 -3.47546,0.14133 -3.71858,-0.24038c-0.24937,-0.39154 3.01454,-1.49572 3.53483,-1.92152c0.52014,-0.42565 1.16876,-1.78938 1.72221,-2.2423c0.20953,-0.17146 0.81919,0.80809 1.09269,1.84236c0.25501,0.96432 0.18177,1.98285 0.18177,1.98285z" data-paper-data="{&quot;index&quot;:null}" fill="url(#color-7)" stroke-width="0.5" stroke-linecap="round"/><text transform="translate(253.06531,187.13789) scale(0.5,0.5)" font-size="40" xml:space="preserve" fill="#ffffff" fill-rule="nonzero" stroke="#000000" stroke-width="1" stroke-linecap="butt" stroke-linejoin="miter" stroke-miterlimit="10" stroke-dasharray="" stroke-dashoffset="0" font-family="Marker" font-weight="normal" text-anchor="start" style="mix-blend-mode: normal"><tspan x="0" dy="0">Insane Demon</tspan></text><path d="M231.76373,184.20242c0,-0.38006 -0.11483,-1.94511 0.23337,-2.4589c0.53653,-0.79169 1.70661,-0.49767 2.46624,-0.49767c0.83544,0 2.01779,0.74844 3.79448,0.74844c1.68304,0 3.50884,-0.2436 5.25358,-0.3822c1.84883,-0.14686 2.82464,-0.55776 3.70323,-0.45636c0.42151,0.04865 1.39881,1.83273 1.39881,2.74731c0,0.97617 -0.6938,2.69382 -1.42022,2.69382c-0.44194,0 -1.98079,-0.41513 -2.99887,-0.41513c-0.87649,0 -3.10182,-0.11321 -4.1551,-0.06744c-1.96031,0.08518 -3.78956,0.23538 -5.26907,0.21907c-0.94069,-0.01036 -1.96235,0.33674 -2.49059,-0.10486c-0.48522,-0.40564 -0.51587,-1.582 -0.51587,-2.02609z" fill="#000000" stroke-width="0.35" stroke-linecap="butt"/><path d="M232.49203,186.34692c0,0 0,-0.69853 0,-1.11103c0,-0.35724 0.54637,-0.99993 0.88883,-0.99993c0.23246,0 0.64399,0 0.99993,0c0.36207,0 0.66662,0.35577 0.66662,0.61107c0,0.42858 0,1.38879 0,1.38879z" fill="url(#color-8)" stroke-width="0.35" stroke-linecap="butt"/><path d="M235.23739,186.20359c0,0 0.05556,-0.96021 0.05556,-1.38879c0,-0.2553 0.30455,-0.61107 0.66662,-0.61107c0.35594,0 0.76747,0 0.99993,0c0.34245,0 0.88883,0.64269 0.88883,0.99993c0,0.4125 0.05555,0.94438 0.05555,0.94438z" data-paper-data="{&quot;index&quot;:null}" fill="url(#color-9)" stroke-width="0.35" stroke-linecap="butt"/><path d="M238.40384,186.03694c0,0 0,-0.69853 0,-1.11103c0,-0.35724 0.54637,-0.99993 0.88883,-0.99993c0.23246,0 0.64399,0 0.99993,0c0.36207,0 0.66662,0.35577 0.66662,0.61107c0,0.42858 0,1.38879 0,1.38879z" fill="url(#color-10)" stroke-width="0.35" stroke-linecap="butt"/><path d="M241.1492,185.89361c0,0 0.05555,-0.53187 0.05555,-0.94438c0,-0.35724 0.54637,-0.99993 0.88883,-0.99993c0.23246,0 0.64399,0 0.99993,0c0.36207,0 0.66662,0.35577 0.66662,0.61107c0,0.42858 0.05556,1.38879 0.05556,1.38879z" data-paper-data="{&quot;index&quot;:null}" fill="url(#color-11)" stroke-width="0.35" stroke-linecap="butt"/><path d="M244.16933,185.90723c0,0 0.25361,-0.65086 0.40338,-1.03522c0.1297,-0.33287 0.87213,-0.73333 1.19122,-0.609c0.21659,0.0844 0.60004,0.23382 0.9317,0.36304c0.33737,0.13146 0.49197,0.57351 0.39927,0.81139c-0.15561,0.39934 -0.50422,0.90517 -0.50422,0.90517z" fill="url(#color-12)" stroke-width="0.35" stroke-linecap="butt"/><path d="M234.94333,181.66842c0,0 0.10037,0.95495 0.14517,1.38118c0.02669,0.2539 -0.239,0.63955 -0.5991,0.6774c-0.35399,0.0372 -0.76327,0.08023 -0.99445,0.10452c-0.34058,0.0358 -0.95114,-0.54626 -0.98848,-0.90154c-0.04312,-0.41024 -0.11614,-1.10494 -0.11614,-1.10494z" data-paper-data="{&quot;index&quot;:null}" fill="url(#color-13)" stroke-width="0.35" stroke-linecap="butt"/><path d="M238.1782,182.28955c0,0 -0.18821,0.50056 -0.2925,0.89966c-0.09032,0.34564 -0.78142,0.82931 -1.11275,0.74274c-0.22491,-0.05877 -0.62308,-0.16281 -0.96745,-0.2528c-0.35031,-0.09154 -0.55502,-0.51274 -0.49048,-0.75975c0.10835,-0.41466 0.29735,-1.35772 0.29735,-1.35772z" data-paper-data="{&quot;index&quot;:null}" fill="url(#color-14)" stroke-width="0.35" stroke-linecap="butt"/><path d="M240.87145,182.07385c0,0 0,0.83386 0,1.20606c0,0.22171 -0.30455,0.53066 -0.66662,0.53066c-0.35594,0 -0.76747,0 -0.99993,0c-0.34245,0 -0.88883,-0.55812 -0.88883,-0.86836c0,-0.35823 0,-0.96485 0,-0.96485z" data-paper-data="{&quot;index&quot;:null}" fill="url(#color-15)" stroke-width="0.35" stroke-linecap="butt"/><path d="M243.77115,181.5852c0,0 0.10024,0.95658 0.16945,1.37953c0.04123,0.25195 -0.20187,0.65223 -0.55919,0.7107c-0.35127,0.05748 -0.7574,0.12393 -0.98681,0.16148c-0.33796,0.0553 -0.98095,-0.49071 -1.03864,-0.84326c-0.06662,-0.40709 -0.20733,-0.92301 -0.20733,-0.92301z" data-paper-data="{&quot;index&quot;:null}" fill="url(#color-16)" stroke-width="0.35" stroke-linecap="butt"/><path d="M247.25603,181.50702c0,0 0.074,0.95735 0.10703,1.38466c0.01968,0.25455 -0.25653,0.63272 -0.61754,0.66062c-0.35488,0.02743 -0.76519,0.05915 -0.99696,0.07707c-0.34144,0.02639 -0.93572,-0.57228 -0.96325,-0.92846c-0.03179,-0.41128 -0.08563,-1.10773 -0.08563,-1.10773z" data-paper-data="{&quot;index&quot;:null}" fill="url(#color-17)" stroke-width="0.35" stroke-linecap="butt"/></g></g></svg>