<svg version="1.1" xmlns="http://www.w3.org/2000/svg" xmlns:xlink="http://www.w3.org/1999/xlink" width="26.38156" height="23.80032" viewBox="0,0,26.38156,23.80032"><g transform="translate(-225.6841,-168.33567)"><g data-paper-data="{&quot;isPaintingLayer&quot;:true}" fill-rule="nonzero" stroke="#000000" stroke-width="0.5" stroke-linejoin="miter" stroke-miterlimit="10" stroke-dasharray="" stroke-dashoffset="0" style="mix-blend-mode: normal"><path d="M229.86889,184.89271l7.60889,-2.88242l0.90075,2.37777l-7.60892,2.8824z" fill="#00bf19" stroke-linecap="butt"/><path d="M235.0758,178.59405c0.17332,-1.57533 1.59088,-2.71188 3.16621,-2.53855c1.57533,0.17332 2.71188,1.59088 2.53855,3.16621c-0.11253,1.02284 -0.43652,3.00081 -1.40177,4.33344c-0.52137,0.71982 -1.54564,1.29882 -2.09811,1.23803c-0.48437,-0.0533 -1.28852,-0.92652 -1.61988,-1.59009c-0.7463,-1.49455 -0.70502,-3.51806 -0.585,-4.60902z" fill="#00b6bf" stroke-linecap="butt"/><path d="M234.31864,190.32744l-1.11501,1.4581l-7.16907,-5.48217l1.30086,-1.70112l2.94044,-0.54364l2.58882,1.97966z" fill="#00b6bf" stroke-linecap="round"/><path d="M233.30537,180.69629l0.44341,-12.10163l18.0579,0.66165l-0.44341,12.10163z" fill="#00f2ff" stroke-linecap="butt"/><path d="M233.30093,180.71335l0.17672,-4.82311l1.37985,0.25428l1.80945,-1.51276l1.285,0.16497l2.19058,-1.7113l2.44132,2.5475l2.80023,0.33684l1.98573,1.22527l4.19339,-1.30072l-0.19982,5.4534z" fill="#00ff21" stroke-linecap="round"/><path d="M246.3023,173.4639c0.03487,-0.95173 0.83466,-1.69499 1.7864,-1.66012c0.95173,0.03487 1.69499,0.83466 1.66012,1.7864c-0.03487,0.95173 -0.83466,1.69499 -1.7864,1.66012c-0.95173,-0.03487 -1.69499,-0.83466 -1.66012,-1.7864z" fill="#00ff21" stroke-linecap="butt"/><path d="M239.6753,188.65226l-0.30952,-8.13067l2.54084,-0.09671l0.30952,8.13067z" fill="#00ff21" stroke-linecap="butt"/><path d="M235.67463,181.15276c-1.3199,-0.87725 -1.67873,-2.65838 -0.80148,-3.97828c0.87725,-1.3199 2.65838,-1.67874 3.97827,-0.80149c0.85699,0.56959 2.4654,1.76554 3.20612,3.23489c0.40009,0.79365 0.44419,1.9694 0.13653,2.4323c-0.26973,0.40585 -1.41469,0.7193 -2.15632,0.709c-1.67036,-0.02321 -3.44905,-0.98892 -4.3631,-1.59643z" fill="#00f2ff" stroke-linecap="butt"/><path d="M247.01828,187.62022l0.40478,1.7904l-8.80279,1.99014l-0.47223,-2.0888l1.46707,-2.60565l3.17879,-0.71866z" fill="#00f2ff" stroke-linecap="round"/></g></g></svg>