<svg version="1.1" xmlns="http://www.w3.org/2000/svg" xmlns:xlink="http://www.w3.org/1999/xlink" width="28.97931" height="23.16435" viewBox="0,0,28.97931,23.16435"><g transform="translate(-224.81915,-167.53286)"><g data-paper-data="{&quot;isPaintingLayer&quot;:true}" fill-rule="nonzero" stroke-width="0.5" stroke-linejoin="miter" stroke-miterlimit="10" stroke-dasharray="" stroke-dashoffset="0" style="mix-blend-mode: normal"><path d="M238.84522,181.86169c-0.46753,-0.94432 -0.80938,-2.42265 -0.80938,-2.42265c0,0 0.53359,-0.67665 1.19956,-1.30648c0.45149,-0.42699 1.09903,-0.60555 1.5472,-0.76408c0.5009,-0.17718 1.1429,-0.3101 1.69127,-0.22582c0.63626,0.09779 1.14241,0.26748 1.14241,0.26748c0,0 0.81205,1.52084 0.89897,2.66766c0.13839,1.82588 0.53805,7.09932 0.53805,7.09932c0,0 -0.968,0.89189 -1.512,1.08431c-0.45416,0.16065 -1.53142,-0.00777 -1.53142,-0.00777c0,0 -2.37811,-4.8033 -3.16466,-6.39196z" data-paper-data="{&quot;index&quot;:null}" fill="#00b0ba" stroke="#000000" stroke-linecap="butt"/><path d="M238.21769,188.8699c0,0 -1.08738,0.08034 -1.52699,-0.11668c-0.52658,-0.23599 -1.4189,-1.20358 -1.4189,-1.20358c0,0 0.82681,-5.22354 1.11308,-7.03214c0.17981,-1.13596 1.11274,-2.5858 1.11274,-2.5858c0,0 0.51828,-0.128 1.16037,-0.17377c0.5534,-0.03945 1.18249,0.14519 1.66734,0.36248c0.43381,0.19442 1.0647,0.425 1.48001,0.88727c0.6126,0.68186 1.08943,1.39962 1.08943,1.39962c0,0 -0.46082,1.44567 -1.00353,2.34889c-0.91303,1.5195 -3.67354,6.1137 -3.67354,6.1137z" fill="#00b0ba" stroke="#000000" stroke-linecap="butt"/><path d="M227.77341,182.49137l-0.95485,-4.45752l9.92811,-2.12671l0.95485,4.45752z" fill="#00b0ba" stroke="#000000" stroke-linecap="butt"/><path d="M227.4903,189.41109c-0.56966,-0.09199 -1.68161,-0.79628 -1.68161,-0.79628c0,0 -0.55035,-5.25986 -0.7409,-7.08103c-0.11968,-1.14386 0.40714,-2.78546 0.40714,-2.78546c0,0 0.46763,-0.25751 1.07612,-0.46756c0.52444,-0.18104 1.17987,-0.16515 1.70439,-0.08045c0.4693,0.07578 1.13835,0.1356 1.65895,0.47492c0.76791,0.50051 1.41396,1.07077 1.41396,1.07077c0,0 -0.0718,1.51564 -0.36283,2.52839c-0.4896,1.70376 -1.9699,6.85505 -1.9699,6.85505c0,0 -1.02974,0.35845 -1.50532,0.28165z" fill="#00f2ff" stroke="#000000" stroke-linecap="butt"/><path d="M239.75156,183.40786l-11.85806,-15.625h25.625l-1.375,12.125l-3.4375,3.4375z" fill="#00e8f5" stroke="#000000" stroke-linecap="round"/><path d="M248.59714,167.90057v15.48902l-8.41795,0.0518l-0.0518,-5.98321l-3.54849,-3.54849v-6.06092z" fill="#00f2ff" stroke="#00d9e4" stroke-linecap="round"/><path d="M245.54077,174.71264c0,-1.70229 1.37998,-3.08226 3.08226,-3.08226c1.70229,0 3.08226,1.37998 3.08226,3.08226c0,1.70229 -1.37998,3.08226 -3.08226,3.08226c-1.70229,0 -3.08226,-1.37998 -3.08226,-3.08226z" fill="#00ff22" stroke="#000000" stroke-linecap="butt"/><path d="M239.76394,183.42925l-11.90986,-15.625h25.625l-1.375,12.125l-3.4375,3.4375z" fill="none" stroke="#000000" stroke-linecap="round"/><path d="M247.65463,190.45813c-0.55498,0.158 -1.86058,-0.0089 -1.86058,-0.0089c0,0 -2.72681,-4.5314 -3.67092,-6.10034c-0.59299,-0.98545 -0.81123,-2.69564 -0.81123,-2.69564c0,0 0.3145,-0.43137 0.7767,-0.87942c0.39835,-0.38616 0.99881,-0.64942 1.50981,-0.79492c0.45721,-0.13017 1.08859,-0.35942 1.70392,-0.2726c0.90764,0.12805 1.73443,0.37092 1.73443,0.37092c0,0 0.57704,1.40333 0.74247,2.444c0.27828,1.75074 1.11968,7.04405 1.11968,7.04405c0,0 -0.78094,0.76094 -1.24428,0.89285z" fill="#00f2ff" stroke="#000000" stroke-linecap="butt"/></g></g></svg>