<svg version="1.1" xmlns="http://www.w3.org/2000/svg" xmlns:xlink="http://www.w3.org/1999/xlink" width="24.82275" height="28.01832" viewBox="0,0,24.82275,28.01832"><g transform="translate(-227.52619,-164.1814)"><g data-paper-data="{&quot;isPaintingLayer&quot;:true}" fill-rule="nonzero" stroke="#080807" stroke-linejoin="miter" stroke-miterlimit="10" stroke-dasharray="" stroke-dashoffset="0" style="mix-blend-mode: normal"><path d="M228.02354,188.53588l23.918,-0.04774v3.46157h-23.918z" fill="#080807" stroke-width="0.5" stroke-linecap="round"/><path d="M228.74864,190.92366l-0.9678,-16.01267c0,0 0.99511,-1.47829 3.22601,-2.41116c2.63652,-1.10248 6.71985,-1.68749 8.91594,-1.6795c1.74252,0.00633 4.95029,0.35623 7.22492,1.24743c2.96013,1.15979 4.82809,2.93122 4.82809,2.93122l-1.14376,15.57276" fill="#000000" stroke-width="0.5" stroke-linecap="round"/><path d="M229.82448,175.17017l-1.66036,-8.8601l7.30567,5.28066z" fill="#000000" stroke-width="0.5" stroke-linecap="butt"/><path d="M245.7455,171.9277l6.24989,-5.28066l-1.42041,8.8601z" data-paper-data="{&quot;index&quot;:null}" fill="#000000" stroke-width="0.5" stroke-linecap="butt"/><path d="M240.49346,173.19751l4.05796,-7.10489l1.70665,8.80944z" data-paper-data="{&quot;index&quot;:null}" fill="#000000" stroke-width="0.5" stroke-linecap="butt"/><path d="M235.34599,172.95823l1.34469,-8.07083l4.65343,7.67232z" data-paper-data="{&quot;index&quot;:null}" fill="#000000" stroke-width="0.5" stroke-linecap="butt"/><path d="M232.96895,180.93421c0,-1.38484 1.12264,-2.50748 2.50748,-2.50748c1.38484,0 2.50748,1.12264 2.50748,2.50748c0,1.38484 -1.12264,2.50748 -2.50748,2.50748c-1.38484,0 -2.50748,-1.12264 -2.50748,-2.50748z" fill="#ffffff" stroke-width="0" stroke-linecap="butt"/><path d="M242.0161,180.91926c0,-1.38484 1.12264,-2.50748 2.50748,-2.50748c1.38484,0 2.50748,1.12264 2.50748,2.50748c0,1.38484 -1.12264,2.50748 -2.50748,2.50748c-1.38484,0 -2.50748,-1.12264 -2.50748,-2.50748z" fill="#ffffff" stroke-width="0" stroke-linecap="butt"/></g></g></svg>