<svg version="1.1" xmlns="http://www.w3.org/2000/svg" xmlns:xlink="http://www.w3.org/1999/xlink" width="24.87841" height="20.70293" viewBox="0,0,24.87841,20.70293"><g transform="translate(-227.45112,-171.49678)"><g data-paper-data="{&quot;isPaintingLayer&quot;:true}" fill-rule="nonzero" stroke-linejoin="miter" stroke-miterlimit="10" stroke-dasharray="" stroke-dashoffset="0" style="mix-blend-mode: normal"><path d="M228.02353,188.53588l23.918,-0.04774v3.46157h-23.918z" fill="#080807" stroke="#080807" stroke-width="0.5" stroke-linecap="round"/><path d="M251.09598,188.56107l0.9678,-6.77459c0,0 -1.86796,-1.77143 -4.82809,-2.93122c-2.27463,-0.8912 -5.4824,-1.2411 -7.22492,-1.24743c-2.19609,-0.00799 -6.27942,0.57702 -8.91594,1.6795c-2.2309,0.93287 -3.22601,2.41116 -3.22601,2.41116l1.14376,7.2145" fill="#000000" stroke="#080807" stroke-width="0.5" stroke-linecap="round"/><path d="M229.47255,182.48556l-1.66036,-8.8601l7.30567,5.28066z" fill="#000000" stroke="#080807" stroke-width="0.5" stroke-linecap="butt"/><path d="M245.39357,179.24309l6.24989,-5.28066l-1.42041,8.8601z" data-paper-data="{&quot;index&quot;:null}" fill="#000000" stroke="#080807" stroke-width="0.5" stroke-linecap="butt"/><path d="M240.14153,180.5129l4.05796,-7.10489l1.70665,8.80944z" data-paper-data="{&quot;index&quot;:null}" fill="#000000" stroke="#080807" stroke-width="0.5" stroke-linecap="butt"/><path d="M234.99406,180.27362l1.34469,-8.07083l4.65343,7.67232z" data-paper-data="{&quot;index&quot;:null}" fill="#000000" stroke="#080807" stroke-width="0.5" stroke-linecap="butt"/><path d="M232.88377,184.99781c0,-1.38484 1.12264,-2.50748 2.50748,-2.50748c1.38484,0 2.50748,1.12264 2.50748,2.50748c0,1.38484 -1.12264,2.50748 -2.50748,2.50748c-1.38484,0 -2.50748,-1.12264 -2.50748,-2.50748z" fill="#ffffff" stroke="#080807" stroke-width="0" stroke-linecap="butt"/><path d="M241.93092,184.98286c0,-1.38484 1.12264,-2.50748 2.50748,-2.50748c1.38484,0 2.50748,1.12264 2.50748,2.50748c0,1.38484 -1.12264,2.50748 -2.50748,2.50748c-1.38484,0 -2.50748,-1.12264 -2.50748,-2.50748z" fill="#ffffff" stroke="#080807" stroke-width="0" stroke-linecap="butt"/></g></g></svg>