<svg version="1.1" xmlns="http://www.w3.org/2000/svg" xmlns:xlink="http://www.w3.org/1999/xlink" width="171.2997" height="27.59615" viewBox="0,0,171.2997,27.59615"><defs><linearGradient x1="213.42907" y1="169.89779" x2="215.78078" y2="174.43077" gradientUnits="userSpaceOnUse" id="color-1"><stop offset="0" stop-color="#ffffff"/><stop offset="1" stop-color="#cacaca"/></linearGradient><linearGradient x1="205.92145" y1="170.13529" x2="203.56975" y2="174.66828" gradientUnits="userSpaceOnUse" id="color-2"><stop offset="0" stop-color="#ffffff"/><stop offset="1" stop-color="#cacaca"/></linearGradient><linearGradient x1="221.10236" y1="176.6185" x2="218.69731" y2="181.73522" gradientUnits="userSpaceOnUse" id="color-3"><stop offset="0" stop-color="#ffffff"/><stop offset="1" stop-color="#cacaca"/></linearGradient><linearGradient x1="198.26532" y1="177.48793" x2="200.37611" y2="182.38131" gradientUnits="userSpaceOnUse" id="color-4"><stop offset="0" stop-color="#ffffff"/><stop offset="1" stop-color="#cacaca"/></linearGradient><linearGradient x1="202.24134" y1="171.85632" x2="200.63355" y2="178.71055" gradientUnits="userSpaceOnUse" id="color-5"><stop offset="0" stop-color="#ffffff"/><stop offset="1" stop-color="#cacaca"/></linearGradient><linearGradient x1="217.1129" y1="171.69119" x2="218.83111" y2="178.51856" gradientUnits="userSpaceOnUse" id="color-6"><stop offset="0" stop-color="#ffffff"/><stop offset="1" stop-color="#cacaca"/></linearGradient><linearGradient x1="209.81851" y1="171.19245" x2="209.81851" y2="192.38365" gradientUnits="userSpaceOnUse" id="color-7"><stop offset="0" stop-color="#f32b4e"/><stop offset="1" stop-color="#bc1016"/></linearGradient><linearGradient x1="201.1664" y1="178.77029" x2="207.74823" y2="179.39684" gradientUnits="userSpaceOnUse" id="color-8"><stop offset="0" stop-color="#de8b00"/><stop offset="1" stop-color="#e6cc97"/></linearGradient><linearGradient x1="212.06899" y1="179.29599" x2="218.6238" y2="179.29599" gradientUnits="userSpaceOnUse" id="color-9"><stop offset="0" stop-color="#e6cc97"/><stop offset="1" stop-color="#de8b00"/></linearGradient><linearGradient x1="203.18374" y1="187.22329" x2="203.18374" y2="190.42114" gradientUnits="userSpaceOnUse" id="color-10"><stop offset="0" stop-color="#ffffff"/><stop offset="1" stop-color="#cacaca"/></linearGradient><linearGradient x1="206.07077" y1="187.17913" x2="206.07077" y2="190.37698" gradientUnits="userSpaceOnUse" id="color-11"><stop offset="0" stop-color="#ffffff"/><stop offset="1" stop-color="#cacaca"/></linearGradient><linearGradient x1="209.2773" y1="186.79843" x2="209.2773" y2="189.99628" gradientUnits="userSpaceOnUse" id="color-12"><stop offset="0" stop-color="#ffffff"/><stop offset="1" stop-color="#cacaca"/></linearGradient><linearGradient x1="212.16432" y1="186.83041" x2="212.16432" y2="190.02826" gradientUnits="userSpaceOnUse" id="color-13"><stop offset="0" stop-color="#ffffff"/><stop offset="1" stop-color="#cacaca"/></linearGradient><linearGradient x1="216.02386" y1="187.45389" x2="215.15074" y2="190.43353" gradientUnits="userSpaceOnUse" id="color-14"><stop offset="0" stop-color="#ffffff"/><stop offset="1" stop-color="#cacaca"/></linearGradient><linearGradient x1="203.29915" y1="186.61327" x2="203.04777" y2="183.43294" gradientUnits="userSpaceOnUse" id="color-15"><stop offset="0" stop-color="#ffffff"/><stop offset="1" stop-color="#cacaca"/></linearGradient><linearGradient x1="205.89151" y1="186.67188" x2="206.4995" y2="183.57791" gradientUnits="userSpaceOnUse" id="color-16"><stop offset="0" stop-color="#ffffff"/><stop offset="1" stop-color="#cacaca"/></linearGradient><linearGradient x1="209.18683" y1="186.64026" x2="209.18683" y2="183.86317" gradientUnits="userSpaceOnUse" id="color-17"><stop offset="0" stop-color="#ffffff"/><stop offset="1" stop-color="#cacaca"/></linearGradient><linearGradient x1="212.46933" y1="186.59029" x2="212.08096" y2="183.43442" gradientUnits="userSpaceOnUse" id="color-18"><stop offset="0" stop-color="#ffffff"/><stop offset="1" stop-color="#cacaca"/></linearGradient><linearGradient x1="215.98232" y1="186.35083" x2="215.79699" y2="183.16249" gradientUnits="userSpaceOnUse" id="color-19"><stop offset="0" stop-color="#ffffff"/><stop offset="1" stop-color="#cacaca"/></linearGradient></defs><g transform="translate(-196.474,-168.57977)"><g data-paper-data="{&quot;isPaintingLayer&quot;:true}" fill-rule="nonzero" stroke="#000000" stroke-linejoin="miter" stroke-miterlimit="10" stroke-dasharray="" stroke-dashoffset="0" style="mix-blend-mode: normal"><path d="M212.64907,171.65893c0,0 0.91037,-0.56685 1.11287,-1.07467c0.19946,-0.50017 0.47822,-1.51017 0.47822,-1.51017c0,0 1.09859,1.16348 1.45076,1.92379c0.37335,0.80605 0.72949,2.7833 0.72949,2.7833z" data-paper-data="{&quot;index&quot;:null}" fill="url(#color-1)" stroke-width="0.5" stroke-linecap="round"/><path d="M202.93013,174.01868c0,0 0.35614,-1.97725 0.72949,-2.78331c0.35216,-0.76031 1.45076,-1.92379 1.45076,-1.92379c0,0 0.27876,1.01001 0.47821,1.51017c0.2025,0.50783 1.11287,1.07467 1.11287,1.07467z" fill="url(#color-2)" stroke-width="0.5" stroke-linecap="round"/><text transform="translate(222.88382,188.92592) scale(0.5,0.5)" font-size="40" xml:space="preserve" fill="#ffffff" fill-rule="nonzero" stroke="#000000" stroke-width="1" stroke-linecap="butt" stroke-linejoin="miter" stroke-miterlimit="10" stroke-dasharray="" stroke-dashoffset="0" font-family="Marker" font-weight="normal" text-anchor="start" style="mix-blend-mode: normal"><tspan x="0" dy="0">Extreme Demon</tspan></text><path d="M218.62533,176.72866c0,0 1.39778,0.69552 2.09163,0.6389c0.68338,-0.05577 1.95042,-0.30583 1.95042,-0.30583c0,0 -0.16647,1.86209 -0.60838,2.67343c-0.4685,0.86015 -2.1275,2.3496 -2.1275,2.3496z" data-paper-data="{&quot;index&quot;:null}" fill="url(#color-3)" stroke-width="0.5" stroke-linecap="round"/><path d="M199.17031,182.90143c0,0 -1.54009,-1.297 -1.9569,-2.11107c-0.39315,-0.76788 -0.4771,-2.64288 -0.4771,-2.64288c0,0 1.2128,0.0864 1.87019,0.05239c0.66745,-0.03452 2.04543,-0.92888 2.04543,-0.92888z" fill="url(#color-4)" stroke-width="0.5" stroke-linecap="round"/><path d="M199.8765,178.63745c0,0 -1.61214,-3.08309 -1.39551,-4.27059c0.20434,-1.1201 0.94713,-4.26748 0.94713,-4.26748c0,0 2.07406,2.34302 2.6057,2.77867c0.53979,0.44233 2.19961,0.45794 2.19961,0.45794z" fill="url(#color-5)" stroke-width="0.5" stroke-linecap="round"/><path d="M215.14497,173.20281c0,0 1.65935,-0.0424 2.19193,-0.49338c0.52455,-0.44418 2.5357,-2.919 2.5357,-2.919c0,0 0.64585,3.38191 0.86824,4.49857c0.23577,1.18385 -1.1902,4.62539 -1.1902,4.62539z" data-paper-data="{&quot;index&quot;:null}" fill="url(#color-6)" stroke-width="0.5" stroke-linecap="round"/><path d="M199.2229,181.78805c0,-5.85179 4.74382,-10.59561 10.59561,-10.59561c5.85179,0 10.59561,4.74382 10.59561,10.59561c0,5.85179 -4.74382,10.59561 -10.59561,10.59561c-5.85179,0 -10.59561,-4.74382 -10.59561,-10.59561z" fill="url(#color-7)" stroke-width="0.5" stroke-linecap="butt"/><path d="M202.75481,176.97968c0.50652,0.4574 1.25557,1.8833 1.7316,2.31317c0.47617,0.43001 3.31427,1.50378 3.0808,1.89327c-0.22762,0.37973 -2.93973,0.4674 -3.55005,0.33453c-0.47529,-0.10345 -2.65072,0.11565 -3.05058,-0.32885c-0.47379,-0.52668 1.41769,-4.54675 1.78823,-4.21214z" fill="url(#color-8)" stroke-width="0.5" stroke-linecap="round"/><path d="M215.80114,181.57131c-0.66288,0.12747 -3.47546,0.03762 -3.71858,-0.34409c-0.24937,-0.39154 3.01454,-1.49572 3.53483,-1.92152c0.52014,-0.42565 1.16876,-1.78938 1.72221,-2.2423c0.20953,-0.17146 0.81919,0.80809 1.09269,1.84236c0.25501,0.96432 0.18177,1.98285 0.18177,1.98285c0,0 -2.29671,0.58343 -2.81292,0.6827z" data-paper-data="{&quot;index&quot;:null}" fill="url(#color-9)" stroke-width="0.5" stroke-linecap="round"/><path d="M201.11608,187.17733c0,-0.52091 -0.11836,-2.66598 0.24054,-3.37018c0.55302,-1.08509 1.75908,-0.68211 2.54206,-0.68211c0.86112,0 2.07982,1.02582 3.91113,1.02582c1.73478,0 3.61671,-0.33388 5.41509,-0.52385c1.90567,-0.20129 2.91148,-0.76447 3.81708,-0.62549c0.43447,0.06668 1.44181,2.51195 1.44181,3.76548c0,1.33794 -0.71513,3.69216 -1.46388,3.69216c-0.45553,0 -2.04169,-0.56898 -3.09106,-0.56898c-0.90344,0 -3.19718,-0.15517 -4.28284,-0.09243c-2.02058,0.11675 -3.90606,0.32261 -5.43106,0.30026c-0.96961,-0.0142 -2.02268,0.46154 -2.56716,-0.14372c-0.50014,-0.55597 -0.53173,-2.1683 -0.53173,-2.77697z" fill="#000000" stroke-width="0.35" stroke-linecap="butt"/><path d="M201.86677,190.11659c0,0 0,-0.95741 0,-1.52278c0,-0.48963 0.56317,-1.37051 0.91616,-1.37051c0.23961,0 0.66379,0 1.03067,0c0.3732,0 0.68711,0.48762 0.68711,0.83754c0,0.58741 0,1.90348 0,1.90348z" fill="url(#color-10)" stroke-width="0.35" stroke-linecap="butt"/><path d="M204.69653,189.92015c0,0 0.05727,-1.31607 0.05727,-1.90348c0,-0.34992 0.31391,-0.83754 0.68711,-0.83754c0.36688,0 0.79106,0 1.03067,0c0.35298,0 0.91616,0.88087 0.91616,1.37051c0,0.56537 0.05726,1.29437 0.05726,1.29437z" data-paper-data="{&quot;index&quot;:null}" fill="url(#color-11)" stroke-width="0.35" stroke-linecap="butt"/><path d="M207.96033,189.69173c0,0 0,-0.95741 0,-1.52278c0,-0.48963 0.56317,-1.37051 0.91616,-1.37051c0.23961,0 0.66379,0 1.03067,0c0.3732,0 0.68711,0.48762 0.68711,0.83754c0,0.58741 0,1.90348 0,1.90348z" fill="url(#color-12)" stroke-width="0.35" stroke-linecap="butt"/><path d="M210.79009,189.49529c0,0 0.05726,-0.72898 0.05726,-1.29437c0,-0.48963 0.56317,-1.37051 0.91616,-1.37051c0.23961,0 0.66379,0 1.03067,0c0.3732,0 0.68711,0.48762 0.68711,0.83754c0,0.58741 0.05727,1.90348 0.05727,1.90348z" data-paper-data="{&quot;index&quot;:null}" fill="url(#color-13)" stroke-width="0.35" stroke-linecap="butt"/><path d="M214.00678,189.51395c0,0 0.26141,-0.89207 0.41578,-1.41888c0.13369,-0.45623 0.89894,-1.00511 1.22784,-0.8347c0.22325,0.11568 0.61849,0.32047 0.96034,0.49758c0.34774,0.18018 0.50709,0.78606 0.41154,1.11209c-0.16039,0.54734 -0.51972,1.24063 -0.51972,1.24063z" fill="url(#color-14)" stroke-width="0.35" stroke-linecap="butt"/><path d="M204.39343,183.70421c0,0 0.10346,1.30886 0.14963,1.89305c0.02751,0.348 -0.24635,0.87657 -0.61752,0.92845c-0.36487,0.05099 -0.78674,0.10996 -1.02502,0.14326c-0.35105,0.04907 -0.98038,-0.74871 -1.01887,-1.23565c-0.04445,-0.56228 -0.11971,-1.51444 -0.11971,-1.51444z" data-paper-data="{&quot;index&quot;:null}" fill="url(#color-15)" stroke-width="0.35" stroke-linecap="butt"/><path d="M207.72775,184.55554c0,0 -0.194,0.68607 -0.30149,1.23308c-0.0931,0.47374 -0.80544,1.13666 -1.14696,1.018c-0.23182,-0.08055 -0.64224,-0.22315 -0.99719,-0.34649c-0.36108,-0.12547 -0.57208,-0.70276 -0.50556,-1.04132c0.11168,-0.56833 0.30649,-1.8609 0.30649,-1.8609z" data-paper-data="{&quot;index&quot;:null}" fill="url(#color-16)" stroke-width="0.35" stroke-linecap="butt"/><path d="M210.5038,184.25991c0,0 0,1.14289 0,1.65303c0,0.30388 -0.31391,0.72733 -0.68711,0.72733c-0.36688,0 -0.79106,0 -1.03067,0c-0.35298,0 -0.91616,-0.76496 -0.91616,-1.19018c0,-0.49099 0,-1.32243 0,-1.32243z" data-paper-data="{&quot;index&quot;:null}" fill="url(#color-17)" stroke-width="0.35" stroke-linecap="butt"/><path d="M213.49265,183.59016c0,0 0.10332,1.31109 0.17466,1.89079c0.0425,0.34532 -0.20808,0.89395 -0.57638,0.97409c-0.36207,0.07878 -0.78068,0.16986 -1.01715,0.22133c-0.34835,0.07579 -1.01111,-0.67257 -1.07057,-1.15578c-0.06867,-0.55796 -0.2137,-1.26508 -0.2137,-1.26508z" data-paper-data="{&quot;index&quot;:null}" fill="url(#color-18)" stroke-width="0.35" stroke-linecap="butt"/><path d="M217.13652,183.48301c0,0 0.07627,1.31215 0.11032,1.89782c0.02029,0.34889 -0.26442,0.86721 -0.63652,0.90545c-0.36579,0.0376 -0.78871,0.08107 -1.02761,0.10563c-0.35194,0.03617 -0.96449,-0.78437 -0.99286,-1.27255c-0.03277,-0.5637 -0.08826,-1.51826 -0.08826,-1.51826z" data-paper-data="{&quot;index&quot;:null}" fill="url(#color-19)" stroke-width="0.35" stroke-linecap="butt"/></g></g></svg>