<svg version="1.1" xmlns="http://www.w3.org/2000/svg" xmlns:xlink="http://www.w3.org/1999/xlink" width="28.99835" height="23.16637" viewBox="0,0,28.99835,23.16637"><g transform="translate(-224.8001,-167.60975)"><g data-paper-data="{&quot;isPaintingLayer&quot;:true}" fill-rule="nonzero" stroke-width="0.5" stroke-linejoin="miter" stroke-miterlimit="10" stroke-dasharray="" stroke-dashoffset="0" style="mix-blend-mode: normal"><path d="M238.84522,176.44728c0.78655,-1.58866 3.16466,-6.39196 3.16466,-6.39196c0,0 1.07726,-0.16842 1.53142,-0.00777c0.544,0.19242 1.512,1.08431 1.512,1.08431c0,0 -0.39966,5.27344 -0.53805,7.09932c-0.08692,1.14682 -0.89897,2.66766 -0.89897,2.66766c0,0 -0.50615,0.16969 -1.14241,0.26748c-0.54837,0.08428 -1.19037,-0.04864 -1.69127,-0.22582c-0.44817,-0.15853 -1.09571,-0.33709 -1.5472,-0.76408c-0.66597,-0.62983 -1.19956,-1.30648 -1.19956,-1.30648c0,0 0.34185,-1.47833 0.80938,-2.42265z" data-paper-data="{&quot;index&quot;:null}" fill="#00b0ba" stroke="#000000" stroke-linecap="butt"/><path d="M238.2177,169.43909c0,0 2.76051,4.5942 3.67354,6.1137c0.54271,0.90322 1.00353,2.34889 1.00353,2.34889c0,0 -0.47683,0.71776 -1.08943,1.39962c-0.41531,0.46227 -1.0462,0.69285 -1.48001,0.88727c-0.48485,0.21729 -1.11394,0.40193 -1.66734,0.36248c-0.64209,-0.04577 -1.16037,-0.17377 -1.16037,-0.17377c0,0 -0.93293,-1.44984 -1.11274,-2.5858c-0.28627,-1.8086 -1.11308,-7.03214 -1.11308,-7.03214c0,0 0.89232,-0.96759 1.4189,-1.20358c0.43961,-0.19702 1.52699,-0.11668 1.52699,-0.11668z" data-paper-data="{&quot;index&quot;:null}" fill="#00b0ba" stroke="#000000" stroke-linecap="butt"/><path d="M237.70152,177.94432l-0.95485,4.45752l-9.92811,-2.12671l0.95485,-4.45752z" data-paper-data="{&quot;index&quot;:null}" fill="#00b0ba" stroke="#000000" stroke-linecap="butt"/><path d="M228.99562,169.17954c0,0 1.4803,5.15129 1.9699,6.85505c0.29103,1.01275 0.36283,2.52839 0.36283,2.52839c0,0 -0.64605,0.57026 -1.41396,1.07077c-0.5206,0.33932 -1.18965,0.39914 -1.65895,0.47492c-0.52452,0.0847 -1.17995,0.10059 -1.70439,-0.08045c-0.60849,-0.21005 -1.07612,-0.46756 -1.07612,-0.46756c0,0 -0.52682,-1.6416 -0.40714,-2.78546c0.19055,-1.82117 0.7409,-7.08103 0.7409,-7.08103c0,0 1.11195,-0.70429 1.68161,-0.79628c0.47558,-0.0768 1.50532,0.28165 1.50532,0.28165z" data-paper-data="{&quot;index&quot;:null}" fill="#00f2ff" stroke="#000000" stroke-linecap="butt"/><path d="M248.706,174.96362l3.4375,3.4375l1.375,12.125h-25.625l11.85806,-15.625z" data-paper-data="{&quot;index&quot;:null}" fill="#00e8f5" stroke="#000000" stroke-linecap="round"/><path d="M236.5789,190.46021v-6.06092l3.54849,-3.54849l0.0518,-5.98321l8.41795,0.0518v15.48902z" data-paper-data="{&quot;index&quot;:null}" fill="#00f2ff" stroke="#00d9e4" stroke-linecap="round"/><path d="M248.62303,180.51408c1.70228,0 3.08226,1.37997 3.08226,3.08226c0,1.70228 -1.37997,3.08226 -3.08226,3.08226c-1.70228,0 -3.08226,-1.37997 -3.08226,-3.08226c0,-1.70228 1.37997,-3.08226 3.08226,-3.08226z" data-paper-data="{&quot;index&quot;:null}" fill="#00ff22" stroke="#000000" stroke-linecap="butt"/><path d="M248.66658,174.9322l3.4375,3.4375l1.375,12.125h-25.625l11.90986,-15.625z" data-paper-data="{&quot;index&quot;:null}" fill="none" stroke="#000000" stroke-linecap="round"/><path d="M248.89891,168.7437c0,0 -0.8414,5.29331 -1.11968,7.04405c-0.16543,1.04067 -0.74247,2.444 -0.74247,2.444c0,0 -0.82679,0.24287 -1.73443,0.37092c-0.61533,0.08682 -1.24671,-0.14243 -1.70392,-0.2726c-0.511,-0.1455 -1.11146,-0.40876 -1.50981,-0.79492c-0.4622,-0.44805 -0.7767,-0.87942 -0.7767,-0.87942c0,0 0.21824,-1.71019 0.81123,-2.69564c0.94411,-1.56894 3.67092,-6.10034 3.67092,-6.10034c0,0 1.3056,-0.1669 1.86058,-0.0089c0.46334,0.13191 1.24428,0.89285 1.24428,0.89285z" data-paper-data="{&quot;index&quot;:null}" fill="#00f2ff" stroke="#000000" stroke-linecap="butt"/></g></g></svg>