<svg version="1.1" xmlns="http://www.w3.org/2000/svg" xmlns:xlink="http://www.w3.org/1999/xlink" width="46.91833" height="84.45522" viewBox="0,0,46.91833,84.45522"><defs><linearGradient x1="218.82743" y1="180.70628" x2="234.96801" y2="180.70628" gradientUnits="userSpaceOnUse" id="color-1"><stop offset="0" stop-color="#ff8800"/><stop offset="1" stop-color="#ffa742"/></linearGradient><linearGradient x1="219.46603" y1="188.52744" x2="235.6066" y2="188.52744" gradientUnits="userSpaceOnUse" id="color-2"><stop offset="0" stop-color="#ff8800"/><stop offset="1" stop-color="#ffa742"/></linearGradient><linearGradient x1="219.86252" y1="196.3486" x2="236.00308" y2="196.3486" gradientUnits="userSpaceOnUse" id="color-3"><stop offset="0" stop-color="#ff8800"/><stop offset="1" stop-color="#ffa742"/></linearGradient><linearGradient x1="221.87307" y1="203.28201" x2="238.01364" y2="203.28201" gradientUnits="userSpaceOnUse" id="color-4"><stop offset="0" stop-color="#ff8800"/><stop offset="1" stop-color="#ffa742"/></linearGradient><linearGradient x1="224.28713" y1="210.6593" x2="240.4277" y2="210.6593" gradientUnits="userSpaceOnUse" id="color-5"><stop offset="0" stop-color="#ff8800"/><stop offset="1" stop-color="#ffa742"/></linearGradient><linearGradient x1="217.91584" y1="180.90875" x2="241.17524" y2="180.90875" gradientUnits="userSpaceOnUse" id="color-6"><stop offset="0" stop-color="#ff8800"/><stop offset="1" stop-color="#ffa843"/></linearGradient><linearGradient x1="229.50713" y1="140.82933" x2="235.62101" y2="140.82933" gradientUnits="userSpaceOnUse" id="color-7"><stop offset="0" stop-color="#ff8800"/><stop offset="1" stop-color="#ffa843"/></linearGradient><linearGradient x1="229.38706" y1="219.17068" x2="235.50094" y2="219.17068" gradientUnits="userSpaceOnUse" id="color-8"><stop offset="0" stop-color="#ff8800"/><stop offset="1" stop-color="#ffa843"/></linearGradient></defs><g transform="translate(-215.16584,-137.77239)"><g data-paper-data="{&quot;isPaintingLayer&quot;:true}" fill-rule="nonzero" stroke-linecap="butt" stroke-linejoin="miter" stroke-miterlimit="10" stroke-dasharray="" stroke-dashoffset="0" style="mix-blend-mode: normal"><path d="M230.86578,218.10195v-4.07592h3.05694v4.07592z" fill="#000000" stroke="none" stroke-width="0"/><path d="M230.91552,147.50247v-4.07592h3.05693v4.07592z" fill="#000000" stroke="none" stroke-width="0"/><path d="M218.82743,183.57124v-5.72991h16.14058v5.72991z" fill="#000000" stroke="url(#color-1)" stroke-width="0"/><path d="M219.46603,191.39239v-5.72991h16.14057v5.72991z" fill="#000000" stroke="url(#color-2)" stroke-width="0"/><path d="M219.86252,199.21355v-5.72991h16.14058v5.72991z" fill="#000000" stroke="url(#color-3)" stroke-width="0"/><path d="M221.87307,206.14696v-5.72991h16.14056v5.72991z" fill="#000000" stroke="url(#color-4)" stroke-width="0"/><path d="M227.67664,214.61375l-3.38952,-7.90888h16.14058l1.69476,7.90888z" fill="#000000" stroke="url(#color-5)" stroke-width="0"/><path d="M219.95727,176.22728v-5.89131h17.18971v5.89131z" fill="#000000" stroke="none" stroke-width="0"/><path d="M220.60289,168.88332v-5.97201h17.59323v5.97201z" fill="#000000" stroke="none" stroke-width="0"/><path d="M221.00641,161.37795v-4.84217h17.27041v4.84217z" fill="#000000" stroke="none" stroke-width="0"/><path d="M224.15381,155.32524v-5.32639c0,0 6.50403,-4.11584 9.52294,-4.11584c0.91619,0 5.22113,-0.69785 7.10744,-0.4452c3.74906,0.50215 5.4015,2.86628 5.4015,2.86628l-4.68076,7.02115z" fill="#000000" stroke="none" stroke-width="0"/><path d="M229.3188,211.73653c0,0 -5.16498,-20.11519 -5.16498,-29.94076c0,-9.83901 5.16498,-29.05303 5.16498,-29.05303h4.60006c0,0 -5.16498,19.48377 -5.16498,29.37585c0,9.77103 5.16498,29.61795 5.16498,29.61795z" fill="#000000" stroke="none" stroke-width="0"/><path d="M262.08417,180.18173c0,19.0318 -12.42156,34.46012 -20.37748,34.46012c-7.95591,0 -9.4804,-15.25849 -9.4804,-34.29029c0,-19.0318 1.52448,-34.62995 9.4804,-34.62995c7.95591,0 20.37748,15.42832 20.37748,34.46012z" fill="#000000" stroke="none" stroke-width="0"/><path d="M241.17524,180.90875c0,17.81592 -5.2068,32.25859 -11.6297,32.25859c-6.42291,0 -11.6297,-14.44267 -11.6297,-32.25859c0,-17.81592 5.2068,-32.25858 11.6297,-32.25858c6.42291,0 11.6297,14.44266 11.6297,32.25858z" fill="none" stroke="url(#color-6)" stroke-width="5.5"/><path d="M229.50713,140.82933c0,-1.68831 1.36863,-3.05694 3.05694,-3.05694c1.68831,0 3.05694,1.36863 3.05694,3.05694c0,1.68831 -1.36863,3.05694 -3.05694,3.05694c-1.68831,0 -3.05694,-1.36863 -3.05694,-3.05694z" fill="url(#color-7)" stroke="none" stroke-width="5.5"/><path d="M229.38706,219.17068c0,-1.68831 1.36863,-3.05694 3.05694,-3.05694c1.68831,0 3.05694,1.36863 3.05694,3.05694c0,1.6883 -1.36863,3.05694 -3.05694,3.05694c-1.68831,0 -3.05694,-1.36864 -3.05694,-3.05694z" fill="url(#color-8)" stroke="none" stroke-width="5.5"/></g></g></svg>