<svg version="1.1" xmlns="http://www.w3.org/2000/svg" xmlns:xlink="http://www.w3.org/1999/xlink" width="61.63158" height="59.0907" viewBox="0,0,61.63158,59.0907"><g transform="translate(-208.16787,-152.72203)"><g data-paper-data="{&quot;isPaintingLayer&quot;:true}" fill-rule="nonzero" stroke-width="0.5" stroke-linejoin="miter" stroke-miterlimit="10" stroke-dasharray="" stroke-dashoffset="0" style="mix-blend-mode: normal"><path d="M263.48337,174.70902l-7.70614,1.53169l-3.75215,-5.34885l-7.01545,4.08032l-7.09525,-5.66832l-4.31429,5.82076l-2.07177,-6.09385l-7.78966,4.28496l-2.61166,-4.57952l-5.41232,7.5548l-7.25462,-10.95236l1.85572,-3.35183l13.86329,-8.98873l39.54288,13.62271z" data-paper-data="{&quot;index&quot;:null}" fill="#080807" stroke="#080807" stroke-linecap="round"/><g data-paper-data="{&quot;index&quot;:null}"><path d="M219.46358,194.8546l-0.27729,-5.43964l8.1404,2.0235l0.93092,-6.76898l5.87677,0.71189l0.25463,-6.61712l9.76724,5.55186l-0.7134,-10.12415l6.32886,4.41941l8.66413,-12.99155l11.01017,13.28145l-15.58556,12.68805l-8.28247,17.62319l-21.31865,2.33877l-8.75094,-8.61385l-1.1549,-8.20514z" fill="#080807" stroke="#080807" stroke-linecap="round"/><path d="M228.3868,197.19049c2.08283,-1.11511 4.67527,-0.33062 5.79038,1.7522c1.11511,2.08283 0.33062,4.67527 -1.7522,5.79038c-2.08283,1.11511 -4.67527,0.33062 -5.79038,-1.7522c-1.11511,-2.08283 -0.33062,-4.67527 1.7522,-5.79038z" fill="#ffffff" stroke="#000000" stroke-linecap="butt"/></g></g></g></svg>