<svg version="1.1" xmlns="http://www.w3.org/2000/svg" xmlns:xlink="http://www.w3.org/1999/xlink" width="41.96267" height="86.78936" viewBox="0,0,41.96267,86.78936"><defs><linearGradient x1="241.71911" y1="140.64423" x2="250.20073" y2="140.64423" gradientUnits="userSpaceOnUse" id="color-1"><stop offset="0" stop-color="#bbffcb"/><stop offset="1" stop-color="#3aff66"/></linearGradient><linearGradient x1="222.81497" y1="179.32007" x2="246.75833" y2="179.32007" gradientUnits="userSpaceOnUse" id="color-2"><stop offset="0" stop-color="#70ff91"/><stop offset="1" stop-color="#3aff66"/></linearGradient><linearGradient x1="241.60846" y1="218.72809" x2="250.53785" y2="218.72809" gradientUnits="userSpaceOnUse" id="color-3"><stop offset="0" stop-color="#bbffcb"/><stop offset="1" stop-color="#3aff66"/></linearGradient><linearGradient x1="252.71201" y1="195.71987" x2="261.19363" y2="195.71987" gradientUnits="userSpaceOnUse" id="color-4"><stop offset="0" stop-color="#bbffcb"/><stop offset="1" stop-color="#3aff66"/></linearGradient><linearGradient x1="252.54666" y1="162.51512" x2="260.35666" y2="162.51512" gradientUnits="userSpaceOnUse" id="color-5"><stop offset="0" stop-color="#bbffcb"/><stop offset="1" stop-color="#3aff66"/></linearGradient></defs><g transform="translate(-220.31497,-136.40342)"><g data-paper-data="{&quot;isPaintingLayer&quot;:true}" fill-rule="nonzero" stroke-linecap="butt" stroke-linejoin="miter" stroke-miterlimit="10" stroke-dasharray="" stroke-dashoffset="0" style="mix-blend-mode: normal"><path d="M241.71911,140.64423c0,-2.34213 1.89868,-4.24081 4.24081,-4.24081c2.34213,0 4.24081,1.89868 4.24081,4.24081c0,2.34213 -1.89868,4.24081 -4.24081,4.24081c-2.34213,0 -4.24081,-1.89868 -4.24081,-4.24081z" fill="url(#color-1)" stroke="none" stroke-width="0"/><path d="M222.67713,190.26035v-4.97884h24.39632v4.97884z" fill="#000000" stroke="none" stroke-width="0"/><path d="M224.17078,175.57278v-6.59697h22.03136v6.59697z" fill="#000000" stroke="none" stroke-width="0"/><path d="M224.91761,166.36192v-5.85014h20.53771v5.85014z" fill="#000000" stroke="none" stroke-width="0"/><path d="M225.33334,198.64223v-4.97884h18.79512v4.97884z" fill="#000000" stroke="none" stroke-width="0"/><path d="M225.60344,205.88271v-4.97884h18.79512v4.97884z" fill="#000000" stroke="none" stroke-width="0"/><path d="M230.39433,209.42889v-2.24048h11.07791v2.24048z" fill="#000000" stroke="none" stroke-width="0"/><path d="M233.38163,215.52797c0,0 -2.5932,-10.12634 -3.95634,-20.3671c-0.72063,-5.41383 -0.64908,-10.85963 -0.64908,-14.85819c0,-5.05062 0.42335,-12.25622 1.44178,-18.67888c1.25866,-7.93761 3.16364,-14.67935 3.16364,-14.67935h5.97461c0,0 -1.92639,6.87618 -3.19222,14.92387c-1.00702,6.40224 -1.41321,13.54591 -1.41321,18.55883c0,3.9338 -0.08741,9.26329 0.61783,14.58022c1.36406,10.28381 3.9876,20.5206 3.9876,20.5206z" fill="#000000" stroke="none" stroke-width="0"/><path d="M242.24023,214.8023c0,0 -2.5932,-10.1631 -3.95634,-20.44103c-0.72063,-5.43347 -0.64908,-10.89904 -0.64908,-14.91213c0,-5.06896 0.42336,-12.30071 1.44179,-18.74667c1.25866,-7.96642 3.16364,-14.73264 3.16364,-14.73264h5.97461c0,0 -1.92639,6.90114 -3.19222,14.97804c-1.00702,6.42548 -1.41321,13.59508 -1.41321,18.62619c0,3.94807 -0.08741,9.29692 0.61783,14.63315c1.36406,10.32114 3.9876,20.59509 3.9876,20.59509z" fill="#000000" stroke="none" stroke-width="0"/><path d="M231.73836,148.83267v-5.47673h24.10451l1.53716,5.47673z" fill="#000000" stroke="none" stroke-width="0"/><path d="M223.17501,183.28998v-6.22355h37.63857v6.22355z" fill="#000000" stroke="none" stroke-width="0"/><path d="M226.86959,156.90213v-5.47673h29.78758l1.84729,5.47673z" fill="#000000" stroke="none" stroke-width="0"/><path d="M244.43849,169.24592v-5.85014h15.70198v5.85014z" fill="#000000" stroke="none" stroke-width="0"/><path d="M243.97667,196.00718v-4.97884h16.51017v4.97884z" fill="#000000" stroke="none" stroke-width="0"/><path d="M241.95735,207.64646v-3.8586l16.1638,0.12447l-1.0391,3.73413z" fill="#000000" stroke="none" stroke-width="0"/><path d="M233.89507,215.38482v-3.8586l21.24385,0.12447l-1.36567,3.73413z" fill="#000000" stroke="none" stroke-width="0"/><path d="M251.91372,215.30019c0,0 4.46634,-10.32969 5.40756,-20.70682c0.48663,-5.36518 0.83378,-10.74303 0.83378,-14.71252c0,-5.05841 -0.78962,-12.26691 -1.48448,-18.72724c-0.87345,-8.12072 -4.89332,-17.85423 -4.89332,-17.85423h4.12257c0,0 4.00511,9.59785 4.8736,17.6075c0.70273,6.48093 1.5042,13.75192 1.5042,18.84837c0,4.03485 -0.3581,9.53008 -0.85535,14.99303c-0.94059,10.33369 -5.38599,20.55192 -5.38599,20.55192z" data-paper-data="{&quot;index&quot;:null}" fill="#000000" stroke="none" stroke-width="0"/><path d="M246.37842,215.09503c0,0 1.81029,-10.27395 2.75151,-20.59509c0.48663,-5.33623 0.42632,-10.68507 0.42632,-14.63314c0,-5.03111 -0.28028,-12.20072 -0.97514,-18.62619c-0.87345,-8.0769 -2.20269,-14.97804 -2.20269,-14.97804h4.12258c0,0 1.31447,6.76621 2.18296,14.73263c0.70273,6.44597 0.99485,13.67772 0.99485,18.74668c0,4.01308 0.04937,9.47865 -0.44787,14.91213c-0.94059,10.27793 -2.72994,20.44103 -2.72994,20.44103z" data-paper-data="{&quot;index&quot;:null}" fill="#000000" stroke="none" stroke-width="0"/><path d="M241.76154,215.21803c0,0 1.95164,-9.95811 2.96635,-19.96196c0.52463,-5.17219 0.45961,-10.35659 0.45961,-14.1833c0,-4.87645 -0.30217,-11.82565 -1.05128,-18.0536c-0.94165,-7.82861 -2.37468,-14.51759 -2.37468,-14.51759h4.44449c0,0 1.41711,6.5582 2.35341,14.27973c0.75761,6.24781 1.07254,13.25724 1.07254,18.17038c0,3.88971 0.05323,9.18727 -0.48284,14.45371c-1.01404,9.96197 -2.94311,19.81264 -2.94311,19.81264z" data-paper-data="{&quot;index&quot;:null}" fill="#000000" stroke="none" stroke-width="0"/><path d="M246.75833,179.32008c0,18.81342 -5.35991,34.0647 -11.97168,34.0647c-6.61177,0 -11.97168,-15.25128 -11.97168,-34.0647c0,-18.81342 5.35991,-34.06471 11.97168,-34.06471c6.61177,0 11.97168,15.25128 11.97168,34.06471z" fill="none" stroke="url(#color-2)" stroke-width="5"/><path d="M241.60846,218.72809c0,-2.46579 1.99891,-4.46469 4.46469,-4.46469c2.46578,0 4.4647,1.99891 4.4647,4.46469c0,2.46579 -1.99891,4.46469 -4.4647,4.46469c-2.46578,0 -4.46469,-1.9989 -4.46469,-4.46469z" fill="url(#color-3)" stroke="none" stroke-width="0"/><path d="M252.71201,195.71987c0,-2.34215 1.89868,-4.24081 4.24081,-4.24081c2.34213,0 4.24081,1.89868 4.24081,4.24081c0,2.34215 -1.89868,4.24081 -4.24081,4.24081c-2.34213,0 -4.24081,-1.89867 -4.24081,-4.24081z" fill="url(#color-4)" stroke="none" stroke-width="0"/><path d="M252.54666,162.51513c0,-2.15668 1.74832,-3.90501 3.905,-3.90501c2.15667,0 3.905,1.74833 3.905,3.90501c0,2.15668 -1.74833,3.905 -3.905,3.905c-2.15668,0 -3.905,-1.74832 -3.905,-3.905z" fill="url(#color-5)" stroke="none" stroke-width="0"/></g></g></svg>