<svg version="1.1" xmlns="http://www.w3.org/2000/svg" xmlns:xlink="http://www.w3.org/1999/xlink" width="34.41821" height="71.33838" viewBox="0,0,34.41821,71.33838"><defs><linearGradient x1="225.59212" y1="180.80057" x2="249.31161" y2="180.80057" gradientUnits="userSpaceOnUse" id="color-1"><stop offset="0" stop-color="#94ffff"/><stop offset="1" stop-color="#00b4ff"/></linearGradient></defs><g transform="translate(-223.09212,-145.13138)"><g data-paper-data="{&quot;isPaintingLayer&quot;:true}" fill-rule="nonzero" stroke-linecap="butt" stroke-linejoin="miter" stroke-miterlimit="10" stroke-dasharray="" stroke-dashoffset="0" style="mix-blend-mode: normal"><g fill="#000000" stroke="none" stroke-width="0"><path d="M245.64469,210.90387v4.72989h-10.33251v-4.72989z" data-paper-data="{&quot;index&quot;:null}"/><path d="M245.49906,145.78438v4.7299h-10.33251v-4.7299z" data-paper-data="{&quot;index&quot;:null}"/><path d="M225.41549,185.40598v-7.84167h6.09907v7.84167z"/><path d="M226.68136,192.64646v-6.59696h6.09907v6.59696z"/><path d="M228.54843,200.11472v-6.97038h6.09907v6.97038z"/><path d="M230.06324,205.98602v-5.35225h6.09907v5.35225z"/><path d="M231.82699,211.98179v-5.35225h6.09907v5.35225z"/><path d="M232.92607,170.42964v6.59696h-6.09907v-6.59696z" data-paper-data="{&quot;index&quot;:null}"/><path d="M234.79313,162.96138v6.97037h-6.09907v-6.97037z" data-paper-data="{&quot;index&quot;:null}"/><path d="M236.30794,157.09008v5.35225h-6.09907v-5.35225z" data-paper-data="{&quot;index&quot;:null}"/><path d="M238.0717,151.09431v5.35225h-6.09907v-5.35225z" data-paper-data="{&quot;index&quot;:null}"/><path d="M249.79171,185.1782v-7.84167h7.71862v7.84167z" data-paper-data="{&quot;index&quot;:null}"/><path d="M249.18547,192.41868v-6.59696h7.71862v6.59696z" data-paper-data="{&quot;index&quot;:null}"/><path d="M247.32052,199.88694v-6.97038h7.71862v6.97038z" data-paper-data="{&quot;index&quot;:null}"/><path d="M245.40346,205.75824v-5.35225h7.71862v5.35225z" data-paper-data="{&quot;index&quot;:null}"/><path d="M243.17136,211.75401v-5.35225h7.71862v5.35225z" data-paper-data="{&quot;index&quot;:null}"/><path d="M256.59532,170.20186v6.59696h-7.71862v-6.59696z" data-paper-data="{&quot;index&quot;:null}"/><path d="M254.85483,162.7336v6.97037h-7.71861v-6.97037z" data-paper-data="{&quot;index&quot;:null}"/><path d="M252.93778,156.8623v5.35225h-7.71862v-5.35225z" data-paper-data="{&quot;index&quot;:null}"/><path d="M250.70568,150.86653v5.35225h-7.71862v-5.35225z" data-paper-data="{&quot;index&quot;:null}"/></g><path d="M249.31161,180.80057c0,18.31884 -5.30979,33.16919 -11.85974,33.16919c-6.54995,0 -11.85974,-14.85035 -11.85974,-33.16919c0,-18.31884 5.30979,-33.16919 11.85974,-33.16919c6.54995,0 11.85974,14.85035 11.85974,33.16919z" fill="none" stroke="url(#color-1)" stroke-width="5"/></g></g></svg>