<svg version="1.1" xmlns="http://www.w3.org/2000/svg" xmlns:xlink="http://www.w3.org/1999/xlink" width="16.43738" height="16.43738" viewBox="0,0,16.43738,16.43738"><g transform="translate(-229.05404,-172.14496)"><g data-paper-data="{&quot;isPaintingLayer&quot;:true}" fill-rule="nonzero" stroke-linecap="butt" stroke-linejoin="miter" stroke-miterlimit="10" stroke-dasharray="" stroke-dashoffset="0" style="mix-blend-mode: normal"><path d="M229.30404,188.33234v-15.93738h15.93738v15.93738z" data-paper-data="{&quot;index&quot;:null}" fill="#b9b9b9" stroke="#000000" stroke-width="0.5"/><path d="M231.39773,181.01989c0,-3.24468 2.63032,-5.875 5.875,-5.875c3.24468,0 5.875,2.63032 5.875,5.875c0,3.24468 -2.63032,5.875 -5.875,5.875c-3.24468,0 -5.875,-2.63032 -5.875,-5.875z" fill="#000000" stroke="none" stroke-width="0"/><path d="M232.89773,181.01989c0,-2.41625 1.95875,-4.375 4.375,-4.375c2.41625,0 4.375,1.95875 4.375,4.375c0,2.41625 -1.95875,4.375 -4.375,4.375c-2.41625,0 -4.375,-1.95875 -4.375,-4.375z" fill="#b9b9b9" stroke="none" stroke-width="0"/><path d="M233.71023,182.21044c0,0 0.78681,-2.94873 0.78681,-4.13374c0,-0.38168 -0.09949,-1.11105 -0.42245,-1.496c-0.0926,-0.11038 -0.46856,-0.11744 -0.74822,-0.01593c-0.36637,0.13298 -0.65503,0.3939 -0.80681,0.26503c-0.81445,-0.69155 -0.90024,-2.17923 -0.90024,-2.17923l7.21591,-0.31818v7.87805z" fill="#b9b9b9" stroke="none" stroke-width="0"/><path d="M238.33523,182.83239v-8.08536l6,1.875c0,0 -1.47339,-0.39156 -2.34669,0.18905c-0.37687,0.25056 -1.24317,-0.40239 -1.55075,-0.10126c-0.40795,0.39939 -0.23572,1.11332 -0.23572,1.53067c0,1.16736 0.63316,4.5919 0.63316,4.5919z" fill="#b9b9b9" stroke="none" stroke-width="0"/><path d="M236.33523,182.10773c0,-1.10392 0,-5.27773 0,-7.25524c0,-0.64109 0.67705,-1.05134 0.99913,-1.05134c0.30157,0 0.87587,0.44541 0.87587,1.13287c0,1.99636 0,6.03399 0,7.13296c0,0.5412 -0.64165,1.10917 -0.95739,1.10917c-0.30911,0 -0.91761,-0.54415 -0.91761,-1.06841z" fill="#000000" stroke="none" stroke-width="0"/></g></g></svg>