<svg version="1.1" xmlns="http://www.w3.org/2000/svg" xmlns:xlink="http://www.w3.org/1999/xlink" width="140.56828" height="25.6163" viewBox="0,0,140.56828,25.6163"><defs><linearGradient x1="230.34028" y1="171.38652" x2="230.34028" y2="178.42679" gradientUnits="userSpaceOnUse" id="color-1"><stop offset="0" stop-color="#ffffff"/><stop offset="1" stop-color="#cacaca"/></linearGradient><linearGradient x1="249.55385" y1="171.1885" x2="249.55385" y2="178.22876" gradientUnits="userSpaceOnUse" id="color-2"><stop offset="0" stop-color="#ffffff"/><stop offset="1" stop-color="#cacaca"/></linearGradient><linearGradient x1="240" y1="169.4044" x2="240" y2="190.5956" gradientUnits="userSpaceOnUse" id="color-3"><stop offset="0" stop-color="#f32b4e"/><stop offset="1" stop-color="#bc1016"/></linearGradient><linearGradient x1="231.34789" y1="176.98223" x2="237.92972" y2="177.60878" gradientUnits="userSpaceOnUse" id="color-4"><stop offset="0" stop-color="#00de5e"/><stop offset="1" stop-color="#98e6c3"/></linearGradient><linearGradient x1="242.08494" y1="177.64834" x2="249.22587" y2="177.07988" gradientUnits="userSpaceOnUse" id="color-5"><stop offset="0" stop-color="#98e6c3"/><stop offset="1" stop-color="#00de5e"/></linearGradient><linearGradient x1="234.05081" y1="181.80048" x2="234.05081" y2="184.16667" gradientUnits="userSpaceOnUse" id="color-6"><stop offset="0" stop-color="#dddddd"/><stop offset="1" stop-color="#ffffff"/></linearGradient><linearGradient x1="236.43438" y1="181.58538" x2="236.43438" y2="183.73646" gradientUnits="userSpaceOnUse" id="color-7"><stop offset="0" stop-color="#dddddd"/><stop offset="1" stop-color="#ffffff"/></linearGradient><linearGradient x1="239.00571" y1="181.85426" x2="239.00571" y2="182.76847" gradientUnits="userSpaceOnUse" id="color-8"><stop offset="0" stop-color="#dddddd"/><stop offset="1" stop-color="#ffffff"/></linearGradient><linearGradient x1="242.08999" y1="181.5316" x2="242.08999" y2="183.79023" gradientUnits="userSpaceOnUse" id="color-9"><stop offset="0" stop-color="#dddddd"/><stop offset="1" stop-color="#ffffff"/></linearGradient><linearGradient x1="245.55776" y1="181.49235" x2="245.55776" y2="184.59796" gradientUnits="userSpaceOnUse" id="color-10"><stop offset="0" stop-color="#dddddd"/><stop offset="1" stop-color="#ffffff"/></linearGradient><linearGradient x1="234.05224" y1="184.50201" x2="234.05224" y2="185.55759" gradientUnits="userSpaceOnUse" id="color-11"><stop offset="0" stop-color="#dddddd"/><stop offset="1" stop-color="#ffffff"/></linearGradient><linearGradient x1="236.46987" y1="184.1119" x2="236.46987" y2="185.55759" gradientUnits="userSpaceOnUse" id="color-12"><stop offset="0" stop-color="#dddddd"/><stop offset="1" stop-color="#ffffff"/></linearGradient><linearGradient x1="239.03056" y1="183.81359" x2="239.03056" y2="185.55759" gradientUnits="userSpaceOnUse" id="color-13"><stop offset="0" stop-color="#dddddd"/><stop offset="1" stop-color="#ffffff"/></linearGradient><linearGradient x1="242.09194" y1="184.06601" x2="242.09194" y2="185.55759" gradientUnits="userSpaceOnUse" id="color-14"><stop offset="0" stop-color="#dddddd"/><stop offset="1" stop-color="#ffffff"/></linearGradient><linearGradient x1="245.56819" y1="184.91506" x2="245.56819" y2="185.5117" gradientUnits="userSpaceOnUse" id="color-15"><stop offset="0" stop-color="#dddddd"/><stop offset="1" stop-color="#ffffff"/></linearGradient></defs><g transform="translate(-226.95015,-169.15439)"><g data-paper-data="{&quot;isPaintingLayer&quot;:true}" fill-rule="nonzero" stroke="#000000" stroke-linejoin="miter" stroke-miterlimit="10" stroke-dasharray="" stroke-dashoffset="0" style="mix-blend-mode: normal"><path d="M229.58654,178.52851c0,0 -2.27363,-2.63345 -2.33391,-3.83904c-0.05686,-1.13717 -0.05247,-4.371 -0.05247,-4.371c0,0 2.55433,1.80745 3.17141,2.11017c0.62654,0.30737 2.24606,-0.05649 2.24606,-0.05649z" fill="url(#color-1)" stroke-width="0.5" stroke-linecap="round"/><path d="M247.27651,172.17413c0,0 1.61952,0.36385 2.24606,0.05649c0.61709,-0.30273 3.17142,-2.21189 3.17142,-2.21189c0,0 -0.19905,3.43727 -0.25591,4.57444c-0.06028,1.20559 -2.28306,4.19505 -2.28306,4.19505z" data-paper-data="{&quot;index&quot;:null}" fill="url(#color-2)" stroke-width="0.5" stroke-linecap="round"/><path d="M229.40439,180c0,-5.85179 4.74382,-10.59561 10.59561,-10.59561c5.85179,0 10.59561,4.74382 10.59561,10.59561c0,5.85179 -4.74382,10.59561 -10.59561,10.59561c-5.85179,0 -10.59561,-4.74382 -10.59561,-10.59561z" fill="url(#color-3)" stroke-width="0.5" stroke-linecap="butt"/><path d="M232.9363,175.19162c0.50652,0.4574 1.67042,1.41659 2.14645,1.84646c0.47617,0.43001 2.89942,1.97049 2.66595,2.35998c-0.22762,0.37973 -2.93973,0.36369 -3.55005,0.23082c-0.47529,-0.10345 -2.65072,0.21936 -3.05058,-0.22514c-0.47379,-0.52668 1.41769,-4.54675 1.78823,-4.21214z" fill="url(#color-4)" stroke-width="0.5" stroke-linecap="round"/><path d="M248.79557,179.10056c-0.43772,0.44095 -2.29673,0.47971 -2.81294,0.57898c-0.66288,0.12747 -3.47546,0.14133 -3.71858,-0.24038c-0.24937,-0.39154 2.39226,-1.91057 2.91255,-2.33637c0.52014,-0.42565 1.79104,-1.37453 2.34449,-1.82745c0.20953,-0.17146 0.81919,0.80809 1.09269,1.84236c0.25501,0.96432 0.18177,1.98285 0.18177,1.98285z" data-paper-data="{&quot;index&quot;:null}" fill="url(#color-5)" stroke-width="0.5" stroke-linecap="round"/><text transform="translate(253.06531,187.13788) scale(0.5,0.5)" font-size="40" xml:space="preserve" fill="#ffffff" fill-rule="nonzero" stroke="#000000" stroke-width="1" stroke-linecap="butt" stroke-linejoin="miter" stroke-miterlimit="10" stroke-dasharray="" stroke-dashoffset="0" font-family="Marker" font-weight="normal" text-anchor="start" style="mix-blend-mode: normal"><tspan x="0" dy="0">Hard Demon</tspan></text><path d="M232.23741,181.679c0.5445,-0.1046 1.22527,0.10504 1.82577,0.10504c0.56939,0 1.96415,-0.41598 2.73233,-0.24839c0.66191,0.14441 1.5412,0.43675 2.4069,0.47492c0.64004,0.02822 1.46082,-0.12791 2.33343,-0.26082c1.18558,-0.18058 2.04419,-0.07725 2.94964,-0.07133c0.67517,0.00441 1.27121,0.10954 1.87107,0.1407c0.65007,0.03377 1.29446,-0.00144 1.77367,0.13786" fill="none" stroke-width="0.5" stroke-linecap="round"/><path d="M232.93641,185.27075v-2.82253h14.27691v2.82253z" fill="#000000" stroke-width="0.35" stroke-linecap="butt"/><path d="M232.87744,183.68964c0,-0.19386 0,-0.61078 0,-0.98649c0,-0.39324 -0.31943,-1.07439 -0.31943,-1.07439c0,0 1.07085,0.13729 1.45557,0.11965c0.39713,-0.0182 1.2106,-0.16304 1.2106,-0.16304c0,0 0,1.51832 0,1.98667c0,0.25624 -0.34166,0.59463 -0.71193,0.59463c-0.17813,0 -0.24067,-0.22055 -0.39719,-0.22055c-0.08029,0 -0.27537,0.22055 -0.33609,0.22055c-0.15401,0 -0.35639,0 -0.53037,0c-0.20536,0 -0.37116,-0.26855 -0.37116,-0.47704z" fill="url(#color-6)" stroke-width="0.25" stroke-linecap="butt"/><path d="M235.19396,183.40743c0,-0.36225 0,-1.82205 0,-1.82205c0,0 0.74379,-0.0699 1.139,-0.07846c0.42896,-0.0093 1.34183,0.29357 1.34183,0.29357c0,0 0,1.19046 0,1.53639c0,0.17642 -0.12859,0.39959 -0.32115,0.39959c-0.4549,0 -1.2668,0 -1.58337,0c-0.24786,0 -0.57631,-0.17509 -0.57631,-0.32903z" fill="url(#color-7)" stroke-width="0.25" stroke-linecap="butt"/><path d="M237.73177,183.08745c0,-0.2935 0,-1.23319 0,-1.23319c0,0 0.84304,0.16014 1.26642,0.24057c0.42589,0.0809 1.28145,-0.07924 1.28145,-0.07924c0,0 0,0.72413 0,0.99204c0,0.18241 -0.12754,0.45994 -0.31637,0.45994c-0.14189,0 -0.31839,0 -0.50138,0c-0.15175,0 -0.2542,-0.22055 -0.3972,-0.22055c-0.09319,0 -0.23875,0.22055 -0.30553,0.22055c-0.20553,0 -0.49342,0 -0.71219,0c-0.18136,0 -0.31521,-0.21717 -0.31521,-0.38012z" fill="url(#color-8)" stroke-width="0.25" stroke-linecap="butt"/><path d="M240.3467,183.26679c0,-0.33734 0,-1.30497 0,-1.30497c0,0 1.23856,-0.15283 1.83398,-0.22629c0.5652,-0.06974 1.65259,-0.09637 1.65259,-0.09637c0,0 0,1.74242 0,2.12103c0,0.18271 -0.37229,0.03005 -0.67393,0.03005c-0.42714,0 -1.61352,0 -2.30137,0c-0.30448,0 -0.51128,-0.30979 -0.51128,-0.52344z" fill="url(#color-9)" stroke-width="0.25" stroke-linecap="butt"/><path d="M243.81447,184.59796v-2.95773c0,0 1.0874,0.0366 1.6526,0.1325c0.59542,0.10102 2.18535,0.08058 2.18535,0.08058c0,0 -0.35138,1.2267 -0.35138,1.67171c0,0.38398 -0.33106,1.07295 -0.74038,1.07295c-0.42077,0 -0.92424,0 -1.23575,0c-0.1082,0 -0.35612,-0.73413 -0.48817,-0.73413c-0.24769,0 -0.39506,0.73413 -0.61022,0.73413c-0.2397,0 -0.41206,0 -0.41206,0z" data-paper-data="{&quot;index&quot;:null}" fill="url(#color-10)" stroke-width="0.25" stroke-linecap="butt"/><path d="M232.86488,185.87885c0,0 0.0214,-0.43724 0.00224,-0.66217c-0.00936,-0.10985 -0.03633,-0.27436 -0.06229,-0.41785c-0.02926,-0.16175 0.3218,-0.29682 0.53174,-0.29682c0.42168,0 1.90303,0 1.90303,0v1.37685z" fill="url(#color-11)" stroke-width="0.25" stroke-linecap="butt"/><path d="M235.21099,185.87885v-1.76695c0,0 0.24499,0 0.53313,0c0.13233,0 0.19282,0.21642 0.3238,0.21642c0.09743,0 0.27003,-0.21642 0.34785,-0.21642c0.19256,0 0.47741,0 0.73263,0c0.31239,0 0.58037,-0.19993 0.58037,0.00105c0,0.35656 0,1.76591 0,1.76591z" fill="url(#color-12)" stroke-width="0.25" stroke-linecap="butt"/><path d="M237.70015,185.87885c0,0 0,-1.49123 0,-1.81784c0,-0.1205 0.32064,-0.24743 0.57044,-0.24743c0.26521,0 0.87921,0 1.37356,0c0.39701,0 0.71683,0.11202 0.71683,0.22181c0,0.31651 0,1.84346 0,1.84346z" fill="url(#color-13)" stroke-width="0.25" stroke-linecap="butt"/><path d="M240.38959,185.87885v-1.81285c0,0 0.32648,0 0.59998,0c0.08337,0 0.19898,0.31857 0.33609,0.31857c0.13528,0 0.29149,-0.31857 0.4583,-0.31857c0.31675,0 0.67172,0 0.99421,0c0.5564,0 1.01613,0.18814 1.01613,0.18814v1.62471z" fill="url(#color-14)" stroke-width="0.25" stroke-linecap="butt"/><path d="M243.85153,185.87885v-0.96379c0,0 2.04784,0 2.66819,0c0.1824,0 0.2424,0.17153 0.3972,0.17153c0.12714,0 0.36793,-0.17153 0.36793,-0.17153c0,0 0,0.3096 0,0.46782c0,0.16291 0.23458,0.49597 0.23458,0.49597z" fill="url(#color-15)" stroke-width="0.25" stroke-linecap="butt"/><path d="M232.27836,185.91328h15.39274" fill="none" stroke-width="0.35" stroke-linecap="round"/></g></g></svg>