<svg version="1.1" xmlns="http://www.w3.org/2000/svg" xmlns:xlink="http://www.w3.org/1999/xlink" width="15.15737" height="135.84988" viewBox="0,0,15.15737,135.84988"><g transform="translate(-247.38393,-101.55543)"><g data-paper-data="{&quot;isPaintingLayer&quot;:true}" fill-rule="nonzero" stroke-linejoin="miter" stroke-miterlimit="10" stroke-dasharray="" stroke-dashoffset="0" style="mix-blend-mode: normal"><path d="M248.01784,148.49143c0,-2.97169 0,-8.45645 0,-10.02716c0,-0.82648 0.98915,-1.70789 1.88825,-1.70789c1.53199,0 6.57527,0 9.55531,0c1.39128,0 2.24057,0.93873 2.24057,2.29772c0,2.99229 0,8.0221 0,9.55531c0,0.87631 -0.80589,1.8311 -2.00463,1.8311c-3.00153,0 -8.466,0 -9.9092,0c-0.65389,0 -1.77029,-0.7801 -1.77029,-1.94907z" fill="#00ff08" stroke="#000000" stroke-width="1" stroke-linecap="butt"/><path d="M248.01176,165.77191c0,-2.97169 0,-8.45646 0,-10.02716c0,-0.82648 0.98915,-1.70789 1.88825,-1.70789c1.53199,0 6.57527,0 9.5553,0c1.39128,0 2.24058,0.93873 2.24058,2.29773c0,2.99229 0,8.02209 0,9.5553c0,0.87631 -0.8059,1.83111 -2.00463,1.83111c-3.00152,0 -8.466,0 -9.9092,0c-0.65389,0 -1.77029,-0.7801 -1.77029,-1.94907z" fill="#00ff08" stroke="#000000" stroke-width="1" stroke-linecap="butt"/><path d="M247.89002,113.79048c0,-2.97169 0,-8.45646 0,-10.02716c0,-0.82648 0.98915,-1.70789 1.88825,-1.70789c1.53199,0 6.57527,0 9.5553,0c1.39128,0 2.24058,0.93873 2.24058,2.29773c0,2.99229 0,8.02209 0,9.5553c0,0.87631 -0.8059,1.83111 -2.00463,1.83111c-3.00152,0 -8.466,0 -9.9092,0c-0.65389,0 -1.77029,-0.7801 -1.77029,-1.94907z" fill="#00ff08" stroke="#000000" stroke-width="1" stroke-linecap="butt"/><path d="M247.88393,131.07096c0,-2.97169 0,-8.45646 0,-10.02716c0,-0.82648 0.98915,-1.70789 1.88825,-1.70789c1.53199,0 6.57527,0 9.5553,0c1.39128,0 2.24058,0.93873 2.24058,2.29773c0,2.99229 0,8.02209 0,9.5553c0,0.87631 -0.8059,1.83111 -2.00463,1.83111c-3.00152,0 -8.466,0 -9.9092,0c-0.65389,0 -1.77029,-0.7801 -1.77029,-1.94907z" fill="#00ff08" stroke="#000000" stroke-width="1" stroke-linecap="butt"/><path d="M248.35717,217.67575c0,-2.97169 0,-8.45646 0,-10.02716c0,-0.82648 0.98915,-1.70789 1.88825,-1.70789c1.53199,0 6.57527,0 9.5553,0c1.39128,0 2.24058,0.93873 2.24058,2.29773c0,2.99229 0,8.02209 0,9.5553c0,0.87631 -0.8059,1.83111 -2.00463,1.83111c-3.00152,0 -8.466,0 -9.9092,0c-0.65389,0 -1.77029,-0.7801 -1.77029,-1.94907z" fill="#00ff08" stroke="#000000" stroke-width="1" stroke-linecap="butt"/><path d="M248.35108,234.95622c0,-2.97169 0,-8.45646 0,-10.02716c0,-0.82648 0.98915,-1.70789 1.88825,-1.70789c1.53199,0 6.57527,0 9.5553,0c1.39128,0 2.24058,0.93873 2.24058,2.29773c0,2.99229 0,8.02209 0,9.5553c0,0.87631 -0.8059,1.83111 -2.00463,1.83111c-3.00152,0 -8.466,0 -9.9092,0c-0.65389,0 -1.77029,-0.7801 -1.77029,-1.94907z" fill="#00ff08" stroke="#000000" stroke-width="1" stroke-linecap="butt"/><path d="M248.22935,182.9748c0,-2.97169 0,-8.45646 0,-10.02716c0,-0.82648 0.98915,-1.70789 1.88825,-1.70789c1.53199,0 6.57527,0 9.5553,0c1.39128,0 2.24058,0.93873 2.24058,2.29773c0,2.99229 0,8.02209 0,9.5553c0,0.87631 -0.8059,1.83111 -2.00463,1.83111c-3.00152,0 -8.466,0 -9.9092,0c-0.65389,0 -1.77029,-0.7801 -1.77029,-1.94907z" fill="#00ff08" stroke="#000000" stroke-width="1" stroke-linecap="butt"/><path d="M248.22326,200.25528c0,-2.97169 0,-8.45646 0,-10.02716c0,-0.82648 0.98915,-1.70789 1.88825,-1.70789c1.53199,0 6.57527,0 9.5553,0c1.39128,0 2.24058,0.93873 2.24058,2.29773c0,2.99229 0,8.02209 0,9.5553c0,0.87631 -0.8059,1.83111 -2.00463,1.83111c-3.00152,0 -8.466,0 -9.9092,0c-0.65389,0 -1.77029,-0.7801 -1.77029,-1.94907z" fill="#00ff08" stroke="#000000" stroke-width="1" stroke-linecap="butt"/><path d="M251.11996,230.46454c0,-2.24162 1.8172,-4.05882 4.05882,-4.05882c2.24162,0 4.05882,1.8172 4.05882,4.05882c0,2.24162 -1.8172,4.05882 -4.05882,4.05882c-2.24162,0 -4.05882,-1.8172 -4.05882,-4.05882z" fill="none" stroke="#fffdbf" stroke-width="1" stroke-linecap="butt"/><path d="M252.54887,230.51951c0,-1.48281 1.20206,-2.68487 2.68487,-2.68487c1.48281,0 2.68487,1.20206 2.68487,2.68487c0,1.48281 -1.20206,2.68487 -2.68487,2.68487c-1.48281,0 -2.68487,-1.20206 -2.68487,-2.68487z" fill="#fff700" stroke="none" stroke-width="0" stroke-linecap="butt"/><path d="M251.00275,212.81662c0,-2.39341 1.94025,-4.33366 4.33366,-4.33366c2.39341,0 4.33366,1.94025 4.33366,4.33366c0,2.39341 -1.94025,4.33366 -4.33366,4.33366c-2.39341,0 -4.33366,-1.94025 -4.33366,-4.33366z" fill="none" stroke="#bfefff" stroke-width="1" stroke-linecap="butt"/><path d="M252.33018,212.81662c0,-1.66029 1.34594,-3.00623 3.00623,-3.00623c1.66029,0 3.00623,1.34594 3.00623,3.00623c0,1.66029 -1.34594,3.00623 -3.00623,3.00623c-1.66029,0 -3.00623,-1.34593 -3.00623,-3.00623z" fill="#00c1ff" stroke="none" stroke-width="0" stroke-linecap="butt"/><path d="M250.53497,195.39714c0,-2.60855 2.11465,-4.7232 4.7232,-4.7232c2.60855,0 4.7232,2.11465 4.7232,4.7232c0,2.60855 -2.11465,4.7232 -4.7232,4.7232c-2.60855,0 -4.7232,-2.11465 -4.7232,-4.7232z" fill="none" stroke="#ffbff1" stroke-width="1" stroke-linecap="butt"/><path d="M251.8066,195.39714c0,-1.90625 1.54532,-3.45157 3.45157,-3.45157c1.90625,0 3.45157,1.54532 3.45157,3.45157c0,1.90625 -1.54532,3.45157 -3.45157,3.45157c-1.90625,0 -3.45157,-1.54532 -3.45157,-3.45157z" fill="#ff00c5" stroke="none" stroke-width="0" stroke-linecap="butt"/><path d="M250.31733,178.1587c0,-2.64833 2.1469,-4.79523 4.79523,-4.79523c2.64833,0 4.79523,2.1469 4.79523,4.79523c0,2.64833 -2.1469,4.79523 -4.79523,4.79523c-2.64833,0 -4.79523,-2.1469 -4.79523,-4.79523z" fill="none" stroke="#bfffcb" stroke-width="1" stroke-linecap="butt"/><path d="M251.60835,178.1587c0,-1.93532 1.56889,-3.50421 3.50421,-3.50421c1.93532,0 3.50421,1.56889 3.50421,3.50421c0,1.93532 -1.56889,3.50421 -3.50421,3.50421c-1.93532,0 -3.50421,-1.56889 -3.50421,-3.50421z" fill="#4fcf53" stroke="none" stroke-width="0" stroke-linecap="butt"/><path d="M250.24785,160.9269c0,-2.64833 2.1469,-4.79523 4.79523,-4.79523c2.64833,0 4.79523,2.1469 4.79523,4.79523c0,2.64833 -2.1469,4.79523 -4.79523,4.79523c-2.64833,0 -4.79523,-2.1469 -4.79523,-4.79523z" fill="none" stroke="#ffbfbf" stroke-width="1" stroke-linecap="butt"/><path d="M251.53887,160.9269c0,-1.93532 1.56889,-3.50421 3.50421,-3.50421c1.93532,0 3.50421,1.56889 3.50421,3.50421c0,1.93532 -1.56889,3.50421 -3.50421,3.50421c-1.93532,0 -3.50421,-1.56889 -3.50421,-3.50421z" fill="#ff0000" stroke="none" stroke-width="0" stroke-linecap="butt"/><path d="M250.0394,143.86882c0,-2.66752 2.16246,-4.82997 4.82997,-4.82997c2.66752,0 4.82997,2.16246 4.82997,4.82997c0,2.66752 -2.16246,4.82997 -4.82997,4.82997c-2.66752,0 -4.82997,-2.16246 -4.82997,-4.82997z" fill="none" stroke="#404040" stroke-width="1" stroke-linecap="butt"/><path d="M251.33977,143.86882c0,-1.94934 1.58026,-3.5296 3.5296,-3.5296c1.94934,0 3.5296,1.58026 3.5296,3.5296c0,1.94934 -1.58026,3.5296 -3.5296,3.5296c-1.94934,0 -3.5296,-1.58026 -3.5296,-3.5296z" fill="#000000" stroke="none" stroke-width="0" stroke-linecap="butt"/><path d="M250.56724,126.32972c0,-2.36801 1.91965,-4.28766 4.28766,-4.28766c2.36801,0 4.28766,1.91965 4.28766,4.28766c0,2.36801 -1.91965,4.28766 -4.28766,4.28766c-2.36801,0 -4.28766,-1.91965 -4.28766,-4.28766z" fill="none" stroke="#bfffcb" stroke-width="1.5" stroke-linecap="butt"/><path d="M250.88758,122.30614l7.93463,3.6578l-7.87835,4.38937" fill="none" stroke="#00dc28" stroke-width="2" stroke-linecap="round"/><path d="M250.07405,108.98747c0,-2.42518 1.96601,-4.39119 4.39119,-4.39119c2.42518,0 4.39119,1.96601 4.39119,4.39119c0,2.42518 -1.96601,4.39119 -4.39119,4.39119c-2.42518,0 -4.39119,-1.96601 -4.39119,-4.39119z" fill="none" stroke="#ffbff1" stroke-width="1" stroke-linecap="butt"/><path d="M250.40213,104.86672l8.12622,3.74613l-8.06859,4.49536" fill="none" stroke="#ff00c5" stroke-width="2" stroke-linecap="round"/></g></g></svg>