<svg version="1.1" xmlns="http://www.w3.org/2000/svg" xmlns:xlink="http://www.w3.org/1999/xlink" width="26.38156" height="23.80032" viewBox="0,0,26.38156,23.80032"><g transform="translate(-225.6841,-168.2442)"><g data-paper-data="{&quot;isPaintingLayer&quot;:true}" fill-rule="nonzero" stroke="#000000" stroke-width="0.5" stroke-linejoin="miter" stroke-miterlimit="10" stroke-dasharray="" stroke-dashoffset="0" style="mix-blend-mode: normal"><path d="M230.7696,172.85973l7.60892,2.8824l-0.90075,2.37777l-7.60889,-2.88242z" data-paper-data="{&quot;index&quot;:null}" fill="#00b6bf" stroke-linecap="butt"/><path d="M235.07579,181.78612c-0.12002,-1.09096 -0.1613,-3.11447 0.585,-4.60902c0.33136,-0.66357 1.13551,-1.53679 1.61988,-1.59009c0.55247,-0.06079 1.57674,0.51821 2.09811,1.23803c0.96525,1.33263 1.28924,3.3106 1.40177,4.33344c0.17333,1.57533 -0.96322,2.99289 -2.53855,3.16621c-1.57533,0.17333 -2.99289,-0.96322 -3.16621,-2.53855z" data-paper-data="{&quot;index&quot;:null}" fill="#00bf19" stroke-linecap="butt"/><path d="M232.86467,174.34192l-2.58882,1.97966l-2.94044,-0.54364l-1.30086,-1.70112l7.16907,-5.48217l1.11501,1.4581z" data-paper-data="{&quot;index&quot;:null}" fill="#00bf19" stroke-linecap="round"/><path d="M251.36326,179.02225l0.44341,12.10163l-18.0579,0.66165l-0.44341,-12.10163z" data-paper-data="{&quot;index&quot;:null}" fill="#00ff21" stroke-linecap="butt"/><path d="M251.36337,179.03247l0.19982,5.4534l-4.19339,-1.30072l-1.98573,1.22527l-2.80023,0.33684l-2.44132,2.5475l-2.19058,-1.7113l-1.285,0.16497l-1.80945,-1.51276l-1.37985,0.25428l-0.17672,-4.82311z" data-paper-data="{&quot;index&quot;:null}" fill="#00f2ff" stroke-linecap="round"/><path d="M247.96241,185.12989c0.95174,-0.03487 1.75153,0.70839 1.7864,1.66012c0.03487,0.95174 -0.70839,1.75153 -1.66012,1.7864c-0.95174,0.03487 -1.75153,-0.70839 -1.7864,-1.66012c-0.03487,-0.95174 0.70839,-1.75153 1.66012,-1.7864z" data-paper-data="{&quot;index&quot;:null}" fill="#00f2ff" stroke-linecap="butt"/><path d="M242.21613,171.82464l-0.30952,8.13067l-2.54084,-0.09671l0.30952,-8.13067z" data-paper-data="{&quot;index&quot;:null}" fill="#00f2ff" stroke-linecap="butt"/><path d="M235.67464,179.22744c0.91405,-0.60751 2.69274,-1.57322 4.3631,-1.59643c0.74163,-0.0103 1.88659,0.30315 2.15632,0.709c0.30766,0.4629 0.26356,1.63865 -0.13653,2.4323c-0.74072,1.46935 -2.34913,2.6653 -3.20612,3.23489c-1.31989,0.87725 -3.10102,0.51841 -3.97827,-0.80149c-0.87725,-1.3199 -0.51842,-3.10103 0.80148,-3.97828z" data-paper-data="{&quot;index&quot;:null}" fill="#00ff21" stroke-linecap="butt"/><path d="M242.79389,174.39254l-3.17879,-0.71866l-1.46707,-2.60565l0.47223,-2.0888l8.80279,1.99014l-0.40478,1.7904z" data-paper-data="{&quot;index&quot;:null}" fill="#00ff21" stroke-linecap="round"/></g></g></svg>