<svg version="1.1" xmlns="http://www.w3.org/2000/svg" xmlns:xlink="http://www.w3.org/1999/xlink" width="23.87365" height="23.45885" viewBox="0,0,23.87365,23.45885"><g transform="translate(-227.85567,-168.04511)"><g data-paper-data="{&quot;isPaintingLayer&quot;:true}" fill-rule="nonzero" stroke="#000000" stroke-width="0.5" stroke-linejoin="miter" stroke-miterlimit="10" stroke-dasharray="" stroke-dashoffset="0" style="mix-blend-mode: normal"><path d="M239.07533,188.87637l0.43957,-8.0182l2.50568,0.13737l-0.43958,8.01822z" fill="#00bf19" stroke-linecap="butt"/><path d="M236.62565,178.43363c-0.22349,-1.54807 0.85031,-2.98421 2.39839,-3.20769c1.54807,-0.22349 2.98421,0.85031 3.20769,2.39839c0.14511,1.00514 0.32408,2.97517 -0.2691,4.48695c-0.32039,0.81658 -1.15609,1.62281 -1.69901,1.70119c-0.476,0.06871 -1.46006,-0.56705 -1.94059,-1.11927c-1.08225,-1.24375 -1.54261,-3.18747 -1.69738,-4.25954z" fill="#00b6bf" stroke-linecap="butt"/><path d="M245.5886,189.41414l0.00558,1.81158l-8.90698,0.02747l-0.00651,-2.11352l1.97257,-2.19511l3.21641,-0.00992z" fill="#00b6bf" stroke-linecap="round"/><path d="M233.21077,180.2476l0.43762,-11.9435l17.82194,0.65301l-0.43762,11.9435z" fill="#00f2ff" stroke-linecap="butt"/><path d="M233.20639,180.26444l0.17441,-4.76009l1.36182,0.25096l1.7858,-1.49299l1.26821,0.16281l2.16195,-1.68894l2.40942,2.51421l2.76364,0.33244l1.95978,1.20926l4.13859,-1.28372l-0.19721,5.38214z" fill="#00ff21" stroke-linecap="round"/><path d="M246.03788,173.10971c0.03441,-0.93929 0.82376,-1.67284 1.76306,-1.63843c0.93929,0.03441 1.67284,0.82376 1.63843,1.76306c-0.03441,0.93929 -0.82376,1.67284 -1.76306,1.63843c-0.93929,-0.03441 -1.67284,-0.82376 -1.63843,-1.76306z" fill="#00ff21" stroke-linecap="butt"/><path d="M230.96053,183.89887l7.51038,-2.84235l0.88823,2.347l-7.51038,2.84235z" fill="#00ff21" stroke-linecap="butt"/><path d="M235.18544,178.68184c-0.43256,-1.50312 0.4353,-3.07229 1.93842,-3.50486c1.50312,-0.43256 3.07229,0.4353 3.50486,1.93842c0.28085,0.97596 0.72687,2.90315 0.34547,4.48172c-0.20601,0.85264 -0.92392,1.76533 -1.45108,1.91704c-0.46218,0.13301 -1.52377,-0.36259 -2.07512,-0.84411c-1.24178,-1.0845 -1.96298,-2.94726 -2.26253,-3.9882z" fill="#00f2ff" stroke-linecap="butt"/><path d="M235.87847,189.17886l-1.25746,1.3041l-6.41185,-6.1825l1.46703,-1.52146l2.94428,-0.20191l2.31539,2.23257z" fill="#00f2ff" stroke-linecap="round"/></g></g></svg>