<svg version="1.1" xmlns="http://www.w3.org/2000/svg" xmlns:xlink="http://www.w3.org/1999/xlink" width="26.45461" height="27.25347" viewBox="0,0,26.45461,27.25347"><g transform="translate(-225.56166,-168.22374)"><g data-paper-data="{&quot;isPaintingLayer&quot;:true}" fill-rule="nonzero" stroke="#000000" stroke-linejoin="miter" stroke-miterlimit="10" stroke-dasharray="" stroke-dashoffset="0" style="mix-blend-mode: normal"><g stroke-width="0" stroke-linecap="butt"><path d="M230.92935,193.90773c-0.48338,0.40695 -2.49379,1.39833 -3.58796,1.19709c-0.52915,-0.09732 0.8567,-1.93305 0.49972,-2.47298c-0.38457,-0.58166 -1.91145,2.63339 -2.11432,2.29664c-0.78058,-1.29573 1.40686,-4.89723 2.37583,-5.71299c0.96897,-0.81577 2.38727,-0.42667 3.16785,0.86905c0.78058,1.29573 0.62785,3.00743 -0.34112,3.8232z" fill="#c52e00"/><path d="M230.736,192.79523c-0.36452,0.30688 -1.88057,1.05448 -2.70568,0.90272c-0.39903,-0.07339 0.17466,-0.94493 -0.09454,-1.35209c-0.29,-0.43863 -0.97004,1.47305 -1.12302,1.21911c-0.58863,-0.97711 1.06091,-3.69299 1.79161,-4.30816c0.7307,-0.61517 1.80024,-0.32176 2.38887,0.65535c0.58863,0.97711 0.47347,2.2679 -0.25724,2.88307z" fill="#c55f00"/><path d="M230.64959,192.2883c-0.15271,0.12856 -0.58656,0.4848 -0.99293,0.43594c-0.45711,-0.05497 -0.88487,-0.52957 -0.94306,-0.62617c-0.42294,-0.70206 -0.24606,-1.80455 0.4044,-2.35216c0.65046,-0.54761 1.52062,-0.42241 1.94356,0.27965c0.42294,0.70206 0.2385,1.71512 -0.41196,2.26274z" fill="#b6c300"/></g><path d="M229.30523,188.65431l5.52082,-6.37691l1.99277,1.72525l-5.52084,6.3769z" fill="#00b6bf" stroke-width="0.5" stroke-linecap="butt"/><path d="M234.27151,178.08943c0.25921,-1.62232 1.78452,-2.72735 3.40683,-2.46813c1.62232,0.25921 2.72735,1.78452 2.46813,3.40683c-0.1683,1.05336 -0.60391,3.08495 -1.67081,4.41591c-0.57628,0.71892 -1.66612,1.26655 -2.23508,1.17565c-0.49883,-0.0797 -1.28724,-1.02456 -1.59673,-1.7284c-0.69705,-1.58526 -0.55185,-3.67832 -0.37235,-4.80182z" fill="#00bf19" stroke-width="0.5" stroke-linecap="butt"/><path d="M234.13427,193.49899l-1.47807,1.19836l-5.89202,-7.26721l1.72443,-1.3981l3.09535,0.16689l2.12767,2.62426z" fill="#00bf19" stroke-width="0.5" stroke-linecap="round"/><path d="M232.578,181.02781l0.45967,-12.54508l18.71961,0.6859l-0.45967,12.54508z" fill="#00ff21" stroke-width="0.5" stroke-linecap="butt"/><path d="M232.5734,181.04549l0.1832,-4.99984l1.43041,0.2636l1.87576,-1.56819l1.33208,0.17101l2.27085,-1.77401l2.53078,2.64085l2.90284,0.34918l2.05849,1.27017l4.34705,-1.34838l-0.20714,5.65323z" fill="#00f2ff" stroke-width="0.5" stroke-linecap="round"/><path d="M246.05119,173.53038c0.03615,-0.98661 0.86525,-1.7571 1.85186,-1.72095c0.98661,0.03615 1.7571,0.86525 1.72095,1.85186c-0.03615,0.98661 -0.86525,1.7571 -1.85186,1.72095c-0.98661,-0.03615 -1.7571,-0.86525 -1.72095,-1.85186z" fill="#00f2ff" stroke-width="0.5" stroke-linecap="butt"/><path d="M231.2457,188.66835l5.52082,-6.37691l1.99278,1.72525l-5.52085,6.3769z" fill="#00f2ff" stroke-width="0.5" stroke-linecap="butt"/><path d="M235.66528,177.9868c0.25921,-1.62232 1.78451,-2.72735 3.40683,-2.46813c1.62232,0.25921 2.72735,1.78451 2.46813,3.40683c-0.1683,1.05336 -0.6039,3.08496 -1.67081,4.41591c-0.57628,0.71892 -1.66612,1.26655 -2.23508,1.17565c-0.49883,-0.0797 -1.28724,-1.02457 -1.59673,-1.72841c-0.69705,-1.58526 -0.55185,-3.67832 -0.37235,-4.80182z" fill="#00ff22" stroke-width="0.5" stroke-linecap="butt"/><g stroke-width="0" stroke-linecap="butt"><path d="M233.08483,194.25347c-0.48338,0.40695 -2.49379,1.39833 -3.58796,1.19709c-0.52915,-0.09732 0.8567,-1.93305 0.49972,-2.47298c-0.38457,-0.58166 -1.91145,2.63339 -2.11432,2.29664c-0.78058,-1.29573 1.40686,-4.89723 2.37583,-5.71299c0.96898,-0.81577 2.38727,-0.42668 3.16785,0.86905c0.78058,1.29573 0.62786,3.00743 -0.34112,3.8232z" fill="#ff3d00"/><path d="M232.89148,193.14097c-0.36452,0.30688 -1.88057,1.05448 -2.70568,0.90272c-0.39903,-0.07339 0.17466,-0.94493 -0.09454,-1.35209c-0.29,-0.43863 -0.97004,1.47305 -1.12303,1.21911c-0.58863,-0.97711 1.06091,-3.69299 1.79161,-4.30816c0.7307,-0.61517 1.80024,-0.32176 2.38887,0.65535c0.58863,0.97711 0.47346,2.2679 -0.25724,2.88307z" fill="#ff7b00"/><path d="M232.80507,192.63404c-0.15271,0.12856 -0.58656,0.48481 -0.99293,0.43594c-0.45711,-0.05497 -0.88487,-0.52957 -0.94306,-0.62616c-0.42294,-0.70206 -0.24606,-1.80455 0.4044,-2.35216c0.65046,-0.54761 1.52062,-0.42241 1.94356,0.27965c0.42294,0.70206 0.2385,1.71512 -0.41196,2.26273z" fill="#efff00"/></g><path d="M236.07474,193.51304l-1.47807,1.19836l-5.89202,-7.26721l1.72443,-1.3981l3.09535,0.16689l2.12767,2.62426z" fill="#00ff22" stroke-width="0.5" stroke-linecap="round"/></g></g></svg>