<svg version="1.1" xmlns="http://www.w3.org/2000/svg" xmlns:xlink="http://www.w3.org/1999/xlink" width="23.55544" height="744.74662" viewBox="0,0,23.55544,744.74662"><g transform="translate(-228.22228,192.37331)"><g data-paper-data="{&quot;isPaintingLayer&quot;:true}" fill-rule="nonzero" stroke-linejoin="miter" stroke-miterlimit="10" stroke-dasharray="" stroke-dashoffset="0" style="mix-blend-mode: normal"><path d="M240,551.37331v-742.74662" fill="none" stroke="#ff0000" stroke-width="2" stroke-linecap="round"/><path d="M228.22228,180c0,-6.50466 5.27306,-11.77772 11.77772,-11.77772c6.50466,0 11.77772,5.27306 11.77772,11.77772c0,6.50466 -5.27306,11.77772 -11.77772,11.77772c-6.50466,0 -11.77772,-5.27306 -11.77772,-11.77772z" fill="#ff0000" stroke="#000000" stroke-width="0" stroke-linecap="butt"/><path d="M235.87748,176.95667c0,-2.25856 1.83093,-4.08949 4.08949,-4.08949c2.25856,0 4.08949,1.83093 4.08949,4.08949c0,2.25856 -1.83093,4.08949 -4.08949,4.08949c-2.25856,0 -4.08949,-1.83093 -4.08949,-4.08949z" fill="#f9ff00" stroke="none" stroke-width="0" stroke-linecap="butt"/><path d="M232.82399,182.57289c0,-2.10799 1.70886,-3.81685 3.81685,-3.81685c2.10799,0 3.81685,1.70886 3.81685,3.81685c0,2.10799 -1.70886,3.81685 -3.81685,3.81685c-2.10799,0 -3.81685,-1.70886 -3.81685,-3.81685z" fill="#00ff46" stroke="none" stroke-width="0" stroke-linecap="butt"/><path d="M239.58528,182.62742c0,-2.07788 1.68445,-3.76233 3.76233,-3.76233c2.07788,0 3.76233,1.68445 3.76233,3.76233c0,2.07788 -1.68445,3.76233 -3.76233,3.76233c-2.07788,0 -3.76233,-1.68445 -3.76233,-3.76233z" fill="#0079ff" stroke="none" stroke-width="0" stroke-linecap="butt"/></g></g></svg>