<svg version="1.1" xmlns="http://www.w3.org/2000/svg" xmlns:xlink="http://www.w3.org/1999/xlink" width="59.62154" height="50.18449" viewBox="0,0,59.62154,50.18449"><g transform="translate(-209.53657,-151.89285)"><g data-paper-data="{&quot;isPaintingLayer&quot;:true}" fill-rule="nonzero" stroke-width="0.5" stroke-linejoin="miter" stroke-miterlimit="10" stroke-dasharray="" stroke-dashoffset="0" style="mix-blend-mode: normal"><path d="M265.22195,188.17857l-39.54288,13.62271l-13.86329,-8.98873l-1.85572,-3.35183l7.25462,-10.95236l5.41232,7.5548l2.61166,-4.57952l7.78966,4.28496l2.07177,-6.09385l4.31429,5.82076l7.09525,-5.66832l7.01545,4.08032l3.75215,-5.34885l7.70614,1.53169z" fill="#080807" stroke="#080807" stroke-linecap="round"/><g><path d="M211.99871,177.86277l-2.19863,-7.98901l4.6104,-11.38076l20.49421,-6.31995l14.6001,12.8846l19.34268,5.45501l-4.83016,16.56171l-13.11099,-8.48229l-4.05327,6.56937l-3.36592,-9.57485l-6.75914,8.97419l-2.86158,-5.97181l-5.11075,2.98722l-3.54256,-5.8426l-6.66733,5.08992l-1.90579,-5.10241z" fill="#080807" stroke="#080807" stroke-linecap="round"/><path d="M219.99403,165.41529c0.19624,-2.35438 2.26393,-4.1039 4.61832,-3.90766c2.35438,0.19624 4.1039,2.26393 3.90766,4.61832c-0.19624,2.35438 -2.26393,4.1039 -4.61832,3.90766c-2.35438,-0.19624 -4.1039,-2.26393 -3.90766,-4.61832z" fill="#ffffff" stroke="#000000" stroke-linecap="butt"/></g></g></g></svg>