<svg version="1.1" xmlns="http://www.w3.org/2000/svg" xmlns:xlink="http://www.w3.org/1999/xlink" width="32.58037" height="28.80963" viewBox="0,0,32.58037,28.80963"><g transform="translate(-219.1595,-166.26581)"><g data-paper-data="{&quot;isPaintingLayer&quot;:true}" fill-rule="nonzero" stroke-linejoin="miter" stroke-miterlimit="10" stroke-dasharray="" stroke-dashoffset="0" style="mix-blend-mode: normal"><g stroke="#000000" stroke-width="0" stroke-linecap="butt"><path d="M224.78144,194.57571c-0.84111,-1.11106 1.61707,-3.88252 2.72813,-4.72363c1.11106,-0.84111 2.69362,-0.62227 3.53473,0.48879c0.84111,1.11106 0.62227,2.69362 -0.48879,3.53473c-1.11106,0.84111 -4.93296,1.81117 -5.77407,0.70011z" fill="#ff0000"/><path d="M226.32557,194.32332c-0.79271,-0.74881 0.74636,-3.20536 1.49517,-3.99807c0.74881,-0.79271 1.99846,-0.82829 2.79117,-0.07948c0.79271,0.74881 0.82829,1.99846 0.07948,2.79117c-0.74881,0.79271 -3.57311,2.03519 -4.36582,1.28638z" fill="#ff8800"/><path d="M227.06756,192.96336c-0.45055,-0.62746 0.95042,-2.12885 1.57788,-2.5794c0.62746,-0.45055 1.50136,-0.30714 1.95191,0.32032c0.45055,0.62746 0.30714,1.50137 -0.32032,1.95192c-0.62746,0.45055 -2.75892,0.93462 -3.20947,0.30717z" fill="#fff700"/></g><g stroke="#000000" stroke-width="0" stroke-linecap="butt"><path d="M219.1709,178.95835c0.23059,-1.37432 3.93335,-1.48917 5.30767,-1.25858c1.37432,0.23059 2.3015,1.53163 2.07091,2.90595c-0.23059,1.37432 -1.53163,2.3015 -2.90596,2.07091c-1.37432,-0.23059 -4.70321,-2.34396 -4.47262,-3.71828z" fill="#ff0000"/><path d="M220.41437,179.90797c0.00039,-1.09046 2.84325,-1.65752 3.93371,-1.65713c1.09046,0.00039 1.97414,0.8847 1.97375,1.97516c-0.00039,1.09046 -0.88471,1.97414 -1.97516,1.97375c-1.09046,-0.00039 -3.93268,-1.20132 -3.93229,-2.29178z" fill="#ff8800"/><path d="M221.91266,179.51403c0.14701,-0.75835 2.20048,-0.77017 2.95883,-0.62317c0.75835,0.14701 1.25393,0.88095 1.10692,1.63929c-0.14701,0.75835 -0.88095,1.25393 -1.6393,1.10693c-0.75835,-0.14701 -2.57346,-1.36471 -2.42645,-2.12305z" fill="#fff700"/></g><path d="M235.5213,169.42557l-4.60656,4.73328l-2.57424,-2.50531c0,0 1.21508,-1.78463 1.97903,-2.56959c0.77149,-0.79272 2.62753,-2.16369 2.62753,-2.16369z" data-paper-data="{&quot;index&quot;:null}" fill="#00f2ff" stroke="#000000" stroke-width="1" stroke-linecap="butt"/><path d="M233.2773,192.9132c0,0 -2.01757,-1.23119 -2.79114,-2.02605c-0.76176,-0.78272 -1.81541,-2.70724 -1.81541,-2.70724l2.57424,-2.50532l4.60655,4.73328z" fill="#00f2ff" stroke="#000000" stroke-width="1" stroke-linecap="butt"/><path d="M226.16034,183.42485c0,0 -0.22621,-2.2427 -0.22621,-3.32051c0,-1.12204 0.22621,-3.28436 0.22621,-3.28436h3.59212v6.60487z" fill="#00f2ff" stroke="#000000" stroke-width="1" stroke-linecap="butt"/><path d="M228.76015,180.00001c0,-6.20761 5.03225,-11.23986 11.23986,-11.23986c6.20761,0 11.23986,5.03225 11.23986,11.23986c0,6.20761 -5.03225,11.23986 -11.23986,11.23986c-6.20761,0 -11.23986,-5.03225 -11.23986,-11.23986z" fill="#00fe22" stroke="#000000" stroke-width="1" stroke-linecap="butt"/><path d="M229.63658,184.12009l5.33024,-3.47625v-2.20162l5.33024,-1.73812" fill="none" stroke="#00e51e" stroke-width="1" stroke-linecap="round"/><path d="M239.13832,168.82461c0,0 2.71088,1.97368 3.44803,2.69091c0.68867,0.67006 1.30284,1.94409 1.30284,1.94409" fill="none" stroke="#00e51e" stroke-width="1" stroke-linecap="round"/><path d="M248.64005,177.51523l2.3175,0.57937" fill="none" stroke="#00e51e" stroke-width="1" stroke-linecap="round"/><path d="M245.16381,181.45497c0,0 0.24324,2.91981 -0.05495,4.39212c-0.31847,1.57247 -1.79905,4.762 -1.79905,4.762" fill="none" stroke="#00e51e" stroke-width="1" stroke-linecap="round"/><path d="M233.06199,179.83133c0,-0.28798 0.23346,-0.52144 0.52144,-0.52144c0.28798,0 0.52144,0.23346 0.52144,0.52144c0,0.28798 -0.23346,0.52144 -0.52144,0.52144c-0.28798,0 -0.52144,-0.23346 -0.52144,-0.52144z" fill="#00e51e" stroke="#000000" stroke-width="0" stroke-linecap="butt"/><path d="M235.91686,179.51516c0,-0.28798 0.23346,-0.52144 0.52144,-0.52144c0.28798,0 0.52143,0.23346 0.52143,0.52144c0,0.28798 -0.23345,0.52143 -0.52143,0.52143c-0.28798,0 -0.52144,-0.23345 -0.52144,-0.52143z" fill="#00e51e" stroke="#000000" stroke-width="0" stroke-linecap="butt"/><path d="M228.76015,180.00001c0,-6.20761 5.03225,-11.23986 11.23986,-11.23986c6.20761,0 11.23986,5.03225 11.23986,11.23986c0,6.20761 -5.03226,11.23986 -11.23986,11.23986c-6.20761,0 -11.23986,-5.03225 -11.23986,-11.23986z" fill="none" stroke="#000000" stroke-width="1" stroke-linecap="butt"/><path d="M240.64469,177.39935c0,-2.11187 1.71201,-3.82387 3.82387,-3.82387c2.11187,0 3.82387,1.71201 3.82387,3.82387c0,2.11187 -1.71201,3.82387 -3.82387,3.82387c-2.11187,0 -3.82387,-1.71201 -3.82387,-3.82387z" fill="#00f2ff" stroke="#000000" stroke-width="1" stroke-linecap="butt"/></g></g></svg>