<svg version="1.1" xmlns="http://www.w3.org/2000/svg" xmlns:xlink="http://www.w3.org/1999/xlink" width="26.44927" height="23.99258" viewBox="0,0,26.44927,23.99258"><defs><linearGradient x1="242.90163" y1="179.9998" x2="241.1357" y2="191.14323" gradientUnits="userSpaceOnUse" id="color-1"><stop offset="0" stop-color="#00bb19"/><stop offset="1" stop-color="#009614"/></linearGradient><linearGradient x1="247.4455" y1="178.61024" x2="248.2826" y2="189.86164" gradientUnits="userSpaceOnUse" id="color-2"><stop offset="0" stop-color="#00bb19"/><stop offset="1" stop-color="#009614"/></linearGradient><linearGradient x1="234.77484" y1="176.32445" x2="237.86632" y2="179.67467" gradientUnits="userSpaceOnUse" id="color-3"><stop offset="0" stop-color="#00bb19"/><stop offset="1" stop-color="#009614"/></linearGradient><linearGradient x1="229.52936" y1="183.18928" x2="235.58301" y2="184.16681" gradientUnits="userSpaceOnUse" id="color-4"><stop offset="0" stop-color="#00ff22"/><stop offset="1" stop-color="#00c71b"/></linearGradient><linearGradient x1="237.48633" y1="184.86596" x2="243.41718" y2="186.42396" gradientUnits="userSpaceOnUse" id="color-5"><stop offset="0" stop-color="#00ff22"/><stop offset="1" stop-color="#00c71b"/></linearGradient></defs><g transform="translate(-227.34918,-167.53286)"><g data-paper-data="{&quot;isPaintingLayer&quot;:true}" fill-rule="nonzero" stroke-width="0.5" stroke-linejoin="miter" stroke-miterlimit="10" stroke-dasharray="" stroke-dashoffset="0" style="mix-blend-mode: normal"><path d="M239.51235,183.64928c-0.12892,-1.04581 0.03738,-2.55401 0.03738,-2.55401c0,0 0.72734,-0.46211 1.56413,-0.83625c0.5673,-0.25365 1.23745,-0.20801 1.71283,-0.2094c0.53131,-0.00155 1.18115,0.08533 1.67079,0.34622c0.56812,0.30271 0.98967,0.63024 0.98967,0.63024c0,0 0.26339,1.70382 -0.03385,2.81486c-0.47325,1.7689 -1.84009,6.87779 -1.84009,6.87779c0,0 -1.20849,0.52157 -1.78552,0.52326c-0.48173,0.00141 -1.44267,-0.5138 -1.44267,-0.5138c0,0 -0.65577,-5.3195 -0.87266,-7.07889z" data-paper-data="{&quot;index&quot;:null}" fill="url(#color-1)" stroke="#000000" stroke-linecap="butt"/><path d="M249.06507,189.51017c0,0 -1.00031,0.43387 -1.48027,0.39257c-0.57492,-0.04946 -1.73606,-0.66932 -1.73606,-0.66932c0,0 -0.93908,-5.20453 -1.26423,-7.00655c-0.20422,-1.13182 0.19935,-2.80799 0.19935,-2.80799c0,0 0.44724,-0.2915 1.03846,-0.54612c0.50956,-0.21945 1.16436,-0.25222 1.69372,-0.20668c0.47363,0.04075 1.14527,0.05076 1.68961,0.35052c0.80294,0.44216 1.4895,0.9629 1.4895,0.9629c0,0 0.04084,1.51679 -0.17423,2.54834c-0.36184,1.73539 -1.45586,6.98231 -1.45586,6.98231z" fill="url(#color-2)" stroke="#000000" stroke-linecap="butt"/><path d="M234.13539,183.11745l-3.09148,-3.35022l7.46186,-6.88556l3.09148,3.35022z" fill="url(#color-3)" stroke="#000000" stroke-linecap="butt"/><path d="M232.3814,189.3188c-0.56966,-0.09199 -1.68161,-0.79628 -1.68161,-0.79628c0,0 -0.55035,-5.25986 -0.7409,-7.08103c-0.11968,-1.14386 0.40714,-2.78546 0.40714,-2.78546c0,0 0.46763,-0.25751 1.07612,-0.46756c0.52444,-0.18104 1.17987,-0.16515 1.70439,-0.08045c0.4693,0.07578 1.13835,0.1356 1.65895,0.47492c0.76791,0.50051 1.41396,1.07077 1.41396,1.07077c0,0 -0.0718,1.51564 -0.36283,2.52839c-0.4896,1.70376 -1.9699,6.85505 -1.9699,6.85505c0,0 -1.02974,0.35845 -1.50532,0.28165z" fill="url(#color-4)" stroke="#000000" stroke-linecap="butt"/><path d="M239.75156,183.40786l-11.85806,-15.625h25.625l-1.375,12.125l-3.4375,3.4375z" fill="#00f220" stroke="#000000" stroke-linecap="round"/><path d="M248.59714,167.90057v15.48902l-8.41795,0.0518l-0.0518,-5.98321l-3.54849,-3.54849v-6.06092z" fill="#00ff22" stroke="#00e51e" stroke-linecap="round"/><path d="M239.76394,183.42925l-11.90986,-15.625h25.625l-1.375,12.125l-3.4375,3.4375z" fill="none" stroke="#000000" stroke-linecap="round"/><path d="M245.54077,174.71264c0,-1.70229 1.37998,-3.08226 3.08226,-3.08226c1.70229,0 3.08226,1.37998 3.08226,3.08226c0,1.70229 -1.37998,3.08226 -3.08226,3.08226c-1.70229,0 -3.08226,-1.37998 -3.08226,-3.08226z" fill="#00f2ff" stroke="#000000" stroke-linecap="butt"/><path d="M241.25814,191.10756c0,0 -1.05956,0.25726 -1.52549,0.13486c-0.5581,-0.14661 -1.59678,-0.95506 -1.59678,-0.95506c0,0 -0.03944,-5.28843 -0.0531,-7.11949c-0.00857,-1.15008 0.67443,-2.73308 0.67443,-2.73308c0,0 0.49033,-0.21111 1.11627,-0.36138c0.53948,-0.1295 1.19031,-0.05034 1.70418,0.08465c0.45978,0.12078 1.11991,0.24498 1.60529,0.63302c0.71595,0.57238 1.30386,1.2024 1.30386,1.2024c0,0 -0.21794,1.5016 -0.60548,2.48148c-0.65197,1.64847 -2.62317,6.6326 -2.62317,6.6326z" fill="url(#color-5)" stroke="#000000" stroke-linecap="butt"/></g></g></svg>