<svg version="1.1" xmlns="http://www.w3.org/2000/svg" xmlns:xlink="http://www.w3.org/1999/xlink" width="44.48473" height="26.51531" viewBox="0,0,44.48473,26.51531"><g transform="translate(-216.57907,-167.94453)"><g data-paper-data="{&quot;isPaintingLayer&quot;:true}" fill-rule="nonzero" stroke-linejoin="miter" stroke-miterlimit="10" stroke-dasharray="" stroke-dashoffset="0" style="mix-blend-mode: normal"><path d="M259.64827,182.19033l-3.04184,1.739l-2.42913,-2.41062l-3.76487,0.87488l-0.84004,-2.18158l-2.14287,2.59924l-1.57663,-3.66143l-2.95388,1.73706l-1.622,-1.72436l-1.47791,0.82456l2.60312,2.3188l2.79537,-0.94155l1.46931,2.78376l2.6001,-1.81728l1.63362,2.25212l3.40723,-1.13102l1.36974,2.25793l2.36332,-0.58002l-1.60349,3.11539l-3.56379,2.01449l-5.1017,0.11227l-3.88962,-0.79443l-3.01776,-1.16563l-2.9898,-3.89434l-0.86907,-3.50099l1.22154,-8.47517l6.17163,-3.47993l7.19727,-0.86241l6.51355,2.00832l1.8018,1.89642l0.89664,6.80491z" data-paper-data="{&quot;index&quot;:null}" fill="#000000" stroke="#000000" stroke-width="0.5" stroke-linecap="round"/><path d="M255.06887,178.9779c-1.38484,0 -2.50748,-1.12264 -2.50748,-2.50748c0,-1.38484 1.12264,-2.50748 2.50748,-2.50748c1.38484,0 2.50748,1.12264 2.50748,2.50748c0,1.38484 -1.12264,2.50748 -2.50748,2.50748z" data-paper-data="{&quot;index&quot;:null}" fill="#ffffff" stroke="#080807" stroke-width="0" stroke-linecap="butt"/><path d="M216.83025,179.21559l4.71988,-2.15849c0,0 14.98634,-4.45116 18.32733,-4.94873c1.43433,-0.21361 1.43259,2.00588 1.43259,2.00588l-2.26632,1.52764l-1.7201,2.04408l-0.89244,5.06572l-2.15108,1.4807l-5.14819,2.40899l-3.07716,1.18614l-1.41274,1.31433l-1.56651,2.58609l-0.17092,2.21921l-2.59031,-2.23655l-3.43704,-6.07065z" data-paper-data="{&quot;index&quot;:null}" fill="#000000" stroke="#000000" stroke-width="0.5" stroke-linecap="round"/></g></g></svg>