<svg version="1.1" xmlns="http://www.w3.org/2000/svg" xmlns:xlink="http://www.w3.org/1999/xlink" width="24.8962" height="21.49351" viewBox="0,0,24.8962,21.49351"><g transform="translate(-227.3401,-170.66142)"><g data-paper-data="{&quot;isPaintingLayer&quot;:true}" fill-rule="nonzero" stroke="#080807" stroke-width="0.5" stroke-linecap="round" stroke-linejoin="miter" stroke-miterlimit="10" stroke-dasharray="" stroke-dashoffset="0" style="mix-blend-mode: normal"><path d="M228.0683,188.6702c0,0 1.03775,-0.88971 1.46473,-1.19086c0.187,-0.13189 1.18378,-0.12754 2.14231,0.17677c0.74206,0.23558 2.69278,0.61664 3.74385,0.61082c1.09997,-0.00608 4.01153,-1.29589 4.34768,-1.21605c0.17501,0.04157 1.97979,0.40142 3.62559,0.50553c1.43914,0.09104 2.75671,-0.06964 2.75671,-0.06964c0,0 1.90447,-0.48016 2.37646,-0.48016c0.22571,0 1.18912,0.1263 2.04229,0.5066c0.75202,0.33522 1.41838,0.93015 1.41838,0.93015v3.46157h-23.918z" fill="#080807"/><path d="M235.35314,188.8125l-1.875,-11.125l6.5,11.125" data-paper-data="{&quot;index&quot;:null}" fill="#000000"/><path d="M236.47814,180.6875l-2.875,-4.75l9.5,-4.625z" data-paper-data="{&quot;index&quot;:null}" fill="#000000"/><path d="M249.10314,177.3125l-6.625,-3.375l2,-2.75z" data-paper-data="{&quot;index&quot;:null}" fill="#000000"/><path d="M246.72814,177.3125l2.875,1.375l-3.625,5z" data-paper-data="{&quot;index&quot;:null}" fill="#000000"/><path d="M245.10314,181.5625l-0.375,3.125l-4.875,-1.125z" data-paper-data="{&quot;index&quot;:null}" fill="#000000"/><path d="M239.61408,190.47492l0.125,-8.375l1.875,6.75" data-paper-data="{&quot;index&quot;:null}" fill="#000000"/><path d="M231.61408,189.09992l-3.125,-3.5l4.125,2.25" data-paper-data="{&quot;index&quot;:null}" fill="#000000"/><path d="M248.34949,188.64941l2.01459,-2.82043l-1.04759,3.14277" data-paper-data="{&quot;index&quot;:null}" fill="#000000"/><path d="M247.98103,188.98696l-1.82142,-3.51174l2.95453,3.67849" data-paper-data="{&quot;index&quot;:null}" fill="#000000"/><path d="M241.15416,189.54677l3.04475,-4.45942l-1.39147,4.29659" data-paper-data="{&quot;index&quot;:null}" fill="#000000"/><path d="M232.50532,188.8674l0.17094,-3.02001l0.85472,2.90605" data-paper-data="{&quot;index&quot;:null}" fill="#000000"/></g></g></svg>