<svg version="1.1" xmlns="http://www.w3.org/2000/svg" xmlns:xlink="http://www.w3.org/1999/xlink" width="34.9227" height="77.81874" viewBox="0,0,34.9227,77.81874"><defs><linearGradient x1="222.7126" y1="196.98842" x2="252.35619" y2="196.98842" gradientUnits="userSpaceOnUse" id="color-1"><stop offset="0" stop-color="#ff8f00"/><stop offset="1" stop-color="#ff7300"/></linearGradient><linearGradient x1="222.7126" y1="196.98842" x2="252.35619" y2="196.98842" gradientUnits="userSpaceOnUse" id="color-2"><stop offset="0" stop-color="#ff8f00"/><stop offset="1" stop-color="#ff7300"/></linearGradient><linearGradient x1="222.62112" y1="164.60006" x2="252.26471" y2="164.60006" gradientUnits="userSpaceOnUse" id="color-3"><stop offset="0" stop-color="#ff8f00"/><stop offset="1" stop-color="#ff7300"/></linearGradient><linearGradient x1="222.62112" y1="164.60006" x2="252.26471" y2="164.60006" gradientUnits="userSpaceOnUse" id="color-4"><stop offset="0" stop-color="#ff8f00"/><stop offset="1" stop-color="#ff7300"/></linearGradient><linearGradient x1="231.66128" y1="216.08973" x2="237.59364" y2="216.08973" gradientUnits="userSpaceOnUse" id="color-5"><stop offset="0" stop-color="#ff8f00"/><stop offset="1" stop-color="#ff7300"/></linearGradient><linearGradient x1="231.66128" y1="216.08973" x2="237.59364" y2="216.08973" gradientUnits="userSpaceOnUse" id="color-6"><stop offset="0" stop-color="#ff8f00"/><stop offset="1" stop-color="#ff7300"/></linearGradient><linearGradient x1="232.61747" y1="145.0621" x2="238.26734" y2="145.0621" gradientUnits="userSpaceOnUse" id="color-7"><stop offset="0" stop-color="#ff8f00"/><stop offset="1" stop-color="#ff7300"/></linearGradient><linearGradient x1="232.61747" y1="145.0621" x2="238.26734" y2="145.0621" gradientUnits="userSpaceOnUse" id="color-8"><stop offset="0" stop-color="#ff8f00"/><stop offset="1" stop-color="#ff7300"/></linearGradient></defs><g transform="translate(-222.11935,-141.73717)"><g data-paper-data="{&quot;isPaintingLayer&quot;:true}" fill-rule="nonzero" stroke-linejoin="miter" stroke-miterlimit="10" stroke-dasharray="" stroke-dashoffset="0" style="mix-blend-mode: normal"><g fill="#000000" stroke="none" stroke-width="0" stroke-linecap="butt"><path d="M224.13157,152.69395v-4.86791h10.876v4.86791z"/><path d="M224.8378,158.81362v-4.72883h17.37335v4.72883z"/><path d="M234.01884,166.46319v-5.98058h14.97215v5.98058z"/><path d="M225.40279,162.70796v-4.03342h7.34483v4.03342z"/><path d="M237.12627,176.47719v-7.23233h17.65584v7.23233z"/><path d="M224.97905,177.31169v-4.72883h17.37335v4.72883z"/><path d="M248.00226,183.8486v-6.11966h9.03979v6.11966z"/><path d="M226.53277,183.98769v-4.72883h24.15319v4.72883z"/><path d="M226.9565,192.1936v-5.70241h27.40186v5.70241z"/><path d="M223.70783,200.39949v-5.56333h25.42441v5.56333z"/><path d="M226.67401,207.90999v-4.72883h16.52587v4.72883z"/><path d="M226.25027,213.33425v-3.47708h9.03979v3.47708z"/><path d="M225.40279,170.21844v-5.84149h12.00597v5.84149z"/><path d="M230.20518,206.241v-46.03654h3.53117v46.03654z"/><path d="M236.27879,198.31326v-36.4398h3.38992v36.4398z"/></g><g stroke-width="1" stroke-linecap="round"><path d="M228.11067,181.66341l-0.45746,22.32418l18.02403,-23.42209h6.34976l-24.64827,32.84583h-2.74478l-1.92134,-1.92134l0.18299,-29.82657z" fill="url(#color-1)" stroke="url(#color-2)"/><path d="M222.8956,181.66342l-0.27448,-32.20538l1.92134,-1.92134h2.74478l24.64827,32.84583h-6.34976l-18.02403,-23.42209l0.54896,24.70299z" data-paper-data="{&quot;index&quot;:null}" fill="url(#color-3)" stroke="url(#color-4)"/></g><path d="M231.66128,216.08973c0,-1.63818 1.328,-2.96618 2.96618,-2.96618c1.63818,0 2.96618,1.328 2.96618,2.96618c0,1.63818 -1.328,2.96618 -2.96618,2.96618c-1.63818,0 -2.96618,-1.328 -2.96618,-2.96618z" fill="url(#color-5)" stroke="url(#color-6)" stroke-width="1" stroke-linecap="butt"/><path d="M232.61747,145.0621c0,-1.56017 1.26476,-2.82493 2.82493,-2.82493c1.56017,0 2.82493,1.26476 2.82493,2.82493c0,1.56017 -1.26476,2.82493 -2.82493,2.82493c-1.56017,0 -2.82493,-1.26476 -2.82493,-2.82493z" fill="url(#color-7)" stroke="url(#color-8)" stroke-width="1" stroke-linecap="butt"/></g></g></svg>