<svg version="1.1" xmlns="http://www.w3.org/2000/svg" xmlns:xlink="http://www.w3.org/1999/xlink" width="15.15737" height="135.84988" viewBox="0,0,15.15737,135.84988"><g transform="translate(-247.38393,-101.55543)"><g data-paper-data="{&quot;isPaintingLayer&quot;:true}" fill-rule="nonzero" stroke-linejoin="miter" stroke-miterlimit="10" stroke-dasharray="" stroke-dashoffset="0" style="mix-blend-mode: normal"><path d="M248.01784,148.49143c0,-2.97169 0,-8.45645 0,-10.02716c0,-0.82648 0.98915,-1.70789 1.88825,-1.70789c1.53199,0 6.57527,0 9.55531,0c1.39128,0 2.24057,0.93873 2.24057,2.29772c0,2.99229 0,8.0221 0,9.55531c0,0.87631 -0.80589,1.8311 -2.00463,1.8311c-3.00153,0 -8.466,0 -9.9092,0c-0.65389,0 -1.77029,-0.7801 -1.77029,-1.94907z" fill="#00ff08" stroke="#000000" stroke-width="1" stroke-linecap="butt"/><path d="M248.01176,165.77191c0,-2.97169 0,-8.45646 0,-10.02716c0,-0.82648 0.98915,-1.70789 1.88825,-1.70789c1.53199,0 6.57527,0 9.5553,0c1.39128,0 2.24058,0.93873 2.24058,2.29773c0,2.99229 0,8.02209 0,9.5553c0,0.87631 -0.8059,1.83111 -2.00463,1.83111c-3.00152,0 -8.466,0 -9.9092,0c-0.65389,0 -1.77029,-0.7801 -1.77029,-1.94907z" fill="#00ff08" stroke="#000000" stroke-width="1" stroke-linecap="butt"/><path d="M247.89002,113.79048c0,-2.97169 0,-8.45646 0,-10.02716c0,-0.82648 0.98915,-1.70789 1.88825,-1.70789c1.53199,0 6.57527,0 9.5553,0c1.39128,0 2.24058,0.93873 2.24058,2.29773c0,2.99229 0,8.02209 0,9.5553c0,0.87631 -0.8059,1.83111 -2.00463,1.83111c-3.00152,0 -8.466,0 -9.9092,0c-0.65389,0 -1.77029,-0.7801 -1.77029,-1.94907z" fill="#00ff08" stroke="#000000" stroke-width="1" stroke-linecap="butt"/><path d="M247.88393,131.07096c0,-2.97169 0,-8.45646 0,-10.02716c0,-0.82648 0.98915,-1.70789 1.88825,-1.70789c1.53199,0 6.57527,0 9.5553,0c1.39128,0 2.24058,0.93873 2.24058,2.29773c0,2.99229 0,8.02209 0,9.5553c0,0.87631 -0.8059,1.83111 -2.00463,1.83111c-3.00152,0 -8.466,0 -9.9092,0c-0.65389,0 -1.77029,-0.7801 -1.77029,-1.94907z" fill="#00ff08" stroke="#000000" stroke-width="1" stroke-linecap="butt"/><path d="M248.35717,217.67575c0,-2.97169 0,-8.45646 0,-10.02716c0,-0.82648 0.98915,-1.70789 1.88825,-1.70789c1.53199,0 6.57527,0 9.5553,0c1.39128,0 2.24058,0.93873 2.24058,2.29773c0,2.99229 0,8.02209 0,9.5553c0,0.87631 -0.8059,1.83111 -2.00463,1.83111c-3.00152,0 -8.466,0 -9.9092,0c-0.65389,0 -1.77029,-0.7801 -1.77029,-1.94907z" fill="#00ff08" stroke="#000000" stroke-width="1" stroke-linecap="butt"/><path d="M248.35108,234.95622c0,-2.97169 0,-8.45646 0,-10.02716c0,-0.82648 0.98915,-1.70789 1.88825,-1.70789c1.53199,0 6.57527,0 9.5553,0c1.39128,0 2.24058,0.93873 2.24058,2.29773c0,2.99229 0,8.02209 0,9.5553c0,0.87631 -0.8059,1.83111 -2.00463,1.83111c-3.00152,0 -8.466,0 -9.9092,0c-0.65389,0 -1.77029,-0.7801 -1.77029,-1.94907z" fill="#00ff08" stroke="#000000" stroke-width="1" stroke-linecap="butt"/><path d="M248.22935,182.9748c0,-2.97169 0,-8.45646 0,-10.02716c0,-0.82648 0.98915,-1.70789 1.88825,-1.70789c1.53199,0 6.57527,0 9.5553,0c1.39128,0 2.24058,0.93873 2.24058,2.29773c0,2.99229 0,8.02209 0,9.5553c0,0.87631 -0.8059,1.83111 -2.00463,1.83111c-3.00152,0 -8.466,0 -9.9092,0c-0.65389,0 -1.77029,-0.7801 -1.77029,-1.94907z" fill="#00ff08" stroke="#000000" stroke-width="1" stroke-linecap="butt"/><path d="M248.22326,200.25528c0,-2.97169 0,-8.45646 0,-10.02716c0,-0.82648 0.98915,-1.70789 1.88825,-1.70789c1.53199,0 6.57527,0 9.5553,0c1.39128,0 2.24058,0.93873 2.24058,2.29773c0,2.99229 0,8.02209 0,9.5553c0,0.87631 -0.8059,1.83111 -2.00463,1.83111c-3.00152,0 -8.466,0 -9.9092,0c-0.65389,0 -1.77029,-0.7801 -1.77029,-1.94907z" fill="#00ff08" stroke="#000000" stroke-width="1" stroke-linecap="butt"/><path d="M250.16229,180.70916l9.67207,-0.01931v1.3998h-9.67207z" fill="#080807" stroke="#080807" stroke-width="0" stroke-linecap="round"/><path d="M250.56224,180.86166l-0.46252,-2.91743c0,0 0.40241,-0.5978 1.30455,-0.97504c1.06617,-0.44583 2.7174,-0.68239 3.60547,-0.67916c0.70465,0.00256 2.00182,0.14405 2.92164,0.50444c1.19703,0.469 1.9524,1.18534 1.9524,1.18534l-0.39136,2.73954" fill="#000000" stroke="#080807" stroke-width="0" stroke-linecap="round"/><path d="M250.74825,178.2625l-0.67142,-3.58289l2.9543,2.13542z" fill="#000000" stroke="#080807" stroke-width="0" stroke-linecap="butt"/><path d="M257.18646,176.9513l2.52736,-2.13542l-0.57439,3.58289z" data-paper-data="{&quot;index&quot;:null}" fill="#000000" stroke="#080807" stroke-width="0" stroke-linecap="butt"/><path d="M255.06262,177.46479l1.64098,-2.87311l0.69014,3.5624z" data-paper-data="{&quot;index&quot;:null}" fill="#000000" stroke="#080807" stroke-width="0" stroke-linecap="butt"/><path d="M252.98106,177.36803l0.54377,-3.26372l1.88177,3.10257z" data-paper-data="{&quot;index&quot;:null}" fill="#000000" stroke="#080807" stroke-width="0" stroke-linecap="butt"/><path d="M252.12769,179.27842c0,-0.56001 0.45398,-1.01399 1.01399,-1.01399c0.56001,0 1.01399,0.45398 1.01399,1.01399c0,0.56001 -0.45398,1.01399 -1.01399,1.01399c-0.56001,0 -1.01399,-0.45398 -1.01399,-1.01399z" fill="#ffffff" stroke="#080807" stroke-width="0" stroke-linecap="butt"/><path d="M255.78622,179.27237c0,-0.56001 0.45398,-1.01399 1.01399,-1.01399c0.56001,0 1.01399,0.45398 1.01399,1.01399c0,0.56001 -0.45398,1.01399 -1.01399,1.01399c-0.56001,0 -1.01399,-0.45398 -1.01399,-1.01399z" fill="#ffffff" stroke="#080807" stroke-width="0" stroke-linecap="butt"/><path d="M250.76745,164.66071l8.46051,-0.01689v1.22446h-8.46051z" fill="#080807" stroke="#080807" stroke-width="0" stroke-linecap="round"/><path d="M251.02394,164.98083l-0.34234,-5.66416c0,0 0.352,-0.52292 1.14114,-0.8529c0.93262,-0.38998 2.37701,-0.59692 3.15383,-0.59409c0.61638,0.00224 1.75107,0.12601 2.55567,0.44125c1.04709,0.41025 1.70784,1.03686 1.70784,1.03686l-0.40458,5.50855" fill="#000000" stroke="#080807" stroke-width="0" stroke-linecap="round"/><path d="M251.4045,159.40835l-0.58732,-3.13408l2.58423,1.86793z" fill="#000000" stroke="#080807" stroke-width="0" stroke-linecap="butt"/><path d="M257.03624,158.26139l2.21077,-1.86793l-0.50244,3.13408z" data-paper-data="{&quot;index&quot;:null}" fill="#000000" stroke="#080807" stroke-width="0" stroke-linecap="butt"/><path d="M255.17844,158.71056l1.43542,-2.51321l0.60369,3.11616z" data-paper-data="{&quot;index&quot;:null}" fill="#000000" stroke="#080807" stroke-width="0" stroke-linecap="butt"/><path d="M253.35762,158.62592l0.47566,-2.85489l1.64606,2.71393z" data-paper-data="{&quot;index&quot;:null}" fill="#000000" stroke="#080807" stroke-width="0" stroke-linecap="butt"/><path d="M252.51679,161.64395c0,-0.48986 0.39711,-0.88697 0.88697,-0.88697c0.48986,0 0.88697,0.39711 0.88697,0.88697c0,0.48986 -0.39711,0.88697 -0.88697,0.88697c-0.48986,0 -0.88697,-0.39711 -0.88697,-0.88697z" fill="#ffffff" stroke="#080807" stroke-width="0" stroke-linecap="butt"/><path d="M255.71704,161.63866c0,-0.48986 0.39711,-0.88697 0.88697,-0.88697c0.48986,0 0.88697,0.39711 0.88697,0.88697c0,0.48986 -0.39711,0.88697 -0.88697,0.88697c-0.48986,0 -0.88697,-0.39711 -0.88697,-0.88697z" fill="#ffffff" stroke="#080807" stroke-width="0" stroke-linecap="butt"/><path d="M249.05458,145.97349l0.23096,-1.75284l0.46411,-0.48849l1.67779,-0.51731l1.8539,0.22214l1.58971,0.89637l1.00838,-0.49917l0.45841,-1.25933l-0.04005,-1.2703l-0.41403,-0.75716l1.66722,-1.59542l1.77673,-0.39159l1.42441,0.16735l-0.39814,0.58061l-0.21837,0.65257l0.26612,1.29794l-0.37498,0.55845l-0.38495,1.0116l0.09982,0.61424l0.5918,0.91975l-0.62471,0.57563l-0.21388,0.44866l-0.13024,0.76785l0.16929,0.54776l-0.83233,-0.29034l-1.01758,-0.11307l-1.38109,-0.07573l-1.11718,0.29277l-0.22386,0.9018l-0.77012,1.00312l-0.77733,0.30025l-1.0019,0.20463l-1.31412,-0.02892l-0.91798,-0.5189l-0.41303,-0.80247l0.60875,0.1494l0.35282,-0.58161l0.87765,0.29133l0.42079,-0.58011l0.66974,0.4681l0.37847,-0.71705l0.72004,0.24253l0.67052,-0.59729l-0.38069,-0.21239l-0.4178,0.44417l-0.76087,-0.44744l-0.40611,0.94313l-0.55197,-0.66952l-0.21638,0.56194l-0.96977,-0.22536l-0.6257,0.62094l-0.78353,-0.44794z" fill="#000000" stroke="#000000" stroke-width="0" stroke-linecap="round"/><path d="M249.88703,145.34543c0,-0.35671 0.28917,-0.64589 0.64589,-0.64589c0.35671,0 0.64589,0.28917 0.64589,0.64589c0,0.35671 -0.28917,0.64589 -0.64589,0.64589c-0.35671,0 -0.64589,-0.28917 -0.64589,-0.64589z" fill="#ffffff" stroke="#080807" stroke-width="0" stroke-linecap="butt"/><path d="M260.20528,129.39512l-0.78353,0.44794l-0.62571,-0.62094l-0.96977,0.22536l-0.21638,-0.56194l-0.55197,0.66952l-0.40612,-0.94313l-0.76088,0.44744l-0.4178,-0.44417l-0.38069,0.2124l0.67052,0.59728l0.72005,-0.24253l0.37847,0.71705l0.66974,-0.4681l0.4208,0.58011l0.87765,-0.29134l0.35282,0.5816l0.60876,-0.1494l-0.41304,0.80247l-0.91797,0.5189l-1.31412,0.02892l-1.00191,-0.20463l-0.77733,-0.30025l-0.77012,-1.00312l-0.22386,-0.90179l-1.11719,-0.29277l-1.38109,0.07574l-1.01758,0.11307l-0.83234,0.29033l0.16929,-0.54776l-0.13024,-0.76785l-0.21389,-0.44866l-0.6247,-0.57563l0.5918,-0.91975l0.09983,-0.61423l-0.38495,-1.0116l-0.37498,-0.55845l0.26612,-1.29794l-0.21838,-0.65257l-0.39814,-0.58061l1.42441,-0.16736l1.77673,0.3916l1.66722,1.59542l-0.41404,0.75716l-0.04005,1.2703l0.45841,1.25933l1.00839,0.49917l1.58971,-0.89637l1.85391,-0.22214l1.67778,0.51731l0.46411,0.48849l0.23096,1.75283z" data-paper-data="{&quot;index&quot;:null}" fill="#000000" stroke="#000000" stroke-width="0" stroke-linecap="round"/><path d="M259.0257,128.56765c-0.35672,0 -0.64589,-0.28917 -0.64589,-0.64589c0,-0.35672 0.28918,-0.64588 0.64589,-0.64588c0.35672,0 0.64589,0.28917 0.64589,0.64588c0,0.35672 -0.28917,0.64589 -0.64589,0.64589z" data-paper-data="{&quot;index&quot;:null}" fill="#ffffff" stroke="#080807" stroke-width="0" stroke-linecap="butt"/><path d="M249.939,199.08765c0,0 0.45077,-0.38646 0.63624,-0.51728c0.08123,-0.05729 0.5142,-0.0554 0.93056,0.07678c0.32233,0.10233 1.16967,0.26785 1.62622,0.26532c0.4778,-0.00264 1.74249,-0.5629 1.88851,-0.52822c0.07602,0.01806 0.85996,0.17437 1.57485,0.21959c0.62512,0.03955 1.19744,-0.03025 1.19744,-0.03025c0,0 0.82725,-0.20857 1.03227,-0.20857c0.09804,0 0.51652,0.05486 0.88711,0.22005c0.32666,0.14561 0.6161,0.40403 0.6161,0.40403v1.50361h-10.3893z" fill="#080807" stroke="#080807" stroke-width="0" stroke-linecap="round"/><path d="M255.0033,197.8938l-3.10283,-0.65364l3.57846,-0.55614" data-paper-data="{&quot;index&quot;:null}" fill="#000000" stroke="#080807" stroke-width="0" stroke-linecap="round"/><path d="M253.35337,196.90536l-1.53814,0.26354l-0.2328,-2.96058z" data-paper-data="{&quot;index&quot;:null}" fill="#000000" stroke="#080807" stroke-width="0" stroke-linecap="round"/><path d="M253.72447,193.46495l-1.56412,1.38584l-0.51365,-0.80595z" data-paper-data="{&quot;index&quot;:null}" fill="#000000" stroke="#080807" stroke-width="0" stroke-linecap="round"/><path d="M253.16724,194.11413l0.65533,-0.61062l0.93507,1.4624z" data-paper-data="{&quot;index&quot;:null}" fill="#000000" stroke="#080807" stroke-width="0" stroke-linecap="round"/><path d="M253.97292,194.6574l0.77885,0.41946l-0.79561,1.15948z" data-paper-data="{&quot;index&quot;:null}" fill="#000000" stroke="#080807" stroke-width="0" stroke-linecap="round"/><path d="M252.67514,194.32626l0.67134,-3.55865l0.55316,3.12231" data-paper-data="{&quot;index&quot;:null}" fill="#000000" stroke="#080807" stroke-width="0" stroke-linecap="round"/><path d="M250.32648,190.35188l2.95153,0.32823l-0.31304,1.52883z" data-paper-data="{&quot;index&quot;:null}" fill="#000000" stroke="#080807" stroke-width="0" stroke-linecap="round"/><path d="M250.161,190.41085l0.78896,0.53939l-1.4356,1.51858z" data-paper-data="{&quot;index&quot;:null}" fill="#000000" stroke="#080807" stroke-width="0" stroke-linecap="round"/><path d="M250.98121,193.54989l-1.43146,-0.98178l0.63145,-0.63528z" data-paper-data="{&quot;index&quot;:null}" fill="#000000" stroke="#080807" stroke-width="0" stroke-linecap="round"/><path d="M252.27684,192.78983l-1.18455,0.75778l-0.39411,-0.79199z" data-paper-data="{&quot;index&quot;:null}" fill="#000000" stroke="#080807" stroke-width="0" stroke-linecap="round"/><path d="M254.77362,198.42593l0.94912,-3.02556l0.20929,3.61537" data-paper-data="{&quot;index&quot;:null}" fill="#000000" stroke="#080807" stroke-width="0" stroke-linecap="round"/><path d="M255.91621,196.87874l-0.11434,-1.55636l2.96925,0.0531z" data-paper-data="{&quot;index&quot;:null}" fill="#000000" stroke="#080807" stroke-width="0" stroke-linecap="round"/><path d="M259.30497,197.57911l-1.22894,-1.6902l0.85163,-0.43373z" data-paper-data="{&quot;index&quot;:null}" fill="#000000" stroke="#080807" stroke-width="0" stroke-linecap="round"/><path d="M258.7124,196.96201l0.54474,0.71104l-1.54558,0.79004z" data-paper-data="{&quot;index&quot;:null}" fill="#000000" stroke="#080807" stroke-width="0" stroke-linecap="round"/><path d="M258.09415,197.71169l-0.49245,0.73488l-1.07755,-0.90347z" data-paper-data="{&quot;index&quot;:null}" fill="#000000" stroke="#080807" stroke-width="0" stroke-linecap="round"/><path d="M256.06204,195.54398l-0.37927,-3.14817l1.67775,3.20934" data-paper-data="{&quot;index&quot;:null}" fill="#000000" stroke="#080807" stroke-width="0" stroke-linecap="round"/><path d="M256.46717,193.66378l-0.74434,-1.3716l2.72832,-1.17283z" data-paper-data="{&quot;index&quot;:null}" fill="#000000" stroke="#080807" stroke-width="0" stroke-linecap="round"/><path d="M259.84409,192.90839l-1.81535,-1.03516l0.59788,-0.74562z" data-paper-data="{&quot;index&quot;:null}" fill="#000000" stroke="#080807" stroke-width="0" stroke-linecap="round"/><path d="M259.05015,192.58962l0.78898,0.42406l-1.08386,1.35582z" data-paper-data="{&quot;index&quot;:null}" fill="#000000" stroke="#080807" stroke-width="0" stroke-linecap="round"/><path d="M258.79495,193.52724l-0.14662,0.87239l-1.35379,-0.38033z" data-paper-data="{&quot;index&quot;:null}" fill="#000000" stroke="#080807" stroke-width="0" stroke-linecap="round"/><path d="M259.02639,198.56845l1.35741,-1.90038l-0.70585,2.11756" data-paper-data="{&quot;index&quot;:null}" fill="#000000" stroke="#080807" stroke-width="0" stroke-linecap="round"/><path d="M253.27097,199.54579l0.0543,-3.63786l0.81445,2.93201" data-paper-data="{&quot;index&quot;:null}" fill="#000000" stroke="#080807" stroke-width="0" stroke-linecap="round"/><path d="M251.04482,198.94853l-1.35741,-1.5203l1.79178,0.97734" data-paper-data="{&quot;index&quot;:null}" fill="#000000" stroke="#080807" stroke-width="0" stroke-linecap="round"/><path d="M258.3142,198.75284l0.87508,-1.22511l-0.45504,1.36513" data-paper-data="{&quot;index&quot;:null}" fill="#000000" stroke="#080807" stroke-width="0" stroke-linecap="round"/><path d="M258.15415,198.89946l-0.79117,-1.5254l1.28336,1.59783" data-paper-data="{&quot;index&quot;:null}" fill="#000000" stroke="#080807" stroke-width="0" stroke-linecap="round"/><path d="M255.18876,199.14263l1.32255,-1.93704l-0.60441,1.86632" data-paper-data="{&quot;index&quot;:null}" fill="#000000" stroke="#080807" stroke-width="0" stroke-linecap="round"/><path d="M251.43195,198.84753l0.07425,-1.31181l0.37127,1.26231" data-paper-data="{&quot;index&quot;:null}" fill="#000000" stroke="#080807" stroke-width="0" stroke-linecap="round"/><path d="M250.49196,232.93463c0,0 0.40843,-0.35017 0.57648,-0.46869c0.0736,-0.05191 0.4659,-0.0502 0.84315,0.06957c0.29205,0.09272 1.0598,0.24269 1.47348,0.2404c0.43292,-0.00239 1.57883,-0.51003 1.71113,-0.4786c0.06888,0.01636 0.77919,0.15799 1.42693,0.19896c0.56641,0.03583 1.08497,-0.02741 1.08497,-0.02741c0,0 0.74955,-0.18898 0.93531,-0.18898c0.08883,0 0.46801,0.04971 0.80379,0.19938c0.29597,0.13193 0.55824,0.36608 0.55824,0.36608v1.36238h-9.41347z" fill="#080807" stroke="#080807" stroke-width="0" stroke-linecap="round"/><path d="M255.87671,232.99063l2.55822,-4.3785l-0.73795,4.3785" fill="#000000" stroke="#080807" stroke-width="0" stroke-linecap="round"/><path d="M254.6468,226.10311l3.73894,1.82027l-1.13152,1.86947z" fill="#000000" stroke="#080807" stroke-width="0" stroke-linecap="round"/><path d="M254.10563,226.05391l0.78715,1.08233l-2.60742,1.32831z" fill="#000000" stroke="#080807" stroke-width="0" stroke-linecap="round"/><path d="M253.51528,230.97357l-1.4267,-1.96786l1.13152,-0.54116z" fill="#000000" stroke="#080807" stroke-width="0" stroke-linecap="round"/><path d="M255.92591,230.92438l-1.91867,0.44277l-0.14759,-1.22991z" fill="#000000" stroke="#080807" stroke-width="0" stroke-linecap="round"/><path d="M251.34632,232.95616l-0.63956,-1.91867l1.22991,1.72188" fill="#000000" stroke="#080807" stroke-width="0" stroke-linecap="round"/><path d="M251.83829,230.05356l-0.49197,1.22991l-0.68875,-0.83634z" fill="#000000" stroke="#080807" stroke-width="0" stroke-linecap="round"/><path d="M255.23285,233.00536l0.73795,-2.65662l0.0492,3.29617" fill="#000000" stroke="#080807" stroke-width="0" stroke-linecap="round"/><path d="M258.77501,232.61179l1.62349,-0.88554l-1.22991,1.3775" fill="#000000" stroke="#080807" stroke-width="0" stroke-linecap="round"/><path d="M252.20139,233.05331l-0.4123,-1.23691l0.79289,1.11004" fill="#000000" stroke="#080807" stroke-width="0" stroke-linecap="round"/><path d="M252.28103,233.12492l1.16282,-1.44775l-0.71686,1.38213" fill="#000000" stroke="#080807" stroke-width="0" stroke-linecap="round"/><path d="M254.76318,233.21554l-0.54764,-1.69102l1.19833,1.75511" fill="#000000" stroke="#080807" stroke-width="0" stroke-linecap="round"/><path d="M258.41414,232.96739l0.33639,-1.14374l0.06728,1.18859" fill="#000000" stroke="#080807" stroke-width="0" stroke-linecap="round"/><path d="M259.83234,217.26117h-9.41347v-1.36238c0,0 0.26227,-0.23415 0.55824,-0.36608c0.33578,-0.14968 0.71495,-0.19938 0.80378,-0.19938c0.18576,0 0.93531,0.18897 0.93531,0.18897c0,0 0.51856,0.06324 1.08497,0.02741c0.64774,-0.04098 1.35805,-0.18261 1.42693,-0.19897c0.1323,-0.03143 1.27821,0.47621 1.71113,0.47861c0.41368,0.00229 1.18142,-0.14768 1.47348,-0.2404c0.37725,-0.11977 0.76955,-0.12148 0.84316,-0.06957c0.16805,0.11853 0.57647,0.46869 0.57647,0.46869z" data-paper-data="{&quot;index&quot;:null}" fill="#080807" stroke="#080807" stroke-width="0" stroke-linecap="round"/><path d="M252.62731,216.04407l-0.73795,-4.3785l2.55822,4.3785" data-paper-data="{&quot;index&quot;:null}" fill="#000000" stroke="#080807" stroke-width="0" stroke-linecap="round"/><path d="M253.07008,212.84629l-1.13152,-1.86947l3.73894,-1.82028z" data-paper-data="{&quot;index&quot;:null}" fill="#000000" stroke="#080807" stroke-width="0" stroke-linecap="round"/><path d="M258.03894,211.51798l-2.60742,-1.32831l0.78714,-1.08232z" data-paper-data="{&quot;index&quot;:null}" fill="#000000" stroke="#080807" stroke-width="0" stroke-linecap="round"/><path d="M257.1042,211.51798l1.13152,0.54117l-1.4267,1.96786z" data-paper-data="{&quot;index&quot;:null}" fill="#000000" stroke="#080807" stroke-width="0" stroke-linecap="round"/><path d="M256.46465,213.19067l-0.14759,1.22992l-1.91867,-0.44277z" data-paper-data="{&quot;index&quot;:null}" fill="#000000" stroke="#080807" stroke-width="0" stroke-linecap="round"/><path d="M258.38762,215.81281l1.22992,-1.72188l-0.63956,1.91867" data-paper-data="{&quot;index&quot;:null}" fill="#000000" stroke="#080807" stroke-width="0" stroke-linecap="round"/><path d="M259.66673,213.50057l-0.68875,0.83634l-0.49197,-1.22992z" data-paper-data="{&quot;index&quot;:null}" fill="#000000" stroke="#080807" stroke-width="0" stroke-linecap="round"/><path d="M254.3043,216.69835l0.04919,-3.29617l0.73795,2.65661" data-paper-data="{&quot;index&quot;:null}" fill="#000000" stroke="#080807" stroke-width="0" stroke-linecap="round"/><path d="M251.15572,216.15719l-1.22992,-1.37751l1.62349,0.88554" data-paper-data="{&quot;index&quot;:null}" fill="#000000" stroke="#080807" stroke-width="0" stroke-linecap="round"/><path d="M257.74232,215.97988l0.79289,-1.11005l-0.4123,1.23691" data-paper-data="{&quot;index&quot;:null}" fill="#000000" stroke="#080807" stroke-width="0" stroke-linecap="round"/><path d="M257.59731,216.11273l-0.71686,-1.38213l1.16282,1.44776" data-paper-data="{&quot;index&quot;:null}" fill="#000000" stroke="#080807" stroke-width="0" stroke-linecap="round"/><path d="M254.91044,216.33306l1.19833,-1.7551l-0.54764,1.69102" data-paper-data="{&quot;index&quot;:null}" fill="#000000" stroke="#080807" stroke-width="0" stroke-linecap="round"/><path d="M251.50649,216.06568l0.06727,-1.18859l0.3364,1.14374" data-paper-data="{&quot;index&quot;:null}" fill="#000000" stroke="#080807" stroke-width="0" stroke-linecap="round"/></g></g></svg>