<svg version="1.1" xmlns="http://www.w3.org/2000/svg" xmlns:xlink="http://www.w3.org/1999/xlink" width="30.73814" height="22.98387" viewBox="0,0,30.73814,22.98387"><g transform="translate(-223.21577,-168.15855)"><g data-paper-data="{&quot;isPaintingLayer&quot;:true}" fill-rule="nonzero" stroke="#000000" stroke-width="0.5" stroke-linejoin="miter" stroke-miterlimit="10" stroke-dasharray="" stroke-dashoffset="0" style="mix-blend-mode: normal"><path d="M227.22541,173.41844l8.23826,1.80988l-0.56559,2.57444l-8.23825,-1.8099z" data-paper-data="{&quot;index&quot;:null}" fill="#00b6bf" stroke-linecap="butt"/><path d="M236.30896,182.02523c-0.84,-0.76738 -2.25685,-2.31481 -2.69845,-3.9893c-0.19606,-0.74346 -0.16743,-1.97372 0.17328,-2.34668c0.38861,-0.42539 1.5824,-0.67544 2.48097,-0.4717c1.66357,0.37718 3.26939,1.69569 4.05695,2.41516c1.21297,1.10807 1.29799,2.98967 0.18991,4.20263c-1.10807,1.21297 -2.98967,1.29799 -4.20263,0.18991z" data-paper-data="{&quot;index&quot;:null}" fill="#00bf19" stroke-linecap="butt"/><path d="M229.74362,173.76494l-1.23701,3.14381l-2.90084,1.09278l-2.06583,-0.81284l3.42556,-8.70596l1.77069,0.69671z" data-paper-data="{&quot;index&quot;:null}" fill="#00bf19" stroke-linecap="round"/><path d="M251.29761,177.65246l0.45967,12.54508l-18.71961,0.6859l-0.45967,-12.54508z" data-paper-data="{&quot;index&quot;:null}" fill="#00ff21" stroke-linecap="butt"/><path d="M251.29772,177.66306l0.20714,5.65323l-4.34705,-1.34838l-2.05849,1.27017l-2.90284,0.34918l-2.53078,2.64085l-2.27085,-1.77401l-1.33208,0.17101l-1.87576,-1.56819l-1.43041,0.2636l-0.1832,-4.99984z" data-paper-data="{&quot;index&quot;:null}" fill="#00f2ff" stroke-linecap="round"/><path d="M247.77214,183.98393c0.98661,-0.03615 1.81571,0.73434 1.85186,1.72095c0.03615,0.98661 -0.73434,1.81571 -1.72095,1.85186c-0.98661,0.03615 -1.81571,-0.73434 -1.85186,-1.72095c-0.03615,-0.98661 0.73434,-1.81571 1.72095,-1.85186z" data-paper-data="{&quot;index&quot;:null}" fill="#00f2ff" stroke-linecap="butt"/><path d="M247.08299,174.71479l-6.6429,5.19773l-1.6243,-2.0759l6.6429,-5.19773z" data-paper-data="{&quot;index&quot;:null}" fill="#00f2ff" stroke-linecap="butt"/><path d="M236.17662,177.99017c0.94754,-0.62977 2.79141,-1.63088 4.52298,-1.65493c0.76881,-0.01068 1.95573,0.31425 2.23534,0.73498c0.31893,0.47987 0.27322,1.6987 -0.14153,2.52143c-0.76787,1.5232 -2.43522,2.76298 -3.32361,3.35344c-1.36826,0.90939 -3.21466,0.53741 -4.12405,-0.83086c-0.90939,-1.36827 -0.53741,-3.21467 0.83086,-4.12406z" data-paper-data="{&quot;index&quot;:null}" fill="#00ff21" stroke-linecap="butt"/><path d="M247.75248,176.30788l-2.6685,-2.07194l-0.23203,-3.09114l1.36148,-1.75348l7.38969,5.73768l-1.16699,1.50299z" data-paper-data="{&quot;index&quot;:null}" fill="#00ff21" stroke-linecap="round"/></g></g></svg>