<svg version="1.1" xmlns="http://www.w3.org/2000/svg" xmlns:xlink="http://www.w3.org/1999/xlink" width="88.68625" height="25.51514" viewBox="0,0,88.68625,25.51514"><defs><linearGradient x1="240" y1="169.589" x2="240" y2="190.411" gradientUnits="userSpaceOnUse" id="color-1"><stop offset="0" stop-color="#ff7300"/><stop offset="1" stop-color="#ff0107"/></linearGradient></defs><g transform="translate(-229.089,-169.089)"><g data-paper-data="{&quot;isPaintingLayer&quot;:true}" fill-rule="nonzero" stroke="#000000" stroke-linejoin="miter" stroke-miterlimit="10" stroke-dasharray="" stroke-dashoffset="0" style="mix-blend-mode: normal"><path d="M229.589,180c0,-5.74983 4.66116,-10.411 10.411,-10.411c5.74983,0 10.411,4.66116 10.411,10.411c0,5.74983 -4.66116,10.411 -10.411,10.411c-5.74983,0 -10.411,-4.66116 -10.411,-10.411z" fill="url(#color-1)" stroke-width="1" stroke-linecap="butt"/><text transform="translate(254.56431,186.97133) scale(0.5,0.5)" font-size="40" xml:space="preserve" fill="#ffffff" fill-rule="nonzero" stroke="#000000" stroke-width="1" stroke-linecap="butt" stroke-linejoin="miter" stroke-miterlimit="10" stroke-dasharray="" stroke-dashoffset="0" font-family="Marker" font-weight="normal" text-anchor="start" style="mix-blend-mode: normal"><tspan x="0" dy="0">Harder</tspan></text><path d="M233.87709,177.76972c0,-1.03038 0.83529,-1.86567 1.86567,-1.86567c0.49656,0 0.7366,0.3348 1.07089,0.65113c0.35938,0.34007 0.79478,0.68072 0.79478,1.21454c0,1.03038 -0.83529,1.79527 -1.86567,1.79527c-1.03038,0 -1.86567,-0.76489 -1.86567,-1.79527z" fill="#000000" stroke-width="1.5" stroke-linecap="butt"/><path d="M233.8081,176.78549c0,-0.44715 0.36249,-0.80963 0.80963,-0.80963c0.44715,0 0.80963,0.36249 0.80963,0.80963c0,0.44715 -0.36248,0.80963 -0.80963,0.80963c-0.44715,0 -0.80963,-0.36248 -0.80963,-0.80963z" fill="#ffffff" stroke-width="0" stroke-linecap="butt"/><path d="M243.03085,177.77113c0,-0.55343 0.45218,-0.90977 0.83492,-1.25144c0.32985,-0.29446 0.5538,-0.61424 1.03075,-0.61424c1.03038,0 1.86567,0.8353 1.86567,1.86568c0,1.03038 -0.83529,1.79527 -1.86567,1.79527c-1.03038,0 -1.86567,-0.76489 -1.86567,-1.79527z" fill="#000000" stroke-width="1.5" stroke-linecap="butt"/><path d="M242.96185,176.7869c0,-0.44715 0.36249,-0.80964 0.80963,-0.80964c0.44715,0 0.80963,0.36249 0.80963,0.80964c0,0.44715 -0.36248,0.80963 -0.80963,0.80963c-0.44715,0 -0.80963,-0.36248 -0.80963,-0.80963z" fill="#ffffff" stroke-width="0" stroke-linecap="butt"/><path d="M243.45185,182.5923c0,0 -0.73183,-0.50158 -1.57827,-0.81479c-0.64922,-0.24023 -1.36587,-0.31166 -1.87145,-0.31166c-0.5164,0 -1.2572,0.05243 -1.94794,0.27883c-0.97699,0.32023 -1.85381,0.84761 -1.85381,0.84761" fill="none" stroke-width="1" stroke-linecap="round"/><path d="M237.186,174.35519l-3.66094,-1.68967" data-paper-data="{&quot;index&quot;:null}" fill="none" stroke-width="1.5" stroke-linecap="round"/><path d="M242.88863,174.28479l4.01295,-1.68967" data-paper-data="{&quot;index&quot;:null}" fill="none" stroke-width="1.5" stroke-linecap="round"/></g></g></svg>