<svg version="1.1" xmlns="http://www.w3.org/2000/svg" xmlns:xlink="http://www.w3.org/1999/xlink" width="25.63355" height="25.53585" viewBox="0,0,25.63355,25.53585"><g transform="translate(-227.18322,-167.23208)"><g data-paper-data="{&quot;isPaintingLayer&quot;:true}" fill-rule="nonzero" stroke="#000000" stroke-linecap="butt" stroke-linejoin="miter" stroke-miterlimit="10" stroke-dasharray="" stroke-dashoffset="0" style="mix-blend-mode: normal"><path d="M227.93322,187.7514c0,-5.16758 0.09771,-13.51673 0.09771,-16.21931c0,-1.67105 2.51534,-3.55001 4.56629,-3.55001c2.87657,0 10.82804,0 15.63307,0c2.26907,0 3.83648,1.93876 3.83648,3.64772c0,2.48472 0,11.4808 0,16.61014c0,3.21115 -2.11583,3.77799 -3.93419,3.77799c-2.74469,0 -10.78737,0 -15.82848,0c-2.50808,0 -4.37088,-1.75857 -4.37088,-4.26652z" fill="#04e200" stroke-width="1.5"/><path d="M233.78726,179.31409l9.13484,-9.13484l6.92988,6.92988l-9.13484,9.13484z" fill="#ff6b6b" stroke-width="1"/><path d="M230.14803,182.49713l9.13484,-9.13484l7.32362,7.32362l-9.13484,9.13484z" fill="#b5b5b5" stroke-width="1"/></g></g></svg>