<svg version="1.1" xmlns="http://www.w3.org/2000/svg" xmlns:xlink="http://www.w3.org/1999/xlink" width="72.35878" height="25.68169" viewBox="0,0,72.35878,25.68169"><defs><linearGradient x1="240" y1="169.589" x2="240" y2="190.411" gradientUnits="userSpaceOnUse" id="color-1"><stop offset="0" stop-color="#ffea00"/><stop offset="1" stop-color="#ff7f00"/></linearGradient></defs><g transform="translate(-229.089,-169.089)"><g data-paper-data="{&quot;isPaintingLayer&quot;:true}" fill-rule="nonzero" stroke="#000000" stroke-linejoin="miter" stroke-miterlimit="10" stroke-dasharray="" stroke-dashoffset="0" style="mix-blend-mode: normal"><path d="M229.589,180c0,-5.74983 4.66116,-10.411 10.411,-10.411c5.74983,0 10.411,4.66116 10.411,10.411c0,5.74983 -4.66116,10.411 -10.411,10.411c-5.74983,0 -10.411,-4.66116 -10.411,-10.411z" fill="url(#color-1)" stroke-width="1" stroke-linecap="butt"/><text transform="translate(253.56497,187.13788) scale(0.5,0.5)" font-size="40" xml:space="preserve" fill="#ffffff" fill-rule="nonzero" stroke="#000000" stroke-width="1" stroke-linecap="butt" stroke-linejoin="miter" stroke-miterlimit="10" stroke-dasharray="" stroke-dashoffset="0" font-family="Marker" font-weight="normal" text-anchor="start" style="mix-blend-mode: normal"><tspan x="0" dy="0">Hard</tspan></text><path d="M233.87709,177.1361c0,-1.03038 0.83529,-1.86567 1.86567,-1.86567c1.03038,0 1.86567,0.83529 1.86567,1.86567c0,1.03038 -0.83529,1.79527 -1.86567,1.79527c-1.03038,0 -1.86567,-0.76489 -1.86567,-1.79527z" fill="#000000" stroke-width="1.5" stroke-linecap="butt"/><path d="M233.8081,176.15187c0,-0.44715 0.36249,-0.80963 0.80963,-0.80963c0.44715,0 0.80963,0.36249 0.80963,0.80963c0,0.44715 -0.36248,0.80963 -0.80963,0.80963c-0.44715,0 -0.80963,-0.36248 -0.80963,-0.80963z" fill="#ffffff" stroke-width="0" stroke-linecap="butt"/><path d="M243.03085,177.13751c0,-1.03038 0.83529,-1.86568 1.86567,-1.86568c1.03038,0 1.86567,0.8353 1.86567,1.86568c0,1.03038 -0.83529,1.79527 -1.86567,1.79527c-1.03038,0 -1.86567,-0.76489 -1.86567,-1.79527z" fill="#000000" stroke-width="1.5" stroke-linecap="butt"/><path d="M242.96185,176.15328c0,-0.44715 0.36249,-0.80964 0.80963,-0.80964c0.44715,0 0.80963,0.36249 0.80963,0.80964c0,0.44715 -0.36248,0.80963 -0.80963,0.80963c-0.44715,0 -0.80963,-0.36248 -0.80963,-0.80963z" fill="#ffffff" stroke-width="0" stroke-linecap="butt"/><path d="M238.52366,183.57794h2.95691" fill="none" stroke-width="1" stroke-linecap="round"/><path d="M236.83399,172.59512l-3.66094,0.42242" fill="none" stroke-width="1.5" stroke-linecap="round"/><path d="M243.24064,172.66552l4.01295,0.42242" fill="none" stroke-width="1.5" stroke-linecap="round"/></g></g></svg>