<svg version="1.1" xmlns="http://www.w3.org/2000/svg" xmlns:xlink="http://www.w3.org/1999/xlink" width="15.15737" height="135.84988" viewBox="0,0,15.15737,135.84988"><defs><linearGradient x1="252.03728" y1="195.28715" x2="258.3993" y2="195.28715" gradientUnits="userSpaceOnUse" id="color-1"><stop offset="0" stop-color="#ffffff"/><stop offset="1" stop-color="#ffffff" stop-opacity="0"/></linearGradient><linearGradient x1="251.31775" y1="126.25363" x2="253.65452" y2="126.25363" gradientUnits="userSpaceOnUse" id="color-2"><stop offset="0" stop-color="#ff0000"/><stop offset="1" stop-color="#ecff00"/></linearGradient><linearGradient x1="253.5961" y1="126.21614" x2="255.81604" y2="126.21614" gradientUnits="userSpaceOnUse" id="color-3"><stop offset="0" stop-color="#ecff00"/><stop offset="1" stop-color="#0090ff"/></linearGradient><linearGradient x1="255.74553" y1="126.1914" x2="257.96547" y2="126.1914" gradientUnits="userSpaceOnUse" id="color-4"><stop offset="0" stop-color="#0090ff"/><stop offset="1" stop-color="#ff0000"/></linearGradient></defs><g transform="translate(-247.38393,-101.55543)"><g data-paper-data="{&quot;isPaintingLayer&quot;:true}" fill-rule="nonzero" stroke-linejoin="miter" stroke-miterlimit="10" stroke-dasharray="" stroke-dashoffset="0" style="mix-blend-mode: normal"><path d="M248.01784,148.49143c0,-2.97169 0,-8.45645 0,-10.02716c0,-0.82648 0.98915,-1.70789 1.88825,-1.70789c1.53199,0 6.57527,0 9.55531,0c1.39128,0 2.24057,0.93873 2.24057,2.29772c0,2.99229 0,8.0221 0,9.55531c0,0.87631 -0.80589,1.8311 -2.00463,1.8311c-3.00153,0 -8.466,0 -9.9092,0c-0.65389,0 -1.77029,-0.7801 -1.77029,-1.94907z" fill="#00ff08" stroke="#000000" stroke-width="1" stroke-linecap="butt"/><path d="M248.01176,165.77191c0,-2.97169 0,-8.45646 0,-10.02716c0,-0.82648 0.98915,-1.70789 1.88825,-1.70789c1.53199,0 6.57527,0 9.5553,0c1.39128,0 2.24058,0.93873 2.24058,2.29773c0,2.99229 0,8.02209 0,9.5553c0,0.87631 -0.8059,1.83111 -2.00463,1.83111c-3.00152,0 -8.466,0 -9.9092,0c-0.65389,0 -1.77029,-0.7801 -1.77029,-1.94907z" fill="#00ff08" stroke="#000000" stroke-width="1" stroke-linecap="butt"/><path d="M247.89002,113.79048c0,-2.97169 0,-8.45646 0,-10.02716c0,-0.82648 0.98915,-1.70789 1.88825,-1.70789c1.53199,0 6.57527,0 9.5553,0c1.39128,0 2.24058,0.93873 2.24058,2.29773c0,2.99229 0,8.02209 0,9.5553c0,0.87631 -0.8059,1.83111 -2.00463,1.83111c-3.00152,0 -8.466,0 -9.9092,0c-0.65389,0 -1.77029,-0.7801 -1.77029,-1.94907z" fill="#00ff08" stroke="#000000" stroke-width="1" stroke-linecap="butt"/><path d="M247.88393,131.07096c0,-2.97169 0,-8.45646 0,-10.02716c0,-0.82648 0.98915,-1.70789 1.88825,-1.70789c1.53199,0 6.57527,0 9.5553,0c1.39128,0 2.24058,0.93873 2.24058,2.29773c0,2.99229 0,8.02209 0,9.5553c0,0.87631 -0.8059,1.83111 -2.00463,1.83111c-3.00152,0 -8.466,0 -9.9092,0c-0.65389,0 -1.77029,-0.7801 -1.77029,-1.94907z" fill="#00ff08" stroke="#000000" stroke-width="1" stroke-linecap="butt"/><path d="M248.35717,217.67575c0,-2.97169 0,-8.45646 0,-10.02716c0,-0.82648 0.98915,-1.70789 1.88825,-1.70789c1.53199,0 6.57527,0 9.5553,0c1.39128,0 2.24058,0.93873 2.24058,2.29773c0,2.99229 0,8.02209 0,9.5553c0,0.87631 -0.8059,1.83111 -2.00463,1.83111c-3.00152,0 -8.466,0 -9.9092,0c-0.65389,0 -1.77029,-0.7801 -1.77029,-1.94907z" fill="#00ff08" stroke="#000000" stroke-width="1" stroke-linecap="butt"/><path d="M248.35108,234.95622c0,-2.97169 0,-8.45646 0,-10.02716c0,-0.82648 0.98915,-1.70789 1.88825,-1.70789c1.53199,0 6.57527,0 9.5553,0c1.39128,0 2.24058,0.93873 2.24058,2.29773c0,2.99229 0,8.02209 0,9.5553c0,0.87631 -0.8059,1.83111 -2.00463,1.83111c-3.00152,0 -8.466,0 -9.9092,0c-0.65389,0 -1.77029,-0.7801 -1.77029,-1.94907z" fill="#00ff08" stroke="#000000" stroke-width="1" stroke-linecap="butt"/><path d="M248.22935,182.9748c0,-2.97169 0,-8.45646 0,-10.02716c0,-0.82648 0.98915,-1.70789 1.88825,-1.70789c1.53199,0 6.57527,0 9.5553,0c1.39128,0 2.24058,0.93873 2.24058,2.29773c0,2.99229 0,8.02209 0,9.5553c0,0.87631 -0.8059,1.83111 -2.00463,1.83111c-3.00152,0 -8.466,0 -9.9092,0c-0.65389,0 -1.77029,-0.7801 -1.77029,-1.94907z" fill="#00ff08" stroke="#000000" stroke-width="1" stroke-linecap="butt"/><path d="M248.22326,200.25528c0,-2.97169 0,-8.45646 0,-10.02716c0,-0.82648 0.98915,-1.70789 1.88825,-1.70789c1.53199,0 6.57527,0 9.5553,0c1.39128,0 2.24058,0.93873 2.24058,2.29773c0,2.99229 0,8.02209 0,9.5553c0,0.87631 -0.8059,1.83111 -2.00463,1.83111c-3.00152,0 -8.466,0 -9.9092,0c-0.65389,0 -1.77029,-0.7801 -1.77029,-1.94907z" fill="#00ff08" stroke="#000000" stroke-width="1" stroke-linecap="butt"/><g stroke-width="0" stroke-linecap="butt"><path d="M249.79229,230.21216c0,-3.08705 2.50255,-5.5896 5.5896,-5.5896c3.08705,0 5.5896,2.50255 5.5896,5.5896c0,3.08705 -2.50255,5.5896 -5.5896,5.5896c-3.08705,0 -5.5896,-2.50255 -5.5896,-5.5896z" fill="#ff0000" stroke="#000000"/><path d="M253.42538,228.76783c0,-1.07189 0.86894,-1.94084 1.94084,-1.94084c1.07189,0 1.94084,0.86894 1.94084,1.94084c0,1.07189 -0.86894,1.94084 -1.94084,1.94084c-1.07189,0 -1.94084,-0.86894 -1.94084,-1.94084z" fill="#f9ff00" stroke="none"/><path d="M251.97622,231.43323c0,-1.00043 0.81101,-1.81144 1.81144,-1.81144c1.00043,0 1.81144,0.81101 1.81144,1.81144c0,1.00043 -0.81101,1.81144 -1.81144,1.81144c-1.00043,0 -1.81144,-0.81101 -1.81144,-1.81144z" fill="#00ff46" stroke="none"/><path d="M255.18507,231.45911c0,-0.98614 0.79942,-1.78557 1.78557,-1.78557c0.98614,0 1.78557,0.79942 1.78557,1.78557c0,0.98614 -0.79942,1.78557 -1.78557,1.78557c-0.98614,0 -1.78557,-0.79942 -1.78557,-1.78557z" fill="#0079ff" stroke="none"/></g><path d="M250.12009,212.84672c0,-2.85369 2.31337,-5.16706 5.16706,-5.16706c2.85369,0 5.16706,2.31337 5.16706,5.16706c0,2.85369 -2.31337,5.16706 -5.16706,5.16706c-2.85369,0 -5.16706,-2.31337 -5.16706,-5.16706z" fill="#009eff" stroke="#000000" stroke-width="0" stroke-linecap="butt"/><path d="M251.94337,212.77916h6.05369" fill="none" stroke="#07ff00" stroke-width="1" stroke-linecap="round"/><path d="M256.26167,210.7209l2.0179,2.0179l-1.89682,1.89682" fill="none" stroke="#07ff00" stroke-width="1" stroke-linecap="round"/><path d="M249.91351,195.28715c0,-2.92975 2.37503,-5.30478 5.30478,-5.30478c2.92975,0 5.30478,2.37503 5.30478,5.30478c0,2.92975 -2.37503,5.30478 -5.30478,5.30478c-2.92975,0 -5.30478,-2.37503 -5.30478,-5.30478z" fill="#646464" stroke="#000000" stroke-width="0" stroke-linecap="butt"/><path d="M258.3993,198.46816h-6.36202v-6.36202h6.36202z" fill="url(#color-1)" stroke="none" stroke-width="0" stroke-linecap="butt"/><path d="M249.63806,178.24404c0,-2.9868 2.42127,-5.40807 5.40807,-5.40807c2.9868,0 5.40807,2.42127 5.40807,5.40807c0,2.9868 -2.42127,5.40807 -5.40807,5.40807c-2.9868,0 -5.40807,-2.42127 -5.40807,-5.40807z" fill="#0baa00" stroke="#000000" stroke-width="0" stroke-linecap="butt"/><path d="M251.13253,176.62741v-0.66047h3.69508v0.66047z" fill="#fff800" stroke="#fff800" stroke-width="0" stroke-linecap="butt"/><path d="M253.31031,178.14471h-0.66047v-3.69508h0.66047z" fill="#fff800" stroke="#fff800" stroke-width="0" stroke-linecap="butt"/><path d="M252.45612,181.30108l-0.46703,-0.46703l5.64706,-5.64706l0.46703,0.46703z" fill="#fff800" stroke="#fff800" stroke-width="0" stroke-linecap="butt"/><path d="M255.45476,180.71125v-0.66047h3.69508v0.66047z" fill="#fff800" stroke="#fff800" stroke-width="0" stroke-linecap="butt"/><path d="M249.78778,160.83067c0,-2.82864 2.29306,-5.1217 5.1217,-5.1217c2.82864,0 5.1217,2.29306 5.1217,5.1217c0,2.82864 -2.29306,5.1217 -5.1217,5.1217c-2.82864,0 -5.1217,-2.29306 -5.1217,-5.1217z" fill="#9200ab" stroke="#000000" stroke-width="0" stroke-linecap="butt"/><path d="M251.15645,162.23806v-4.3501h4.3501v4.3501z" fill="#fff800" stroke="#fff800" stroke-width="0.5" stroke-linecap="butt"/><path d="M256.52937,163.64471v-2.04711h2.04711v2.04711z" fill="#fff800" stroke="#fff800" stroke-width="0.5" stroke-linecap="butt"/><path d="M249.39714,143.68397c0,-3.04659 2.46975,-5.51634 5.51634,-5.51634c3.04659,0 5.51634,2.46975 5.51634,5.51634c0,3.04659 -2.46975,5.51634 -5.51634,5.51634c-3.04659,0 -5.51634,-2.46975 -5.51634,-5.51634z" fill="#fff800" stroke="#000000" stroke-width="0" stroke-linecap="butt"/><path d="M258.58796,146.42982l-4.31004,-2.74585l4.31004,-2.74585z" fill="#000000" stroke="none" stroke-width="0" stroke-linecap="butt"/><path d="M256.10537,146.06776h-4.86637v-4.86637h4.86637z" fill="#000000" stroke="none" stroke-width="0" stroke-linecap="butt"/><path d="M249.2013,126.24126c0,-3.0046 2.43571,-5.44031 5.44031,-5.44031c3.0046,0 5.44031,2.43571 5.44031,5.44031c0,3.0046 -2.43571,5.44031 -5.44031,5.44031c-3.0046,0 -5.44031,-2.43571 -5.44031,-5.44031z" fill="#ff0000" stroke="#000000" stroke-width="0" stroke-linecap="butt"/><path d="M251.31775,129.66483v-6.8224h2.33677v6.8224z" fill="url(#color-2)" stroke="none" stroke-width="0" stroke-linecap="butt"/><path d="M253.5961,129.66483v-6.8224h2.21993v6.8224z" fill="url(#color-3)" stroke="none" stroke-width="0" stroke-linecap="butt"/><path d="M255.74553,129.64009v-6.8224h2.21993v6.8224z" fill="url(#color-4)" stroke="none" stroke-width="0" stroke-linecap="butt"/></g></g></svg>