<svg version="1.1" xmlns="http://www.w3.org/2000/svg" xmlns:xlink="http://www.w3.org/1999/xlink" width="31.18782" height="24.02987" viewBox="0,0,31.18782,24.02987"><g transform="translate(-222.61063,-167.53286)"><g data-paper-data="{&quot;isPaintingLayer&quot;:true}" fill-rule="nonzero" stroke-width="0.5" stroke-linejoin="miter" stroke-miterlimit="10" stroke-dasharray="" stroke-dashoffset="0" style="mix-blend-mode: normal"><path d="M237.82415,180.91545c0.36915,-0.98695 1.21384,-2.24744 1.21384,-2.24744c0,0 0.85859,-0.07352 1.77354,-0.01845c0.6203,0.03734 1.19344,0.38761 1.61562,0.60614c0.47184,0.24424 1.00791,0.6217 1.32149,1.07939c0.36383,0.53106 0.58621,1.01637 0.58621,1.01637c0,0 -0.5541,1.63259 -1.3313,2.48037c-1.23738,1.34976 -4.81119,5.24808 -4.81119,5.24808c0,0 -1.31272,-0.09618 -1.82517,-0.36143c-0.42781,-0.22145 -1.04174,-1.12253 -1.04174,-1.12253c0,0 1.87765,-5.02011 2.49867,-6.68049z" data-paper-data="{&quot;index&quot;:null}" fill="#00b0ba" stroke="#000000" stroke-linecap="butt"/><path d="M242.70617,191.30573c-0.54179,-0.19858 -1.49961,-1.10139 -1.49961,-1.10139c0,0 0.45944,-5.26858 0.61852,-7.09277c0.09992,-1.14575 0.92916,-2.6573 0.92916,-2.6573c0,0 0.50805,-0.16393 1.14537,-0.2545c0.54928,-0.07806 1.18975,0.06213 1.68861,0.24498c0.44634,0.1636 1.09182,0.34949 1.53844,0.78158c0.65879,0.63735 1.18465,1.31999 1.18465,1.31999c0,0 -0.35858,1.47436 -0.83679,2.41333c-0.80451,1.57964 -3.23694,6.35566 -3.23694,6.35566c0,0 -1.0791,0.15621 -1.53141,-0.00958z" fill="#00b0ba" stroke="#000000" stroke-linecap="butt"/><path d="M229.70179,185.42551l-2.69819,-3.67437l8.18384,-6.00959l2.69819,3.67437z" fill="#00b0ba" stroke="#000000" stroke-linecap="butt"/><path d="M224.07608,190.89984c-0.4779,-0.3234 -1.18969,-1.43056 -1.18969,-1.43056c0,0 1.71659,-5.00223 2.31094,-6.7342c0.37331,-1.08783 1.54263,-2.35475 1.54263,-2.35475c0,0 0.53259,-0.03656 1.17294,0.02927c0.5519,0.05673 1.13965,0.34724 1.57968,0.64501c0.39371,0.26642 0.9753,0.60251 1.30451,1.12956c0.48561,0.77742 0.83132,1.56676 0.83132,1.56676c0,0 -0.70358,1.34435 -1.39416,2.14026c-1.16175,1.33897 -4.67429,5.38732 -4.67429,5.38732c0,0 -1.08491,-0.10869 -1.48389,-0.37868z" fill="#00f2ff" stroke="#000000" stroke-linecap="butt"/><path d="M239.75156,183.40786l-11.85806,-15.625h25.625l-1.375,12.125l-3.4375,3.4375z" fill="#00e8f5" stroke="#000000" stroke-linecap="round"/><path d="M248.59714,167.90057v15.48902l-8.41795,0.0518l-0.0518,-5.98321l-3.54849,-3.54849v-6.06092z" fill="#00f2ff" stroke="#00d9e4" stroke-linecap="round"/><path d="M239.76394,183.42925l-11.90986,-15.625h25.625l-1.375,12.125l-3.4375,3.4375z" fill="none" stroke="#000000" stroke-linecap="round"/><path d="M245.54077,174.71264c0,-1.70229 1.37998,-3.08226 3.08226,-3.08226c1.70229,0 3.08226,1.37998 3.08226,3.08226c0,1.70229 -1.37998,3.08226 -3.08226,3.08226c-1.70229,0 -3.08226,-1.37998 -3.08226,-3.08226z" fill="#00f220" stroke="#000000" stroke-linecap="butt"/><path d="M245.06692,190.0312c0,0 -0.9737,0.49068 -1.45524,0.47704c-0.5768,-0.01632 -1.77167,-0.56837 -1.77167,-0.56837c0,0 -1.23683,-5.14191 -1.66506,-6.92225c-0.26897,-1.11822 0.03754,-2.81481 0.03754,-2.81481c0,0 0.42973,-0.31673 1.00533,-0.60494c0.49609,-0.24839 1.14793,-0.31876 1.67903,-0.30374c0.47519,0.01344 1.14629,-0.01518 1.70697,0.25278c0.82703,0.39525 1.54241,0.87565 1.54241,0.87565c0,0 0.12801,1.51193 -0.02739,2.55413c-0.26145,1.75333 -1.05192,7.05449 -1.05192,7.05449z" fill="#00f2ff" stroke="#000000" stroke-linecap="butt"/></g></g></svg>