<svg version="1.1" xmlns="http://www.w3.org/2000/svg" xmlns:xlink="http://www.w3.org/1999/xlink" width="20.66053" height="26.58943" viewBox="0,0,20.66053,26.58943"><g transform="translate(-232.3144,-168.13109)"><g data-paper-data="{&quot;isPaintingLayer&quot;:true}" fill-rule="nonzero" stroke="#000000" stroke-width="0.5" stroke-linejoin="miter" stroke-miterlimit="10" stroke-dasharray="" stroke-dashoffset="0" style="mix-blend-mode: normal"><path d="M247.66189,174.28995l-5.52082,6.37691l-1.99277,-1.72525l5.52084,-6.3769z" data-paper-data="{&quot;index&quot;:null}" fill="#00b6bf" stroke-linecap="butt"/><path d="M242.69561,184.85483c-0.25921,1.62232 -1.78452,2.72735 -3.40683,2.46813c-1.62232,-0.25921 -2.72735,-1.78452 -2.46813,-3.40683c0.1683,-1.05336 0.60391,-3.08495 1.67081,-4.41591c0.57628,-0.71892 1.66612,-1.26655 2.23508,-1.17565c0.49883,0.0797 1.28724,1.02456 1.59673,1.7284c0.69705,1.58526 0.55185,3.67832 0.37235,4.80182z" data-paper-data="{&quot;index&quot;:null}" fill="#00bf19" stroke-linecap="butt"/><path d="M246.74913,176.48971l-2.62426,-2.12767l-0.16689,-3.09535l1.3981,-1.72443l7.26721,5.89202l-1.19836,1.47807z" data-paper-data="{&quot;index&quot;:null}" fill="#00bf19" stroke-linecap="round"/><path d="M251.29761,181.23055l0.45967,12.54508l-18.71961,0.6859l-0.45967,-12.54508z" data-paper-data="{&quot;index&quot;:null}" fill="#00ff21" stroke-linecap="butt"/><path d="M251.29772,181.24115l0.20714,5.65323l-4.34705,-1.34838l-2.05849,1.27017l-2.90284,0.34918l-2.53078,2.64085l-2.27085,-1.77401l-1.33208,0.17101l-1.87576,-1.56819l-1.43041,0.2636l-0.1832,-4.99984z" data-paper-data="{&quot;index&quot;:null}" fill="#00f2ff" stroke-linecap="round"/><path d="M247.77214,187.56202c0.98661,-0.03615 1.81571,0.73434 1.85186,1.72095c0.03615,0.98661 -0.73434,1.81571 -1.72095,1.85186c-0.98661,0.03615 -1.81571,-0.73434 -1.85186,-1.72095c-0.03615,-0.98661 0.73434,-1.81571 1.72095,-1.85186z" data-paper-data="{&quot;index&quot;:null}" fill="#00f2ff" stroke-linecap="butt"/><path d="M245.72142,174.27591l-5.52082,6.37691l-1.99278,-1.72525l5.52085,-6.3769z" data-paper-data="{&quot;index&quot;:null}" fill="#00f2ff" stroke-linecap="butt"/><path d="M241.30184,184.95746c-0.25921,1.62232 -1.78451,2.72735 -3.40683,2.46813c-1.62232,-0.25921 -2.72735,-1.78451 -2.46813,-3.40683c0.1683,-1.05336 0.6039,-3.08496 1.67081,-4.41591c0.57628,-0.71892 1.66612,-1.26655 2.23508,-1.17565c0.49883,0.0797 1.28724,1.02457 1.59673,1.72841c0.69705,1.58526 0.55185,3.67832 0.37235,4.80182z" data-paper-data="{&quot;index&quot;:null}" fill="#00ff22" stroke-linecap="butt"/><path d="M245.13818,175.43018l-2.62426,-2.12767l-0.16689,-3.09535l1.3981,-1.72443l7.26721,5.89202l-1.19836,1.47807z" data-paper-data="{&quot;index&quot;:null}" fill="#00ff22" stroke-linecap="round"/></g></g></svg>