<svg version="1.1" xmlns="http://www.w3.org/2000/svg" xmlns:xlink="http://www.w3.org/1999/xlink" width="52.50702" height="58.81852" viewBox="0,0,52.50702,58.81852"><g transform="translate(-213.74361,-150.60502)"><g data-paper-data="{&quot;isPaintingLayer&quot;:true}" fill-rule="nonzero" stroke-linecap="butt" stroke-linejoin="miter" stroke-miterlimit="10" stroke-dasharray="" stroke-dashoffset="0" style="mix-blend-mode: normal"><g><path d="M215.2384,155.29278l6.4186,-3.53509l7.04179,28.14729l-6.41861,3.5351z" data-paper-data="{&quot;index&quot;:null}" fill="#ffd6d6" stroke="#ffd6d6" stroke-width="1.5"/><path d="M222.26248,176.11084l6.33907,3.83809l-7.64535,27.79847l-6.33907,-3.83809z" data-paper-data="{&quot;index&quot;:null}" fill="#ffd6d6" stroke="#ffd6d6" stroke-width="1.5"/><path d="M216.17672,155.79936l5.13928,-2.83049l6.70785,26.81247l-5.13928,2.83049z" data-paper-data="{&quot;index&quot;:null}" fill="#ff0000" stroke="#d60000" stroke-width="1"/><path d="M223.00869,176.78933l5.08274,3.04696l-7.22087,26.51751l-5.08274,-3.04696z" data-paper-data="{&quot;index&quot;:null}" fill="#e60000" stroke="#d60000" stroke-width="1"/><path d="M222.42666,180.00952l-0.97111,-4.67643l4.93501,-0.75926l1.45448,5.49118z" data-paper-data="{&quot;index&quot;:null}" fill="#ff0000" stroke="#ffbd00" stroke-width="0"/><path d="M227.32124,155.81359l6.4186,-3.53509l7.04179,28.14729l-6.41861,3.5351z" data-paper-data="{&quot;index&quot;:null}" fill="#ffd6d6" stroke="#ffd6d6" stroke-width="1.5"/><path d="M234.34532,176.63165l6.33907,3.83809l-7.64535,27.79847l-6.33907,-3.83809z" data-paper-data="{&quot;index&quot;:null}" fill="#ffd6d6" stroke="#ffd6d6" stroke-width="1.5"/><path d="M228.25956,156.32017l5.13928,-2.83049l6.70785,26.81247l-5.13928,2.83049z" data-paper-data="{&quot;index&quot;:null}" fill="#ff0000" stroke="#d60000" stroke-width="1"/><path d="M235.09153,177.31014l5.08274,3.04696l-7.22087,26.51751l-5.08274,-3.04696z" data-paper-data="{&quot;index&quot;:null}" fill="#e60000" stroke="#d60000" stroke-width="1"/><path d="M234.5095,180.53033l-0.97111,-4.67643l4.93501,-0.75926l1.45448,5.49118z" data-paper-data="{&quot;index&quot;:null}" fill="#ff0000" stroke="#ffbd00" stroke-width="0"/></g><g><path d="M239.83964,155.26688l6.4186,-3.53509l7.04179,28.14729l-6.41861,3.5351z" data-paper-data="{&quot;index&quot;:null}" fill="#ffd6d6" stroke="#ffd6d6" stroke-width="1.5"/><path d="M246.86372,176.08494l6.33907,3.83809l-7.64535,27.79847l-6.33907,-3.83809z" data-paper-data="{&quot;index&quot;:null}" fill="#ffd6d6" stroke="#ffd6d6" stroke-width="1.5"/><path d="M240.77796,155.77346l5.13928,-2.83049l6.70785,26.81247l-5.13928,2.83049z" data-paper-data="{&quot;index&quot;:null}" fill="#ff0000" stroke="#d60000" stroke-width="1"/><path d="M247.60993,176.76343l5.08274,3.04696l-7.22087,26.51751l-5.08274,-3.04696z" data-paper-data="{&quot;index&quot;:null}" fill="#e60000" stroke="#d60000" stroke-width="1"/><path d="M247.0279,179.98362l-0.97111,-4.67643l4.93501,-0.75926l1.45448,5.49118z" data-paper-data="{&quot;index&quot;:null}" fill="#ff0000" stroke="#ffbd00" stroke-width="0"/><path d="M251.92248,155.78769l6.4186,-3.53509l7.04179,28.14729l-6.41861,3.5351z" data-paper-data="{&quot;index&quot;:null}" fill="#ffd6d6" stroke="#ffd6d6" stroke-width="1.5"/><path d="M258.94656,176.60575l6.33907,3.83809l-7.64535,27.79847l-6.33907,-3.83809z" data-paper-data="{&quot;index&quot;:null}" fill="#ffd6d6" stroke="#ffd6d6" stroke-width="1.5"/><path d="M252.8608,156.29427l5.13928,-2.83049l6.70785,26.81247l-5.13928,2.83049z" data-paper-data="{&quot;index&quot;:null}" fill="#ff0000" stroke="#d60000" stroke-width="1"/><path d="M259.69277,177.28424l5.08274,3.04696l-7.22087,26.51751l-5.08274,-3.04696z" data-paper-data="{&quot;index&quot;:null}" fill="#e60000" stroke="#d60000" stroke-width="1"/><path d="M259.11074,180.50443l-0.97111,-4.67643l4.93501,-0.75926l1.45448,5.49118z" data-paper-data="{&quot;index&quot;:null}" fill="#ff0000" stroke="#ffbd00" stroke-width="0"/></g></g></g></svg>