<svg version="1.1" xmlns="http://www.w3.org/2000/svg" xmlns:xlink="http://www.w3.org/1999/xlink" width="23.55544" height="744.74662" viewBox="0,0,23.55544,744.74662"><defs><linearGradient x1="232.80418" y1="180.02678" x2="237.86306" y2="180.02678" gradientUnits="userSpaceOnUse" id="color-1"><stop offset="0" stop-color="#ff0000"/><stop offset="1" stop-color="#ecff00"/></linearGradient><linearGradient x1="237.73658" y1="179.94563" x2="242.54252" y2="179.94563" gradientUnits="userSpaceOnUse" id="color-2"><stop offset="0" stop-color="#ecff00"/><stop offset="1" stop-color="#0090ff"/></linearGradient><linearGradient x1="242.38989" y1="179.89207" x2="247.19582" y2="179.89207" gradientUnits="userSpaceOnUse" id="color-3"><stop offset="0" stop-color="#0090ff"/><stop offset="1" stop-color="#ff0000"/></linearGradient></defs><g transform="translate(-228.22228,192.37331)"><g data-paper-data="{&quot;isPaintingLayer&quot;:true}" fill-rule="nonzero" stroke-linejoin="miter" stroke-miterlimit="10" stroke-dasharray="" stroke-dashoffset="0" style="mix-blend-mode: normal"><path d="M240,551.37331v-742.74662" fill="#fff800" stroke="#ff0000" stroke-width="2" stroke-linecap="round"/><path d="M228.22228,180c0,-6.50466 5.27306,-11.77772 11.77772,-11.77772c6.50466,0 11.77772,5.27306 11.77772,11.77772c0,6.50466 -5.27306,11.77772 -11.77772,11.77772c-6.50466,0 -11.77772,-5.27306 -11.77772,-11.77772z" fill="#ff0000" stroke="#000000" stroke-width="0" stroke-linecap="butt"/><path d="M232.80418,187.41169v-14.76982h5.05888v14.76982z" fill="url(#color-1)" stroke="none" stroke-width="0" stroke-linecap="butt"/><path d="M237.73658,187.41169v-14.76982h4.80593v14.76982z" fill="url(#color-2)" stroke="none" stroke-width="0" stroke-linecap="butt"/><path d="M242.38989,187.35813v-14.76982h4.80593v14.76982z" fill="url(#color-3)" stroke="none" stroke-width="0" stroke-linecap="butt"/></g></g></svg>