<svg version="1.1" xmlns="http://www.w3.org/2000/svg" xmlns:xlink="http://www.w3.org/1999/xlink" width="20.55771" height="23.4775" viewBox="0,0,20.55771,23.4775"><g transform="translate(-230.88192,-168.3202)"><g data-paper-data="{&quot;isPaintingLayer&quot;:true}" fill-rule="nonzero" stroke="#000000" stroke-width="0.5" stroke-linejoin="miter" stroke-miterlimit="10" stroke-dasharray="" stroke-dashoffset="0" style="mix-blend-mode: normal"><path d="M235.97775,188.14062l2.4452,-7.69378l2.4043,0.76413l-2.44522,7.69379z" fill="#00b6bf" stroke-linecap="butt"/><path d="M236.22076,177.36003c0.17197,-1.56302 1.57845,-2.69069 3.14147,-2.51872c1.56302,0.17197 2.69069,1.57845 2.51872,3.14147c-0.11165,1.01485 -0.43311,2.97737 -1.39082,4.29959c-0.5173,0.7142 -1.53356,1.28867 -2.08172,1.22836c-0.48059,-0.05288 -1.27846,-0.91928 -1.60723,-1.57767c-0.74047,-1.48287 -0.69951,-3.49058 -0.58043,-4.57301z" fill="#00bf19" stroke-linecap="butt"/><path d="M243.08193,189.65625l0.0139,1.82118l-8.95418,0.06837l-0.01622,-2.12472l1.97301,-2.2158l3.23345,-0.02469z" fill="#00bf19" stroke-linecap="round"/><path d="M232.82386,180.58628l0.43995,-12.00709l17.91683,0.65649l-0.43995,12.00709z" fill="#00ff21" stroke-linecap="butt"/><path d="M232.81945,180.60321l0.17534,-4.78543l1.36907,0.2523l1.79531,-1.50094l1.27496,0.16368l2.17346,-1.69793l2.42225,2.5276l2.77835,0.33421l1.97021,1.2157l4.16063,-1.29055l-0.19826,5.4108z" fill="#00f2ff" stroke-linecap="round"/><path d="M245.71926,173.41039c0.0346,-0.94429 0.82814,-1.68175 1.77244,-1.64715c0.94429,0.0346 1.68175,0.82814 1.64715,1.77244c-0.0346,0.94429 -0.82814,1.68175 -1.77244,1.64715c-0.94429,-0.0346 -1.68175,-0.82814 -1.64715,-1.77244z" fill="#00f2ff" stroke-linecap="butt"/><path d="M233.47982,187.57783l4.59418,-6.63829l2.07446,1.43569l-4.59418,6.63829z" fill="#00f2ff" stroke-linecap="butt"/><path d="M234.80904,178.88719c-0.43487,-1.51112 0.43762,-3.08865 1.94874,-3.52352c1.51112,-0.43487 3.08865,0.43761 3.52352,1.94874c0.28235,0.98116 0.73074,2.91861 0.34731,4.50558c-0.2071,0.85718 -0.92884,1.77473 -1.4588,1.92724c-0.46464,0.13372 -1.53189,-0.36452 -2.08617,-0.84861c-1.2484,-1.09028 -1.97343,-2.96295 -2.27458,-4.00943z" fill="#00ff21" stroke-linecap="butt"/><path d="M240.31536,188.30577l-0.37173,1.78291l-8.76595,-1.82765l0.43368,-2.08005l2.39715,-1.7482l3.16548,0.65998z" fill="#00ff21" stroke-linecap="round"/></g></g></svg>