<svg version="1.1" xmlns="http://www.w3.org/2000/svg" xmlns:xlink="http://www.w3.org/1999/xlink" width="26.44927" height="23.95913" viewBox="0,0,26.44927,23.95913"><g transform="translate(-227.34918,-167.5663)"><g data-paper-data="{&quot;isPaintingLayer&quot;:true}" fill-rule="nonzero" stroke-width="0.5" stroke-linejoin="miter" stroke-miterlimit="10" stroke-dasharray="" stroke-dashoffset="0" style="mix-blend-mode: normal"><path d="M239.51236,175.409c0.21689,-1.75939 0.87266,-7.07889 0.87266,-7.07889c0,0 0.96094,-0.51521 1.44267,-0.5138c0.57703,0.00169 1.78552,0.52326 1.78552,0.52326c0,0 1.36684,5.10889 1.84009,6.87779c0.29724,1.11104 0.03385,2.81486 0.03385,2.81486c0,0 -0.42155,0.32753 -0.98967,0.63024c-0.48964,0.26089 -1.13948,0.34777 -1.67079,0.34622c-0.47538,-0.00139 -1.14553,0.04425 -1.71283,-0.2094c-0.83679,-0.37414 -1.56413,-0.83625 -1.56413,-0.83625c0,0 -0.1663,-1.5082 -0.03738,-2.55401z" data-paper-data="{&quot;index&quot;:null}" fill="#00b0ba" stroke="#000000" stroke-linecap="butt"/><path d="M249.06506,169.54815c0,0 1.09402,5.24692 1.45586,6.98231c0.21507,1.03155 0.17423,2.54834 0.17423,2.54834c0,0 -0.68656,0.52074 -1.4895,0.9629c-0.54434,0.29976 -1.21598,0.30977 -1.68961,0.35052c-0.52936,0.04554 -1.18416,0.01277 -1.69372,-0.20668c-0.59122,-0.25462 -1.03846,-0.54612 -1.03846,-0.54612c0,0 -0.40357,-1.67617 -0.19935,-2.80799c0.32515,-1.80202 1.26423,-7.00655 1.26423,-7.00655c0,0 1.16114,-0.61986 1.73606,-0.66932c0.47996,-0.0413 1.48027,0.39257 1.48027,0.39257z" data-paper-data="{&quot;index&quot;:null}" fill="#00b0ba" stroke="#000000" stroke-linecap="butt"/><path d="M241.59725,182.82641l-3.09148,3.35022l-7.46186,-6.88556l3.09148,-3.35022z" data-paper-data="{&quot;index&quot;:null}" fill="#00b0ba" stroke="#000000" stroke-linecap="butt"/><path d="M233.88672,170.02115c0,0 1.4803,5.15129 1.9699,6.85505c0.29103,1.01275 0.36283,2.52839 0.36283,2.52839c0,0 -0.64605,0.57026 -1.41396,1.07077c-0.5206,0.33932 -1.18965,0.39914 -1.65895,0.47492c-0.52452,0.0847 -1.17995,0.10059 -1.70439,-0.08045c-0.60849,-0.21005 -1.07612,-0.46756 -1.07612,-0.46756c0,0 -0.52682,-1.6416 -0.40714,-2.78546c0.19055,-1.82117 0.7409,-7.08103 0.7409,-7.08103c0,0 1.11195,-0.70429 1.68161,-0.79628c0.47558,-0.0768 1.50532,0.28165 1.50532,0.28165z" data-paper-data="{&quot;index&quot;:null}" fill="#00f2ff" stroke="#000000" stroke-linecap="butt"/><path d="M248.706,175.71294l3.4375,3.4375l1.375,12.125h-25.625l11.85806,-15.625z" data-paper-data="{&quot;index&quot;:null}" fill="#00e8f5" stroke="#000000" stroke-linecap="round"/><path d="M236.5789,191.20953v-6.06092l3.54849,-3.54849l0.0518,-5.98321l8.41795,0.0518v15.48902z" data-paper-data="{&quot;index&quot;:null}" fill="#00f2ff" stroke="#00d9e4" stroke-linecap="round"/><path d="M248.62303,181.2634c1.70228,0 3.08226,1.37997 3.08226,3.08226c0,1.70228 -1.37997,3.08226 -3.08226,3.08226c-1.70228,0 -3.08226,-1.37997 -3.08226,-3.08226c0,-1.70228 1.37997,-3.08226 3.08226,-3.08226z" data-paper-data="{&quot;index&quot;:null}" fill="#00ff22" stroke="#000000" stroke-linecap="butt"/><path d="M248.66658,175.69265l3.4375,3.4375l1.375,12.125h-25.625l11.90986,-15.625z" data-paper-data="{&quot;index&quot;:null}" fill="none" stroke="#000000" stroke-linecap="round"/><path d="M241.25815,167.95074c0,0 1.9712,4.98413 2.62317,6.6326c0.38754,0.97988 0.60548,2.48148 0.60548,2.48148c0,0 -0.58791,0.63002 -1.30386,1.2024c-0.48538,0.38804 -1.14551,0.51224 -1.60529,0.63302c-0.51387,0.13499 -1.1647,0.21415 -1.70418,0.08465c-0.62594,-0.15027 -1.11627,-0.36138 -1.11627,-0.36138c0,0 -0.683,-1.583 -0.67443,-2.73308c0.01366,-1.83106 0.0531,-7.11949 0.0531,-7.11949c0,0 1.03868,-0.80845 1.59678,-0.95506c0.46593,-0.1224 1.52549,0.13486 1.52549,0.13486z" data-paper-data="{&quot;index&quot;:null}" fill="#00f2ff" stroke="#000000" stroke-linecap="butt"/></g></g></svg>