<svg version="1.1" xmlns="http://www.w3.org/2000/svg" xmlns:xlink="http://www.w3.org/1999/xlink" width="31.18782" height="24.05768" viewBox="0,0,31.18782,24.05768"><g transform="translate(-222.61063,-167.59956)"><g data-paper-data="{&quot;isPaintingLayer&quot;:true}" fill-rule="nonzero" stroke-width="0.5" stroke-linejoin="miter" stroke-miterlimit="10" stroke-dasharray="" stroke-dashoffset="0" style="mix-blend-mode: normal"><path d="M237.82412,178.24941c-0.62102,-1.66038 -2.49867,-6.68049 -2.49867,-6.68049c0,0 0.61393,-0.90108 1.04174,-1.12253c0.51245,-0.26525 1.82517,-0.36143 1.82517,-0.36143c0,0 3.57381,3.89832 4.81119,5.24808c0.7772,0.84778 1.3313,2.48037 1.3313,2.48037c0,0 -0.22238,0.48531 -0.58621,1.01637c-0.31358,0.45769 -0.84965,0.83515 -1.32149,1.07939c-0.42218,0.21853 -0.99532,0.5688 -1.61562,0.60614c-0.91495,0.05507 -1.77354,-0.01845 -1.77354,-0.01845c0,0 -0.84469,-1.26049 -1.21384,-2.24744z" data-paper-data="{&quot;index&quot;:null}" fill="#00b0ba" stroke="#000000" stroke-linecap="butt"/><path d="M244.23758,167.84956c0,0 2.43243,4.77602 3.23694,6.35566c0.47821,0.93897 0.83679,2.41333 0.83679,2.41333c0,0 -0.52586,0.68264 -1.18465,1.31999c-0.44662,0.43209 -1.0921,0.61798 -1.53844,0.78158c-0.49886,0.18285 -1.13933,0.32304 -1.68861,0.24498c-0.63732,-0.09057 -1.14537,-0.2545 -1.14537,-0.2545c0,0 -0.82924,-1.51155 -0.92916,-2.6573c-0.15908,-1.82419 -0.61852,-7.09277 -0.61852,-7.09277c0,0 0.95782,-0.90281 1.49961,-1.10139c0.45231,-0.16579 1.53141,-0.00958 1.53141,-0.00958z" data-paper-data="{&quot;index&quot;:null}" fill="#00b0ba" stroke="#000000" stroke-linecap="butt"/><path d="M237.88563,179.74895l-2.69819,3.67437l-8.18384,-6.00959l2.69819,-3.67437z" data-paper-data="{&quot;index&quot;:null}" fill="#00b0ba" stroke="#000000" stroke-linecap="butt"/><path d="M224.07607,168.26504c0.39898,-0.26999 1.48389,-0.37868 1.48389,-0.37868c0,0 3.51254,4.04835 4.67429,5.38732c0.69058,0.79591 1.39416,2.14026 1.39416,2.14026c0,0 -0.34571,0.78934 -0.83132,1.56676c-0.32921,0.52705 -0.9108,0.86314 -1.30451,1.12956c-0.44003,0.29777 -1.02778,0.58828 -1.57968,0.64501c-0.64035,0.06583 -1.17294,0.02927 -1.17294,0.02927c0,0 -1.16932,-1.26692 -1.54263,-2.35475c-0.59435,-1.73197 -2.31094,-6.7342 -2.31094,-6.7342c0,0 0.71179,-1.10716 1.18969,-1.43056z" data-paper-data="{&quot;index&quot;:null}" fill="#00f2ff" stroke="#000000" stroke-linecap="butt"/><path d="M248.706,175.81951l3.4375,3.4375l1.375,12.125h-25.625l11.85806,-15.625z" data-paper-data="{&quot;index&quot;:null}" fill="#00e8f5" stroke="#000000" stroke-linecap="round"/><path d="M236.5789,191.3161v-6.06092l3.54849,-3.54849l0.0518,-5.98321l8.41795,0.0518v15.48902z" data-paper-data="{&quot;index&quot;:null}" fill="#00f2ff" stroke="#00d9e4" stroke-linecap="round"/><path d="M248.62303,181.36997c1.70228,0 3.08226,1.37997 3.08226,3.08226c0,1.70228 -1.37997,3.08226 -3.08226,3.08226c-1.70228,0 -3.08226,-1.37997 -3.08226,-3.08226c0,-1.70228 1.37997,-3.08226 3.08226,-3.08226z" data-paper-data="{&quot;index&quot;:null}" fill="#00ff22" stroke="#000000" stroke-linecap="butt"/><path d="M248.66658,175.84474l3.4375,3.4375l1.375,12.125h-25.625l11.90986,-15.625z" data-paper-data="{&quot;index&quot;:null}" fill="none" stroke="#000000" stroke-linecap="round"/><path d="M245.06692,169.13369c0,0 0.79047,5.30116 1.05192,7.05449c0.1554,1.0422 0.02739,2.55413 0.02739,2.55413c0,0 -0.71538,0.4804 -1.54241,0.87565c-0.56068,0.26796 -1.23178,0.23934 -1.70697,0.25278c-0.5311,0.01502 -1.18294,-0.05535 -1.67903,-0.30374c-0.5756,-0.28821 -1.00533,-0.60494 -1.00533,-0.60494c0,0 -0.30651,-1.69659 -0.03754,-2.81481c0.42823,-1.78034 1.66506,-6.92225 1.66506,-6.92225c0,0 1.19487,-0.55205 1.77167,-0.56837c0.48154,-0.01364 1.45524,0.47704 1.45524,0.47704z" data-paper-data="{&quot;index&quot;:null}" fill="#00f2ff" stroke="#000000" stroke-linecap="butt"/></g></g></svg>