<svg version="1.1" xmlns="http://www.w3.org/2000/svg" xmlns:xlink="http://www.w3.org/1999/xlink" width="34.25996" height="21.35365" viewBox="0,0,34.25996,21.35365"><g transform="translate(-223.49125,-167.53286)"><g data-paper-data="{&quot;isPaintingLayer&quot;:true}" fill-rule="nonzero" stroke-width="0.5" stroke-linejoin="miter" stroke-miterlimit="10" stroke-dasharray="" stroke-dashoffset="0" style="mix-blend-mode: normal"><path d="M245.83521,184.44133c-1.42429,-0.88372 -5.24706,-1.16473 -5.24706,-1.16473c0,0 0.06528,-0.85925 0.26653,-1.7535c0.13645,-0.60626 0.5742,-1.11574 0.85767,-1.49736c0.31682,-0.42651 0.77546,-0.89502 1.27755,-1.13104c0.58258,-0.27384 1.0973,-0.41544 1.0973,-0.41544c0,0 3.493,1.0652 4.26788,2.0482c1.20476,1.52833 2.37413,5.25542 2.37413,5.25542c0,0 -0.30569,1.28023 -0.64978,1.74345c-0.28726,0.38672 -1.27522,0.848 -1.27522,0.848c0,0 -1.66529,-3.1241 -2.96901,-3.93301z" data-paper-data="{&quot;index&quot;:null}" fill="#00b0ba" stroke="#000000" stroke-linecap="butt"/><path d="M252.95933,184.14858c-1.22336,-1.14584 -4.91682,-2.17097 -4.91682,-2.17097c0,0 0.23249,-0.82977 0.60519,-1.6672c0.25267,-0.56774 0.78182,-0.9815 1.13462,-1.30012c0.3943,-0.35611 0.9359,-0.72559 1.47453,-0.85858c0.62496,-0.15429 1.15746,-0.19221 1.15746,-0.19221c0,0 3.21633,1.72943 3.78342,2.84529c0.88169,1.73489 1.29756,5.61892 1.29756,5.61892c0,0 -0.55078,1.19544 -0.97902,1.5822c-0.35751,0.32289 -1.41675,0.5815 -1.41675,0.5815c0,0 -1.02039,-3.38998 -2.14019,-4.43882z" data-paper-data="{&quot;index&quot;:null}" fill="#00b0ba" stroke="#000000" stroke-linecap="butt"/><path d="M231.40238,182.20645l-3.09148,-3.35022l7.46186,-6.88556l3.09148,3.35022z" fill="#00b0ba" stroke="#000000" stroke-linecap="butt"/><path d="M224.66706,187.24225c-0.40837,-0.40769 -0.8987,-1.62917 -0.8987,-1.62917c0,0 2.62873,-4.58898 3.53891,-6.17787c0.57167,-0.99796 1.95885,-2.02175 1.95885,-2.02175c0,0 0.52993,0.06449 1.1464,0.24984c0.53131,0.15974 1.05376,0.55584 1.42977,0.93122c0.33643,0.33586 0.84424,0.77556 1.06821,1.35521c0.33036,0.85502 0.52108,1.69538 0.52108,1.69538c0,0 -0.94438,1.18763 -1.7726,1.8391c-1.39332,1.09598 -5.606,4.40964 -5.606,4.40964c0,0 -1.04498,-0.31124 -1.3859,-0.6516z" fill="#00f2ff" stroke="#000000" stroke-linecap="butt"/><path d="M239.75156,183.40786l-11.85806,-15.625h25.625l-1.375,12.125l-3.4375,3.4375z" fill="#00e8f5" stroke="#000000" stroke-linecap="round"/><path d="M248.59714,167.90057v15.48902l-8.41795,0.0518l-0.0518,-5.98321l-3.54849,-3.54849v-6.06092z" fill="#00f2ff" stroke="#00d9e4" stroke-linecap="round"/><path d="M245.54077,174.71264c0,-1.70229 1.37998,-3.08226 3.08226,-3.08226c1.70229,0 3.08226,1.37998 3.08226,3.08226c0,1.70229 -1.37998,3.08226 -3.08226,3.08226c-1.70229,0 -3.08226,-1.37998 -3.08226,-3.08226z" fill="#00ff22" stroke="#000000" stroke-linecap="butt"/><path d="M239.76394,183.42925l-11.90986,-15.625h25.625l-1.375,12.125l-3.4375,3.4375z" fill="none" stroke="#000000" stroke-linecap="round"/><path d="M233.07419,187.75129c-0.37201,-0.44111 -0.7561,-1.70005 -0.7561,-1.70005c0,0 0.93722,-3.79212 2.04539,-5.39187c0.71276,-1.02893 4.13339,-2.3076 4.13339,-2.3076c0,0 0.52248,0.10957 1.12084,0.34695c0.5157,0.2046 1.00237,0.64392 1.3449,1.05007c0.30648,0.3634 0.77482,0.8449 0.94841,1.44159c0.25604,0.88014 0.3742,1.73372 0.3742,1.73372c0,0 -3.79815,0.51632 -5.1652,1.48622c-1.25133,0.88779 -2.72071,4.10868 -2.72071,4.10868c0,0 -1.01454,-0.39946 -1.32512,-0.76772z" fill="#00f2ff" stroke="#000000" stroke-linecap="butt"/></g></g></svg>