<svg version="1.1" xmlns="http://www.w3.org/2000/svg" xmlns:xlink="http://www.w3.org/1999/xlink" width="59.45554" height="46.89647" viewBox="0,0,59.45554,46.89647"><g transform="translate(-209.48026,-155.18086)"><g data-paper-data="{&quot;isPaintingLayer&quot;:true}" fill-rule="nonzero" stroke-width="0.5" stroke-linejoin="miter" stroke-miterlimit="10" stroke-dasharray="" stroke-dashoffset="0" style="mix-blend-mode: normal"><path d="M265.22195,188.17857l-39.54288,13.62271l-13.86329,-8.98873l-1.85572,-3.35183l7.25462,-10.95236l5.41232,7.5548l2.61166,-4.57952l7.78966,4.28496l2.07177,-6.09385l4.31429,5.82076l7.09525,-5.66832l7.01545,4.08032l3.75215,-5.34885l7.70614,1.53169z" fill="#080807" stroke="#080807" stroke-linecap="round"/><g><path d="M212.59878,182.96872l-2.85463,-7.77877l3.64914,-11.72439l19.89843,-8.00044l15.61989,11.62733l19.72895,3.82948l-3.43779,16.90569l-13.77025,-7.36393l-3.49358,6.88335l-4.14961,-9.26217l-5.99035,9.50462l-3.34773,-5.71348l-4.84496,3.40142l-4.01563,-5.52815l-6.2215,5.62615l-2.32303,-4.92647z" fill="#080807" stroke="#080807" stroke-linecap="round"/><path d="M219.53253,169.90013c0,-2.36254 1.91522,-4.27777 4.27777,-4.27777c2.36254,0 4.27777,1.91522 4.27777,4.27777c0,2.36254 -1.91522,4.27777 -4.27777,4.27777c-2.36254,0 -4.27777,-1.91522 -4.27777,-4.27777z" fill="#ffffff" stroke="#000000" stroke-linecap="butt"/></g></g></g></svg>