<svg version="1.1" xmlns="http://www.w3.org/2000/svg" xmlns:xlink="http://www.w3.org/1999/xlink" width="26.24215" height="11.65152" viewBox="0,0,26.24215,11.65152"><g transform="translate(-227.45161,-167.89956)"><g data-paper-data="{&quot;isPaintingLayer&quot;:true}" fill-rule="nonzero" stroke-linecap="round" stroke-linejoin="miter" stroke-miterlimit="10" stroke-dasharray="" stroke-dashoffset="0" style="mix-blend-mode: normal"><g data-paper-data="{&quot;index&quot;:null}" fill="#2f2f2f" stroke="#2f2f2f" stroke-width="0.5"><path d="M252.74078,169.67605v4.92361c0,0 -2.94565,1.97725 -3.20374,1.92263c-0.16262,-0.03441 -3.24739,-2.40752 -3.83594,-2.07562c-0.34032,0.19191 -3.2838,2.55502 -3.95963,2.37066c-0.22138,-0.06039 -3.79719,-0.73316 -3.79719,-0.73316l2.52359,-4.10527z"/><path d="M239.89572,171.30983l0.10972,5.42306c0,0 -0.76106,0.46463 -1.62342,1.32942c-0.70664,0.70862 -1.48129,1.04328 -1.96096,0.91341c-1.42081,-0.38467 -2.72939,-1.15916 -3.04623,-0.96946c-0.32054,0.19191 -2.67808,1.86447 -3.17702,1.09255c-0.1641,-0.25388 -1.7521,-1.5049 -1.7521,-1.5049l0.05486,-8.08506z"/></g><path d="M252.74846,168.53948v2.68171c0,0 -1.92091,1.74895 -2.43166,1.70902c-0.32181,-0.02517 -2.79673,-1.63813 -4.03523,-1.96905c-0.42262,-0.11293 -3.54627,2.29899 -3.81621,2.29899c-0.38452,0 -2.48333,-0.14421 -3.64804,0.09846c-0.67348,0.14033 -3.02432,2.31723 -4.36176,2.18243c-0.43809,-0.04416 -1.14972,-1.47536 -2.198,-2.03977c-0.34477,-0.18562 -1.73863,0.94271 -2.07962,0.74897c-1.32151,-0.75085 -1.71687,-1.19311 -1.71687,-1.19311v-4.47848z" data-paper-data="{&quot;index&quot;:null}" fill="#000000" stroke="#000000" stroke-width="0.5"/><path d="M252.94376,168.64957h-24.74215" data-paper-data="{&quot;index&quot;:null}" fill="none" stroke="#fff7f7" stroke-width="1.5"/></g></g></svg>