<svg version="1.1" xmlns="http://www.w3.org/2000/svg" xmlns:xlink="http://www.w3.org/1999/xlink" width="34.41819" height="70.96338" viewBox="0,0,34.41819,70.96338"><defs><linearGradient x1="225.59216" y1="180.61307" x2="249.31164" y2="180.61307" gradientUnits="userSpaceOnUse" id="color-1"><stop offset="0" stop-color="#fff9bd"/><stop offset="1" stop-color="#ffe954"/></linearGradient></defs><g transform="translate(-223.09216,-145.13138)"><g data-paper-data="{&quot;isPaintingLayer&quot;:true}" fill-rule="nonzero" stroke-linecap="butt" stroke-linejoin="miter" stroke-miterlimit="10" stroke-dasharray="" stroke-dashoffset="0" style="mix-blend-mode: normal"><g fill="#000000" stroke="none" stroke-width="0"><path d="M245.6447,210.90387v4.72989h-10.33252v-4.72989z" data-paper-data="{&quot;index&quot;:null}"/><path d="M245.49906,145.78438v4.72989h-10.33251v-4.72989z" data-paper-data="{&quot;index&quot;:null}"/><path d="M225.4155,185.40598v-7.84167h6.09907v7.84167z"/><path d="M226.68137,192.64646v-6.59696h6.09907v6.59696z"/><path d="M228.54844,200.11472v-6.97038h6.09907v6.97038z"/><path d="M230.06325,205.98602v-5.35225h6.09907v5.35225z"/><path d="M231.827,211.98179v-5.35225h6.09907v5.35225z"/><path d="M232.92608,170.42964v6.59696h-6.09907v-6.59696z" data-paper-data="{&quot;index&quot;:null}"/><path d="M234.79313,162.96138v6.97037h-6.09907v-6.97037z" data-paper-data="{&quot;index&quot;:null}"/><path d="M236.30795,157.09008v5.35225h-6.09907v-5.35225z" data-paper-data="{&quot;index&quot;:null}"/><path d="M238.0717,151.09431v5.35225h-6.09907v-5.35225z" data-paper-data="{&quot;index&quot;:null}"/><path d="M249.79173,185.1782v-7.84167h7.71862v7.84167z" data-paper-data="{&quot;index&quot;:null}"/><path d="M249.18548,192.41868v-6.59696h7.71862v6.59696z" data-paper-data="{&quot;index&quot;:null}"/><path d="M247.32052,199.88694v-6.97038h7.71862v6.97038z" data-paper-data="{&quot;index&quot;:null}"/><path d="M245.40347,205.75824v-5.35225h7.71862v5.35225z" data-paper-data="{&quot;index&quot;:null}"/><path d="M243.17136,211.75401v-5.35225h7.71862v5.35225z" data-paper-data="{&quot;index&quot;:null}"/><path d="M256.59533,170.20186v6.59696h-7.71862v-6.59696z" data-paper-data="{&quot;index&quot;:null}"/><path d="M254.85483,162.7336v6.97037h-7.71861v-6.97037z" data-paper-data="{&quot;index&quot;:null}"/><path d="M252.93779,156.8623v5.35225h-7.71862v-5.35225z" data-paper-data="{&quot;index&quot;:null}"/><path d="M250.70569,150.86653v5.35225h-7.71862v-5.35225z" data-paper-data="{&quot;index&quot;:null}"/></g><path d="M249.31164,180.61307c0,18.21529 -5.30979,32.98169 -11.85974,32.98169c-6.54995,0 -11.85974,-14.7664 -11.85974,-32.98169c0,-18.21529 5.30979,-32.98169 11.85974,-32.98169c6.54995,0 11.85974,14.7664 11.85974,32.98169z" fill="none" stroke="url(#color-1)" stroke-width="5"/></g></g></svg>