<svg version="1.1" xmlns="http://www.w3.org/2000/svg" xmlns:xlink="http://www.w3.org/1999/xlink" width="26.4546" height="27.25347" viewBox="0,0,26.4546,27.25347"><g transform="translate(-225.56166,-168.48273)"><g data-paper-data="{&quot;isPaintingLayer&quot;:true}" fill-rule="nonzero" stroke="#000000" stroke-linejoin="miter" stroke-miterlimit="10" stroke-dasharray="" stroke-dashoffset="0" style="mix-blend-mode: normal"><g data-paper-data="{&quot;index&quot;:null}" stroke-width="0" stroke-linecap="butt"><path d="M230.92935,170.05221c0.96897,0.81577 1.1217,2.52747 0.34112,3.8232c-0.78058,1.29572 -2.19888,1.68482 -3.16785,0.86905c-0.96897,-0.81576 -3.15641,-4.41726 -2.37583,-5.71299c0.20287,-0.33675 1.72975,2.8783 2.11432,2.29664c0.35698,-0.53993 -1.02887,-2.37566 -0.49972,-2.47298c1.09417,-0.20124 3.10458,0.79014 3.58796,1.19709z" fill="#c52e00"/><path d="M230.99324,174.04779c-0.58863,0.97711 -1.65817,1.27052 -2.38887,0.65535c-0.7307,-0.61517 -2.38024,-3.33105 -1.79161,-4.30816c0.15298,-0.25394 0.83302,1.65774 1.12302,1.21911c0.2692,-0.40716 -0.30449,-1.2787 0.09454,-1.35209c0.82511,-0.15176 2.34116,0.59584 2.70568,0.90272c0.73071,0.61517 0.84587,1.90596 0.25724,2.88307z" fill="#c55f00"/><path d="M230.6496,171.67165c0.65046,0.54762 0.8349,1.56068 0.41196,2.26274c-0.42294,0.70206 -1.2931,0.82726 -1.94356,0.27965c-0.65046,-0.54761 -0.82734,-1.6501 -0.4044,-2.35216c0.05819,-0.0966 0.48595,-0.5712 0.94306,-0.62617c0.40637,-0.04886 0.84022,0.30738 0.99293,0.43594z" fill="#b6c300"/></g><path d="M231.29798,173.5804l5.52084,6.3769l-1.99277,1.72525l-5.52082,-6.37691z" data-paper-data="{&quot;index&quot;:null}" fill="#00bf19" stroke-width="0.5" stroke-linecap="butt"/><path d="M234.2715,185.87048c-0.1795,-1.1235 -0.3247,-3.21656 0.37235,-4.80182c0.30949,-0.70384 1.0979,-1.6487 1.59673,-1.7284c0.56896,-0.0909 1.6588,0.45673 2.23508,1.17565c1.0669,1.33096 1.50251,3.36255 1.67081,4.41591c0.25922,1.62231 -0.84581,3.14762 -2.46813,3.40683c-1.62231,0.25922 -3.14762,-0.84581 -3.40683,-2.46813z" data-paper-data="{&quot;index&quot;:null}" fill="#00b6bf" stroke-width="0.5" stroke-linecap="butt"/><path d="M233.71163,175.13676l-2.12767,2.62426l-3.09535,0.16689l-1.72443,-1.3981l5.89202,-7.26721l1.47807,1.19836z" data-paper-data="{&quot;index&quot;:null}" fill="#00b6bf" stroke-width="0.5" stroke-linecap="round"/><path d="M251.29761,182.24624l0.45967,12.54508l-18.71961,0.6859l-0.45967,-12.54508z" data-paper-data="{&quot;index&quot;:null}" fill="#00f2ff" stroke-width="0.5" stroke-linecap="butt"/><path d="M251.29772,182.25684l0.20714,5.65323l-4.34705,-1.34838l-2.05849,1.27017l-2.90284,0.34918l-2.53078,2.64085l-2.27085,-1.77401l-1.33208,0.17101l-1.87576,-1.56819l-1.43041,0.2636l-0.1832,-4.99984z" data-paper-data="{&quot;index&quot;:null}" fill="#00ff21" stroke-width="0.5" stroke-linecap="round"/><path d="M247.77214,188.57771c0.98661,-0.03615 1.81571,0.73434 1.85186,1.72095c0.03615,0.98661 -0.73434,1.81571 -1.72095,1.85186c-0.98661,0.03615 -1.81571,-0.73434 -1.85186,-1.72095c-0.03615,-0.98661 0.73434,-1.81571 1.72095,-1.85186z" data-paper-data="{&quot;index&quot;:null}" fill="#00ff21" stroke-width="0.5" stroke-linecap="butt"/><path d="M233.23845,173.56636l5.52085,6.3769l-1.99278,1.72525l-5.52082,-6.37691z" data-paper-data="{&quot;index&quot;:null}" fill="#00ff21" stroke-width="0.5" stroke-linecap="butt"/><path d="M235.66527,185.97312c-0.1795,-1.1235 -0.3247,-3.21656 0.37235,-4.80182c0.30949,-0.70384 1.0979,-1.64871 1.59673,-1.72841c0.56896,-0.0909 1.6588,0.45673 2.23508,1.17565c1.06691,1.33095 1.50251,3.36255 1.67081,4.41591c0.25922,1.62232 -0.84581,3.14762 -2.46813,3.40683c-1.62232,0.25922 -3.14762,-0.84581 -3.40683,-2.46813z" data-paper-data="{&quot;index&quot;:null}" fill="#00f2ff" stroke-width="0.5" stroke-linecap="butt"/><g data-paper-data="{&quot;index&quot;:null}" stroke-width="0" stroke-linecap="butt"><path d="M233.08483,169.70647c0.96898,0.81577 1.1217,2.52747 0.34112,3.8232c-0.78058,1.29573 -2.19887,1.68482 -3.16785,0.86905c-0.96897,-0.81576 -3.15641,-4.41726 -2.37583,-5.71299c0.20287,-0.33675 1.72975,2.8783 2.11432,2.29664c0.35698,-0.53993 -1.02887,-2.37566 -0.49972,-2.47298c1.09417,-0.20124 3.10458,0.79014 3.58796,1.19709z" fill="#ff3d00"/><path d="M232.89147,170.81898c0.7307,0.61517 0.84587,1.90596 0.25724,2.88307c-0.58863,0.97711 -1.65817,1.27052 -2.38887,0.65535c-0.7307,-0.61517 -2.38024,-3.33105 -1.79161,-4.30816c0.15299,-0.25394 0.83303,1.65774 1.12303,1.21911c0.2692,-0.40716 -0.30449,-1.2787 0.09454,-1.35209c0.82511,-0.15176 2.34116,0.59584 2.70568,0.90272z" fill="#ff7b00"/><path d="M232.80508,171.32591c0.65046,0.54761 0.8349,1.56067 0.41196,2.26273c-0.42294,0.70206 -1.2931,0.82726 -1.94356,0.27965c-0.65046,-0.54761 -0.82734,-1.6501 -0.4044,-2.35216c0.05819,-0.09659 0.48595,-0.57119 0.94306,-0.62616c0.40637,-0.04887 0.84022,0.30738 0.99293,0.43594z" fill="#efff00"/></g><path d="M235.6521,175.12271l-2.12767,2.62426l-3.09535,0.16689l-1.72443,-1.3981l5.89202,-7.26721l1.47807,1.19836z" data-paper-data="{&quot;index&quot;:null}" fill="#00f2ff" stroke-width="0.5" stroke-linecap="round"/></g></g></svg>