<svg version="1.1" xmlns="http://www.w3.org/2000/svg" xmlns:xlink="http://www.w3.org/1999/xlink" width="24.418" height="7.79367" viewBox="0,0,24.418,7.79367"><g transform="translate(-227.81827,-184.36127)"><g data-paper-data="{&quot;isPaintingLayer&quot;:true}" fill="#080807" fill-rule="nonzero" stroke="#080807" stroke-width="0.5" stroke-linecap="round" stroke-linejoin="miter" stroke-miterlimit="10" stroke-dasharray="" stroke-dashoffset="0" style="mix-blend-mode: normal"><g><path d="M228.06827,188.6702c0,0 1.03775,-0.88971 1.46473,-1.19086c0.187,-0.13189 1.18378,-0.12754 2.14231,0.17677c0.74206,0.23558 2.69278,0.61664 3.74385,0.61082c1.09997,-0.00608 4.01153,-1.29589 4.34768,-1.21605c0.17501,0.04157 1.97979,0.40142 3.62559,0.50553c1.43914,0.09104 2.75671,-0.06964 2.75671,-0.06964c0,0 1.90447,-0.48016 2.37646,-0.48016c0.22571,0 1.18912,0.1263 2.04229,0.5066c0.75202,0.33522 1.41838,0.93015 1.41838,0.93015v3.46157h-23.918z"/><path d="M230.23133,187.79496l0.3584,-2.05106l1.04983,1.70336z"/><path d="M233.22152,188.29881l0.3584,-2.05106l1.04983,1.70336z"/><path d="M235.82268,189.00044l1.59638,-3.00637l-0.09072,3.12315z"/><path d="M248.02743,186.82657l1.04982,-1.70336l0.3584,2.05106z" data-paper-data="{&quot;index&quot;:null}"/><path d="M245.1982,187.29018l1.04983,-1.70336l0.3584,2.05106z" data-paper-data="{&quot;index&quot;:null}"/><path d="M242.66057,189.50256l-0.09072,-3.12314l1.59638,3.00637z" data-paper-data="{&quot;index&quot;:null}"/><path d="M239.22504,188.52018l0.63368,-3.0298l0.8392,3.42509z" data-paper-data="{&quot;index&quot;:null}"/></g></g></g></svg>