<svg version="1.1" xmlns="http://www.w3.org/2000/svg" xmlns:xlink="http://www.w3.org/1999/xlink" width="166.56895" height="25.7345" viewBox="0,0,166.56895,25.7345"><defs><linearGradient x1="230.54371" y1="171.53909" x2="230.54371" y2="178.57936" gradientUnits="userSpaceOnUse" id="color-1"><stop offset="0" stop-color="#ffffff"/><stop offset="1" stop-color="#cacaca"/></linearGradient><linearGradient x1="249.55384" y1="171.18849" x2="249.55384" y2="178.22875" gradientUnits="userSpaceOnUse" id="color-2"><stop offset="0" stop-color="#ffffff"/><stop offset="1" stop-color="#cacaca"/></linearGradient><linearGradient x1="240.03733" y1="169.28621" x2="240.03733" y2="190.47741" gradientUnits="userSpaceOnUse" id="color-3"><stop offset="0" stop-color="#8d169e"/><stop offset="1" stop-color="#bf2cb3"/></linearGradient><linearGradient x1="230.90186" y1="177.36421" x2="237.51344" y2="177.36421" gradientUnits="userSpaceOnUse" id="color-4"><stop offset="0" stop-color="#00de5e"/><stop offset="1" stop-color="#98e6c3"/></linearGradient><linearGradient x1="242.30851" y1="177.29521" x2="248.9201" y2="177.29521" gradientUnits="userSpaceOnUse" id="color-5"><stop offset="0" stop-color="#98e6c3"/><stop offset="1" stop-color="#00de5e"/></linearGradient><linearGradient x1="233.72425" y1="181.71219" x2="233.72425" y2="183.92996" gradientUnits="userSpaceOnUse" id="color-6"><stop offset="0" stop-color="#dddddd"/><stop offset="1" stop-color="#ffffff"/></linearGradient><linearGradient x1="236.49222" y1="181.46181" x2="236.49222" y2="183.67959" gradientUnits="userSpaceOnUse" id="color-7"><stop offset="0" stop-color="#dddddd"/><stop offset="1" stop-color="#ffffff"/></linearGradient><linearGradient x1="246.33695" y1="181.70934" x2="246.11435" y2="183.92654" gradientUnits="userSpaceOnUse" id="color-8"><stop offset="0" stop-color="#dddddd"/><stop offset="1" stop-color="#ffffff"/></linearGradient><linearGradient x1="243.72484" y1="181.59925" x2="243.50223" y2="183.81644" gradientUnits="userSpaceOnUse" id="color-9"><stop offset="0" stop-color="#dddddd"/><stop offset="1" stop-color="#ffffff"/></linearGradient></defs><g transform="translate(-228.2698,-169.03619)"><g data-paper-data="{&quot;isPaintingLayer&quot;:true}" fill-rule="nonzero" stroke="#000000" stroke-linejoin="miter" stroke-miterlimit="10" stroke-dasharray="" stroke-dashoffset="0" style="mix-blend-mode: normal"><path d="M229.23052,178.57936c0,0 -0.90043,-2.37915 -0.96071,-3.58474c-0.05686,-1.13717 0.6087,-3.45553 0.6087,-3.45553c0,0 1.0794,0.7394 1.69649,1.04212c0.62654,0.30737 2.24606,-0.05649 2.24606,-0.05649z" fill="url(#color-1)" stroke-width="0.5" stroke-linecap="round"/><path d="M247.2765,172.17412c0,0 1.61952,0.36385 2.24606,0.05649c0.61709,-0.30273 1.69649,-1.04212 1.69649,-1.04212c0,0 0.66556,2.31836 0.6087,3.45553c-0.06028,1.20559 -0.96071,3.58474 -0.96071,3.58474z" data-paper-data="{&quot;index&quot;:null}" fill="url(#color-2)" stroke-width="0.5" stroke-linecap="round"/><path d="M229.44172,179.88181c0,-5.85179 4.74382,-10.59561 10.59561,-10.59561c5.85179,0 10.59561,4.74382 10.59561,10.59561c0,5.85179 -4.74382,10.59561 -10.59561,10.59561c-5.85179,0 -10.59561,-4.74382 -10.59561,-10.59561z" fill="url(#color-3)" stroke-width="0.5" stroke-linecap="butt"/><path d="M232.31343,175.43114c0.54758,0.40734 1.79715,1.25191 2.31177,1.63474c0.51478,0.38295 3.07311,1.68686 2.8776,2.09672c-0.19061,0.39959 -3.1207,-0.08895 -3.74087,-0.16338c-0.48295,-0.05795 -2.30616,0.02793 -2.74634,-0.37667c-0.52157,-0.47941 0.89726,-3.48941 1.29784,-3.19142z" fill="url(#color-4)" stroke-width="0.5" stroke-linecap="round"/><path d="M248.80636,178.55356c-0.44019,0.4046 -2.2634,0.31871 -2.74634,0.37667c-0.62017,0.07442 -3.55026,0.56296 -3.74087,0.16338c-0.19551,-0.40986 2.36282,-1.71377 2.8776,-2.09672c0.51462,-0.38282 1.7642,-1.22739 2.31178,-1.63474c0.40059,-0.29799 1.81941,2.71201 1.29784,3.19142z" data-paper-data="{&quot;index&quot;:null}" fill="url(#color-5)" stroke-width="0.5" stroke-linecap="round"/><path d="M231.48339,182.73312l0.0704,-1.61926" fill="none" stroke-width="1" stroke-linecap="round"/><path d="M248.73205,181.11386l-0.14081,1.54886" fill="none" stroke-width="1" stroke-linecap="round"/><text transform="translate(253.06532,187.13789) scale(0.5,0.5)" font-size="40" xml:space="preserve" fill="#ffffff" fill-rule="nonzero" stroke="#000000" stroke-width="1" stroke-linecap="butt" stroke-linejoin="miter" stroke-miterlimit="10" stroke-dasharray="" stroke-dashoffset="0" font-family="Marker" font-weight="normal" text-anchor="start" style="mix-blend-mode: normal"><tspan x="0" dy="0">Medium Demon</tspan></text><path d="M233.70089,181.71825c0.49265,-0.03719 1.48979,0.10891 1.48979,0.10891c0,0 -0.41162,0.70881 -0.671,1.06084c-0.25706,0.34889 -0.87843,1.04197 -0.87843,1.04197c0,0 -0.53066,-0.57118 -0.75229,-0.87259c-0.23831,-0.32409 -0.63114,-1.11954 -0.63114,-1.11954c0,0 0.95821,-0.18299 1.44307,-0.21959z" fill="url(#color-6)" stroke-width="0.5" stroke-linecap="round"/><path d="M236.46886,181.46787c0.49265,-0.03719 1.48979,0.10891 1.48979,0.10891c0,0 -0.41162,0.70881 -0.671,1.06084c-0.25706,0.34889 -0.87843,1.04197 -0.87843,1.04197c0,0 -0.53066,-0.57118 -0.75229,-0.87259c-0.23831,-0.32409 -0.63114,-1.11954 -0.63114,-1.11954c0,0 0.95821,-0.18299 1.44307,-0.21959z" fill="url(#color-7)" stroke-width="0.5" stroke-linecap="round"/><path d="M247.78035,182.08212c0,0 -0.47257,0.75581 -0.74334,1.0559c-0.25182,0.27909 -0.83968,0.79684 -0.83968,0.79684c0,0 -0.55163,-0.75527 -0.77362,-1.12986c-0.22398,-0.37797 -0.56434,-1.12791 -0.56434,-1.12791c0,0 1.01154,-0.04596 1.50033,0.04066c0.48106,0.08525 1.42065,0.36438 1.42065,0.36438z" data-paper-data="{&quot;index&quot;:null}" fill="url(#color-8)" stroke-width="0.5" stroke-linecap="round"/><path d="M245.16824,181.97203c0,0 -0.47257,0.75581 -0.74334,1.0559c-0.25182,0.27909 -0.83968,0.79684 -0.83968,0.79684c0,0 -0.55163,-0.75527 -0.77362,-1.12986c-0.22398,-0.37797 -0.56434,-1.12791 -0.56434,-1.12791c0,0 1.01154,-0.04596 1.50033,0.04066c0.48106,0.08525 1.42065,0.36438 1.42065,0.36438z" data-paper-data="{&quot;index&quot;:null}" fill="url(#color-9)" stroke-width="0.5" stroke-linecap="round"/><path d="M231.765,181.8883c0,0 5.27571,-0.99064 8.02904,-0.95651c2.91643,0.03615 9.00842,1.16771 9.00842,1.16771" fill="none" stroke-width="1" stroke-linecap="round"/></g></g></svg>