<svg version="1.1" xmlns="http://www.w3.org/2000/svg" xmlns:xlink="http://www.w3.org/1999/xlink" width="26.6985" height="23.91535" viewBox="0,0,26.6985,23.91535"><defs><linearGradient x1="241.41171" y1="178.96355" x2="239.12673" y2="167.91487" gradientUnits="userSpaceOnUse" id="color-1"><stop offset="0" stop-color="#00bb19"/><stop offset="1" stop-color="#009614"/></linearGradient><linearGradient x1="249.58829" y1="178.85343" x2="252.98562" y2="168.09458" gradientUnits="userSpaceOnUse" id="color-2"><stop offset="0" stop-color="#00bb19"/><stop offset="1" stop-color="#009614"/></linearGradient><linearGradient x1="233.48285" y1="181.73964" x2="236.57433" y2="178.38942" gradientUnits="userSpaceOnUse" id="color-3"><stop offset="0" stop-color="#00bb19"/><stop offset="1" stop-color="#009614"/></linearGradient><linearGradient x1="228.60651" y1="174.41338" x2="234.66016" y2="173.43585" gradientUnits="userSpaceOnUse" id="color-4"><stop offset="0" stop-color="#00ff22"/><stop offset="1" stop-color="#00c71b"/></linearGradient><linearGradient x1="235.42816" y1="174.82685" x2="241.01406" y2="172.29702" gradientUnits="userSpaceOnUse" id="color-5"><stop offset="0" stop-color="#00ff22"/><stop offset="1" stop-color="#00c71b"/></linearGradient></defs><g transform="translate(-227.34918,-167.63101)"><g data-paper-data="{&quot;isPaintingLayer&quot;:true}" fill-rule="nonzero" stroke-width="0.5" stroke-linejoin="miter" stroke-miterlimit="10" stroke-dasharray="" stroke-dashoffset="0" style="mix-blend-mode: normal"><path d="M237.85552,175.4765c0.1344,-1.76761 0.54076,-7.11195 0.54076,-7.11195c0,0 0.9358,-0.55958 1.41707,-0.58069c0.57648,-0.02529 1.80803,0.43921 1.80803,0.43921c0,0 1.6042,5.0394 2.15963,6.78424c0.34886,1.09593 0.16541,2.8102 0.16541,2.8102c0,0 -0.40577,0.34688 -0.95912,0.67582c-0.47691,0.28349 -1.12198,0.40066 -1.65278,0.42395c-0.47493,0.02084 -1.14221,0.09776 -1.72075,-0.12909c-0.85337,-0.33461 -1.60152,-0.76221 -1.60152,-0.76221c0,0 -0.23663,-1.49878 -0.15674,-2.54947z" data-paper-data="{&quot;index&quot;:null}" fill="url(#color-1)" stroke="#000000" stroke-linecap="butt"/><path d="M253.66652,168.61628c0,0 -0.13954,5.35795 -0.18569,7.13006c-0.02744,1.05337 -0.41535,2.52029 -0.41535,2.52029c0,0 -0.78776,0.34925 -1.67075,0.5953c-0.59862,0.16681 -1.25462,0.02239 -1.72496,-0.04666c-0.52568,-0.07718 -1.15548,-0.25938 -1.60106,-0.58993c-0.51699,-0.38353 -0.88538,-0.7699 -0.88538,-0.7699c0,0 -0.00806,-1.72405 0.4505,-2.77878c0.73009,-1.67927 2.83872,-6.52929 2.83872,-6.52929c0,0 1.27242,-0.33678 1.84334,-0.25296c0.47663,0.06997 1.35064,0.72186 1.35064,0.72186z" data-paper-data="{&quot;index&quot;:null}" fill="url(#color-2)" stroke="#000000" stroke-linecap="butt"/><path d="M240.30526,181.8322l-3.09148,3.35022l-7.46186,-6.88556l3.09148,-3.35022z" data-paper-data="{&quot;index&quot;:null}" fill="url(#color-3)" stroke="#000000" stroke-linecap="butt"/><path d="M232.96387,168.56551c0,0 1.4803,5.15129 1.9699,6.85505c0.29103,1.01275 0.36283,2.52839 0.36283,2.52839c0,0 -0.64605,0.57026 -1.41396,1.07077c-0.5206,0.33932 -1.18965,0.39914 -1.65895,0.47492c-0.52452,0.0847 -1.17995,0.10059 -1.70439,-0.08045c-0.60849,-0.21005 -1.07612,-0.46756 -1.07612,-0.46756c0,0 -0.52682,-1.6416 -0.40714,-2.78546c0.19055,-1.82117 0.7409,-7.08103 0.7409,-7.08103c0,0 1.11195,-0.70429 1.68161,-0.79628c0.47558,-0.0768 1.50532,0.28165 1.50532,0.28165z" data-paper-data="{&quot;index&quot;:null}" fill="url(#color-4)" stroke="#000000" stroke-linecap="butt"/><path d="M248.706,175.73386l3.4375,3.4375l1.375,12.125h-25.625l11.85806,-15.625z" data-paper-data="{&quot;index&quot;:null}" fill="#00f220" stroke="#000000" stroke-linecap="round"/><path d="M236.5789,191.23045v-6.06092l3.54849,-3.54849l0.0518,-5.98321l8.41795,0.0518v15.48902z" data-paper-data="{&quot;index&quot;:null}" fill="#00ff22" stroke="#00e51e" stroke-linecap="round"/><path d="M248.66658,175.71247l3.4375,3.4375l1.375,12.125h-25.625l11.90986,-15.625z" data-paper-data="{&quot;index&quot;:null}" fill="none" stroke="#000000" stroke-linecap="round"/><path d="M248.62303,181.28432c1.70228,0 3.08226,1.37997 3.08226,3.08226c0,1.70228 -1.37997,3.08226 -3.08226,3.08226c-1.70228,0 -3.08226,-1.37997 -3.08226,-3.08226c0,-1.70228 1.37997,-3.08226 3.08226,-3.08226z" data-paper-data="{&quot;index&quot;:null}" fill="#00f2ff" stroke="#000000" stroke-linecap="butt"/><path d="M238.10071,168.04145c0,0 2.77854,4.58332 3.69753,6.09923c0.54626,0.90108 1.01275,2.34493 1.01275,2.34493c0,0 -0.47402,0.71963 -1.08393,1.40389c-0.41349,0.46389 -1.04347,0.69695 -1.47651,0.89307c-0.48399,0.21919 -1.11235,0.4063 -1.6659,0.36903c-0.64227,-0.04325 -1.16104,-0.16921 -1.16104,-0.16921c0,0 -0.93862,-1.44616 -1.12289,-2.58141c-0.29338,-1.80745 -1.1407,-7.02771 -1.1407,-7.02771c0,0 0.88852,-0.97108 1.41416,-1.20914c0.43883,-0.19875 1.52652,-0.12268 1.52652,-0.12268z" data-paper-data="{&quot;index&quot;:null}" fill="url(#color-5)" stroke="#000000" stroke-linecap="butt"/></g></g></svg>