<svg version="1.1" xmlns="http://www.w3.org/2000/svg" xmlns:xlink="http://www.w3.org/1999/xlink" width="44.59534" height="44.59534" viewBox="0,0,44.59534,44.59534"><g transform="translate(-217.70233,-157.70233)"><g data-paper-data="{&quot;isPaintingLayer&quot;:true}" fill-rule="nonzero" stroke-linecap="butt" stroke-linejoin="miter" stroke-miterlimit="10" stroke-dasharray="" stroke-dashoffset="0" style="mix-blend-mode: normal"><path d="M217.70233,202.29767v-44.59534h44.59534v44.59534z" fill="none" stroke="none" stroke-width="0"/><path d="M229.125,180c0,-6.00609 4.86891,-10.875 10.875,-10.875c6.00609,0 10.875,4.86891 10.875,10.875c0,6.00609 -4.86891,10.875 -10.875,10.875c-6.00609,0 -10.875,-4.86891 -10.875,-10.875z" fill="none" stroke="#eebfff" stroke-width="2"/><path d="M232.05288,180c0,-4.38907 3.55805,-7.94712 7.94712,-7.94712c4.38907,0 7.94712,3.55805 7.94712,7.94712c0,4.38907 -3.55805,7.94712 -7.94712,7.94712c-4.38907,0 -7.94712,-3.55805 -7.94712,-7.94712z" fill="#bf00ff" stroke="none" stroke-width="0"/><path d="M229.48696,183.8656l-3.8656,-3.8656l3.8656,-3.8656z" fill="#eebfff" stroke="none" stroke-width="0"/><path d="M250.68284,176.13441l3.8656,3.8656l-3.8656,3.86559z" fill="#eebfff" stroke="none" stroke-width="0"/><path d="M243.8656,190.59794l-3.86559,3.8656l-3.86559,-3.8656z" fill="#eebfff" stroke="none" stroke-width="0"/><path d="M236.13441,169.40206l3.86559,-3.8656l3.86559,3.8656z" fill="#eebfff" stroke="none" stroke-width="0"/></g></g></svg>