<svg version="1.1" xmlns="http://www.w3.org/2000/svg" xmlns:xlink="http://www.w3.org/1999/xlink" width="33.95123" height="79.45708" viewBox="0,0,33.95123,79.45708"><g transform="translate(-222.7735,-140.27148)"><g data-paper-data="{&quot;isPaintingLayer&quot;:true}" fill-rule="nonzero" stroke-linejoin="miter" stroke-miterlimit="10" stroke-dasharray="" stroke-dashoffset="0" style="mix-blend-mode: normal"><g fill="#000000" stroke="none" stroke-width="0" stroke-linecap="butt"><path d="M224.42702,153.20238v-4.77727h10.67349v4.77727z"/><path d="M225.12011,159.2081v-4.64078h17.04986v4.64078z"/><path d="M234.1302,166.71525v-5.86922h14.69338v5.86922z"/><path d="M225.67457,163.02992v-3.95832h7.20808v3.95832z"/><path d="M237.17976,176.54279v-7.09766h17.3271v7.09766z"/><path d="M225.25872,177.36175v-4.64078h17.04986v4.64078z"/><path d="M247.85326,183.77694v-6.00571h8.87147v6.00571z"/><path d="M226.78351,183.91344v-4.64078h23.70347v4.64078z"/><path d="M227.19935,191.96656v-5.59623h26.89165v5.59623z"/><path d="M224.01117,200.01968v-5.45974h24.95102v5.45974z"/><path d="M226.92212,207.39034v-4.64078h16.21817v4.64078z"/><path d="M226.50628,212.71358v-3.41234h8.87147v3.41234z"/><path d="M225.67457,170.40058v-5.73273h11.78242v5.73273z"/><path d="M230.38754,205.75241v-45.17937h3.46542v45.17937z"/><path d="M236.34807,197.97228v-35.76132h3.32681v35.76132z"/></g><g fill="#00bcff" stroke="#00bcff" stroke-width="1" stroke-linecap="round"><path d="M228.66261,181.63245l-0.44895,21.90852l17.68844,-22.98599h6.23153l-24.18933,32.23426h-2.69367l-1.88557,-1.88557l0.17958,-29.27122z"/><path d="M223.54464,181.63246l-0.26937,-31.60574l1.88557,-1.88557h2.69367l24.18933,32.23426h-6.23153l-17.68844,-22.98599l0.53873,24.24304z" data-paper-data="{&quot;index&quot;:null}"/></g><path d="M229.83307,143.68243c0,-1.60768 1.30328,-2.91095 2.91095,-2.91095c1.60768,0 2.91095,1.30328 2.91095,2.91095c0,1.60768 -1.30328,2.91095 -2.91095,2.91095c-1.60768,0 -2.91095,-1.30328 -2.91095,-2.91095z" fill="#00bcff" stroke="#00bcff" stroke-width="1" stroke-linecap="butt"/><path d="M230.11031,216.45623c0,-1.53112 1.24121,-2.77233 2.77233,-2.77233c1.53112,0 2.77233,1.24121 2.77233,2.77233c0,1.53112 -1.24121,2.77233 -2.77233,2.77233c-1.53112,0 -2.77233,-1.24121 -2.77233,-2.77233z" fill="#00bcff" stroke="#00bcff" stroke-width="1" stroke-linecap="butt"/></g></g></svg>