<svg version="1.1" xmlns="http://www.w3.org/2000/svg" xmlns:xlink="http://www.w3.org/1999/xlink" width="94.97597" height="24.62735" viewBox="0,0,94.97597,24.62735"><defs><linearGradient x1="240" y1="169.589" x2="240" y2="190.411" gradientUnits="userSpaceOnUse" id="color-1"><stop offset="0" stop-color="#00ff42"/><stop offset="1" stop-color="#0d7200"/></linearGradient></defs><g transform="translate(-229.089,-169.089)"><g data-paper-data="{&quot;isPaintingLayer&quot;:true}" fill-rule="nonzero" stroke="#000000" stroke-linejoin="miter" stroke-miterlimit="10" stroke-dasharray="" stroke-dashoffset="0" style="mix-blend-mode: normal"><path d="M229.589,180c0,-5.74983 4.66116,-10.411 10.411,-10.411c5.74983,0 10.411,4.66116 10.411,10.411c0,5.74983 -4.66116,10.411 -10.411,10.411c-5.74983,0 -10.411,-4.66116 -10.411,-10.411z" fill="url(#color-1)" stroke-width="1" stroke-linecap="butt"/><text transform="translate(253.56497,186.63822) scale(0.5,0.5)" font-size="40" xml:space="preserve" fill="#ffffff" fill-rule="nonzero" stroke="#000000" stroke-width="1" stroke-linecap="butt" stroke-linejoin="miter" stroke-miterlimit="10" stroke-dasharray="" stroke-dashoffset="0" font-family="Marker" font-weight="normal" text-anchor="start" style="mix-blend-mode: normal"><tspan x="0" dy="0">Normal</tspan></text><path d="M233.87709,176.92489c0,-1.03038 0.83529,-1.86567 1.86567,-1.86567c1.03038,0 1.86567,0.83529 1.86567,1.86567c0,1.03038 -0.83529,1.79527 -1.86567,1.79527c-1.03038,0 -1.86567,-0.76489 -1.86567,-1.79527z" fill="#000000" stroke-width="1.5" stroke-linecap="butt"/><path d="M233.8081,175.94066c0,-0.44715 0.36249,-0.80963 0.80963,-0.80963c0.44715,0 0.80963,0.36249 0.80963,0.80963c0,0.44715 -0.36248,0.80963 -0.80963,0.80963c-0.44715,0 -0.80963,-0.36248 -0.80963,-0.80963z" fill="#ffffff" stroke-width="0" stroke-linecap="butt"/><path d="M243.03085,176.9263c0,-1.03038 0.83529,-1.86568 1.86567,-1.86568c1.03038,0 1.86567,0.8353 1.86567,1.86568c0,1.03038 -0.83529,1.79527 -1.86567,1.79527c-1.03038,0 -1.86567,-0.76489 -1.86567,-1.79527z" fill="#000000" stroke-width="1.5" stroke-linecap="butt"/><path d="M242.96185,175.94207c0,-0.44715 0.36249,-0.80964 0.80963,-0.80964c0.44715,0 0.80963,0.36249 0.80963,0.80964c0,0.44715 -0.36248,0.80963 -0.80963,0.80963c-0.44715,0 -0.80963,-0.36248 -0.80963,-0.80963z" fill="#ffffff" stroke-width="0" stroke-linecap="butt"/><path d="M232.82104,182.73311c0,0 1.56941,0.80651 3.38131,1.33082c1.42585,0.41261 3.00186,0.57005 4.08138,0.57005c1.1362,0 2.72084,-0.22167 4.1408,-0.67428c1.55561,-0.49585 2.89947,-1.22659 2.89947,-1.22659" fill="none" stroke-width="1" stroke-linecap="round"/></g></g></svg>