<svg version="1.1" xmlns="http://www.w3.org/2000/svg" xmlns:xlink="http://www.w3.org/1999/xlink" width="31.02667" height="31.28935" viewBox="0,0,31.02667,31.28935"><g transform="translate(-223.78542,-164.29478)"><g data-paper-data="{&quot;isPaintingLayer&quot;:true}" fill-rule="nonzero" stroke="#000000" stroke-width="0.5" stroke-linecap="round" stroke-linejoin="miter" stroke-miterlimit="10" stroke-dasharray="" stroke-dashoffset="0" style="mix-blend-mode: normal"><path d="M235.66347,169.16463v-4.44909l9.10042,4.95467l2.629,-2.37622l3.33683,9.25209l3.69073,0.15167l-4.29742,8.84763l2.37622,2.8818l-9.15097,2.93236l-0.20224,3.8424l-8.94874,-4.14574l-2.83124,2.17399l-3.18514,-9.15097l-3.99407,-0.10112l4.60076,-9.10042l-2.47733,-2.83124z" fill="#00f2ff"/><path d="M232.22553,175.78772l5.20747,-1.66841v-2.12343l4.803,2.22455l1.66841,-1.26395l1.92119,5.1569h1.87064l-2.07288,5.05579l1.11228,1.51674l-5.10635,2.07288l-0.10112,1.97176l-4.85355,-2.32566l-1.66841,1.36507l-2.17399,-5.35914l-1.66841,-0.10112l2.07288,-4.55021z" fill="#26ff00"/></g></g></svg>