<svg version="1.1" xmlns="http://www.w3.org/2000/svg" xmlns:xlink="http://www.w3.org/1999/xlink" width="60.8886" height="53.7808" viewBox="0,0,60.8886,53.7808"><g transform="translate(-208.04288,-152.53574)"><g data-paper-data="{&quot;isPaintingLayer&quot;:true}" fill-rule="nonzero" stroke-width="0.5" stroke-linejoin="miter" stroke-miterlimit="10" stroke-dasharray="" stroke-dashoffset="0" style="mix-blend-mode: normal"><path d="M263.35837,174.52273l-7.70614,1.53169l-3.75215,-5.34885l-7.01545,4.08032l-7.09525,-5.66832l-4.31429,5.82076l-2.07177,-6.09385l-7.78966,4.28496l-2.61166,-4.57952l-5.41232,7.5548l-7.25462,-10.95236l1.85572,-3.35183l13.86329,-8.98873l39.54288,13.62271z" data-paper-data="{&quot;index&quot;:null}" fill="#080807" stroke="#080807" stroke-linecap="round"/><g data-paper-data="{&quot;index&quot;:null}"><path d="M216.28474,186.07732l0.97997,-5.35782l7.45768,3.83974l2.46129,-6.37399l5.55598,2.04312l1.7682,-6.38158l8.2303,7.6475l1.63186,-10.0172l5.14411,5.75532l11.41733,-10.65326l7.66399,15.45587l-18.08386,8.76758l-12.11007,15.24868l-21.28566,-2.62208l-6.53766,-10.39406l0.76125,-8.25098z" fill="#080807" stroke="#080807" stroke-linecap="round"/><path d="M224.43251,190.40096c2.28332,-0.60671 4.62615,0.75244 5.23287,3.03575c0.60671,2.28332 -0.75244,4.62615 -3.03575,5.23287c-2.28332,0.60671 -4.62615,-0.75244 -5.23287,-3.03575c-0.60671,-2.28332 0.75244,-4.62615 3.03575,-5.23287z" fill="#ffffff" stroke="#000000" stroke-linecap="butt"/></g></g></g></svg>