<svg version="1.1" xmlns="http://www.w3.org/2000/svg" xmlns:xlink="http://www.w3.org/1999/xlink" width="60.88859" height="53.7808" viewBox="0,0,60.88859,53.7808"><g transform="translate(-209.66787,-148.29653)"><g data-paper-data="{&quot;isPaintingLayer&quot;:true}" fill-rule="nonzero" stroke-width="0.5" stroke-linejoin="miter" stroke-miterlimit="10" stroke-dasharray="" stroke-dashoffset="0" style="mix-blend-mode: normal"><path d="M265.22195,188.17857l-39.54288,13.62271l-13.86329,-8.98873l-1.85572,-3.35183l7.25462,-10.95236l5.41232,7.5548l2.61166,-4.57952l7.78966,4.28496l2.07177,-6.09385l4.31429,5.82076l7.09525,-5.66832l7.01545,4.08032l3.75215,-5.34885l7.70614,1.53169z" fill="#080807" stroke="#080807" stroke-linecap="round"/><g><path d="M212.96445,169.82892l-0.76125,-8.25098l6.53766,-10.39406l21.28566,-2.62208l12.11007,15.24868l18.08386,8.76758l-7.66399,15.45587l-11.41733,-10.65326l-5.14411,5.75532l-1.63186,-10.0172l-8.2303,7.6475l-1.7682,-6.38158l-5.55598,2.04312l-2.46129,-6.37399l-7.45768,3.83974l-0.97997,-5.35782z" fill="#080807" stroke="#080807" stroke-linecap="round"/><path d="M223.02176,158.97925c0.60672,-2.28331 2.94955,-3.64246 5.23287,-3.03575c2.28331,0.60672 3.64246,2.94955 3.03575,5.23287c-0.60672,2.28331 -2.94955,3.64246 -5.23287,3.03575c-2.28331,-0.60672 -3.64246,-2.94955 -3.03575,-5.23287z" fill="#ffffff" stroke="#000000" stroke-linecap="butt"/></g></g></g></svg>