<svg version="1.1" xmlns="http://www.w3.org/2000/svg" xmlns:xlink="http://www.w3.org/1999/xlink" width="30.45205" height="21.27276" viewBox="0,0,30.45205,21.27276"><g transform="translate(-224.91044,-168.20306)"><g data-paper-data="{&quot;isPaintingLayer&quot;:true}" fill-rule="nonzero" stroke="#000000" stroke-width="0.5" stroke-linejoin="miter" stroke-miterlimit="10" stroke-dasharray="" stroke-dashoffset="0" style="mix-blend-mode: normal"><path d="M249.16539,183.80106l-7.88921,-1.69228l0.52883,-2.46537l7.88921,1.6923z" fill="#00b6bf" stroke-linecap="butt"/><path d="M237.1441,179.96794c-1.1879,-1.029 -1.31671,-2.82616 -0.28771,-4.01406c1.029,-1.1879 2.82616,-1.31671 4.01406,-0.28771c0.7713,0.66812 2.20288,2.04692 2.74655,3.58545c0.29365,0.83103 0.18908,1.99308 -0.17182,2.4097c-0.3164,0.36525 -1.48206,0.5295 -2.21027,0.42602c-1.64011,-0.23304 -3.26815,-1.4068 -4.09081,-2.11939z" fill="#00bf19" stroke-linecap="butt"/><path d="M253.51681,179.49853l1.49792,1.03421l-5.08488,7.3648l-1.74757,-1.20658l-0.68003,-2.88629l1.83621,-2.65951z" fill="#00bf19" stroke-linecap="round"/><path d="M233.19464,180.46269l0.43972,-12.00064l17.90721,0.65614l-0.43972,12.00064z" fill="#00ff21" stroke-linecap="butt"/><path d="M233.19024,180.4796l0.17524,-4.78286l1.36833,0.25216l1.79435,-1.50013l1.27428,0.16359l2.1723,-1.69701l2.42094,2.52624l2.77686,0.33403l1.96915,1.21504l4.15839,-1.28986l-0.19815,5.40789z" fill="#00f2ff" stroke-linecap="round"/><path d="M246.08313,173.29064c0.03457,-0.94379 0.8277,-1.68085 1.77148,-1.64627c0.94379,0.03457 1.68085,0.8277 1.64627,1.77148c-0.03457,0.94379 -0.8277,1.68085 -1.77148,1.64627c-0.94379,-0.03457 -1.68085,-0.8277 -1.64627,-1.77148z" fill="#00f2ff" stroke-linecap="butt"/><path d="M237.06801,175.05983c1.42589,-0.66088 3.11757,-0.04071 3.77844,1.38519c0.66088,1.42589 0.04071,3.11757 -1.38519,3.77844c-0.92583,0.4291 -2.77071,1.16861 -4.39682,1.0329c-0.87832,-0.07329 -1.89506,-0.64564 -2.12684,-1.14572c-0.20321,-0.43843 0.12546,-1.5688 0.51871,-2.19037c0.88568,-1.39995 2.62423,-2.40277 3.61169,-2.86043z" fill="#00ff21" stroke-linecap="butt"/><path d="M228.01309,182.11572l7.22294,-3.59619l1.12381,2.25716l-7.22294,3.59619z" fill="#00f2ff" stroke-linecap="butt"/><path d="M230.51691,188.41169l-1.66549,0.73451l-3.61135,-8.18866l1.94307,-0.85693l2.81499,0.93216l1.3041,2.95701z" fill="#00ff21" stroke-linecap="round"/></g></g></svg>