<svg version="1.1" xmlns="http://www.w3.org/2000/svg" xmlns:xlink="http://www.w3.org/1999/xlink" width="48.05212" height="58.75415" viewBox="0,0,48.05212,58.75415"><g transform="translate(-215.96935,-150.63279)"><g data-paper-data="{&quot;isPaintingLayer&quot;:true}" fill-rule="nonzero" stroke-linecap="butt" stroke-linejoin="miter" stroke-miterlimit="10" stroke-dasharray="" stroke-dashoffset="0" style="mix-blend-mode: normal"><path d="M217.65249,155.19979l7.87827,-3.53509l8.64317,28.14729l-7.87827,3.5351z" data-paper-data="{&quot;index&quot;:null}" fill="#ffd9ee" stroke="#ffd9ee" stroke-width="1.5"/><path d="M226.27392,176.01785l7.78064,3.83809l-9.38398,27.79847l-7.78064,-3.83809z" data-paper-data="{&quot;index&quot;:null}" fill="#ffd9ee" stroke="#ffd9ee" stroke-width="1.5"/><path d="M218.8042,155.70637l6.30801,-2.83049l8.23329,26.81247l-6.30801,2.83049z" data-paper-data="{&quot;index&quot;:null}" fill="#ffa0db" stroke="#cd81b0" stroke-width="1"/><path d="M227.18982,176.69634l6.23861,3.04696l-8.86298,26.51751l-6.23861,-3.04696z" data-paper-data="{&quot;index&quot;:null}" fill="#ef97cd" stroke="#cd81b0" stroke-width="1"/><path d="M226.47544,179.91653l-1.19195,-4.67643l6.05728,-0.75926l1.78524,5.49118z" data-paper-data="{&quot;index&quot;:null}" fill="#ffa0db" stroke="#ffbd00" stroke-width="0"/><path d="M232.2009,155.88068l7.87827,-3.53509l8.64317,28.14729l-7.87827,3.5351z" data-paper-data="{&quot;index&quot;:null}" fill="#ffd9ee" stroke="#ffd9ee" stroke-width="1.5"/><path d="M240.82233,176.69874l7.78064,3.83809l-9.38398,27.79847l-7.78064,-3.83809z" data-paper-data="{&quot;index&quot;:null}" fill="#ffd9ee" stroke="#ffd9ee" stroke-width="1.5"/><path d="M233.35261,156.38726l6.30801,-2.83049l8.23329,26.81247l-6.30801,2.83049z" data-paper-data="{&quot;index&quot;:null}" fill="#ffa0db" stroke="#cd81b0" stroke-width="1"/><path d="M241.73824,177.37723l6.23861,3.04696l-8.86298,26.51751l-6.23861,-3.04696z" data-paper-data="{&quot;index&quot;:null}" fill="#ef97cd" stroke="#cd81b0" stroke-width="1"/><path d="M241.02385,180.59742l-1.19195,-4.67643l6.05728,-0.75926l1.78524,5.49118z" data-paper-data="{&quot;index&quot;:null}" fill="#ffa0db" stroke="#ffbd00" stroke-width="0"/><path d="M246.58862,155.79938l7.87827,-3.53509l8.64317,28.14729l-7.87827,3.5351z" data-paper-data="{&quot;index&quot;:null}" fill="#ffd9ee" stroke="#ffd9ee" stroke-width="1.5"/><path d="M255.21006,176.61744l7.78064,3.83809l-9.38398,27.79847l-7.78064,-3.83809z" data-paper-data="{&quot;index&quot;:null}" fill="#ffd9ee" stroke="#ffd9ee" stroke-width="1.5"/><path d="M247.74033,156.30596l6.30801,-2.83049l8.23329,26.81247l-6.30801,2.83049z" data-paper-data="{&quot;index&quot;:null}" fill="#ffa0db" stroke="#cd81b0" stroke-width="1"/><path d="M256.12596,177.29593l6.23861,3.04696l-8.86298,26.51751l-6.23861,-3.04696z" data-paper-data="{&quot;index&quot;:null}" fill="#ef97cd" stroke="#cd81b0" stroke-width="1"/><path d="M255.41157,180.51612l-1.19195,-4.67643l6.05728,-0.75926l1.78524,5.49118z" data-paper-data="{&quot;index&quot;:null}" fill="#ffa0db" stroke="#ffbd00" stroke-width="0"/></g></g></svg>