<svg version="1.1" xmlns="http://www.w3.org/2000/svg" xmlns:xlink="http://www.w3.org/1999/xlink" width="70.10623" height="25.40536" viewBox="0,0,70.10623,25.40536"><defs><linearGradient x1="240" y1="168.90439" x2="240" y2="191.09561" gradientUnits="userSpaceOnUse" id="color-1"><stop offset="0" stop-color="#fbfa6c"/><stop offset="1" stop-color="#de5b49"/></linearGradient><radialGradient cx="234.95004" cy="178.1591" r="3.3378" gradientUnits="userSpaceOnUse" id="color-2"><stop offset="0" stop-color="#00c9ee"/><stop offset="1" stop-color="#1555a2"/></radialGradient><radialGradient cx="245.16231" cy="178.0477" r="3.3378" gradientUnits="userSpaceOnUse" id="color-3"><stop offset="0" stop-color="#00c9ee"/><stop offset="1" stop-color="#1555a2"/></radialGradient></defs><g transform="translate(-228.65439,-168.65439)"><g data-paper-data="{&quot;isPaintingLayer&quot;:true}" fill-rule="nonzero" stroke-linecap="butt" stroke-linejoin="miter" stroke-miterlimit="10" stroke-dasharray="" stroke-dashoffset="0" style="mix-blend-mode: normal"><path d="M228.90439,180c0,-6.12793 4.96768,-11.09561 11.09561,-11.09561c6.12793,0 11.09561,4.96768 11.09561,11.09561c0,6.12793 -4.96768,11.09561 -11.09561,11.09561c-6.12793,0 -11.09561,-4.96768 -11.09561,-11.09561z" fill="url(#color-1)" stroke="#000000" stroke-width="0.5"/><path d="M239.53943,191.05367v-22.10733h0.92114v22.10733z" fill="#080200" stroke="none" stroke-width="0"/><g><path d="M237.94424,178.1591c0,1.6622 -1.34055,3.00968 -2.9942,3.00968c-1.65365,0 -2.99419,-1.34748 -2.99419,-3.00968c0,-1.66221 1.34055,-3.00968 2.99419,-3.00968c1.65365,0 2.9942,1.34747 2.9942,3.00968z" fill="url(#color-2)" stroke="#000000" stroke-width="0.5"/><path d="M236.42747,179.18201c-0.53483,0.60481 -1.46296,0.65776 -2.07303,0.11827c-0.61008,-0.53949 -0.67108,-1.46713 -0.13625,-2.07193c0.53483,-0.60481 -0.13023,1.18256 0.47985,1.72205c0.61007,0.53949 2.26426,-0.3732 1.72943,0.23161z" fill="#bae5ed" stroke="#000000" stroke-width="0"/><path d="M234.26341,177.42754c-0.3001,0.36597 -0.7679,0.47855 -1.04485,0.25145c-0.27696,-0.2271 -0.25818,-0.70789 0.04191,-1.07386c0.3001,-0.36598 0.76789,-0.47855 1.04485,-0.25145c0.27695,0.2271 0.2582,0.70789 -0.0419,1.07386z" fill="#bae5ed" stroke="#18cff0" stroke-width="0.5"/><path d="M233.23069,178.87622c-0.0247,0.28303 -0.21836,0.49733 -0.43255,0.47863c-0.21418,-0.01869 -0.3678,-0.26329 -0.3431,-0.54632c0.0247,-0.28304 0.21836,-0.49733 0.43255,-0.47863c0.21418,0.0187 0.3678,0.26329 0.3431,0.54632z" fill="#bae5ed" stroke="#18cff0" stroke-width="0.5"/></g><path d="M238.82172,187.75268c0,0.47684 -0.36785,0.8634 -0.82162,0.8634c-0.45377,0 -0.82162,-0.38655 -0.82162,-0.8634c0,-0.47684 0.36785,-0.8634 0.82162,-0.8634c0.45377,0 0.82162,0.38655 0.82162,0.8634z" fill="#7b3121" stroke="none" stroke-width="NaN"/><path d="M242.83236,187.69698c0,0.47684 -0.36786,0.8634 -0.82163,0.8634c-0.45377,0 -0.82163,-0.38656 -0.82163,-0.8634c0,-0.47684 0.36786,-0.86341 0.82163,-0.86341c0.45377,0 0.82163,0.38656 0.82163,0.86341z" fill="#7b3121" stroke="none" stroke-width="NaN"/><path d="M238.87692,171.41472c0,0.47684 -0.36785,0.86341 -0.82162,0.86341c-0.45377,0 -0.82162,-0.38656 -0.82162,-0.86341c0,-0.47685 0.36785,-0.8634 0.82162,-0.8634c0.45377,0 0.82162,0.38655 0.82162,0.8634z" fill="#7b3121" stroke="#000000" stroke-width="0"/><path d="M242.88755,171.35902c0,0.47684 -0.36785,0.8634 -0.82162,0.8634c-0.45377,0 -0.82162,-0.38656 -0.82162,-0.8634c0,-0.47684 0.36785,-0.86341 0.82162,-0.86341c0.45377,0 0.82162,0.38656 0.82162,0.86341z" fill="#7b3121" stroke="#000000" stroke-width="0"/><g><path d="M248.15651,178.0477c0,1.66221 -1.34056,3.00968 -2.9942,3.00968c-1.65365,0 -2.9942,-1.34748 -2.9942,-3.00968c0,-1.66221 1.34055,-3.00968 2.9942,-3.00968c1.65365,0 2.9942,1.34748 2.9942,3.00968z" fill="url(#color-3)" stroke="#000000" stroke-width="0.5"/><path d="M246.63974,179.0706c-0.53483,0.60481 -1.46297,0.65777 -2.07304,0.11828c-0.61007,-0.53949 -0.67108,-1.46713 -0.13625,-2.07193c0.53483,-0.60481 -0.13022,1.18256 0.47985,1.72205c0.61007,0.53949 2.26426,-0.3732 1.72943,0.23161z" fill="#bae5ed" stroke="#000000" stroke-width="0"/><path d="M244.47568,177.31614c-0.3001,0.36597 -0.7679,0.47855 -1.04485,0.25145c-0.27696,-0.2271 -0.25819,-0.70789 0.0419,-1.07386c0.3001,-0.36597 0.7679,-0.47855 1.04485,-0.25145c0.27695,0.2271 0.25819,0.70789 -0.04191,1.07386z" fill="#bae5ed" stroke="#18cff0" stroke-width="0.5"/><path d="M243.44295,178.76481c-0.0247,0.28304 -0.21836,0.49732 -0.43255,0.47863c-0.21418,-0.01869 -0.3678,-0.26328 -0.3431,-0.54632c0.0247,-0.28303 0.21836,-0.49733 0.43255,-0.47863c0.21418,0.01869 0.3678,0.26329 0.3431,0.54632z" fill="#bae5ed" stroke="#18cff0" stroke-width="0.5"/></g><text transform="translate(253.06531,187.13788) scale(0.5,0.5)" font-size="40" xml:space="preserve" fill="#ffffff" fill-rule="nonzero" stroke="#000000" stroke-width="1" stroke-linecap="butt" stroke-linejoin="miter" stroke-miterlimit="10" stroke-dasharray="" stroke-dashoffset="0" font-family="Marker" font-weight="normal" text-anchor="start" style="mix-blend-mode: normal"><tspan x="0" dy="0">Auto</tspan></text></g></g></svg>