<svg version="1.1" xmlns="http://www.w3.org/2000/svg" xmlns:xlink="http://www.w3.org/1999/xlink" width="30.45205" height="21.27276" viewBox="0,0,30.45205,21.27276"><g transform="translate(-224.91044,-168.13243)"><g data-paper-data="{&quot;isPaintingLayer&quot;:true}" fill-rule="nonzero" stroke="#000000" stroke-width="0.5" stroke-linejoin="miter" stroke-miterlimit="10" stroke-dasharray="" stroke-dashoffset="0" style="mix-blend-mode: normal"><path d="M249.69422,176.27254l-7.88921,1.6923l-0.52883,-2.46537l7.88921,-1.69228z" data-paper-data="{&quot;index&quot;:null}" fill="#00bf19" stroke-linecap="butt"/><path d="M237.1441,177.6403c0.82266,-0.71259 2.4507,-1.88635 4.09081,-2.11939c0.72821,-0.10348 1.89387,0.06077 2.21027,0.42602c0.3609,0.41662 0.46547,1.57867 0.17182,2.4097c-0.54367,1.53853 -1.97525,2.91733 -2.74655,3.58545c-1.1879,1.029 -2.98506,0.90019 -4.01406,-0.28771c-1.029,-1.1879 -0.90019,-2.98506 0.28771,-4.01406z" data-paper-data="{&quot;index&quot;:null}" fill="#00b6bf" stroke-linecap="butt"/><path d="M249.33846,176.46309l-1.83621,-2.65951l0.68003,-2.88629l1.74757,-1.20658l5.08488,7.3648l-1.49792,1.03421z" data-paper-data="{&quot;index&quot;:null}" fill="#00b6bf" stroke-linecap="round"/><path d="M251.10185,176.48942l0.43972,12.00064l-17.90721,0.65614l-0.43972,-12.00064z" data-paper-data="{&quot;index&quot;:null}" fill="#00f2ff" stroke-linecap="butt"/><path d="M251.10193,176.49956l0.19815,5.40789l-4.15839,-1.28986l-1.96915,1.21504l-2.77686,0.33403l-2.42094,2.52624l-2.1723,-1.69701l-1.27428,0.16359l-1.79435,-1.50013l-1.36833,0.25216l-0.17524,-4.78286z" data-paper-data="{&quot;index&quot;:null}" fill="#00ff22" stroke-linecap="round"/><path d="M247.7294,182.54613c0.94378,-0.03458 1.73691,0.70248 1.77148,1.64627c0.03458,0.94378 -0.70248,1.73691 -1.64627,1.77148c-0.94378,0.03458 -1.73691,-0.70248 -1.77148,-1.64627c-0.03458,-0.94378 0.70248,-1.73691 1.64627,-1.77148z" data-paper-data="{&quot;index&quot;:null}" fill="#00ff22" stroke-linecap="butt"/><path d="M229.1369,173.23537l7.22294,3.59619l-1.12381,2.25716l-7.22294,-3.59619z" data-paper-data="{&quot;index&quot;:null}" fill="#00ff22" stroke-linecap="butt"/><path d="M231.30223,173.61847l-1.3041,2.95701l-2.81499,0.93216l-1.94307,-0.85693l3.61135,-8.18866l1.66549,0.73451z" data-paper-data="{&quot;index&quot;:null}" fill="#00f2ff" stroke-linecap="round"/><path d="M237.068,182.54841c-0.98746,-0.45766 -2.72601,-1.46048 -3.61169,-2.86043c-0.39325,-0.62157 -0.72192,-1.75194 -0.51871,-2.19037c0.23178,-0.50008 1.24852,-1.07243 2.12684,-1.14572c1.62611,-0.13571 3.47099,0.6038 4.39682,1.0329c1.4259,0.66087 2.04607,2.35255 1.38519,3.77844c-0.66087,1.4259 -2.35255,2.04607 -3.77844,1.38519z" data-paper-data="{&quot;index&quot;:null}" fill="#00f2ff" stroke-linecap="butt"/></g></g></svg>