<svg version="1.1" xmlns="http://www.w3.org/2000/svg" xmlns:xlink="http://www.w3.org/1999/xlink" width="27.45473" height="23.84159" viewBox="0,0,27.45473,23.84159"><g transform="translate(-226.34372,-167.53286)"><g data-paper-data="{&quot;isPaintingLayer&quot;:true}" fill-rule="nonzero" stroke-width="0.5" stroke-linejoin="miter" stroke-miterlimit="10" stroke-dasharray="" stroke-dashoffset="0" style="mix-blend-mode: normal"><path d="M235.40125,182.90984c0.09227,-1.04968 0.56979,-2.48992 0.56979,-2.48992c0,0 0.80779,-0.30007 1.70426,-0.49125c0.60776,-0.12962 1.25361,0.05493 1.7188,0.15283c0.51992,0.10941 1.1373,0.33006 1.56168,0.68742c0.4924,0.41465 0.83628,0.82298 0.83628,0.82298c0,0 -0.09815,1.72126 -0.6208,2.74576c-0.83214,1.63111 -3.23551,6.34203 -3.23551,6.34203c0,0 -1.29075,0.25776 -1.85542,0.13894c-0.47141,-0.0992 -1.3036,-0.80368 -1.3036,-0.80368c0,0 0.46931,-5.33918 0.62453,-7.10508z" data-paper-data="{&quot;index&quot;:null}" fill="#00b0ba" stroke="#000000" stroke-linecap="butt"/><path d="M249.06277,190.7772c0,0 -1.01461,0.39929 -1.49287,0.34154c-0.57288,-0.06916 -1.71207,-0.7285 -1.71207,-0.7285c0,0 -0.75992,-5.23369 -1.02304,-7.0458c-0.16526,-1.13817 0.2956,-2.7995 0.2956,-2.7995c0,0 0.45698,-0.27598 1.05659,-0.51016c0.51679,-0.20183 1.17233,-0.21212 1.69982,-0.14843c0.47195,0.05698 1.14285,0.09004 1.67659,0.4083c0.78729,0.46945 1.45558,1.01345 1.45558,1.01345c0,0 -0.01123,1.5173 -0.26158,2.54086c-0.42118,1.72195 -1.69462,6.92824 -1.69462,6.92824z" fill="#00b0ba" stroke="#000000" stroke-linecap="butt"/><path d="M231.55141,184.68629l-3.09148,-3.35022l7.46186,-6.88556l3.09148,3.35022z" fill="#00b0ba" stroke="#000000" stroke-linecap="butt"/><path d="M228.10493,190.84028c-0.54219,-0.19749 -1.50184,-1.09834 -1.50184,-1.09834c0,0 0.44873,-5.2695 0.60411,-7.09401c0.09759,-1.14596 0.92376,-2.65918 0.92376,-2.65918c0,0 0.50772,-0.16496 1.14485,-0.25682c0.54913,-0.07917 1.18988,0.0597 1.6891,0.24154c0.44667,0.16269 1.09253,0.34728 1.54002,0.77846c0.66007,0.636 1.18734,1.3176 1.18734,1.3176c0,0 -0.35558,1.47509 -0.83189,2.41503c-0.8013,1.58127 -3.22403,6.36222 -3.22403,6.36222c0,0 -1.07878,0.15838 -1.53143,-0.00649z" fill="#00f2ff" stroke="#000000" stroke-linecap="butt"/><path d="M239.75156,183.40786l-11.85806,-15.625h25.625l-1.375,12.125l-3.4375,3.4375z" fill="#00e7f3" stroke="#000000" stroke-linecap="round"/><path d="M248.59714,167.90057v15.48902l-8.41795,0.0518l-0.0518,-5.98321l-3.54849,-3.54849v-6.06092z" fill="#00f2ff" stroke="#00d7e2" stroke-linecap="round"/><path d="M239.76394,183.42925l-11.90986,-15.625h25.625l-1.375,12.125l-3.4375,3.4375z" fill="none" stroke="#000000" stroke-linecap="round"/><path d="M245.54077,174.71264c0,-1.70229 1.37998,-3.08226 3.08226,-3.08226c1.70229,0 3.08226,1.37998 3.08226,3.08226c0,1.70229 -1.37998,3.08226 -3.08226,3.08226c-1.70229,0 -3.08226,-1.37998 -3.08226,-3.08226z" fill="#00f220" stroke="#000000" stroke-linecap="butt"/><path d="M240.56325,190.22133c0,0 -1.08037,0.14711 -1.53127,-0.02249c-0.54009,-0.20314 -1.49028,-1.11398 -1.49028,-1.11398c0,0 0.50379,-5.26452 0.67822,-7.0873c0.10956,-1.14487 0.9515,-2.64938 0.9515,-2.64938c0,0 0.50941,-0.15965 1.14748,-0.24485c0.54993,-0.07342 1.18919,0.07215 1.68649,0.25919c0.44494,0.16735 1.08883,0.35868 1.5318,0.79451c0.65339,0.64287 1.1735,1.32992 1.1735,1.32992c0,0 -0.37098,1.47129 -0.85708,2.4062c-0.81779,1.57282 -3.29035,6.32818 -3.29035,6.32818z" fill="#00f2ff" stroke="#000000" stroke-linecap="butt"/></g></g></svg>