<svg version="1.1" xmlns="http://www.w3.org/2000/svg" xmlns:xlink="http://www.w3.org/1999/xlink" width="15.15737" height="135.84988" viewBox="0,0,15.15737,135.84988"><defs><linearGradient x1="252.76718" y1="140.94546" x2="252.76718" y2="147.10231" gradientUnits="userSpaceOnUse" id="color-1"><stop offset="0" stop-color="#888888"/><stop offset="1" stop-color="#747474"/></linearGradient></defs><g transform="translate(-247.38393,-101.55543)"><g data-paper-data="{&quot;isPaintingLayer&quot;:true}" fill-rule="nonzero" stroke-linejoin="miter" stroke-miterlimit="10" stroke-dasharray="" stroke-dashoffset="0" style="mix-blend-mode: normal"><path d="M248.01784,148.49143c0,-2.97169 0,-8.45645 0,-10.02716c0,-0.82648 0.98915,-1.70789 1.88825,-1.70789c1.53199,0 6.57527,0 9.55531,0c1.39128,0 2.24057,0.93873 2.24057,2.29772c0,2.99229 0,8.0221 0,9.55531c0,0.87631 -0.80589,1.8311 -2.00463,1.8311c-3.00153,0 -8.466,0 -9.9092,0c-0.65389,0 -1.77029,-0.7801 -1.77029,-1.94907z" fill="#00ff08" stroke="#000000" stroke-width="1" stroke-linecap="butt"/><path d="M248.01176,165.77191c0,-2.97169 0,-8.45646 0,-10.02716c0,-0.82648 0.98915,-1.70789 1.88825,-1.70789c1.53199,0 6.57527,0 9.5553,0c1.39128,0 2.24058,0.93873 2.24058,2.29773c0,2.99229 0,8.02209 0,9.5553c0,0.87631 -0.8059,1.83111 -2.00463,1.83111c-3.00152,0 -8.466,0 -9.9092,0c-0.65389,0 -1.77029,-0.7801 -1.77029,-1.94907z" fill="#00ff08" stroke="#000000" stroke-width="1" stroke-linecap="butt"/><path d="M247.89002,113.79048c0,-2.97169 0,-8.45646 0,-10.02716c0,-0.82648 0.98915,-1.70789 1.88825,-1.70789c1.53199,0 6.57527,0 9.5553,0c1.39128,0 2.24058,0.93873 2.24058,2.29773c0,2.99229 0,8.02209 0,9.5553c0,0.87631 -0.8059,1.83111 -2.00463,1.83111c-3.00152,0 -8.466,0 -9.9092,0c-0.65389,0 -1.77029,-0.7801 -1.77029,-1.94907z" fill="#00ff08" stroke="#000000" stroke-width="1" stroke-linecap="butt"/><path d="M247.88393,131.07096c0,-2.97169 0,-8.45646 0,-10.02716c0,-0.82648 0.98915,-1.70789 1.88825,-1.70789c1.53199,0 6.57527,0 9.5553,0c1.39128,0 2.24058,0.93873 2.24058,2.29773c0,2.99229 0,8.02209 0,9.5553c0,0.87631 -0.8059,1.83111 -2.00463,1.83111c-3.00152,0 -8.466,0 -9.9092,0c-0.65389,0 -1.77029,-0.7801 -1.77029,-1.94907z" fill="#00ff08" stroke="#000000" stroke-width="1" stroke-linecap="butt"/><path d="M248.35717,217.67575c0,-2.97169 0,-8.45646 0,-10.02716c0,-0.82648 0.98915,-1.70789 1.88825,-1.70789c1.53199,0 6.57527,0 9.5553,0c1.39128,0 2.24058,0.93873 2.24058,2.29773c0,2.99229 0,8.02209 0,9.5553c0,0.87631 -0.8059,1.83111 -2.00463,1.83111c-3.00152,0 -8.466,0 -9.9092,0c-0.65389,0 -1.77029,-0.7801 -1.77029,-1.94907z" fill="#00ff08" stroke="#000000" stroke-width="1" stroke-linecap="butt"/><path d="M248.35108,234.95622c0,-2.97169 0,-8.45646 0,-10.02716c0,-0.82648 0.98915,-1.70789 1.88825,-1.70789c1.53199,0 6.57527,0 9.5553,0c1.39128,0 2.24058,0.93873 2.24058,2.29773c0,2.99229 0,8.02209 0,9.5553c0,0.87631 -0.8059,1.83111 -2.00463,1.83111c-3.00152,0 -8.466,0 -9.9092,0c-0.65389,0 -1.77029,-0.7801 -1.77029,-1.94907z" fill="#00ff08" stroke="#000000" stroke-width="1" stroke-linecap="butt"/><path d="M248.22935,182.9748c0,-2.97169 0,-8.45646 0,-10.02716c0,-0.82648 0.98915,-1.70789 1.88825,-1.70789c1.53199,0 6.57527,0 9.5553,0c1.39128,0 2.24058,0.93873 2.24058,2.29773c0,2.99229 0,8.02209 0,9.5553c0,0.87631 -0.8059,1.83111 -2.00463,1.83111c-3.00152,0 -8.466,0 -9.9092,0c-0.65389,0 -1.77029,-0.7801 -1.77029,-1.94907z" fill="#00ff08" stroke="#000000" stroke-width="1" stroke-linecap="butt"/><path d="M248.22326,200.25528c0,-2.97169 0,-8.45646 0,-10.02716c0,-0.82648 0.98915,-1.70789 1.88825,-1.70789c1.53199,0 6.57527,0 9.5553,0c1.39128,0 2.24058,0.93873 2.24058,2.29773c0,2.99229 0,8.02209 0,9.5553c0,0.87631 -0.8059,1.83111 -2.00463,1.83111c-3.00152,0 -8.466,0 -9.9092,0c-0.65389,0 -1.77029,-0.7801 -1.77029,-1.94907z" fill="#00ff08" stroke="#000000" stroke-width="1" stroke-linecap="butt"/><g fill="#2f2f2f" stroke="#2f2f2f" stroke-width="0.5" stroke-linecap="round"><path d="M255.23536,230.1664l0.90907,1.47884c0,0 -1.28811,1.05261 -1.36786,1.07436c-0.24345,0.06641 -1.30378,-0.78485 -1.42637,-0.85398c-0.21201,-0.11956 -1.32324,0.7353 -1.38182,0.7477c-0.09297,0.01968 -1.15408,-0.69259 -1.15408,-0.69259v-1.77363z"/><path d="M259.54632,229.27661l0.01976,2.91247c0,0 -0.57204,0.45065 -0.63116,0.54211c-0.17973,0.27807 -1.02899,-0.32444 -1.14445,-0.39357c-0.11413,-0.06834 -0.58552,0.50709 -1.09734,0.64566c-0.38366,0.10387 -1.2912,-0.59055 -1.2912,-0.59055l0.03952,-2.46736z"/></g><path d="M259.56055,228.94153v1.61328c0,0 -0.14242,0.15931 -0.61847,0.42979c-0.12283,0.06979 -0.62494,-0.33667 -0.74914,-0.2698c-0.37762,0.20332 -0.63397,0.71888 -0.79178,0.73478c-0.48178,0.04856 -1.32862,-0.73562 -1.57123,-0.78617c-0.41956,-0.08742 -1.17561,0.77479 -1.31413,0.77479c-0.09724,0 -1.22247,-0.86884 -1.37471,-0.82816c-0.44614,0.11921 -1.33768,0.70024 -1.45361,0.70931c-0.18399,0.01438 -0.87595,-0.61564 -0.87595,-0.61564v-1.77629z" fill="#000000" stroke="#000000" stroke-width="0.5" stroke-linecap="round"/><path d="M250.74118,228.96708h8.91283" fill="none" stroke="#fff7f7" stroke-width="1" stroke-linecap="round"/><g fill="#2f2f2f" stroke="#2f2f2f" stroke-width="0.5" stroke-linecap="round"><path d="M255.06621,212.936l0.97927,1.59303c0,0 -1.38757,0.26106 -1.47348,0.2845c-0.26225,0.07154 -1.40445,-0.84545 -1.53651,-0.91992c-0.22838,-0.12879 -1.42541,0.79208 -1.48852,0.80543c-0.10015,0.0212 -1.24319,-0.74607 -1.24319,-0.74607v-1.91058z"/><path d="M259.71006,211.97751l0.02129,3.13737c0,0 -0.61622,0.48545 -0.67989,0.58397c-0.19361,0.29954 -1.10844,-0.34949 -1.23283,-0.42396c-0.12295,-0.07361 -0.63074,0.22692 -1.18207,0.37619c-0.18613,0.0504 -0.48673,-0.07947 -0.76094,-0.35444c-0.33463,-0.33558 -0.62996,-0.51587 -0.62996,-0.51587l0.04258,-2.10439z"/></g><path d="M259.72539,211.61656v1.73785c0,0 -0.15342,0.17162 -0.66622,0.46298c-0.13232,0.07518 -0.6732,-0.36266 -0.80699,-0.29063c-0.40678,0.21902 -0.68292,0.77439 -0.85292,0.79152c-0.51899,0.05231 -1.43122,-0.79243 -1.69256,-0.84688c-0.45196,-0.09417 -1.26639,-0.03821 -1.4156,-0.03821c-0.10475,0 -1.31686,-0.93593 -1.48086,-0.89211c-0.48059,0.12841 -1.44097,0.75431 -1.56585,0.76408c-0.19819,0.01549 -0.94359,-0.66318 -0.94359,-0.66318v-1.04062z" fill="#000000" stroke="#000000" stroke-width="0.5" stroke-linecap="round"/><path d="M259.82607,211.64408h-9.60106" fill="none" stroke="#fff7f7" stroke-width="1" stroke-linecap="round"/><path d="M255.0268,178.06129l1.08866,2.32604c0,0 -1.44094,0.57183 -1.52881,0.5958c-0.26822,0.07317 -1.43643,-0.8647 -1.5715,-0.94087c-0.23358,-0.13172 -1.80624,-0.69223 -1.87078,-0.67857c-0.05223,0.01105 -0.50411,-0.26718 -0.74245,-0.69199c-0.22911,-0.40837 -0.24601,-0.96376 -0.24601,-0.96376v-0.93075z" fill="#2f2f2f" stroke="#2f2f2f" stroke-width="0.5" stroke-linecap="round"/><path d="M259.79206,176.83947v0.10337c0,0 0.00392,0.82846 -0.17103,1.49963c-0.15428,0.59187 -0.92184,0.86302 -0.96984,0.85286c-0.06454,-0.01366 -1.15818,0.43798 -1.39177,0.56971c-0.13507,0.07617 -1.49923,0.8834 -1.76746,0.81023c-0.08786,-0.02397 -1.57235,-1.29254 -1.57235,-1.29254l1.00156,-1.6293z" fill="#2f2f2f" stroke="#2f2f2f" stroke-width="0.5" stroke-linecap="round"/><path d="M259.79511,176.38838l0.02177,0.17162c0,0 -0.15205,0.98472 -0.7833,1.64633c-0.42724,0.44778 -1.34538,0.67675 -1.54377,0.62374c-0.16773,-0.04482 -1.58163,0.65115 -1.68876,0.65115c-0.15261,0 -0.70253,-0.12255 -1.16478,-0.02624c-0.26729,0.05569 -0.46001,0.26647 -0.99081,0.21297c-0.17387,-0.01753 -1.56673,-1.08632 -1.98277,-1.31033c-0.13683,-0.07367 -0.58116,0.37414 -0.7165,0.29725c-0.52448,-0.298 -0.79026,-1.867 -0.79026,-1.867v-0.38394z" data-paper-data="{&quot;index&quot;:null}" fill="#000000" stroke="#000000" stroke-width="0.5" stroke-linecap="round"/><path d="M259.87262,176.43208h-9.81967" data-paper-data="{&quot;index&quot;:null}" fill="none" stroke="#fff7f7" stroke-width="1" stroke-linecap="round"/><g data-paper-data="{&quot;index&quot;:null}" fill="#2f2f2f" stroke="#2f2f2f" stroke-width="0.5" stroke-linecap="round"><path d="M259.75762,194.1587v1.91058c0,0 -1.14304,0.76727 -1.24319,0.74607c-0.06311,-0.01335 -1.26014,-0.93422 -1.48852,-0.80543c-0.13206,0.07447 -1.27426,0.99146 -1.53651,0.91992c-0.08591,-0.02344 -1.47348,-0.2845 -1.47348,-0.2845l0.97927,-1.59303z"/><path d="M254.77316,194.79269l0.04258,2.10439c0,0 -0.29533,0.18029 -0.62996,0.51587c-0.27421,0.27497 -0.57481,0.40484 -0.76094,0.35444c-0.55133,-0.14927 -1.05912,-0.4498 -1.18207,-0.37619c-0.12439,0.07447 -1.03922,0.7235 -1.23283,0.42396c-0.06367,-0.09852 -0.67989,-0.58397 -0.67989,-0.58397l0.02129,-3.13737z"/></g><path d="M259.7606,193.71767v1.04062c0,0 -0.7454,0.67867 -0.94359,0.66318c-0.12488,-0.00977 -1.08526,-0.63567 -1.56585,-0.76408c-0.164,-0.04382 -1.37611,0.89211 -1.48086,0.89211c-0.14921,0 -0.96364,-0.05596 -1.4156,0.03821c-0.26134,0.05445 -1.17357,0.89919 -1.69256,0.84688c-0.17,-0.01713 -0.44614,-0.5725 -0.85292,-0.79152c-0.13379,-0.07203 -0.67467,0.36581 -0.80699,0.29063c-0.5128,-0.29136 -0.66622,-0.46298 -0.66622,-0.46298v-1.73785z" data-paper-data="{&quot;index&quot;:null}" fill="#000000" stroke="#000000" stroke-width="0.5" stroke-linecap="round"/><path d="M259.83639,193.76039h-9.60106" data-paper-data="{&quot;index&quot;:null}" fill="none" stroke="#fff7f7" stroke-width="1" stroke-linecap="round"/><path d="M251.37593,144.01987l2.81967,1.06152l3.35044,-1.62546l2.16949,1.35344" fill="none" stroke="#ff7b00" stroke-width="1.5" stroke-linecap="round"/><path d="M249.68876,144.02388c0,-1.70016 1.37826,-3.07842 3.07842,-3.07842c1.70016,0 3.07842,1.37826 3.07842,3.07842c0,1.70016 -1.37826,3.07842 -3.07842,3.07842c-1.70016,0 -3.07842,-1.37826 -3.07842,-3.07842z" fill="url(#color-1)" stroke="#5a5a5a" stroke-width="1" stroke-linecap="butt"/><path d="M260.13138,162.08006l-2.05921,-1.51598l-3.46532,1.36349l-2.72987,-1.27483l-1.91531,1.18346" fill="none" stroke="#ff7b00" stroke-width="1.5" stroke-linecap="round"/></g></g></svg>