<svg version="1.1" xmlns="http://www.w3.org/2000/svg" xmlns:xlink="http://www.w3.org/1999/xlink" width="26.56976" height="21.49351" viewBox="0,0,26.56976,21.49351"><g transform="translate(-227.81828,-170.66142)"><g data-paper-data="{&quot;isPaintingLayer&quot;:true}" fill-rule="nonzero" stroke-width="0.5" stroke-linecap="round" stroke-linejoin="miter" stroke-miterlimit="10" stroke-dasharray="" stroke-dashoffset="0" style="mix-blend-mode: normal"><path d="M228.06829,188.6702c0,0 1.03775,-0.88971 1.46473,-1.19086c0.187,-0.13189 1.18378,-0.12754 2.14231,0.17677c0.74206,0.23558 2.69278,0.61664 3.74385,0.61082c1.09997,-0.00608 4.01153,-1.29589 4.34768,-1.21605c0.17501,0.04157 1.97979,0.40142 3.62559,0.50553c1.43914,0.09104 2.75671,-0.06964 2.75671,-0.06964c0,0 1.90447,-0.48016 2.37646,-0.48016c0.22571,0 1.18912,0.1263 2.04229,0.5066c0.75202,0.33522 1.41838,0.93015 1.41838,0.93015v3.46157h-23.918z" fill="#080807" stroke="#080807"/><path d="M241.75001,188.8125l6.5,-11.125l-1.875,11.125" fill="#000000" stroke="#080807"/><path d="M238.62501,171.3125l9.5,4.625l-2.875,4.75z" fill="#000000" stroke="#080807"/><path d="M237.25001,171.1875l2,2.75l-6.625,3.375z" fill="#000000" stroke="#080807"/><path d="M235.75001,183.6875l-3.625,-5l2.875,-1.375z" fill="#000000" stroke="#080807"/><path d="M241.87501,183.5625l-4.875,1.125l-0.375,-3.125z" fill="#000000" stroke="#080807"/><path d="M230.23907,188.72492l-1.625,-4.875l3.125,4.375" fill="#000000" stroke="#080807"/><path d="M228.48907,182.34992l1.75,2.125l1.25,-3.125z" fill="#000000" stroke="#080807"/><path d="M240.11407,188.84992l1.875,-6.75l0.125,8.375" fill="#000000" stroke="#080807"/><path d="M249.11407,187.84992l4.125,-2.25l-3.125,3.5" fill="#000000" stroke="#080807"/><path d="M232.41166,188.97175l-1.04759,-3.14277l2.01459,2.82043" fill="#000000" stroke="#080807"/><path d="M232.61401,189.15371l2.95453,-3.67849l-1.82142,3.51174" fill="#000000" stroke="#080807"/><path d="M238.92071,189.38394l-1.39147,-4.29659l3.04475,4.45942" fill="#000000" stroke="#080807"/><path d="M248.19717,188.75344l0.85472,-2.90605l0.17094,3.02001" fill="#000000" stroke="#080807"/></g></g></svg>