<svg version="1.1" xmlns="http://www.w3.org/2000/svg" xmlns:xlink="http://www.w3.org/1999/xlink" width="156.33309" height="4.93012" viewBox="0,0,156.33309,4.93012"><g transform="translate(-161.83346,-177.53494)"><g data-paper-data="{&quot;isPaintingLayer&quot;:true}" fill-rule="nonzero" stroke-linecap="butt" stroke-linejoin="miter" stroke-miterlimit="10" stroke-dasharray="" stroke-dashoffset="0" style="mix-blend-mode: normal"><path d="M163.13274,181.36351v-2.53348h96.87538v2.53348z" fill="#00ff21" stroke="none" stroke-width="0"/><path d="M165.7549,181.71506c0,0 -1.54069,-0.14886 -2.29751,-0.4794c-0.82588,-0.3607 -0.87393,-0.91707 -0.87393,-1.21343c0,-0.32245 0.09004,-0.82916 0.96576,-1.2123c0.68682,-0.30049 2.20568,-0.52499 2.20568,-0.52499h148.85266c0,0 1.30577,0.2028 1.87665,0.48089c0.79562,0.38758 0.93234,0.92141 0.93234,1.2564c0,0.32357 -0.1869,0.82794 -0.97153,1.20205c-0.59254,0.28253 -1.83746,0.49077 -1.83746,0.49077z" fill="none" stroke="#ffffff" stroke-width="1.5"/></g></g></svg>