<svg version="1.1" xmlns="http://www.w3.org/2000/svg" xmlns:xlink="http://www.w3.org/1999/xlink" width="25.63355" height="25.53585" viewBox="0,0,25.63355,25.53585"><g transform="translate(-227.18322,-167.23208)"><g data-paper-data="{&quot;isPaintingLayer&quot;:true}" fill-rule="nonzero" stroke-linecap="butt" stroke-linejoin="miter" stroke-miterlimit="10" stroke-dasharray="" stroke-dashoffset="0" style="mix-blend-mode: normal"><path d="M227.93322,187.7514c0,-5.16758 0.09771,-13.51673 0.09771,-16.21931c0,-1.67105 2.51534,-3.55001 4.56629,-3.55001c2.87657,0 10.82804,0 15.63307,0c2.26907,0 3.83648,1.93876 3.83648,3.64772c0,2.48472 0,11.4808 0,16.61014c0,3.21115 -2.11583,3.77799 -3.93419,3.77799c-2.74469,0 -10.78737,0 -15.82848,0c-2.50808,0 -4.37088,-1.75857 -4.37088,-4.26652z" fill="#04e200" stroke="#000000" stroke-width="1.5"/><text transform="translate(229.83371,174.53601) scale(0.15786,0.15786)" font-size="40" xml:space="preserve" fill="#ffffff" fill-rule="nonzero" stroke="#ffffff" stroke-width="4" stroke-linecap="butt" stroke-linejoin="miter" stroke-miterlimit="10" stroke-dasharray="" stroke-dashoffset="0" font-family="Sans Serif" font-weight="normal" text-anchor="start" style="mix-blend-mode: normal"><tspan x="0" dy="0">  Edit</tspan><tspan x="0" dy="46.15px">----------</tspan><tspan x="0" dy="46.15px">  Play</tspan></text></g></g></svg>