<svg version="1.1" xmlns="http://www.w3.org/2000/svg" xmlns:xlink="http://www.w3.org/1999/xlink" width="26.44927" height="24.83039" viewBox="0,0,26.44927,24.83039"><defs><linearGradient x1="243.24222" y1="180.72965" x2="245.79848" y2="169.74056" gradientUnits="userSpaceOnUse" id="color-1"><stop offset="0" stop-color="#00bb19"/><stop offset="1" stop-color="#009614"/></linearGradient><linearGradient x1="244.69234" y1="180.80204" x2="241.60983" y2="169.9488" gradientUnits="userSpaceOnUse" id="color-2"><stop offset="0" stop-color="#00bb19"/><stop offset="1" stop-color="#009614"/></linearGradient><linearGradient x1="233.73677" y1="184.0302" x2="235.7667" y2="179.94846" gradientUnits="userSpaceOnUse" id="color-3"><stop offset="0" stop-color="#00bb19"/><stop offset="1" stop-color="#009614"/></linearGradient><linearGradient x1="227.49909" y1="177.16874" x2="233.55274" y2="176.19121" gradientUnits="userSpaceOnUse" id="color-4"><stop offset="0" stop-color="#00ff22"/><stop offset="1" stop-color="#00c71b"/></linearGradient><linearGradient x1="241.0203" y1="173.27149" x2="247.14998" y2="173.44296" gradientUnits="userSpaceOnUse" id="color-5"><stop offset="0" stop-color="#00ff22"/><stop offset="1" stop-color="#00c71b"/></linearGradient></defs><g transform="translate(-227.34918,-167.53335)"><g data-paper-data="{&quot;isPaintingLayer&quot;:true}" fill-rule="nonzero" stroke-width="0.5" stroke-linejoin="miter" stroke-miterlimit="10" stroke-dasharray="" stroke-dashoffset="0" style="mix-blend-mode: normal"><path d="M241.47499,176.07315c0.86288,-1.54853 3.4718,-6.23048 3.4718,-6.23048c0,0 1.08417,-0.11583 1.52998,0.06672c0.534,0.21866 1.45747,1.15657 1.45747,1.15657c0,0 -0.65567,5.24778 -0.8827,7.06476c-0.1426,1.14124 -1.02766,2.62078 -1.02766,2.62078c0,0 -0.5138,0.14487 -1.15407,0.2116c-0.55182,0.05751 -1.1866,-0.10648 -1.67829,-0.30781c-0.43993,-0.18013 -1.07801,-0.38997 -1.5082,-0.83842c-0.63455,-0.66147 -1.13459,-1.36327 -1.13459,-1.36327c0,0 0.41334,-1.45996 0.92625,-2.38043z" data-paper-data="{&quot;index&quot;:null}" fill="url(#color-1)" stroke="#000000" stroke-linecap="butt"/><path d="M242.46542,170.00982c0,0 2.83137,4.55088 3.76783,6.05605c0.55664,0.8947 1.03981,2.33306 1.03981,2.33306c0,0 -0.46565,0.72506 -1.06761,1.41633c-0.40809,0.46864 -1.03534,0.70897 -1.46608,0.91009c-0.48143,0.22477 -1.10758,0.41914 -1.66152,0.38827c-0.64272,-0.03582 -1.16292,-0.15577 -1.16292,-0.15577c0,0 -0.95528,-1.43521 -1.15267,-2.56825c-0.31426,-1.80394 -1.22191,-7.01405 -1.22191,-7.01405c0,0 0.87723,-0.9813 1.40009,-1.22542c0.4365,-0.20381 1.525,-0.14033 1.525,-0.14033z" data-paper-data="{&quot;index&quot;:null}" fill="url(#color-2)" stroke="#000000" stroke-linecap="butt"/><path d="M240.31228,182.20907l-2.02994,4.08174l-9.09115,-4.52121l2.02994,-4.08174z" data-paper-data="{&quot;index&quot;:null}" fill="url(#color-3)" stroke="#000000" stroke-linecap="butt"/><path d="M231.85645,171.32087c0,0 1.4803,5.15129 1.9699,6.85505c0.29103,1.01275 0.36283,2.52839 0.36283,2.52839c0,0 -0.64605,0.57026 -1.41396,1.07077c-0.5206,0.33932 -1.18965,0.39914 -1.65895,0.47492c-0.52452,0.0847 -1.17995,0.10059 -1.70439,-0.08045c-0.60849,-0.21005 -1.07612,-0.46756 -1.07612,-0.46756c0,0 -0.52682,-1.6416 -0.40714,-2.78546c0.19055,-1.82117 0.7409,-7.08103 0.7409,-7.08103c0,0 1.11195,-0.70429 1.68161,-0.79628c0.47558,-0.0768 1.50532,0.28165 1.50532,0.28165z" data-paper-data="{&quot;index&quot;:null}" fill="url(#color-4)" stroke="#000000" stroke-linecap="butt"/><path d="M248.706,176.55124l3.4375,3.4375l1.375,12.125h-25.625l11.85806,-15.625z" data-paper-data="{&quot;index&quot;:null}" fill="#00f220" stroke="#000000" stroke-linecap="round"/><path d="M236.5789,192.04783v-6.06092l3.54849,-3.54849l0.0518,-5.98321l8.41795,0.0518v15.48902z" data-paper-data="{&quot;index&quot;:null}" fill="#00ff22" stroke="#00e51e" stroke-linecap="round"/><path d="M248.66658,176.52985l3.4375,3.4375l1.375,12.125h-25.625l11.90986,-15.625z" data-paper-data="{&quot;index&quot;:null}" fill="none" stroke="#000000" stroke-linecap="round"/><path d="M248.62303,182.1017c1.70228,0 3.08226,1.37997 3.08226,3.08226c0,1.70228 -1.37997,3.08226 -3.08226,3.08226c-1.70228,0 -3.08226,-1.37997 -3.08226,-3.08226c0,-1.70228 1.37997,-3.08226 3.08226,-3.08226z" data-paper-data="{&quot;index&quot;:null}" fill="#00f2ff" stroke="#000000" stroke-linecap="butt"/><path d="M244.96801,167.78326c0.48155,0.01347 1.42612,0.55811 1.42612,0.55811c0,0 0.49113,5.33722 0.65357,7.10248c0.09655,1.04929 -0.11627,2.55163 -0.11627,2.55163c0,0 -0.74126,0.43942 -1.58921,0.78754c-0.57487,0.236 -1.24329,0.16968 -1.71849,0.15639c-0.5311,-0.01486 -1.17795,-0.12178 -1.65929,-0.39767c-0.55849,-0.32011 -0.96973,-0.66051 -0.96973,-0.66051c0,0 -0.21062,-1.71115 0.1208,-2.81247c0.52766,-1.75342 2.05167,-6.81766 2.05167,-6.81766c0,0 1.22402,-0.48398 1.80083,-0.46785z" data-paper-data="{&quot;index&quot;:null}" fill="url(#color-5)" stroke="#000000" stroke-linecap="butt"/></g></g></svg>