<svg version="1.1" xmlns="http://www.w3.org/2000/svg" xmlns:xlink="http://www.w3.org/1999/xlink" width="50.44212" height="50.42185" viewBox="0,0,50.44212,50.42185"><defs><radialGradient cx="240.26163" cy="180.34839" r="18.24213" gradientUnits="userSpaceOnUse" id="color-1"><stop offset="0" stop-color="#080807" stop-opacity="0"/><stop offset="1" stop-color="#080807"/></radialGradient></defs><g transform="translate(-214.77894,-154.78907)"><g data-paper-data="{&quot;isPaintingLayer&quot;:true}" fill-rule="nonzero" stroke-width="0" stroke-linejoin="miter" stroke-miterlimit="10" stroke-dasharray="" stroke-dashoffset="0" style="mix-blend-mode: normal"><g><path d="M222.0195,180.34839c0,-10.07485 8.16728,-18.24213 18.24213,-18.24213c10.07485,0 18.24213,8.16728 18.24213,18.24213c0,10.07485 -8.16728,18.24213 -18.24213,18.24213c-10.07485,0 -18.24213,-8.16728 -18.24213,-18.24213z" fill="url(#color-1)" stroke="none" stroke-linecap="butt"/><path d="M241.56069,162.31714c0,0 3.85933,-2.1568 6.0227,-2.7308c2.03052,-0.53874 6.58421,-0.6141 6.58421,-0.6141c0,0 -2.77439,1.9913 -3.72681,2.98831c-0.83522,0.87434 -1.6824,2.67418 -1.6824,2.67418z" fill="#080807" stroke="#000000" stroke-linecap="round"/><path d="M247.86139,164.59386c0,0 3.89342,-0.60167 5.87851,-0.40863c1.86319,0.18118 5.68952,1.5336 5.68952,1.5336c0,0 -2.93591,0.80066 -4.04117,1.33726c-0.96927,0.47058 -2.23618,1.71036 -2.23618,1.71036z" fill="#080807" stroke="#000000" stroke-linecap="round"/><path d="M257.6239,178.00304c0,0 3.03429,3.21551 4.1194,5.17308c1.01846,1.8374 2.204,6.23469 2.204,6.23469c0,0 -2.60875,-2.20386 -3.80823,-2.88385c-1.0519,-0.59631 -3.00415,-0.97812 -3.00415,-0.97812z" fill="#080807" stroke="#000000" stroke-linecap="round"/><path d="M257.55402,186.34717c0,0 1.21071,4.25214 1.27141,6.48951c0.05698,2.10001 -0.9177,6.5488 -0.9177,6.5488c0,0 -1.29935,-3.15821 -2.0504,-4.3145c-0.65865,-1.01403 -2.21519,-2.25268 -2.21519,-2.25268z" fill="#080807" stroke="#000000" stroke-linecap="round"/><path d="M248.70067,195.51435c0,0 -2.05081,3.91671 -3.54777,5.58066c-1.40502,1.56176 -5.17572,4.11591 -5.17572,4.11591c0,0 1.23313,-3.18466 1.485,-4.54026c0.22087,-1.18884 -0.05455,-3.15891 -0.05455,-3.15891z" fill="#080807" stroke="#000000" stroke-linecap="round"/><path d="M235.42175,196.24464c0,0 -3.8259,2.21562 -5.98021,2.82264c-2.02206,0.56976 -6.57405,0.71478 -6.57405,0.71478c0,0 2.74362,-2.03355 3.68066,-3.04501c0.82175,-0.88703 1.64127,-2.69961 1.64127,-2.69961z" fill="#080807" stroke="#000000" stroke-linecap="round"/><path d="M228.80226,195.12564c0,0 -4.29906,-1.03183 -6.27828,-2.07692c-1.85771,-0.98092 -5.25562,-4.01338 -5.25562,-4.01338c0,0 3.38942,0.41776 4.76548,0.33082c1.20678,-0.07627 3.04986,-0.82463 3.04986,-0.82463z" fill="#080807" stroke="#000000" stroke-linecap="round"/><path d="M222.97933,183.4819c0,0 -3.08315,-3.16869 -4.19809,-5.10943c-1.04648,-1.82159 -2.29916,-6.20023 -2.29916,-6.20023c0,0 2.64219,2.16366 3.85191,2.82523c1.06088,0.58015 3.01874,0.93204 3.01874,0.93204z" fill="#080807" stroke="#000000" stroke-linecap="round"/><path d="M225.77352,171.70791c0,0 -1.00067,-4.30637 -0.95155,-6.54404c0.04611,-2.10026 1.23782,-6.49589 1.23782,-6.49589c0,0 1.14285,3.21813 1.8363,4.40989c0.60811,1.04512 2.10202,2.35862 2.10202,2.35862z" fill="#080807" stroke="#000000" stroke-linecap="round"/><path d="M234.76192,164.6189c0,0 1.99021,-3.94783 3.46135,-5.63465c1.38081,-1.58324 5.11168,-4.19518 5.11168,-4.19518c0,0 -1.18388,3.20328 -1.41484,4.56261c-0.20252,1.19206 0.10321,3.15766 0.10321,3.15766z" fill="#080807" stroke="#000000" stroke-linecap="round"/><path d="M229.44119,167.28668c0,0 0.54774,-4.38704 1.36644,-6.47015c0.76844,-1.95518 3.40455,-5.66903 3.40455,-5.66903c0,0 -0.03856,3.41482 0.20076,4.77271c0.20987,1.19081 1.15839,2.93934 1.15839,2.93934z" fill="#080807" stroke="#000000" stroke-linecap="round"/><path d="M223.61623,176.89292c0,0 -2.29306,-3.77995 -2.94384,-5.92146c-0.61081,-2.01 -0.84853,-6.55811 -0.84853,-6.55811c0,0 2.08898,2.7016 3.11933,3.61786c0.90357,0.80352 2.73246,1.58595 2.73246,1.58595z" fill="#080807" stroke="#000000" stroke-linecap="round"/><path d="M224.30554,189.51608c0,0 -3.87645,-2.12595 -5.51123,-3.65469c-1.5344,-1.43488 -4.01537,-5.25411 -4.01537,-5.25411c0,0 3.1603,1.29429 4.51079,1.57225c1.18436,0.24373 3.15937,0.00635 3.15937,0.00635z" fill="#080807" stroke="#000000" stroke-linecap="round"/><path d="M241.21484,198.36613c0,0 -3.5045,2.69535 -5.56133,3.57798c-1.93052,0.82843 -6.4248,1.56549 -6.4248,1.56549c0,0 2.45517,-2.37376 3.25241,-3.49872c0.69915,-0.98656 1.27544,-2.89049 1.27544,-2.89049z" fill="#080807" stroke="#000000" stroke-linecap="round"/><path d="M253.19443,192.13801c0,0 -0.24536,4.41433 -0.91918,6.54871c-0.63243,2.0033 -3.00745,5.88931 -3.00745,5.88931c0,0 -0.19589,-3.40943 -0.52782,-4.74769c-0.2911,-1.17362 -1.35739,-2.85292 -1.35739,-2.85292z" fill="#080807" stroke="#000000" stroke-linecap="round"/><path d="M256.22051,171.70435c0,0 3.74828,2.34453 5.29279,3.96442c1.44966,1.52046 3.70776,5.47554 3.70776,5.47554c0,0 -3.08094,-1.47321 -4.41331,-1.82809c-1.16843,-0.31119 -3.15381,-0.18735 -3.15381,-0.18735z" fill="#080807" stroke="#000000" stroke-linecap="round"/><path d="M252.50216,168.0637c0,0 3.93545,0.18143 5.84297,0.76384c1.79039,0.54664 5.27303,2.63016 5.27303,2.63016c0,0 -3.03633,0.20328 -4.22598,0.51032c-1.04328,0.26927 -2.53065,1.23354 -2.53065,1.23354z" fill="#080807" stroke="#000000" stroke-linecap="round"/></g></g></g></svg>