<svg version="1.1" xmlns="http://www.w3.org/2000/svg" xmlns:xlink="http://www.w3.org/1999/xlink" width="140.30123" height="25.25044" viewBox="0,0,140.30123,25.25044"><defs><linearGradient x1="230.54369" y1="171.53908" x2="230.54369" y2="178.57935" gradientUnits="userSpaceOnUse" id="color-1"><stop offset="0" stop-color="#ffffff"/><stop offset="1" stop-color="#cacaca"/></linearGradient><linearGradient x1="249.55383" y1="171.18847" x2="249.55383" y2="178.22874" gradientUnits="userSpaceOnUse" id="color-2"><stop offset="0" stop-color="#ffffff"/><stop offset="1" stop-color="#cacaca"/></linearGradient><linearGradient x1="240.03732" y1="169.2862" x2="240.03732" y2="190.47741" gradientUnits="userSpaceOnUse" id="color-3"><stop offset="0" stop-color="#442cbf"/><stop offset="1" stop-color="#5f169e"/></linearGradient><linearGradient x1="230.90185" y1="177.3642" x2="237.51343" y2="177.3642" gradientUnits="userSpaceOnUse" id="color-4"><stop offset="0" stop-color="#00c8de"/><stop offset="1" stop-color="#00dae5"/></linearGradient><linearGradient x1="242.30849" y1="177.2952" x2="248.92008" y2="177.2952" gradientUnits="userSpaceOnUse" id="color-5"><stop offset="0" stop-color="#00dae5"/><stop offset="1" stop-color="#00c8de"/></linearGradient><linearGradient x1="234.68671" y1="181.4604" x2="234.68671" y2="184.28197" gradientUnits="userSpaceOnUse" id="color-6"><stop offset="0" stop-color="#dddddd"/><stop offset="1" stop-color="#ffffff"/></linearGradient><linearGradient x1="245.03745" y1="181.32806" x2="244.75557" y2="184.13552" gradientUnits="userSpaceOnUse" id="color-7"><stop offset="0" stop-color="#dddddd"/><stop offset="1" stop-color="#ffffff"/></linearGradient></defs><g transform="translate(-228.0198,-169.0362)"><g data-paper-data="{&quot;isPaintingLayer&quot;:true}" fill-rule="nonzero" stroke="#000000" stroke-linejoin="miter" stroke-miterlimit="10" stroke-dasharray="" stroke-dashoffset="0" style="mix-blend-mode: normal"><path d="M229.2305,178.57935c0,0 -0.90043,-2.37916 -0.96071,-3.58474c-0.05686,-1.13717 0.60869,-3.45553 0.60869,-3.45553c0,0 1.0794,0.7394 1.69649,1.04212c0.62655,0.30736 2.24606,-0.05648 2.24606,-0.05648z" fill="url(#color-1)" stroke-width="0.5" stroke-linecap="round"/><path d="M247.27649,172.17411c0,0 1.61952,0.36385 2.24606,0.05649c0.61709,-0.30273 1.69649,-1.04212 1.69649,-1.04212c0,0 0.66556,2.31836 0.6087,3.45553c-0.06028,1.20559 -0.96071,3.58474 -0.96071,3.58474z" data-paper-data="{&quot;index&quot;:null}" fill="url(#color-2)" stroke-width="0.5" stroke-linecap="round"/><path d="M229.44171,179.8818c0,-5.85179 4.74381,-10.59561 10.59561,-10.59561c5.85179,0 10.59561,4.74381 10.59561,10.59561c0,5.85179 -4.74381,10.59561 -10.59561,10.59561c-5.85179,0 -10.59561,-4.74381 -10.59561,-10.59561z" fill="url(#color-3)" stroke-width="0.5" stroke-linecap="butt"/><text transform="translate(253.48508,186.65382) scale(0.5,0.5)" font-size="40" xml:space="preserve" fill="#ffffff" fill-rule="nonzero" stroke="#000000" stroke-width="1" stroke-linecap="butt" stroke-linejoin="miter" stroke-miterlimit="10" stroke-dasharray="" stroke-dashoffset="0" font-family="Marker" font-weight="normal" text-anchor="start" style="mix-blend-mode: normal"><tspan x="0" dy="0">Easy Demon</tspan></text><path d="M232.31342,175.43113c0.54758,0.40735 1.79716,1.25191 2.31178,1.63474c0.51478,0.38295 3.07311,1.68686 2.8776,2.09672c-0.19061,0.39958 -3.12069,-0.08896 -3.74087,-0.16338c-0.48294,-0.05795 -2.30616,0.02792 -2.74634,-0.37667c-0.52157,-0.4794 0.89725,-3.48941 1.29784,-3.19141z" fill="url(#color-4)" stroke-width="0.5" stroke-linecap="round"/><path d="M248.80634,178.55355c-0.44019,0.4046 -2.2634,0.31871 -2.74634,0.37667c-0.62017,0.07442 -3.55026,0.56296 -3.74087,0.16338c-0.19551,-0.40986 2.36282,-1.71377 2.8776,-2.09672c0.51462,-0.38282 1.76419,-1.22739 2.31177,-1.63474c0.40059,-0.29799 1.81941,2.71201 1.29784,3.19142z" data-paper-data="{&quot;index&quot;:null}" fill="url(#color-5)" stroke-width="0.5" stroke-linecap="round"/><path d="M231.55379,181.11385l-0.0704,1.61926" fill="none" stroke-width="1" stroke-linecap="round"/><path d="M248.73205,181.11385l-0.14081,1.54886" fill="none" stroke-width="1" stroke-linecap="round"/><path d="M232.82104,181.74747c0,0 0.49979,1.01201 0.80297,1.42434c0.28196,0.38347 0.9571,1.11016 0.9571,1.11016c0,0 0.79054,-0.88178 1.1176,-1.32564c0.33001,-0.44787 0.85368,-1.34966 0.85368,-1.34966c0,0 -1.26863,-0.18587 -1.89539,-0.13856c-0.61686,0.04656 -1.83595,0.27937 -1.83595,0.27937z" fill="url(#color-6)" stroke-width="0.5" stroke-linecap="round"/><path d="M246.86511,181.80008c0,0 -0.59838,0.95702 -0.94124,1.337c-0.31886,0.35338 -1.06322,1.00899 -1.06322,1.00899c0,0 -0.69849,-0.95634 -0.97957,-1.43066c-0.28361,-0.47859 -0.71458,-1.42819 -0.71458,-1.42819c0,0 1.28085,-0.0582 1.89975,0.05148c0.60912,0.10795 1.79886,0.46138 1.79886,0.46138z" data-paper-data="{&quot;index&quot;:null}" fill="url(#color-7)" stroke-width="0.5" stroke-linecap="round"/><path d="M248.80245,182.09949c0,0 -6.09199,-1.13156 -9.00842,-1.16772c-2.75333,-0.03413 -8.02904,0.95651 -8.02904,0.95651" fill="none" stroke-width="1" stroke-linecap="round"/></g></g></svg>