<svg version="1.1" xmlns="http://www.w3.org/2000/svg" xmlns:xlink="http://www.w3.org/1999/xlink" width="268" height="286.6055" viewBox="0,0,268,286.6055"><defs><linearGradient x1="232" y1="267.02862" x2="232" y2="330.14855" gradientUnits="userSpaceOnUse" id="color-1"><stop offset="0" stop-color="#14e300"/><stop offset="1" stop-color="#16ff00"/></linearGradient><linearGradient x1="217.65704" y1="299.40277" x2="252.03019" y2="299.40277" gradientUnits="userSpaceOnUse" id="color-2"><stop offset="0" stop-color="#ffad00"/><stop offset="1" stop-color="#e49b00"/></linearGradient></defs><g transform="translate(-103.69443,-154.82851)"><g data-paper-data="{&quot;isPaintingLayer&quot;:true}" fill-rule="nonzero" stroke="#000000" stroke-linejoin="miter" stroke-miterlimit="10" stroke-dasharray="" stroke-dashoffset="0" style="mix-blend-mode: normal"><text transform="translate(121.63031,193.2232) scale(1.14611,1.14611)" font-size="40" xml:space="preserve" fill="#ffffff" fill-rule="nonzero" stroke="#000000" stroke-width="1" stroke-linecap="butt" stroke-linejoin="miter" stroke-miterlimit="10" stroke-dasharray="" stroke-dashoffset="0" font-family="Marker" font-weight="normal" text-anchor="start" style="mix-blend-mode: normal"><tspan x="0" dy="0">Acheron</tspan></text><path d="M104.69443,440.43402c0,0 0,-65.94626 0,-84.06598c0,-8.22368 11.54677,-20.93402 21,-20.93402c27.64752,0 162.69247,0 220,0c15.42441,0 25,12.93208 25,22.93402c0,18.9202 0,82.06598 0,82.06598z" fill="#ffa700" stroke-width="2" stroke-linecap="butt"/><text transform="translate(111.69443,362.36804) scale(0.5,0.5)" font-size="40" xml:space="preserve" fill="#ffffff" fill-rule="nonzero" stroke="#000000" stroke-width="1" stroke-linecap="butt" stroke-linejoin="miter" stroke-miterlimit="10" stroke-dasharray="" stroke-dashoffset="0" font-family="Marker" font-weight="normal" text-anchor="start" style="mix-blend-mode: normal"><tspan x="0" dy="0">By riot and more......</tspan></text><path d="M200.44004,298.58859c0,-17.43009 14.12988,-31.55996 31.55996,-31.55996c17.43009,0 31.55996,14.12988 31.55996,31.55996c0,17.43009 -14.12988,31.55996 -31.55996,31.55996c-17.43009,0 -31.55996,-14.12988 -31.55996,-31.55996z" fill="url(#color-1)" stroke-width="2" stroke-linecap="butt"/><path d="M252.03019,298.70151l-34.37315,18.23282v-35.06311z" fill="url(#color-2)" stroke-width="2" stroke-linecap="round"/></g></g></svg>