<svg version="1.1" xmlns="http://www.w3.org/2000/svg" xmlns:xlink="http://www.w3.org/1999/xlink" width="26.78275" height="24.0135" viewBox="0,0,26.78275,24.0135"><defs><linearGradient x1="233.48285" y1="177.33958" x2="236.57433" y2="180.6898" gradientUnits="userSpaceOnUse" id="color-1"><stop offset="0" stop-color="#00b0ba"/><stop offset="1" stop-color="#009096"/></linearGradient><linearGradient x1="228.60651" y1="184.66584" x2="234.66016" y2="185.64337" gradientUnits="userSpaceOnUse" id="color-2"><stop offset="0" stop-color="#00f2ff"/><stop offset="1" stop-color="#00c6c7"/></linearGradient></defs><g transform="translate(-227.26493,-167.53286)"><g data-paper-data="{&quot;isPaintingLayer&quot;:true}" fill-rule="nonzero" stroke-width="0.5" stroke-linejoin="miter" stroke-miterlimit="10" stroke-dasharray="" stroke-dashoffset="0" style="mix-blend-mode: normal"><path d="M237.85551,183.60271c-0.07989,-1.05069 0.15674,-2.54947 0.15674,-2.54947c0,0 0.74815,-0.4276 1.60152,-0.76221c0.57854,-0.22685 1.24582,-0.14993 1.72075,-0.12909c0.5308,0.02329 1.17587,0.14046 1.65278,0.42395c0.55335,0.32894 0.95912,0.67582 0.95912,0.67582c0,0 0.18345,1.71427 -0.16541,2.8102c-0.55543,1.74484 -2.15963,6.78424 -2.15963,6.78424c0,0 -1.23155,0.4645 -1.80803,0.43921c-0.48127,-0.02111 -1.41707,-0.58069 -1.41707,-0.58069c0,0 -0.40636,-5.34434 -0.54076,-7.11195z" data-paper-data="{&quot;index&quot;:null}" fill="#00b0ba" stroke="#000000" stroke-linecap="butt"/><path d="M253.66653,190.46295c0,0 -0.87401,0.65189 -1.35064,0.72186c-0.57092,0.08382 -1.84334,-0.25296 -1.84334,-0.25296c0,0 -2.10863,-4.85002 -2.83872,-6.52929c-0.45856,-1.05473 -0.4505,-2.77878 -0.4505,-2.77878c0,0 0.36839,-0.38637 0.88538,-0.7699c0.44558,-0.33055 1.07538,-0.51275 1.60106,-0.58993c0.47034,-0.06905 1.12634,-0.21347 1.72496,-0.04666c0.88299,0.24605 1.67075,0.5953 1.67075,0.5953c0,0 0.38791,1.46692 0.41535,2.52029c0.04615,1.77211 0.18569,7.13006 0.18569,7.13006z" fill="#00b0ba" stroke="#000000" stroke-linecap="butt"/><path d="M232.8434,184.13258l-3.09148,-3.35022l7.46186,-6.88556l3.09148,3.35022z" fill="url(#color-1)" stroke="#000000" stroke-linecap="butt"/><path d="M231.45855,190.79536c-0.56966,-0.09199 -1.68161,-0.79628 -1.68161,-0.79628c0,0 -0.55035,-5.25986 -0.7409,-7.08103c-0.11968,-1.14386 0.40714,-2.78546 0.40714,-2.78546c0,0 0.46763,-0.25751 1.07612,-0.46756c0.52444,-0.18104 1.17987,-0.16515 1.70439,-0.08045c0.4693,0.07578 1.13835,0.1356 1.65895,0.47492c0.76791,0.50051 1.41396,1.07077 1.41396,1.07077c0,0 -0.0718,1.51564 -0.36283,2.52839c-0.4896,1.70376 -1.9699,6.85505 -1.9699,6.85505c0,0 -1.02974,0.35845 -1.50532,0.28165z" fill="url(#color-2)" stroke="#000000" stroke-linecap="butt"/><path d="M239.62656,183.40786l-11.85806,-15.625h25.625l-1.375,12.125l-3.4375,3.4375z" fill="#00e6f2" stroke="#000000" stroke-linecap="round"/><path d="M248.59714,167.90057v15.48902l-8.41795,0.0518l-0.0518,-5.98321l-3.54849,-3.54849v-6.06092z" fill="#00f2ff" stroke="#00d5e0" stroke-linecap="round"/><path d="M239.76394,183.42925l-11.90986,-15.625h25.625l-1.375,12.125l-3.4375,3.4375z" fill="none" stroke="#000000" stroke-linecap="round"/><path d="M245.54077,174.71264c0,-1.70229 1.37998,-3.08226 3.08226,-3.08226c1.70229,0 3.08226,1.37998 3.08226,3.08226c0,1.70229 -1.37998,3.08226 -3.08226,3.08226c-1.70229,0 -3.08226,-1.37998 -3.08226,-3.08226z" fill="#00ff22" stroke="#000000" stroke-linecap="butt"/><path d="M238.1007,191.03777c0,0 -1.08769,0.07607 -1.52652,-0.12268c-0.52564,-0.23806 -1.41416,-1.20914 -1.41416,-1.20914c0,0 0.84732,-5.22026 1.1407,-7.02771c0.18427,-1.13525 1.12289,-2.58141 1.12289,-2.58141c0,0 0.51877,-0.12596 1.16104,-0.16921c0.55355,-0.03727 1.18191,0.14984 1.6659,0.36903c0.43304,0.19612 1.06302,0.42918 1.47651,0.89307c0.60991,0.68426 1.08393,1.40389 1.08393,1.40389c0,0 -0.46649,1.44385 -1.01275,2.34493c-0.91899,1.51591 -3.69753,6.09923 -3.69753,6.09923z" fill="#00f2ff" stroke="#000000" stroke-linecap="butt"/></g></g></svg>