<svg version="1.1" xmlns="http://www.w3.org/2000/svg" xmlns:xlink="http://www.w3.org/1999/xlink" width="15.15737" height="135.84988" viewBox="0,0,15.15737,135.84988"><g transform="translate(-247.38393,-101.55543)"><g data-paper-data="{&quot;isPaintingLayer&quot;:true}" fill-rule="nonzero" stroke-linejoin="miter" stroke-miterlimit="10" stroke-dasharray="" stroke-dashoffset="0" style="mix-blend-mode: normal"><path d="M248.01784,148.49143c0,-2.97169 0,-8.45645 0,-10.02716c0,-0.82648 0.98915,-1.70789 1.88825,-1.70789c1.53199,0 6.57527,0 9.55531,0c1.39128,0 2.24057,0.93873 2.24057,2.29772c0,2.99229 0,8.0221 0,9.55531c0,0.87631 -0.80589,1.8311 -2.00463,1.8311c-3.00153,0 -8.466,0 -9.9092,0c-0.65389,0 -1.77029,-0.7801 -1.77029,-1.94907z" fill="#00ff08" stroke="#000000" stroke-width="1" stroke-linecap="butt"/><path d="M248.01176,165.77191c0,-2.97169 0,-8.45646 0,-10.02716c0,-0.82648 0.98915,-1.70789 1.88825,-1.70789c1.53199,0 6.57527,0 9.5553,0c1.39128,0 2.24058,0.93873 2.24058,2.29773c0,2.99229 0,8.02209 0,9.5553c0,0.87631 -0.8059,1.83111 -2.00463,1.83111c-3.00152,0 -8.466,0 -9.9092,0c-0.65389,0 -1.77029,-0.7801 -1.77029,-1.94907z" fill="#00ff08" stroke="#000000" stroke-width="1" stroke-linecap="butt"/><path d="M247.89002,113.79048c0,-2.97169 0,-8.45646 0,-10.02716c0,-0.82648 0.98915,-1.70789 1.88825,-1.70789c1.53199,0 6.57527,0 9.5553,0c1.39128,0 2.24058,0.93873 2.24058,2.29773c0,2.99229 0,8.02209 0,9.5553c0,0.87631 -0.8059,1.83111 -2.00463,1.83111c-3.00152,0 -8.466,0 -9.9092,0c-0.65389,0 -1.77029,-0.7801 -1.77029,-1.94907z" fill="#00ff08" stroke="#000000" stroke-width="1" stroke-linecap="butt"/><path d="M247.88393,131.07096c0,-2.97169 0,-8.45646 0,-10.02716c0,-0.82648 0.98915,-1.70789 1.88825,-1.70789c1.53199,0 6.57527,0 9.5553,0c1.39128,0 2.24058,0.93873 2.24058,2.29773c0,2.99229 0,8.02209 0,9.5553c0,0.87631 -0.8059,1.83111 -2.00463,1.83111c-3.00152,0 -8.466,0 -9.9092,0c-0.65389,0 -1.77029,-0.7801 -1.77029,-1.94907z" fill="#00ff08" stroke="#000000" stroke-width="1" stroke-linecap="butt"/><path d="M248.35717,217.67575c0,-2.97169 0,-8.45646 0,-10.02716c0,-0.82648 0.98915,-1.70789 1.88825,-1.70789c1.53199,0 6.57527,0 9.5553,0c1.39128,0 2.24058,0.93873 2.24058,2.29773c0,2.99229 0,8.02209 0,9.5553c0,0.87631 -0.8059,1.83111 -2.00463,1.83111c-3.00152,0 -8.466,0 -9.9092,0c-0.65389,0 -1.77029,-0.7801 -1.77029,-1.94907z" fill="#00ff08" stroke="#000000" stroke-width="1" stroke-linecap="butt"/><path d="M248.35108,234.95622c0,-2.97169 0,-8.45646 0,-10.02716c0,-0.82648 0.98915,-1.70789 1.88825,-1.70789c1.53199,0 6.57527,0 9.5553,0c1.39128,0 2.24058,0.93873 2.24058,2.29773c0,2.99229 0,8.02209 0,9.5553c0,0.87631 -0.8059,1.83111 -2.00463,1.83111c-3.00152,0 -8.466,0 -9.9092,0c-0.65389,0 -1.77029,-0.7801 -1.77029,-1.94907z" fill="#00ff08" stroke="#000000" stroke-width="1" stroke-linecap="butt"/><path d="M248.22935,182.9748c0,-2.97169 0,-8.45646 0,-10.02716c0,-0.82648 0.98915,-1.70789 1.88825,-1.70789c1.53199,0 6.57527,0 9.5553,0c1.39128,0 2.24058,0.93873 2.24058,2.29773c0,2.99229 0,8.02209 0,9.5553c0,0.87631 -0.8059,1.83111 -2.00463,1.83111c-3.00152,0 -8.466,0 -9.9092,0c-0.65389,0 -1.77029,-0.7801 -1.77029,-1.94907z" fill="#00ff08" stroke="#000000" stroke-width="1" stroke-linecap="butt"/><path d="M248.22326,200.25528c0,-2.97169 0,-8.45646 0,-10.02716c0,-0.82648 0.98915,-1.70789 1.88825,-1.70789c1.53199,0 6.57527,0 9.5553,0c1.39128,0 2.24058,0.93873 2.24058,2.29773c0,2.99229 0,8.02209 0,9.5553c0,0.87631 -0.8059,1.83111 -2.00463,1.83111c-3.00152,0 -8.466,0 -9.9092,0c-0.65389,0 -1.77029,-0.7801 -1.77029,-1.94907z" fill="#00ff08" stroke="#000000" stroke-width="1" stroke-linecap="butt"/><path d="M250.45138,229.98753c0,0 0.41793,-0.41831 0.58989,-0.5599c0.07531,-0.06201 0.47674,-0.05997 0.86276,0.08311c0.29885,0.11076 1.08445,0.28992 1.50775,0.28718c0.44299,-0.00286 1.61555,-0.60928 1.75093,-0.57174c0.07048,0.01954 0.79731,0.18873 1.46012,0.23768c0.57958,0.0428 1.1102,-0.03274 1.1102,-0.03274c0,0 0.76698,-0.22575 0.95706,-0.22575c0.0909,0 0.47889,0.05938 0.82248,0.23818c0.30286,0.15761 0.57122,0.43732 0.57122,0.43732v1.6275h-9.63241z" fill="#080807" stroke="#080807" stroke-width="0.5" stroke-linecap="round"/><g fill="#080807" stroke="#080807" stroke-width="0.5" stroke-linecap="round"><path d="M250.82156,213.15086c0,0 0.39177,-0.33588 0.55296,-0.44957c0.0706,-0.04979 0.44689,-0.04815 0.80875,0.06673c0.28014,0.08893 1.01656,0.23279 1.41336,0.23059c0.41525,-0.0023 1.51441,-0.48922 1.64131,-0.45908c0.06607,0.01569 0.7474,0.15154 1.36871,0.19084c0.5433,0.03437 1.0407,-0.02629 1.0407,-0.02629c0,0 0.71896,-0.18127 0.89715,-0.18127c0.08521,0 0.44891,0.04768 0.77099,0.19125c0.2839,0.12655 0.53546,0.35115 0.53546,0.35115v1.30679h-9.02939z"/><path d="M251.63814,212.82044l0.1353,-0.7743l0.39633,0.64304z"/><path d="M252.76698,213.01065l0.1353,-0.7743l0.39633,0.64304z"/><path d="M253.74896,213.27553l0.60266,-1.13495l-0.03425,1.17903z"/><path d="M258.35643,212.45486l0.39632,-0.64304l0.1353,0.7743z" data-paper-data="{&quot;index&quot;:null}"/><path d="M257.28835,212.62988l0.39633,-0.64304l0.1353,0.7743z" data-paper-data="{&quot;index&quot;:null}"/><path d="M256.33036,213.46509l-0.03425,-1.17903l0.60266,1.13495z" data-paper-data="{&quot;index&quot;:null}"/><path d="M255.0334,213.09422l0.23922,-1.14379l0.31681,1.29302z" data-paper-data="{&quot;index&quot;:null}"/></g><g stroke-width="0.5" stroke-linecap="round"><path d="M256.13701,196.13654l1.65609,-3.19574l0.91655,3.63163z" data-paper-data="{&quot;index&quot;:null}" fill="#ff00ca" stroke="#ff00ca"/><path d="M251.5659,197.13133l0.53512,-4.2802l1.7007,3.05922z" fill="#ff00ca" stroke="#ff00ca"/><path d="M250.24916,196.16719c0,0 0.42307,-0.36272 0.59714,-0.48549c0.07624,-0.05377 0.4826,-0.052 0.87337,0.07207c0.30252,0.09604 1.09779,0.25139 1.52629,0.24902c0.44843,-0.00248 1.63541,-0.52831 1.77246,-0.49576c0.07135,0.01695 0.80712,0.16365 1.47808,0.20609c0.58671,0.03712 1.12385,-0.02839 1.12385,-0.02839c0,0 0.77641,-0.19575 0.96883,-0.19575c0.09202,0 0.48478,0.05149 0.8326,0.20653c0.30658,0.13666 0.57824,0.3792 0.57824,0.3792v1.41121h-9.75086z" fill="#080807" stroke="#080807"/><path d="M251.13099,195.81037l0.14611,-0.83617l0.42799,0.69442z" fill="#080807" stroke="#080807"/><path d="M252.35003,196.01578l0.14611,-0.83617l0.42799,0.69442z" fill="#080807" stroke="#080807"/><path d="M258.38608,195.41558l0.42799,-0.69442l0.14611,0.83617z" data-paper-data="{&quot;index&quot;:null}" fill="#080807" stroke="#080807"/><path d="M256.19812,196.50653l-0.03698,-1.27324l0.65081,1.22563z" data-paper-data="{&quot;index&quot;:null}" fill="#080807" stroke="#080807"/><path d="M254.79753,196.10603l0.25834,-1.23518l0.34212,1.39634z" data-paper-data="{&quot;index&quot;:null}" fill="#080807" stroke="#080807"/></g><g stroke-width="0.5" stroke-linecap="round"><path d="M256.23254,179.23667l0.96179,-3.8109l1.73784,3.35349z" data-paper-data="{&quot;index&quot;:null}" fill="#ff00ca" stroke="#ff00ca"/><path d="M251.43579,178.54191l1.78465,-3.21022l0.56153,4.49147z" data-paper-data="{&quot;index&quot;:null}" fill="#ff00ca" stroke="#ff00ca"/><path d="M250.05405,178.81143c0,0 0.44395,-0.38062 0.62661,-0.50945c0.08,-0.05642 0.50642,-0.05456 0.91649,0.07562c0.31745,0.10078 1.15198,0.2638 1.60163,0.26131c0.47057,-0.0026 1.71614,-0.55438 1.85995,-0.52023c0.07487,0.01778 0.84696,0.17173 1.55104,0.21627c0.61567,0.03895 1.17933,-0.02979 1.17933,-0.02979c0,0 0.81474,-0.20541 1.01665,-0.20541c0.09656,0 0.50871,0.05403 0.8737,0.21672c0.32172,0.14341 0.60679,0.39792 0.60679,0.39792v1.48087h-10.23217z" fill="#080807" stroke="#080807"/><path d="M250.97942,178.437l0.15332,-0.87745l0.44912,0.7287z" fill="#080807" stroke="#080807"/><path d="M252.25863,178.65254l0.15332,-0.87745l0.44912,0.7287z" fill="#080807" stroke="#080807"/><path d="M258.59263,178.02272l0.44912,-0.7287l0.15332,0.87745z" data-paper-data="{&quot;index&quot;:null}" fill="#080807" stroke="#080807"/><path d="M256.29667,179.16751l-0.03881,-1.33609l0.68293,1.28613z" data-paper-data="{&quot;index&quot;:null}" fill="#080807" stroke="#080807"/><path d="M254.82694,178.74725l0.27109,-1.29616l0.35901,1.46526z" data-paper-data="{&quot;index&quot;:null}" fill="#080807" stroke="#080807"/></g><g stroke-width="0"><path d="M259.67142,163.14294l-7.18772,2.47621l-2.51993,-1.63389l-0.33731,-0.60926l1.31868,-1.99081l0.9838,1.37323l0.47472,-0.83242l1.41593,0.77888l0.37659,-1.10768l0.78421,1.05804l1.2897,-1.03033l1.27521,0.74168l0.68203,-0.97226l1.40075,0.27841z" fill="#080807" stroke="#080807" stroke-linecap="round"/><path d="M250.1061,162.19594l-0.51888,-1.41395l0.6633,-2.13115l3.61695,-1.45424l2.83923,2.1135l3.58614,0.69608l-0.62489,3.07295l-2.50302,-1.33855l-0.63503,1.25119l-0.75427,-1.68358l-1.08887,1.72766l-0.60852,-1.03854l-0.88066,0.61828l-0.72993,-1.00486l-1.13088,1.02267l-0.42226,-0.89548z" fill="#080807" stroke="#080807" stroke-linecap="round"/><path d="M251.36645,159.82046c0,-0.42944 0.34813,-0.77757 0.77757,-0.77757c0.42944,0 0.77757,0.34813 0.77757,0.77757c0,0.42944 -0.34813,0.77757 -0.77757,0.77757c-0.42944,0 -0.77757,-0.34813 -0.77757,-0.77757z" fill="#ffffff" stroke="none" stroke-linecap="butt"/></g><g data-paper-data="{&quot;index&quot;:null}" stroke-width="0"><path d="M259.75397,143.60036l-1.40075,0.27841l-0.68203,-0.97225l-1.2752,0.74167l-1.2897,-1.03033l-0.7842,1.05804l-0.37659,-1.10768l-1.41593,0.77888l-0.47472,-0.83242l-0.9838,1.37323l-1.31868,-1.99081l0.33731,-0.60927l2.51994,-1.63388l7.18773,2.4762z" fill="#080807" stroke="#080807" stroke-linecap="round"/><path d="M251.04042,143.53517l0.42227,-0.89549l1.13088,1.02267l0.72993,-1.00485l0.88066,0.61828l0.60852,-1.03854l1.08887,1.72766l0.75427,-1.68358l0.63502,1.25118l2.50302,-1.33855l0.62489,3.07295l-3.58613,0.69608l-2.83924,2.11351l-3.61694,-1.45424l-0.6633,-2.13115l0.51888,-1.41395z" fill="#080807" stroke="#080807" stroke-linecap="round"/><path d="M252.26994,144.67506c0.42944,0 0.77758,0.34814 0.77758,0.77757c0,0.42944 -0.34814,0.77758 -0.77758,0.77758c-0.42944,0 -0.77758,-0.34814 -0.77758,-0.77758c0,-0.42944 0.34814,-0.77757 0.77758,-0.77757z" fill="#ffffff" stroke="none" stroke-linecap="butt"/></g><g fill="none" stroke="#ff0000" stroke-width="1.5" stroke-linecap="round"><path d="M249.40846,123.1735l10.42636,6.19065"/><path d="M260.08815,123.34537l-10.42636,6.19066" data-paper-data="{&quot;index&quot;:null}"/></g></g></g></svg>