<svg version="1.1" xmlns="http://www.w3.org/2000/svg" xmlns:xlink="http://www.w3.org/1999/xlink" width="30.73814" height="22.98387" viewBox="0,0,30.73814,22.98387"><g transform="translate(-223.21576,-168.22374)"><g data-paper-data="{&quot;isPaintingLayer&quot;:true}" fill-rule="nonzero" stroke="#000000" stroke-width="0.5" stroke-linejoin="miter" stroke-miterlimit="10" stroke-dasharray="" stroke-dashoffset="0" style="mix-blend-mode: normal"><path d="M226.65983,183.37331l8.23825,-1.8099l0.56559,2.57444l-8.23826,1.80988z" fill="#00b6bf" stroke-linecap="butt"/><path d="M236.30899,177.34092c1.21296,-1.10808 3.09456,-1.02306 4.20263,0.18991c1.10808,1.21296 1.02306,3.09456 -0.18991,4.20263c-0.78756,0.71947 -2.39338,2.03798 -4.05695,2.41516c-0.89857,0.20374 -2.09236,-0.04631 -2.48097,-0.4717c-0.34071,-0.37296 -0.36934,-1.60322 -0.17328,-2.34668c0.4416,-1.67449 1.85845,-3.22192 2.69845,-3.9893z" fill="#00bf19" stroke-linecap="butt"/><path d="M228.73619,190.18673l-1.77069,0.69671l-3.42556,-8.70596l2.06583,-0.81284l2.90084,1.09278l1.23701,3.14381z" fill="#00bf19" stroke-linecap="round"/><path d="M232.578,181.02781l0.45967,-12.54508l18.71961,0.6859l-0.45967,12.54508z" fill="#00ff21" stroke-linecap="butt"/><path d="M232.5734,181.04549l0.1832,-4.99984l1.43041,0.2636l1.87576,-1.56819l1.33208,0.17101l2.27085,-1.77401l2.53078,2.64085l2.90284,0.34918l2.05849,1.27017l4.34705,-1.34838l-0.20714,5.65323z" fill="#00f2ff" stroke-linecap="round"/><path d="M246.05119,173.53038c0.03615,-0.98661 0.86525,-1.7571 1.85186,-1.72095c0.98661,0.03615 1.7571,0.86525 1.72095,1.85186c-0.03615,0.98661 -0.86525,1.7571 -1.85186,1.72095c-0.98661,-0.03615 -1.7571,-0.86525 -1.72095,-1.85186z" fill="#00f2ff" stroke-linecap="butt"/><path d="M245.45869,186.72728l-6.6429,-5.19773l1.6243,-2.0759l6.6429,5.19773z" fill="#00f2ff" stroke-linecap="butt"/><path d="M236.17661,181.376c-1.36827,-0.90939 -1.74025,-2.75579 -0.83086,-4.12406c0.90939,-1.36827 2.75579,-1.74025 4.12405,-0.83086c0.88839,0.59046 2.55574,1.83024 3.32361,3.35344c0.41475,0.82273 0.46046,2.04156 0.14153,2.52143c-0.27961,0.42073 -1.46653,0.74566 -2.23534,0.73498c-1.73157,-0.02405 -3.57544,-1.02516 -4.52298,-1.65493z" fill="#00ff21" stroke-linecap="butt"/><path d="M252.43613,182.73418l1.16699,1.50299l-7.38969,5.73768l-1.36148,-1.75348l0.23203,-3.09114l2.6685,-2.07194z" fill="#00ff21" stroke-linecap="round"/></g></g></svg>