<svg version="1.1" xmlns="http://www.w3.org/2000/svg" xmlns:xlink="http://www.w3.org/1999/xlink" width="46.91831" height="84.45522" viewBox="0,0,46.91831,84.45522"><defs><linearGradient x1="218.82743" y1="180.70628" x2="234.96801" y2="180.70628" gradientUnits="userSpaceOnUse" id="color-1"><stop offset="0" stop-color="#ff8800"/><stop offset="1" stop-color="#ffa742"/></linearGradient><linearGradient x1="219.46603" y1="188.52743" x2="235.6066" y2="188.52743" gradientUnits="userSpaceOnUse" id="color-2"><stop offset="0" stop-color="#ff8800"/><stop offset="1" stop-color="#ffa742"/></linearGradient><linearGradient x1="219.86252" y1="196.34859" x2="236.00309" y2="196.34859" gradientUnits="userSpaceOnUse" id="color-3"><stop offset="0" stop-color="#ff8800"/><stop offset="1" stop-color="#ffa742"/></linearGradient><linearGradient x1="221.87306" y1="203.282" x2="238.01364" y2="203.282" gradientUnits="userSpaceOnUse" id="color-4"><stop offset="0" stop-color="#ff8800"/><stop offset="1" stop-color="#ffa742"/></linearGradient><linearGradient x1="224.28712" y1="210.65929" x2="240.4277" y2="210.65929" gradientUnits="userSpaceOnUse" id="color-5"><stop offset="0" stop-color="#ff8800"/><stop offset="1" stop-color="#ffa742"/></linearGradient><linearGradient x1="217.91585" y1="180.90874" x2="241.17525" y2="180.90874" gradientUnits="userSpaceOnUse" id="color-6"><stop offset="0" stop-color="#00cfff"/><stop offset="1" stop-color="#42c0ff"/></linearGradient><linearGradient x1="229.50714" y1="140.82933" x2="235.62102" y2="140.82933" gradientUnits="userSpaceOnUse" id="color-7"><stop offset="0" stop-color="#00cfff"/><stop offset="1" stop-color="#42c0ff"/></linearGradient><linearGradient x1="229.38706" y1="219.17067" x2="235.50094" y2="219.17067" gradientUnits="userSpaceOnUse" id="color-8"><stop offset="0" stop-color="#00cfff"/><stop offset="1" stop-color="#42c0ff"/></linearGradient></defs><g transform="translate(-215.16585,-137.77239)"><g data-paper-data="{&quot;isPaintingLayer&quot;:true}" fill-rule="nonzero" stroke-linecap="butt" stroke-linejoin="miter" stroke-miterlimit="10" stroke-dasharray="" stroke-dashoffset="0" style="mix-blend-mode: normal"><path d="M230.86578,218.10194v-4.07592h3.05694v4.07592z" fill="#000000" stroke="none" stroke-width="0"/><path d="M230.91552,147.50246v-4.07592h3.05694v4.07592z" fill="#000000" stroke="none" stroke-width="0"/><path d="M218.82743,183.57123v-5.72991h16.14058v5.72991z" fill="#000000" stroke="url(#color-1)" stroke-width="0"/><path d="M219.46603,191.39238v-5.72991h16.14058v5.72991z" fill="#000000" stroke="url(#color-2)" stroke-width="0"/><path d="M219.86252,199.21354v-5.72991h16.14058v5.72991z" fill="#000000" stroke="url(#color-3)" stroke-width="0"/><path d="M221.87306,206.14695v-5.72991h16.14057v5.72991z" fill="#000000" stroke="url(#color-4)" stroke-width="0"/><path d="M227.67665,214.61373l-3.38952,-7.90888h16.14058l1.69476,7.90888z" fill="#000000" stroke="url(#color-5)" stroke-width="0"/><path d="M219.95728,176.22727v-5.89131h17.18971v5.89131z" fill="#000000" stroke="none" stroke-width="0"/><path d="M220.6029,168.88331v-5.97201h17.59322v5.97201z" fill="#000000" stroke="none" stroke-width="0"/><path d="M221.00641,161.37795v-4.84217h17.27041v4.84217z" fill="#000000" stroke="none" stroke-width="0"/><path d="M224.15382,155.32523v-5.32638c0,0 6.50402,-4.11585 9.52293,-4.11585c0.91619,0 5.22113,-0.69784 7.10744,-0.4452c3.74907,0.50215 5.40151,2.86628 5.40151,2.86628l-4.68076,7.02115z" fill="#000000" stroke="none" stroke-width="0"/><path d="M229.3188,211.73653c0,0 -5.16498,-20.1152 -5.16498,-29.94076c0,-9.83901 5.16498,-29.05303 5.16498,-29.05303h4.60006c0,0 -5.16498,19.48377 -5.16498,29.37584c0,9.77103 5.16498,29.61795 5.16498,29.61795z" fill="#000000" stroke="none" stroke-width="0"/><path d="M262.08416,180.18171c0,19.0318 -12.42156,34.46012 -20.37748,34.46012c-7.95591,0 -9.48039,-15.25849 -9.48039,-34.29029c0,-19.0318 1.52447,-34.62995 9.48039,-34.62995c7.95591,0 20.37748,15.42832 20.37748,34.46012z" fill="#000000" stroke="none" stroke-width="0"/><path d="M241.17525,180.90874c0,17.81592 -5.2068,32.25859 -11.6297,32.25859c-6.42291,0 -11.6297,-14.44266 -11.6297,-32.25859c0,-17.81592 5.2068,-32.25859 11.6297,-32.25859c6.42291,0 11.6297,14.44266 11.6297,32.25859z" fill="none" stroke="url(#color-6)" stroke-width="5.5"/><path d="M229.50714,140.82933c0,-1.6883 1.36863,-3.05694 3.05694,-3.05694c1.6883,0 3.05694,1.36863 3.05694,3.05694c0,1.6883 -1.36863,3.05694 -3.05694,3.05694c-1.6883,0 -3.05694,-1.36863 -3.05694,-3.05694z" fill="url(#color-7)" stroke="none" stroke-width="5.5"/><path d="M229.38706,219.17067c0,-1.6883 1.36863,-3.05694 3.05694,-3.05694c1.6883,0 3.05694,1.36863 3.05694,3.05694c0,1.6883 -1.36863,3.05694 -3.05694,3.05694c-1.6883,0 -3.05694,-1.36864 -3.05694,-3.05694z" fill="url(#color-8)" stroke="none" stroke-width="5.5"/></g></g></svg>