<svg version="1.1" xmlns="http://www.w3.org/2000/svg" xmlns:xlink="http://www.w3.org/1999/xlink" width="19.70187" height="25.6851" viewBox="0,0,19.70187,25.6851"><g transform="translate(-232.3144,-168.22374)"><g data-paper-data="{&quot;isPaintingLayer&quot;:true}" fill-rule="nonzero" stroke="#000000" stroke-width="0.5" stroke-linejoin="miter" stroke-miterlimit="10" stroke-dasharray="" stroke-dashoffset="0" style="mix-blend-mode: normal"><path d="M237.18734,191.48762l-0.34526,-8.42765l2.63362,-0.10789l0.34524,8.42765z" data-paper-data="{&quot;index&quot;:null}" fill="#00b6bf" stroke-linecap="butt"/><path d="M242.51873,180.02183c-0.55959,0.99062 -1.75008,2.71826 -3.28298,3.52394c-0.6806,0.35771 -1.88597,0.60556 -2.32581,0.3571c-0.50167,-0.28339 -1.01293,-1.39075 -1.01577,-2.31213c-0.00527,-1.70578 0.91976,-3.56627 1.44441,-4.49506c0.80801,-1.43046 2.62268,-1.93506 4.05314,-1.12703c1.43046,0.80801 1.93506,2.62268 1.12703,4.05314z" data-paper-data="{&quot;index&quot;:null}" fill="#00bf19" stroke-linecap="butt"/><path d="M244.39822,191.67304l0.01644,1.90276l-9.3553,0.08089l-0.01918,-2.2199l2.05907,-2.31717l3.37829,-0.02921z" data-paper-data="{&quot;index&quot;:null}" fill="#00bf19" stroke-linecap="round"/><path d="M232.578,181.02781l0.45967,-12.54508l18.71961,0.6859l-0.45967,12.54508z" fill="#00ff21" stroke-linecap="butt"/><path d="M232.5734,181.04549l0.1832,-4.99984l1.43041,0.2636l1.87576,-1.56819l1.33208,0.17101l2.27085,-1.77401l2.53078,2.64085l2.90284,0.34918l2.05849,1.27017l4.34705,-1.34838l-0.20714,5.65323z" fill="#00f2ff" stroke-linecap="round"/><path d="M246.05119,173.53038c0.03615,-0.98661 0.86525,-1.7571 1.85186,-1.72095c0.98661,0.03615 1.7571,0.86525 1.72095,1.85186c-0.03615,0.98661 -0.86525,1.7571 -1.85186,1.72095c-0.98661,-0.03615 -1.7571,-0.86525 -1.72095,-1.85186z" fill="#00f2ff" stroke-linecap="butt"/><path d="M235.66078,190.2896l-0.34527,-8.42766l2.63363,-0.10788l0.34524,8.42765z" data-paper-data="{&quot;index&quot;:null}" fill="#00f2ff" stroke-linecap="butt"/><path d="M241.49249,179.07317c-0.55959,0.99062 -1.75008,2.71826 -3.28298,3.52394c-0.6806,0.35771 -1.88598,0.60556 -2.32582,0.35711c-0.50167,-0.28339 -1.01293,-1.39075 -1.01577,-2.31213c-0.00529,-1.70578 0.91976,-3.56627 1.44441,-4.49506c0.80801,-1.43046 2.62268,-1.93506 4.05314,-1.12703c1.43046,0.80801 1.93506,2.62268 1.12703,4.05314z" data-paper-data="{&quot;index&quot;:null}" fill="#00ff22" stroke-linecap="butt"/><path d="M242.47802,191.4981l0.01644,1.90276l-9.3553,0.08089l-0.01918,-2.2199l2.05907,-2.31717l3.37829,-0.02921z" data-paper-data="{&quot;index&quot;:null}" fill="#00ff22" stroke-linecap="round"/></g></g></svg>