<svg version="1.1" xmlns="http://www.w3.org/2000/svg" xmlns:xlink="http://www.w3.org/1999/xlink" width="26.24215" height="12.17845" viewBox="0,0,26.24215,12.17845"><g transform="translate(-227.45161,-167.89955)"><g data-paper-data="{&quot;isPaintingLayer&quot;:true}" fill-rule="nonzero" stroke-linecap="round" stroke-linejoin="miter" stroke-miterlimit="10" stroke-dasharray="" stroke-dashoffset="0" style="mix-blend-mode: normal"><g fill="#2f2f2f" stroke="#2f2f2f" stroke-width="0.5"><path d="M240.6775,171.97888l2.52359,4.10527c0,0 -3.57581,2.92206 -3.79719,2.98245c-0.67583,0.18436 -3.61931,-2.17875 -3.95963,-2.37066c-0.58855,-0.3319 -3.67332,2.04121 -3.83594,2.07562c-0.25809,0.05462 -3.20374,-1.92263 -3.20374,-1.92263v-4.92361z"/><path d="M252.6448,169.50883l0.05486,8.08506c0,0 -1.588,1.25102 -1.7521,1.5049c-0.49894,0.77192 -2.85648,-0.90064 -3.17702,-1.09255c-0.31684,-0.1897 -1.62542,1.4077 -3.04623,1.79237c-1.06505,0.28835 -3.58438,-1.63937 -3.58438,-1.63937l0.10972,-6.84944z"/></g><path d="M252.6843,168.57864v4.47848c0,0 -0.39536,0.44226 -1.71687,1.19311c-0.34099,0.19374 -1.73485,-0.93459 -2.07962,-0.74897c-1.04828,0.56441 -1.75991,1.99561 -2.198,2.03977c-1.33744,0.1348 -3.68828,-2.0421 -4.36176,-2.18243c-1.16471,-0.24267 -3.26352,2.15083 -3.64804,2.15083c-0.26994,0 -3.39359,-2.41192 -3.81621,-2.29899c-1.2385,0.33092 -3.71342,1.94388 -4.03523,1.96905c-0.51075,0.03993 -2.43166,-1.70902 -2.43166,-1.70902v-4.931z" fill="#000000" stroke="#000000" stroke-width="0.5"/><path d="M252.94376,168.64955h-24.74215" fill="none" stroke="#fff7f7" stroke-width="1.5"/></g></g></svg>