<svg version="1.1" xmlns="http://www.w3.org/2000/svg" xmlns:xlink="http://www.w3.org/1999/xlink" width="23.87365" height="23.45885" viewBox="0,0,23.87365,23.45885"><g transform="translate(-227.85566,-168.05332)"><g data-paper-data="{&quot;isPaintingLayer&quot;:true}" fill-rule="nonzero" stroke="#000000" stroke-width="0.5" stroke-linejoin="miter" stroke-miterlimit="10" stroke-dasharray="" stroke-dashoffset="0" style="mix-blend-mode: normal"><path d="M241.581,170.54352l0.43958,8.01822l-2.50568,0.13737l-0.43957,-8.0182z" data-paper-data="{&quot;index&quot;:null}" fill="#00bf19" stroke-linecap="butt"/><path d="M236.62565,181.12362c0.15477,-1.07207 0.61513,-3.01579 1.69738,-4.25954c0.48053,-0.55222 1.46459,-1.18798 1.94059,-1.11927c0.54292,0.07838 1.37862,0.88461 1.69901,1.70119c0.59318,1.51178 0.41421,3.48181 0.2691,4.48695c-0.22348,1.54808 -1.65962,2.62188 -3.20769,2.39839c-1.54808,-0.22348 -2.62188,-1.65962 -2.39839,-3.20769z" data-paper-data="{&quot;index&quot;:null}" fill="#00b6bf" stroke-linecap="butt"/><path d="M241.86967,172.62264l-3.21641,-0.00992l-1.97257,-2.19511l0.00651,-2.11352l8.90698,0.02747l-0.00558,1.81158z" data-paper-data="{&quot;index&quot;:null}" fill="#00b6bf" stroke-linecap="round"/><path d="M251.03271,178.65667l0.43762,11.9435l-17.82194,0.65301l-0.43762,-11.9435z" data-paper-data="{&quot;index&quot;:null}" fill="#00f2ff" stroke-linecap="butt"/><path d="M251.0328,178.66676l0.19721,5.38214l-4.13859,-1.28372l-1.95978,1.20926l-2.76364,0.33244l-2.40942,2.51421l-2.16195,-1.68894l-1.26821,0.16281l-1.7858,-1.49299l-1.36182,0.25096l-0.17441,-4.76009z" data-paper-data="{&quot;index&quot;:null}" fill="#00ff21" stroke-linecap="round"/><path d="M247.67631,184.68451c0.9393,-0.03441 1.72865,0.69914 1.76306,1.63843c0.03441,0.9393 -0.69914,1.72865 -1.63843,1.76306c-0.9393,0.03441 -1.72865,-0.69914 -1.76306,-1.63843c-0.03441,-0.9393 0.69914,-1.72865 1.63843,-1.76306z" data-paper-data="{&quot;index&quot;:null}" fill="#00ff21" stroke-linecap="butt"/><path d="M231.84876,173.31141l7.51038,2.84235l-0.88823,2.347l-7.51038,-2.84235z" data-paper-data="{&quot;index&quot;:null}" fill="#00ff21" stroke-linecap="butt"/><path d="M235.18546,180.87543c0.29955,-1.04094 1.02075,-2.9037 2.26253,-3.9882c0.55135,-0.48152 1.61294,-0.97712 2.07512,-0.84411c0.52716,0.15171 1.24507,1.0644 1.45108,1.91704c0.3814,1.57857 -0.06462,3.50576 -0.34547,4.48172c-0.43257,1.50312 -2.00174,2.37098 -3.50486,1.93842c-1.50312,-0.43257 -2.37098,-2.00174 -1.93842,-3.50486z" data-paper-data="{&quot;index&quot;:null}" fill="#00f2ff" stroke-linecap="butt"/><path d="M234.93586,174.74762l-2.31539,2.23257l-2.94428,-0.20191l-1.46703,-1.52146l6.41185,-6.1825l1.25746,1.3041z" data-paper-data="{&quot;index&quot;:null}" fill="#00f2ff" stroke-linecap="round"/></g></g></svg>