<svg version="1.1" xmlns="http://www.w3.org/2000/svg" xmlns:xlink="http://www.w3.org/1999/xlink" width="25.63355" height="25.53585" viewBox="0,0,25.63355,25.53585"><g transform="translate(-227.18322,-167.23208)"><g data-paper-data="{&quot;isPaintingLayer&quot;:true}" fill-rule="nonzero" stroke-linecap="butt" stroke-linejoin="miter" stroke-miterlimit="10" stroke-dasharray="" stroke-dashoffset="0" style="mix-blend-mode: normal"><path d="M227.93322,187.7514c0,-5.16758 0.09771,-13.51673 0.09771,-16.21931c0,-1.67105 2.51534,-3.55001 4.56629,-3.55001c2.87657,0 10.82804,0 15.63307,0c2.26907,0 3.83648,1.93876 3.83648,3.64772c0,2.48472 0,11.4808 0,16.61014c0,3.21115 -2.11583,3.77799 -3.93419,3.77799c-2.74469,0 -10.78737,0 -15.82848,0c-2.50808,0 -4.37088,-1.75857 -4.37088,-4.26652z" fill="#04e200" stroke="#000000" stroke-width="1.5"/><path d="M231.875,180c0,-4.48731 3.63769,-8.125 8.125,-8.125c4.48731,0 8.125,3.63769 8.125,8.125c0,4.48731 -3.63769,8.125 -8.125,8.125c-4.48731,0 -8.125,-3.63769 -8.125,-8.125z" fill="none" stroke="#ffffff" stroke-width="2"/><path d="M250.3368,181.11676c0,2.31269 -2.12665,4.1875 -4.75,4.1875c-2.62335,0 -4.75,-1.87481 -4.75,-4.1875c0,-2.31269 2.12665,-4.1875 4.75,-4.1875c2.62335,0 4.75,1.87481 4.75,4.1875z" fill="#04e200" stroke="none" stroke-width="0"/><path d="M247.64703,170.28318l2.32536,9.06422l-9.06422,-2.32536z" fill="#ffffff" stroke="#000000" stroke-width="0"/></g></g></svg>