<svg version="1.1" xmlns="http://www.w3.org/2000/svg" xmlns:xlink="http://www.w3.org/1999/xlink" width="70.2057" height="24" viewBox="0,0,70.2057,24"><defs><linearGradient x1="240" y1="169.589" x2="240" y2="190.411" gradientUnits="userSpaceOnUse" id="color-1"><stop offset="0" stop-color="#00c8ff"/><stop offset="1" stop-color="#0061e6"/></linearGradient><linearGradient x1="233.03225" y1="184.61638" x2="247.4648" y2="184.61638" gradientUnits="userSpaceOnUse" id="color-2"><stop offset="0" stop-color="#6c0000"/><stop offset="1" stop-color="#430000"/></linearGradient><linearGradient x1="235.63715" y1="186.3704" x2="244.22628" y2="186.3704" gradientUnits="userSpaceOnUse" id="color-3"><stop offset="0" stop-color="#a60068"/><stop offset="1" stop-color="#940057"/></linearGradient><linearGradient x1="232.96326" y1="184.61779" x2="247.39581" y2="184.61779" gradientUnits="userSpaceOnUse" id="color-4"><stop offset="0" stop-color="#430000" stop-opacity="0"/><stop offset="1" stop-color="#430000"/></linearGradient></defs><g transform="translate(-229.089,-168.60548)"><g data-paper-data="{&quot;isPaintingLayer&quot;:true}" fill-rule="nonzero" stroke-linecap="butt" stroke-linejoin="miter" stroke-miterlimit="10" stroke-dasharray="" stroke-dashoffset="0" style="mix-blend-mode: normal"><path d="M229.589,180c0,-5.74983 4.66116,-10.411 10.411,-10.411c5.74983,0 10.411,4.66116 10.411,10.411c0,5.74983 -4.66116,10.411 -10.411,10.411c-5.74983,0 -10.411,-4.66116 -10.411,-10.411z" fill="url(#color-1)" stroke="#000000" stroke-width="1"/><path d="M233.87708,176.92489c0,-1.03038 0.83529,-1.86567 1.86567,-1.86567c1.03038,0 1.86567,0.83529 1.86567,1.86567c0,1.03038 -0.83529,1.37285 -1.86567,1.37285c-1.03038,0 -1.86567,-0.34247 -1.86567,-1.37285z" fill="#000000" stroke="#000000" stroke-width="1.5"/><path d="M233.80809,175.94066c0,-0.44715 0.36249,-0.80963 0.80963,-0.80963c0.44715,0 0.80963,0.36249 0.80963,0.80963c0,0.44715 -0.36248,0.80963 -0.80963,0.80963c-0.44715,0 -0.80963,-0.36248 -0.80963,-0.80963z" fill="#ffffff" stroke="#000000" stroke-width="0"/><path d="M243.03084,176.9263c0,-1.03038 0.83529,-1.86568 1.86567,-1.86568c1.03038,0 1.86567,0.8353 1.86567,1.86568c0,1.03038 -0.83529,1.37285 -1.86567,1.37285c-1.03038,0 -1.86567,-0.34247 -1.86567,-1.37285z" fill="#000000" stroke="#000000" stroke-width="1.5"/><path d="M242.96184,175.94207c0,-0.44715 0.36249,-0.80964 0.80963,-0.80964c0.44715,0 0.80963,0.36249 0.80963,0.80964c0,0.44715 -0.36248,0.80963 -0.80963,0.80963c-0.44715,0 -0.80963,-0.36248 -0.80963,-0.80963z" fill="#ffffff" stroke="#000000" stroke-width="0"/><text transform="translate(252.7322,184.97266) scale(0.5,0.5)" font-size="40" xml:space="preserve" fill="#ffffff" fill-rule="nonzero" stroke="#000000" stroke-width="1" stroke-linecap="butt" stroke-linejoin="miter" stroke-miterlimit="10" stroke-dasharray="" stroke-dashoffset="0" font-family="Marker" font-weight="normal" text-anchor="start" style="mix-blend-mode: normal"><tspan x="0" dy="0">Easy</tspan></text><path d="M233.03225,181.00825c0,-0.00202 3.63164,0.27865 7.25148,0.27869c3.59637,0.00004 7.18108,-0.28057 7.18108,-0.27869c0,3.98544 -3.23084,7.21628 -7.21628,7.21628c-3.98544,0 -7.21628,-3.23084 -7.21628,-7.21628z" fill="url(#color-2)" stroke="#000000" stroke-width="0"/><path d="M244.22628,186.28845c0,0.95262 -1.92274,1.72487 -4.29456,1.72487c-2.37182,0 -4.29456,-0.77225 -4.29456,-1.72487c0,-0.64467 0.88056,-1.20674 2.18496,-1.50276c0.62309,-0.14141 1.34288,0.27071 2.10961,0.27071c0.69605,0 1.35342,-0.42631 1.93487,-0.30826c1.39988,0.28423 2.35969,0.86725 2.35969,1.5403z" fill="url(#color-3)" stroke="none" stroke-width="0"/><path d="M232.96326,181.00965c0,-0.00202 3.63164,0.27865 7.25147,0.27869c3.59636,0.00004 7.18108,-0.28057 7.18108,-0.27869c0,3.98544 -3.23084,7.21628 -7.21628,7.21628c-3.98544,0 -7.21627,-3.23084 -7.21627,-7.21628z" fill="url(#color-4)" stroke="#000000" stroke-width="1"/></g></g></svg>