<svg version="1.1" xmlns="http://www.w3.org/2000/svg" xmlns:xlink="http://www.w3.org/1999/xlink" width="34.25996" height="21.3598" viewBox="0,0,34.25996,21.3598"><g transform="translate(-223.49125,-167.48376)"><g data-paper-data="{&quot;isPaintingLayer&quot;:true}" fill-rule="nonzero" stroke-width="0.5" stroke-linejoin="miter" stroke-miterlimit="10" stroke-dasharray="" stroke-dashoffset="0" style="mix-blend-mode: normal"><path d="M245.8352,171.92895c1.30372,-0.80891 2.96901,-3.93301 2.96901,-3.93301c0,0 0.98796,0.46128 1.27522,0.848c0.34409,0.46322 0.64978,1.74345 0.64978,1.74345c0,0 -1.16937,3.72709 -2.37413,5.25542c-0.77488,0.983 -4.26788,2.0482 -4.26788,2.0482c0,0 -0.51472,-0.1416 -1.0973,-0.41544c-0.50209,-0.23602 -0.96073,-0.70453 -1.27755,-1.13104c-0.28347,-0.38162 -0.72122,-0.8911 -0.85767,-1.49736c-0.20125,-0.89425 -0.26653,-1.7535 -0.26653,-1.7535c0,0 3.82277,-0.28101 5.24706,-1.16473z" data-paper-data="{&quot;index&quot;:null}" fill="#00b0ba" stroke="#000000" stroke-linecap="butt"/><path d="M252.95933,172.22168c1.1198,-1.04884 2.14019,-4.43882 2.14019,-4.43882c0,0 1.05924,0.25861 1.41675,0.5815c0.42824,0.38676 0.97902,1.5822 0.97902,1.5822c0,0 -0.41587,3.88403 -1.29756,5.61892c-0.56709,1.11586 -3.78342,2.84529 -3.78342,2.84529c0,0 -0.5325,-0.03792 -1.15746,-0.19221c-0.53863,-0.13299 -1.08023,-0.50247 -1.47453,-0.85858c-0.3528,-0.31862 -0.88195,-0.73238 -1.13462,-1.30012c-0.3727,-0.83743 -0.60519,-1.6672 -0.60519,-1.6672c0,0 3.69346,-1.02513 4.91682,-2.17097z" data-paper-data="{&quot;index&quot;:null}" fill="#00b0ba" stroke="#000000" stroke-linecap="butt"/><path d="M238.86424,181.04938l-3.09148,3.35022l-7.46186,-6.88556l3.09148,-3.35022z" data-paper-data="{&quot;index&quot;:null}" fill="#00b0ba" stroke="#000000" stroke-linecap="butt"/><path d="M224.66708,169.12802c0.34092,-0.34036 1.3859,-0.6516 1.3859,-0.6516c0,0 4.21268,3.31366 5.606,4.40964c0.82822,0.65147 1.7726,1.8391 1.7726,1.8391c0,0 -0.19072,0.84036 -0.52108,1.69538c-0.22397,0.57965 -0.73178,1.01935 -1.06821,1.35521c-0.37601,0.37538 -0.89846,0.77148 -1.42977,0.93122c-0.61647,0.18535 -1.1464,0.24984 -1.1464,0.24984c0,0 -1.38718,-1.02379 -1.95885,-2.02175c-0.91018,-1.58889 -3.53891,-6.17787 -3.53891,-6.17787c0,0 0.49033,-1.22148 0.8987,-1.62917z" data-paper-data="{&quot;index&quot;:null}" fill="#00f2ff" stroke="#000000" stroke-linecap="butt"/><path d="M248.706,173.02491l3.4375,3.4375l1.375,12.125h-25.625l11.85806,-15.625z" data-paper-data="{&quot;index&quot;:null}" fill="#00e8f5" stroke="#000000" stroke-linecap="round"/><path d="M236.5789,188.5215v-6.06092l3.54849,-3.54849l0.0518,-5.98321l8.41795,0.0518v15.48902z" data-paper-data="{&quot;index&quot;:null}" fill="#00f2ff" stroke="#00d9e4" stroke-linecap="round"/><path d="M248.62303,178.57537c1.70228,0 3.08226,1.37997 3.08226,3.08226c0,1.70228 -1.37997,3.08226 -3.08226,3.08226c-1.70228,0 -3.08226,-1.37997 -3.08226,-3.08226c0,-1.70228 1.37997,-3.08226 3.08226,-3.08226z" data-paper-data="{&quot;index&quot;:null}" fill="#00ff22" stroke="#000000" stroke-linecap="butt"/><path d="M248.66658,173.03105l3.4375,3.4375l1.375,12.125h-25.625l11.90986,-15.625z" data-paper-data="{&quot;index&quot;:null}" fill="none" stroke="#000000" stroke-linecap="round"/><path d="M233.07419,168.61899c0.31058,-0.36826 1.32512,-0.76772 1.32512,-0.76772c0,0 1.46938,3.22089 2.72071,4.10868c1.36705,0.9699 5.1652,1.48622 5.1652,1.48622c0,0 -0.11816,0.85358 -0.3742,1.73372c-0.17359,0.59669 -0.64193,1.07819 -0.94841,1.44159c-0.34253,0.40615 -0.8292,0.84547 -1.3449,1.05007c-0.59836,0.23738 -1.12084,0.34695 -1.12084,0.34695c0,0 -3.42063,-1.27867 -4.13339,-2.3076c-1.10817,-1.59975 -2.04539,-5.39187 -2.04539,-5.39187c0,0 0.38409,-1.25894 0.7561,-1.70005z" data-paper-data="{&quot;index&quot;:null}" fill="#00f2ff" stroke="#000000" stroke-linecap="butt"/></g></g></svg>