<svg version="1.1" xmlns="http://www.w3.org/2000/svg" xmlns:xlink="http://www.w3.org/1999/xlink" width="26.44927" height="24.83088" viewBox="0,0,26.44927,24.83088"><g transform="translate(-227.34918,-167.53286)"><g data-paper-data="{&quot;isPaintingLayer&quot;:true}" fill-rule="nonzero" stroke-width="0.5" stroke-linejoin="miter" stroke-miterlimit="10" stroke-dasharray="" stroke-dashoffset="0" style="mix-blend-mode: normal"><path d="M241.47498,183.82343c-0.51291,-0.92047 -0.92625,-2.38043 -0.92625,-2.38043c0,0 0.50004,-0.7018 1.13459,-1.36327c0.43019,-0.44845 1.06827,-0.65829 1.5082,-0.83842c0.49169,-0.20133 1.12647,-0.36532 1.67829,-0.30781c0.64027,0.06673 1.15407,0.2116 1.15407,0.2116c0,0 0.88506,1.47954 1.02766,2.62078c0.22703,1.81698 0.8827,7.06476 0.8827,7.06476c0,0 -0.92347,0.93791 -1.45747,1.15657c-0.44581,0.18255 -1.52998,0.06672 -1.52998,0.06672c0,0 -2.60892,-4.68195 -3.4718,-6.23048z" data-paper-data="{&quot;index&quot;:null}" fill="#00b0ba" stroke="#000000" stroke-linecap="butt"/><path d="M242.46544,189.8868c0,0 -1.0885,0.06348 -1.525,-0.14033c-0.52286,-0.24412 -1.40009,-1.22542 -1.40009,-1.22542c0,0 0.90765,-5.21011 1.22191,-7.01405c0.19739,-1.13304 1.15267,-2.56825 1.15267,-2.56825c0,0 0.5202,-0.11995 1.16292,-0.15577c0.55394,-0.03087 1.18009,0.1635 1.66152,0.38827c0.43074,0.20112 1.05799,0.44145 1.46608,0.91009c0.60196,0.69127 1.06761,1.41633 1.06761,1.41633c0,0 -0.48317,1.43836 -1.03981,2.33306c-0.93646,1.50517 -3.76783,6.05605 -3.76783,6.05605z" fill="#00b0ba" stroke="#000000" stroke-linecap="butt"/><path d="M231.22113,182.20874l-2.02994,-4.08174l9.09115,-4.52121l2.02994,4.08174z" fill="#00b0ba" stroke="#000000" stroke-linecap="butt"/><path d="M230.35113,188.85738c-0.56966,-0.09199 -1.68161,-0.79628 -1.68161,-0.79628c0,0 -0.55035,-5.25986 -0.7409,-7.08103c-0.11968,-1.14386 0.40714,-2.78546 0.40714,-2.78546c0,0 0.46763,-0.25751 1.07612,-0.46756c0.52444,-0.18104 1.17987,-0.16515 1.70439,-0.08045c0.4693,0.07578 1.13835,0.1356 1.65895,0.47492c0.76791,0.50051 1.41396,1.07077 1.41396,1.07077c0,0 -0.0718,1.51564 -0.36283,2.52839c-0.4896,1.70376 -1.9699,6.85505 -1.9699,6.85505c0,0 -1.02974,0.35845 -1.50532,0.28165z" fill="#00f2ff" stroke="#000000" stroke-linecap="butt"/><path d="M239.75156,183.40786l-11.85806,-15.625h25.625l-1.375,12.125l-3.4375,3.4375z" fill="#00e8f5" stroke="#000000" stroke-linecap="round"/><path d="M248.59714,167.90057v15.48902l-8.41795,0.0518l-0.0518,-5.98321l-3.54849,-3.54849v-6.06092z" fill="#00f2ff" stroke="#00d9e4" stroke-linecap="round"/><path d="M245.54077,174.71264c0,-1.70229 1.37998,-3.08226 3.08226,-3.08226c1.70229,0 3.08226,1.37998 3.08226,3.08226c0,1.70229 -1.37998,3.08226 -3.08226,3.08226c-1.70229,0 -3.08226,-1.37998 -3.08226,-3.08226z" fill="#00ff22" stroke="#000000" stroke-linecap="butt"/><path d="M239.76394,183.42925l-11.90986,-15.625h25.625l-1.375,12.125l-3.4375,3.4375z" fill="none" stroke="#000000" stroke-linecap="round"/><path d="M244.96801,192.11335c-0.57681,0.01613 -1.80083,-0.46785 -1.80083,-0.46785c0,0 -1.52401,-5.06424 -2.05167,-6.81766c-0.33142,-1.10132 -0.1208,-2.81247 -0.1208,-2.81247c0,0 0.41124,-0.3404 0.96973,-0.66051c0.48134,-0.27589 1.12819,-0.38281 1.65929,-0.39767c0.4752,-0.01329 1.14362,-0.07961 1.71849,0.15639c0.84795,0.34812 1.58921,0.78754 1.58921,0.78754c0,0 0.21282,1.50234 0.11627,2.55163c-0.16244,1.76526 -0.65357,7.10248 -0.65357,7.10248c0,0 -0.94457,0.54464 -1.42612,0.55811z" fill="#00f2ff" stroke="#000000" stroke-linecap="butt"/></g></g></svg>