<svg version="1.1" xmlns="http://www.w3.org/2000/svg" xmlns:xlink="http://www.w3.org/1999/xlink" width="52.5594" height="52.50531" viewBox="0,0,52.5594,52.50531"><g transform="translate(-213.78361,-153.5204)"><g data-paper-data="{&quot;isPaintingLayer&quot;:true}" fill="none" fill-rule="nonzero" stroke="#ffffff" stroke-width="2" stroke-linejoin="miter" stroke-miterlimit="10" stroke-dasharray="" stroke-dashoffset="0" style="mix-blend-mode: normal"><path d="M232.87682,179.84184c0,-3.79773 3.07867,-6.8764 6.8764,-6.8764c3.79773,0 6.8764,3.07867 6.8764,6.8764c0,3.79773 -3.07867,6.8764 -6.8764,6.8764c-3.79773,0 -6.8764,-3.07867 -6.8764,-6.8764z" stroke-linecap="butt"/><path d="M235.08499,166.3393l3.77272,-10.15163l4.49437,10.27128l13.60651,-4.47197l-3.49233,12.64558l10.69754,5.98252l-11.26214,5.34312l2.82678,11.35186l-11.37803,-4.6477l-5.66844,11.14996l-5.26087,-10.42832l-12.48854,3.75032l4.70379,-11.03778l-9.80016,-5.48147l10.03945,-5.58618l-2.83424,-11.63602z" stroke-linecap="round"/></g></g></svg>