<svg version="1.1" xmlns="http://www.w3.org/2000/svg" xmlns:xlink="http://www.w3.org/1999/xlink" width="59.45554" height="46.89647" viewBox="0,0,59.45554,46.89647"><g transform="translate(-206.60527,-154.93907)"><g data-paper-data="{&quot;isPaintingLayer&quot;:true}" fill-rule="nonzero" stroke-width="0.5" stroke-linejoin="miter" stroke-miterlimit="10" stroke-dasharray="" stroke-dashoffset="0" style="mix-blend-mode: normal"><path d="M262.10837,176.92605l-7.70614,1.53169l-3.75215,-5.34885l-7.01545,4.08032l-7.09525,-5.66832l-4.31429,5.82076l-2.07177,-6.09385l-7.78966,4.28496l-2.61166,-4.57952l-5.41232,7.5548l-7.25462,-10.95236l1.85572,-3.35183l13.86329,-8.98873l39.54288,13.62271z" data-paper-data="{&quot;index&quot;:null}" fill="#080807" stroke="#080807" stroke-linecap="round"/><g data-paper-data="{&quot;index&quot;:null}"><path d="M214.17113,176.56744l2.32303,-4.92647l6.2215,5.62615l4.01563,-5.52815l4.84496,3.40142l3.34773,-5.71348l5.99035,9.50462l4.14961,-9.26217l3.49358,6.88335l13.77025,-7.36393l3.43779,16.90569l-19.72895,3.82948l-15.61989,11.62733l-19.89843,-8.00044l-3.64914,-11.72439l2.85463,-7.77877z" fill="#080807" stroke="#080807" stroke-linecap="round"/><path d="M220.9353,182.8385c2.36255,0 4.27777,1.91523 4.27777,4.27777c0,2.36255 -1.91523,4.27777 -4.27777,4.27777c-2.36255,0 -4.27777,-1.91523 -4.27777,-4.27777c0,-2.36255 1.91523,-4.27777 4.27777,-4.27777z" fill="#ffffff" stroke="#000000" stroke-linecap="butt"/></g></g></g></svg>