<svg version="1.1" xmlns="http://www.w3.org/2000/svg" xmlns:xlink="http://www.w3.org/1999/xlink" width="32.58037" height="28.80963" viewBox="0,0,32.58037,28.80963"><g transform="translate(-219.1595,-166.33356)"><g data-paper-data="{&quot;isPaintingLayer&quot;:true}" fill-rule="nonzero" stroke-linejoin="miter" stroke-miterlimit="10" stroke-dasharray="" stroke-dashoffset="0" style="mix-blend-mode: normal"><g data-paper-data="{&quot;index&quot;:null}" stroke="#000000" stroke-width="0" stroke-linecap="butt"><path d="M230.55551,167.53341c1.11106,0.84111 1.3299,2.42367 0.48879,3.53473c-0.84111,1.11106 -2.42367,1.3299 -3.53473,0.48879c-1.11106,-0.84111 -3.56924,-3.61257 -2.72813,-4.72363c0.84111,-1.11106 4.66301,-0.141 5.77407,0.70011z" fill="#ff0000"/><path d="M230.69139,168.37207c0.74881,0.79271 0.71323,2.04236 -0.07948,2.79117c-0.79271,0.74881 -2.04236,0.71323 -2.79117,-0.07948c-0.74881,-0.79271 -2.28788,-3.24926 -1.49517,-3.99807c0.79271,-0.74881 3.61701,0.49367 4.36582,1.28638z" fill="#ff8800"/><path d="M227.06756,168.44564c0.45055,-0.62745 2.58201,-0.14338 3.20947,0.30717c0.62746,0.45055 0.77087,1.32446 0.32032,1.95192c-0.45055,0.62746 -1.32445,0.77087 -1.95191,0.32032c-0.62746,-0.45055 -2.02843,-1.95194 -1.57788,-2.5794z" fill="#fff700"/></g><g data-paper-data="{&quot;index&quot;:null}" stroke="#000000" stroke-width="0" stroke-linecap="butt"><path d="M223.64352,178.73238c1.37433,-0.23059 2.67537,0.69659 2.90596,2.07091c0.23059,1.37432 -0.69659,2.67536 -2.07091,2.90595c-1.37432,0.23059 -5.07708,0.11574 -5.30767,-1.25858c-0.23059,-1.37432 3.0983,-3.48769 4.47262,-3.71828z" fill="#ff0000"/><path d="M220.41438,181.50104c-0.00039,-1.09046 2.84183,-2.29139 3.93229,-2.29178c1.09045,-0.00039 1.97477,0.88329 1.97516,1.97375c0.00039,1.09046 -0.88329,1.97477 -1.97375,1.97516c-1.09046,0.00039 -3.93332,-0.56667 -3.93371,-1.65713z" fill="#ff8800"/><path d="M224.33911,179.77193c0.75835,-0.147 1.49229,0.34858 1.6393,1.10693c0.14701,0.75834 -0.34857,1.49228 -1.10692,1.63929c-0.75835,0.147 -2.81182,0.13518 -2.95883,-0.62317c-0.14701,-0.75834 1.6681,-1.97604 2.42645,-2.12305z" fill="#fff700"/></g><path d="M232.94706,194.48875c0,0 -1.85604,-1.37097 -2.62753,-2.16369c-0.76395,-0.78496 -1.97903,-2.56959 -1.97903,-2.56959l2.57424,-2.50531l4.60656,4.73328z" data-paper-data="{&quot;index&quot;:null}" fill="#00fe22" stroke="#000000" stroke-width="1" stroke-linecap="butt"/><path d="M235.85154,171.00114l-4.60655,4.73328l-2.57424,-2.50532c0,0 1.05365,-1.92452 1.81541,-2.70724c0.77357,-0.79486 2.79114,-2.02605 2.79114,-2.02605z" data-paper-data="{&quot;index&quot;:null}" fill="#00fe22" stroke="#000000" stroke-width="1" stroke-linecap="butt"/><path d="M229.75246,177.98416v6.60487h-3.59212c0,0 -0.22621,-2.16232 -0.22621,-3.28436c0,-1.07781 0.22621,-3.32051 0.22621,-3.32051z" data-paper-data="{&quot;index&quot;:null}" fill="#00fe22" stroke="#000000" stroke-width="1" stroke-linecap="butt"/><path d="M240.00001,170.16914c6.20761,0 11.23986,5.03225 11.23986,11.23986c0,6.20761 -5.03225,11.23986 -11.23986,11.23986c-6.20761,0 -11.23986,-5.03225 -11.23986,-11.23986c0,-6.20761 5.03225,-11.23986 11.23986,-11.23986z" data-paper-data="{&quot;index&quot;:null}" fill="#00f2ff" stroke="#000000" stroke-width="1" stroke-linecap="butt"/><path d="M240.29706,184.70491l-5.33024,-1.73812v-2.20162l-5.33024,-3.47625" data-paper-data="{&quot;index&quot;:null}" fill="none" stroke="#00cfda" stroke-width="1" stroke-linecap="round"/><path d="M243.88919,187.9494c0,0 -0.61417,1.27403 -1.30284,1.94409c-0.73715,0.71723 -3.44803,2.69091 -3.44803,2.69091" data-paper-data="{&quot;index&quot;:null}" fill="none" stroke="#00cfda" stroke-width="1" stroke-linecap="round"/><path d="M250.95755,183.31441l-2.3175,0.57937" data-paper-data="{&quot;index&quot;:null}" fill="none" stroke="#00cfda" stroke-width="1" stroke-linecap="round"/><path d="M243.30981,170.79992c0,0 1.48058,3.18953 1.79905,4.762c0.29819,1.47231 0.05495,4.39212 0.05495,4.39212" data-paper-data="{&quot;index&quot;:null}" fill="none" stroke="#00cfda" stroke-width="1" stroke-linecap="round"/><path d="M233.58343,181.05624c0.28798,0 0.52144,0.23346 0.52144,0.52144c0,0.28798 -0.23346,0.52144 -0.52144,0.52144c-0.28798,0 -0.52144,-0.23346 -0.52144,-0.52144c0,-0.28798 0.23346,-0.52144 0.52144,-0.52144z" data-paper-data="{&quot;index&quot;:null}" fill="#00cfda" stroke="#000000" stroke-width="0" stroke-linecap="butt"/><path d="M236.4383,181.37242c0.28798,0 0.52143,0.23345 0.52143,0.52143c0,0.28798 -0.23345,0.52144 -0.52143,0.52144c-0.28798,0 -0.52144,-0.23346 -0.52144,-0.52144c0,-0.28798 0.23346,-0.52143 0.52144,-0.52143z" data-paper-data="{&quot;index&quot;:null}" fill="#00cfda" stroke="#000000" stroke-width="0" stroke-linecap="butt"/><path d="M240,170.16915c6.2076,0 11.23986,5.03225 11.23986,11.23986c0,6.20761 -5.03225,11.23986 -11.23986,11.23986c-6.20761,0 -11.23986,-5.03225 -11.23986,-11.23986c0,-6.20761 5.03225,-11.23986 11.23986,-11.23986z" data-paper-data="{&quot;index&quot;:null}" fill="none" stroke="#000000" stroke-width="1" stroke-linecap="butt"/><path d="M244.46856,180.18579c2.11186,0 3.82387,1.712 3.82387,3.82387c0,2.11186 -1.712,3.82387 -3.82387,3.82387c-2.11186,0 -3.82387,-1.712 -3.82387,-3.82387c0,-2.11186 1.712,-3.82387 3.82387,-3.82387z" data-paper-data="{&quot;index&quot;:null}" fill="#00fe22" stroke="#000000" stroke-width="1" stroke-linecap="butt"/></g></g></svg>