<svg version="1.1" xmlns="http://www.w3.org/2000/svg" xmlns:xlink="http://www.w3.org/1999/xlink" width="61.63157" height="59.0907" viewBox="0,0,61.63157,59.0907"><g transform="translate(-209.66788,-142.98663)"><g data-paper-data="{&quot;isPaintingLayer&quot;:true}" fill-rule="nonzero" stroke-width="0.5" stroke-linejoin="miter" stroke-miterlimit="10" stroke-dasharray="" stroke-dashoffset="0" style="mix-blend-mode: normal"><path d="M265.22195,188.17857l-39.54288,13.62271l-13.86329,-8.98873l-1.85572,-3.35183l7.25462,-10.95236l5.41232,7.5548l2.61166,-4.57952l7.78966,4.28496l2.07177,-6.09385l4.31429,5.82076l7.09525,-5.66832l7.01545,4.08032l3.75215,-5.34885l7.70614,1.53169z" fill="#080807" stroke="#080807" stroke-linecap="round"/><g><path d="M215.85349,160.06708l1.1549,-8.20514l8.75094,-8.61385l21.31865,2.33877l8.28247,17.62319l15.58556,12.68805l-11.01017,13.28145l-8.66413,-12.99155l-6.32886,4.41941l0.7134,-10.12415l-9.76724,5.55186l-0.25463,-6.61712l-5.87677,0.71189l-0.93092,-6.76898l-8.1404,2.0235l0.27729,-5.43964z" fill="#080807" stroke="#080807" stroke-linecap="round"/><path d="M228.1346,151.8185c1.11511,-2.08282 3.70755,-2.86731 5.79038,-1.7522c2.08282,1.11511 2.86731,3.70755 1.7522,5.79038c-1.11511,2.08282 -3.70755,2.86731 -5.79038,1.7522c-2.08282,-1.11511 -2.86731,-3.70755 -1.7522,-5.79038z" fill="#ffffff" stroke="#000000" stroke-linecap="butt"/></g></g></g></svg>