<svg version="1.1" xmlns="http://www.w3.org/2000/svg" xmlns:xlink="http://www.w3.org/1999/xlink" width="24.418" height="6.21853" viewBox="0,0,24.418,6.21853"><g transform="translate(-227.81826,-185.93638)"><g data-paper-data="{&quot;isPaintingLayer&quot;:true}" fill="#080807" fill-rule="nonzero" stroke="#080807" stroke-width="0.5" stroke-linecap="round" stroke-linejoin="miter" stroke-miterlimit="10" stroke-dasharray="" stroke-dashoffset="0" style="mix-blend-mode: normal"><path d="M228.06827,188.12855c0,0 1.03775,-1.03869 1.46473,-1.39027c0.187,-0.15398 1.18378,-0.1489 2.14231,0.20637c0.74206,0.27503 2.69278,0.71989 3.74385,0.7131c1.09997,-0.0071 4.01153,-1.51288 4.34768,-1.41967c0.17501,0.04853 1.97979,0.46864 3.62559,0.59018c1.43914,0.10628 2.75671,-0.0813 2.75671,-0.0813c0,0 1.90447,-0.56056 2.37646,-0.56056c0.22571,0 1.18912,0.14745 2.04229,0.59143c0.75202,0.39135 1.41838,1.0859 1.41838,1.0859v4.0412h-23.918z"/></g></g></svg>