<svg version="1.1" xmlns="http://www.w3.org/2000/svg" xmlns:xlink="http://www.w3.org/1999/xlink" width="18.87144" height="439.14776" viewBox="0,0,18.87144,439.14776"><defs><linearGradient x1="240" y1="168" x2="240" y2="192" gradientTransform="translate(-467.74001,-372) scale(2,2)" gradientUnits="userSpaceOnUse" id="color-1"><stop offset="0" stop-color="#ff6f00"/><stop offset="1" stop-color="#ff9600"/></linearGradient></defs><g transform="translate(-233.62001,246.06964)"><g data-paper-data="{&quot;isPaintingLayer&quot;:true}" fill-rule="nonzero" stroke-linecap="butt" stroke-linejoin="miter" stroke-miterlimit="10" stroke-dasharray="" stroke-dashoffset="0" style="mix-blend-mode: normal"><path d="M236.52755,-192.90482c0,-7.68001 0,-12.8342 0,-17.37931c0,-3.08657 3.7644,-6.79334 5.05888,-6.79334c1.74305,0 1.57095,0 4.39056,0c2.36735,0 4.26446,3.93991 4.26446,7.15923c0,4.42659 0,8.64808 0,16.28167c0,3.87114 -2.57865,6.59674 -4.4474,6.59674c-1.02892,0 -4.22683,0 -5.67114,0c-2.05546,0 -3.59536,-2.38388 -3.59536,-5.86499z" fill="none" stroke="#ffffff" stroke-width="4.5"/><path d="M239.42165,-219.64699c0,-7.68001 0,-12.83421 0,-17.37931c0,-3.08657 2.2077,-6.79334 2.96688,-6.79334c1.02224,0 0.92131,0 2.57492,0c1.38838,0 2.50096,3.93991 2.50096,7.15923c0,4.42659 0,8.64808 0,16.28167c0,3.87114 -1.5123,6.59675 -2.60826,6.59675c-0.60344,0 -2.47889,0 -3.32594,0c-1.20546,0 -2.10857,-2.38388 -2.10857,-5.86499z" fill="none" stroke="#ffffff" stroke-width="4.5"/><text transform="translate(233.87001,186) scale(0.5,0.5)" font-size="40" xml:space="preserve" fill="url(#color-1)" fill-rule="nonzero" stroke="none" stroke-width="1" stroke-linecap="butt" stroke-linejoin="miter" stroke-miterlimit="10" stroke-dasharray="" stroke-dashoffset="0" font-family="Marker" font-weight="normal" text-anchor="start" style="mix-blend-mode: normal"><tspan x="0" dy="0">9</tspan></text></g></g></svg>