<svg version="1.1" xmlns="http://www.w3.org/2000/svg" xmlns:xlink="http://www.w3.org/1999/xlink" width="59.62153" height="50.0595" viewBox="0,0,59.62153,50.0595"><g transform="translate(-207.16156,-153.647)"><g data-paper-data="{&quot;isPaintingLayer&quot;:true}" fill-rule="nonzero" stroke-width="0.5" stroke-linejoin="miter" stroke-miterlimit="10" stroke-dasharray="" stroke-dashoffset="0" style="mix-blend-mode: normal"><path d="M262.48337,175.63398l-7.70614,1.53169l-3.75215,-5.34885l-7.01545,4.08032l-7.09525,-5.66832l-4.31429,5.82076l-2.07177,-6.09385l-7.78966,4.28496l-2.61166,-4.57952l-5.41232,7.5548l-7.25462,-10.95236l1.85572,-3.35183l13.86329,-8.98873l39.54288,13.62271z" data-paper-data="{&quot;index&quot;:null}" fill="#080807" stroke="#080807" stroke-linecap="round"/><g data-paper-data="{&quot;index&quot;:null}"><path d="M214.26498,179.87822l1.90579,-5.10241l6.66733,5.08992l3.54256,-5.8426l5.11075,2.98722l2.86158,-5.97181l6.75914,8.97419l3.36592,-9.57485l4.05327,6.56937l13.11099,-8.48229l4.83016,16.56171l-19.34268,5.45501l-14.6001,12.8846l-20.49421,-6.31995l-4.6104,-11.38076l2.19863,-7.98901z" fill="#080807" stroke="#080807" stroke-linecap="round"/><path d="M221.52669,185.56572c2.35439,-0.19624 4.42208,1.55328 4.61832,3.90766c0.19624,2.35439 -1.55328,4.42208 -3.90766,4.61832c-2.35439,0.19624 -4.42208,-1.55328 -4.61832,-3.90766c-0.19624,-2.35439 1.55328,-4.42208 3.90766,-4.61832z" fill="#ffffff" stroke="#000000" stroke-linecap="butt"/></g></g></g></svg>