<svg version="1.1" xmlns="http://www.w3.org/2000/svg" xmlns:xlink="http://www.w3.org/1999/xlink" width="20.55771" height="23.4775" viewBox="0,0,20.55771,23.4775"><g transform="translate(-230.88192,-168.32729)"><g data-paper-data="{&quot;isPaintingLayer&quot;:true}" fill-rule="nonzero" stroke="#000000" stroke-width="0.5" stroke-linejoin="miter" stroke-miterlimit="10" stroke-dasharray="" stroke-dashoffset="0" style="mix-blend-mode: normal"><path d="M238.38204,171.22023l2.44522,7.69379l-2.4043,0.76413l-2.4452,-7.69378z" data-paper-data="{&quot;index&quot;:null}" fill="#00cc1b" stroke-linecap="butt"/><path d="M236.22076,182.76494c-0.11908,-1.08243 -0.16004,-3.09014 0.58043,-4.57301c0.32877,-0.65839 1.12664,-1.52479 1.60723,-1.57767c0.54816,-0.06031 1.56442,0.51416 2.08172,1.22836c0.95771,1.32222 1.27917,3.28474 1.39082,4.29959c0.17197,1.56302 -0.9557,2.9695 -2.51872,3.14147c-1.56302,0.17197 -2.9695,-0.9557 -3.14147,-2.51872z" data-paper-data="{&quot;index&quot;:null}" fill="#00bf19" stroke-linecap="butt"/><path d="M239.3319,172.9444l-3.23345,-0.02469l-1.97301,-2.2158l0.01622,-2.12472l8.95418,0.06837l-0.0139,1.82118z" data-paper-data="{&quot;index&quot;:null}" fill="#00b6bf" stroke-linecap="round"/><path d="M250.7407,178.88222l0.43995,12.00709l-17.91683,0.65649l-0.43995,-12.00709z" data-paper-data="{&quot;index&quot;:null}" fill="#00f2ff" stroke-linecap="butt"/><path d="M250.74078,178.89234l0.19826,5.4108l-4.16063,-1.29055l-1.97021,1.2157l-2.77835,0.33421l-2.42225,2.5276l-2.17346,-1.69793l-1.27496,0.16368l-1.79531,-1.50094l-1.36907,0.2523l-0.17534,-4.78543z" data-paper-data="{&quot;index&quot;:null}" fill="#00ff21" stroke-linecap="round"/><path d="M247.36642,184.94216c0.9443,-0.0346 1.73784,0.70286 1.77244,1.64715c0.0346,0.9443 -0.70286,1.73784 -1.64715,1.77244c-0.9443,0.0346 -1.73784,-0.70286 -1.77244,-1.64715c-0.0346,-0.9443 0.70286,-1.73784 1.64715,-1.77244z" data-paper-data="{&quot;index&quot;:null}" fill="#00ff21" stroke-linecap="butt"/><path d="M235.55429,171.11147l4.59418,6.63829l-2.07446,1.43569l-4.59418,-6.63829z" data-paper-data="{&quot;index&quot;:null}" fill="#00ff21" stroke-linecap="butt"/><path d="M234.80907,181.2378c0.30115,-1.04648 1.02618,-2.91915 2.27458,-4.00943c0.55428,-0.48409 1.62153,-0.98233 2.08617,-0.84861c0.52996,0.15251 1.2517,1.07006 1.4588,1.92724c0.38343,1.58697 -0.06496,3.52442 -0.34731,4.50558c-0.43487,1.51113 -2.0124,2.38361 -3.52352,1.94874c-1.51112,-0.43487 -2.38361,-2.0124 -1.94874,-3.52352z" data-paper-data="{&quot;index&quot;:null}" fill="#00f2ff" stroke-linecap="butt"/><path d="M237.174,175.03223l-3.16548,0.65998l-2.39715,-1.7482l-0.43368,-2.08005l8.76595,-1.82765l0.37173,1.78291z" data-paper-data="{&quot;index&quot;:null}" fill="#00f2ff" stroke-linecap="round"/></g></g></svg>