<svg version="1.1" xmlns="http://www.w3.org/2000/svg" xmlns:xlink="http://www.w3.org/1999/xlink" width="26.58977" height="22.31364" viewBox="0,0,26.58977,22.31364"><g transform="translate(-226.48964,-168.34932)"><g data-paper-data="{&quot;isPaintingLayer&quot;:true}" fill-rule="nonzero" stroke="#000000" stroke-width="0.5" stroke-linejoin="miter" stroke-miterlimit="10" stroke-dasharray="" stroke-dashoffset="0" style="mix-blend-mode: normal"><path d="M246.07647,186.74375l-6.394,-4.84235l1.51323,-1.99811l6.39401,4.84236z" fill="#00bf19" stroke-linecap="butt"/><path d="M236.97123,179.37494c-0.76281,-1.36338 -0.27596,-3.08699 1.08743,-3.8498c1.36338,-0.76281 3.08699,-0.27596 3.8498,1.08743c0.49529,0.88523 1.3677,2.65796 1.35606,4.27998c-0.00628,0.87611 -0.49673,1.92715 -0.97488,2.19466c-0.41921,0.23455 -1.56444,-0.0058 -2.21025,-0.3486c-1.45452,-0.77207 -2.57989,-2.4195 -3.10816,-3.36366z" fill="#00b6bf" stroke-linecap="butt"/><path d="M252.09539,185.40892l0.66005,1.68475l-8.28339,3.24531l-0.77007,-1.96555l1.04317,-2.75693l2.99123,-1.17191z" fill="#00b6bf" stroke-linecap="round"/><path d="M233.22172,180.5376l0.4371,-11.9293l17.80076,0.65223l-0.4371,11.9293z" fill="#00f2ff" stroke-linecap="butt"/><path d="M233.21735,180.55443l0.1742,-4.75442l1.36019,0.25066l1.78367,-1.49122l1.2667,0.16261l2.15938,-1.68692l2.40656,2.51122l2.76035,0.33204l1.95744,1.20782l4.13367,-1.28219l-0.19698,5.37574z" fill="#00ff21" stroke-linecap="round"/><path d="M246.03359,173.4082c0.03437,-0.93818 0.82277,-1.67084 1.76096,-1.63648c0.93818,0.03437 1.67084,0.82277 1.63648,1.76095c-0.03437,0.93818 -0.82277,1.67084 -1.76096,1.63648c-0.93818,-0.03437 -1.67084,-0.82277 -1.63648,-1.76096z" fill="#00ff21" stroke-linecap="butt"/><path d="M228.33242,182.86678l7.50145,-2.83898l0.88717,2.34421l-7.50145,2.83898z" fill="#00ff21" stroke-linecap="butt"/><path d="M231.69184,189.44644l-1.68912,0.64883l-3.19006,-8.30483l1.97064,-0.75697l2.74991,1.06151l1.15197,2.99896z" fill="#00f2ff" stroke-linecap="round"/><path d="M235.03616,176.66223c0.4123,-1.39353 1.87622,-2.18899 3.26975,-1.77669c1.39353,0.4123 2.18899,1.87622 1.77669,3.26975c-0.2677,0.90481 -0.88137,2.63724 -1.96894,3.68313c-0.58743,0.56493 -1.60584,0.92108 -2.09458,0.77649c-0.42848,-0.12677 -1.01236,-1.04546 -1.20362,-1.69815c-0.43075,-1.47001 -0.06482,-3.28948 0.2207,-4.25453z" fill="#00f2ff" stroke-linecap="butt"/></g></g></svg>