<svg version="1.1" xmlns="http://www.w3.org/2000/svg" xmlns:xlink="http://www.w3.org/1999/xlink" width="50.88784" height="50.88784" viewBox="0,0,50.88784,50.88784"><defs><radialGradient cx="240" cy="180" r="25.44392" gradientUnits="userSpaceOnUse" id="color-1"><stop offset="0" stop-color="#ffffff"/><stop offset="1" stop-color="#ffffff" stop-opacity="0"/></radialGradient><radialGradient cx="240" cy="180" r="25.44392" gradientUnits="userSpaceOnUse" id="color-2"><stop offset="0" stop-color="#ffffff"/><stop offset="1" stop-color="#ffffff" stop-opacity="0"/></radialGradient><radialGradient cx="240" cy="180" r="25.44392" gradientUnits="userSpaceOnUse" id="color-3"><stop offset="0" stop-color="#ffffff"/><stop offset="1" stop-color="#ffffff" stop-opacity="0"/></radialGradient><radialGradient cx="240" cy="180" r="25.44392" gradientUnits="userSpaceOnUse" id="color-4"><stop offset="0" stop-color="#ffffff"/><stop offset="1" stop-color="#ffffff" stop-opacity="0"/></radialGradient></defs><g transform="translate(-214.55608,-154.55608)"><g data-paper-data="{&quot;isPaintingLayer&quot;:true}" fill-rule="nonzero" stroke="none" stroke-width="0" stroke-linecap="butt" stroke-linejoin="miter" stroke-miterlimit="10" stroke-dasharray="" stroke-dashoffset="0" style="mix-blend-mode: normal"><path d="M214.55608,180c0,-14.05229 11.39163,-25.44392 25.44392,-25.44392c14.05229,0 25.44392,11.39163 25.44392,25.44392c0,14.05229 -11.39163,25.44392 -25.44392,25.44392c-14.05229,0 -25.44392,-11.39163 -25.44392,-25.44392z" fill="url(#color-1)"/><path d="M214.55608,180c0,-14.05229 11.39163,-25.44392 25.44392,-25.44392c14.05229,0 25.44392,11.39163 25.44392,25.44392c0,14.05229 -11.39163,25.44392 -25.44392,25.44392c-14.05229,0 -25.44392,-11.39163 -25.44392,-25.44392z" fill="url(#color-2)"/><path d="M214.55608,180c0,-14.05229 11.39163,-25.44392 25.44392,-25.44392c14.05229,0 25.44392,11.39163 25.44392,25.44392c0,14.05229 -11.39163,25.44392 -25.44392,25.44392c-14.05229,0 -25.44392,-11.39163 -25.44392,-25.44392z" fill="url(#color-3)"/><path d="M214.55608,180c0,-14.05229 11.39163,-25.44392 25.44392,-25.44392c14.05229,0 25.44392,11.39163 25.44392,25.44392c0,14.05229 -11.39163,25.44392 -25.44392,25.44392c-14.05229,0 -25.44392,-11.39163 -25.44392,-25.44392z" fill="url(#color-4)"/></g></g></svg>