<svg version="1.1" xmlns="http://www.w3.org/2000/svg" xmlns:xlink="http://www.w3.org/1999/xlink" width="26.58977" height="22.31364" viewBox="0,0,26.58977,22.31364"><g transform="translate(-226.48964,-168.28433)"><g data-paper-data="{&quot;isPaintingLayer&quot;:true}" fill-rule="nonzero" stroke="#000000" stroke-width="0.5" stroke-linejoin="miter" stroke-miterlimit="10" stroke-dasharray="" stroke-dashoffset="0" style="mix-blend-mode: normal"><path d="M247.58971,174.20163l-6.39401,4.84236l-1.51323,-1.99811l6.394,-4.84235z" data-paper-data="{&quot;index&quot;:null}" fill="#00bf19" stroke-linecap="butt"/><path d="M236.97123,179.57233c0.52827,-0.94416 1.65364,-2.59159 3.10816,-3.36366c0.64581,-0.3428 1.79104,-0.58315 2.21025,-0.3486c0.47815,0.26751 0.9686,1.31855 0.97488,2.19466c0.01164,1.62202 -0.86077,3.39475 -1.35606,4.27998c-0.76281,1.36339 -2.48642,1.85024 -3.8498,1.08743c-1.36339,-0.76281 -1.85024,-2.48642 -1.08743,-3.8498z" data-paper-data="{&quot;index&quot;:null}" fill="#00b6bf" stroke-linecap="butt"/><path d="M247.73638,174.50269l-2.99123,-1.17191l-1.04317,-2.75693l0.77007,-1.96555l8.28339,3.24531l-0.66005,1.68475z" data-paper-data="{&quot;index&quot;:null}" fill="#00b6bf" stroke-linecap="round"/><path d="M251.02248,177.75745l0.4371,11.9293l-17.80076,0.65223l-0.4371,-11.9293z" data-paper-data="{&quot;index&quot;:null}" fill="#00f2ff" stroke-linecap="butt"/><path d="M251.02253,177.76751l0.19698,5.37574l-4.13367,-1.28219l-1.95744,1.20782l-2.76035,0.33204l-2.40656,2.51122l-2.15938,-1.68692l-1.2667,0.16261l-1.78367,-1.49122l-1.36019,0.25066l-0.1742,-4.75442z" data-paper-data="{&quot;index&quot;:null}" fill="#00ff21" stroke-linecap="round"/><path d="M246.03359,185.53909c-0.03436,-0.93819 0.6983,-1.72659 1.63648,-1.76096c0.93819,-0.03436 1.72659,0.6983 1.76096,1.63648c0.03436,0.93818 -0.6983,1.72658 -1.63648,1.76095c-0.93819,0.03436 -1.72659,-0.6983 -1.76096,-1.63648z" data-paper-data="{&quot;index&quot;:null}" fill="#00ff21" stroke-linecap="butt"/><path d="M229.21959,173.73629l7.50145,2.83898l-0.88717,2.34421l-7.50145,-2.83898z" data-paper-data="{&quot;index&quot;:null}" fill="#00ff21" stroke-linecap="butt"/><path d="M232.68518,173.85334l-1.15197,2.99896l-2.74991,1.06151l-1.97064,-0.75697l3.19006,-8.30483l1.68912,0.64883z" data-paper-data="{&quot;index&quot;:null}" fill="#00f2ff" stroke-linecap="round"/><path d="M234.81546,178.03052c0.19126,-0.65269 0.77514,-1.57138 1.20362,-1.69815c0.48874,-0.14459 1.50715,0.21156 2.09458,0.77649c1.08757,1.04589 1.70124,2.77832 1.96894,3.68313c0.4123,1.39353 -0.38316,2.85745 -1.77669,3.26975c-1.39353,0.4123 -2.85745,-0.38316 -3.26975,-1.77669c-0.28552,-0.96505 -0.65145,-2.78452 -0.2207,-4.25453z" data-paper-data="{&quot;index&quot;:null}" fill="#00f2ff" stroke-linecap="butt"/></g></g></svg>