<svg version="1.1" xmlns="http://www.w3.org/2000/svg" xmlns:xlink="http://www.w3.org/1999/xlink" width="46.10853" height="40.74635" viewBox="0,0,46.10853,40.74635"><g transform="translate(-228.60168,-152.00552)"><g data-paper-data="{&quot;isPaintingLayer&quot;:true}" fill-rule="nonzero" stroke-linejoin="miter" stroke-miterlimit="10" stroke-dasharray="" stroke-dashoffset="0" style="mix-blend-mode: normal"><path d="M228.85737,181.03806l0.89664,-6.80491l1.8018,-1.89642l6.51355,-2.00832l7.19727,0.86241l6.17163,3.47993l3.91478,-1.93791l1.77964,-4.88901l-0.15548,-4.93159l-1.60737,-2.93947l6.47252,-6.19378l6.89769,-1.52026l5.52989,0.64971l-1.54566,2.25407l-0.84778,2.53343l1.03315,5.03891l-1.45576,2.16804l-1.49447,3.92725l0.38754,2.38461l2.2975,3.57068l-2.42526,2.23471l-0.83035,1.74179l-0.50562,2.98097l0.65723,2.12654l-3.23131,-1.12715l-3.95047,-0.43895l-5.36171,-0.29401l-4.33716,1.13659l-0.86907,3.50099l-2.9898,3.89434l-3.01776,1.16563l-3.88962,0.79443l-5.1017,-0.11227l-3.56379,-2.01449l-1.60349,-3.11539l2.36332,0.58002l1.36974,-2.25793l3.40723,1.13102l1.63362,-2.25212l2.6001,1.81728l1.46931,-2.78376l2.79537,0.94155l2.60312,-2.3188l-1.47791,-0.82456l-1.622,1.72436l-2.95388,-1.73706l-1.57663,3.66143l-2.14287,-2.59924l-0.84004,2.18158l-3.76487,-0.87488l-2.42913,2.41062l-3.04184,-1.739z" fill="#000000" stroke="#000000" stroke-width="0.5" stroke-linecap="round"/><path d="M232.08913,178.59976c0,-1.38484 1.12264,-2.50748 2.50748,-2.50748c1.38484,0 2.50748,1.12264 2.50748,2.50748c0,1.38484 -1.12264,2.50748 -2.50748,2.50748c-1.38484,0 -2.50748,-1.12264 -2.50748,-2.50748z" fill="#ffffff" stroke="#080807" stroke-width="0" stroke-linecap="butt"/></g></g></svg>