<svg version="1.1" xmlns="http://www.w3.org/2000/svg" xmlns:xlink="http://www.w3.org/1999/xlink" width="40.81546" height="82.4441" viewBox="0,0,40.81546,82.4441"><g transform="translate(-220.9591,-139.47412)"><g data-paper-data="{&quot;isPaintingLayer&quot;:true}" fill-rule="nonzero" stroke-width="0" stroke-linejoin="miter" stroke-miterlimit="10" stroke-dasharray="" stroke-dashoffset="0" style="mix-blend-mode: normal"><g fill="#000000" stroke="#f5f5ff" stroke-linecap="round"><path d="M230.74041,151.86999l1.68729,-2.84523l3.54,-0.26467l4.63177,4.53252l-2.08429,2.54747l-3.87084,0.4301l-2.24972,5.02878l3.17607,0.62859l-1.72037,7.51009l-3.47383,0.19851l-0.39701,6.6499h3.10991l0.03308,7.77477l-2.81215,0.09925l0.36392,6.98074l2.94448,0.16542l0.99253,3.17607v3.47383l-2.54747,0.09925l1.8858,5.92205l3.20916,0.13234l2.97757,3.67234l2.97757,0.06616l1.62112,-1.0256l2.63964,1.78653l-1.9853,2.77944l2.25001,0.36397l-3.30885,2.74635l-4.10297,0.03309l-3.17649,-2.94487h-3.80517l-1.95222,-2.94487l2.35818,-0.13234l0.16542,-1.29028l-1.62112,-2.67981l-2.9114,0.06617l-2.64673,-6.61682l3.34149,-0.29776l-0.26467,-2.81215l-1.25719,-3.30841l-3.01065,-0.03308l-0.46318,-7.31159l3.14299,-0.26468l-0.06617,-7.44392h-2.94449l0.06617,-7.44393l3.47383,0.36392l1.38953,-7.37775l-3.47383,-0.39701l2.21663,-5.59122l3.90392,-0.49626l1.12486,-3.80468z"/><path d="M251.97474,209.48961l-1.68729,2.84524l-3.54,0.26467l-4.63177,-4.53252l2.0843,-2.54747l3.87084,-0.43009l2.24972,-5.02878l-3.17607,-0.6286l1.72037,-7.51009l3.47383,-0.19851l0.39701,-6.6499h-3.1099l-0.03308,-7.77477l2.81215,-0.09925l-0.36392,-6.98074l-2.94449,-0.16542l-0.99253,-3.17607v-3.47383l2.54747,-0.09925l-1.8858,-5.92205l-3.20915,-0.13234l-2.97757,-3.67234l-2.97757,-0.06616l-4.52547,-3.90434l3.30885,-2.74634l4.10297,-0.03309l3.17649,2.94487h3.80518l1.95222,2.94487l-2.35818,0.13234l-0.16542,1.29028l1.62112,2.67982l2.9114,-0.06617l2.64673,6.61682l-3.34149,0.29776l0.26467,2.81215l1.25719,3.30841l3.01066,0.03308l0.46318,7.31158l-3.14299,0.26468l0.06616,7.44392h2.94449l-0.06617,7.44393l-3.47383,-0.36392l-1.38953,7.37776l3.47383,0.397l-2.21664,5.59122l-3.90392,0.49626l-1.12486,3.80468z" data-paper-data="{&quot;index&quot;:null}"/><path d="M256.01791,209.46629l-1.68729,2.84524l-3.54,0.26467l-4.63177,-4.53252l2.08429,-2.54748l3.87084,-0.43009l2.24972,-5.02878l-3.17607,-0.62859l1.72038,-7.51009l3.47383,-0.19851l0.39701,-6.6499h-3.1099l-0.03308,-7.77477l2.81215,-0.09925l-0.36392,-6.98074l-2.94448,-0.16542l-0.99253,-3.17607v-3.47383l2.54747,-0.09925l-1.88579,-5.92205l-3.20916,-0.13234l-2.97757,-3.67234l-2.97757,-0.06616l-4.52547,-3.90434l3.30885,-2.74635l4.10297,-0.03309l3.1765,2.94487h3.80517l1.95222,2.94487l-2.35818,0.13234l-0.16542,1.29028l1.62112,2.67981l2.9114,-0.06617l2.64673,6.61682l-3.3415,0.29776l0.26467,2.81215l1.25719,3.30841l3.01066,0.03308l0.46318,7.31159l-3.14299,0.26468l0.06616,7.44392h2.94449l-0.06617,7.44393l-3.47383,-0.36392l-1.38954,7.37775l3.47383,0.39701l-2.21663,5.59122l-3.90392,0.49626l-1.12486,3.80467z" data-paper-data="{&quot;index&quot;:null}"/></g><path d="M235.6869,153.6008l-1.54292,-4.25473c0,0 2.04409,-0.45046 2.85308,-0.4965c1.04627,-0.05955 3.41212,2.75257 3.41212,3.67586c0,0.58967 -0.8416,1.44941 -0.8416,1.44941z" fill="#000000" stroke="none" stroke-linecap="butt"/><g fill="#ff74ff"><path d="M226.71572,151.65204l1.68729,-2.84523l3.54,-0.26467l4.63177,4.53252l-2.0843,2.54748l-3.87084,0.43009l-2.24972,5.02878l3.17607,0.6286l-1.72037,7.51009l-3.47383,0.19851l-0.39701,6.6499h3.10991l0.03308,7.77477l-2.81215,0.09925l0.36392,6.98074l2.94448,0.16542l0.99253,3.17607v3.47383l-2.54747,0.09925l1.8858,5.92205l3.20916,0.13234l2.97757,3.67234l2.97757,0.06616l1.62112,-1.0256l2.63964,1.78653l-1.9853,2.77944l2.25001,0.36397l-3.30885,2.74635l-4.10297,0.03309l-3.17649,-2.94487h-3.80517l-1.95222,-2.94487l2.35818,-0.13234l0.16542,-1.29028l-1.62112,-2.67981l-2.9114,0.06617l-2.64673,-6.61682l3.34149,-0.29776l-0.26467,-2.81215l-1.25719,-3.30841l-3.01065,-0.03308l-0.46318,-7.31159l3.14299,-0.26468l-0.06617,-7.44392h-2.94449l0.06617,-7.44393l3.47383,0.36392l1.38953,-7.37775l-3.47383,-0.39701l2.21663,-5.59121l3.90392,-0.49626l1.12486,-3.80467z" stroke="#f5f5ff" stroke-linecap="round"/><path d="M247.95003,209.27169l-1.68729,2.84523l-3.54,0.26467l-4.63177,-4.53252l2.08429,-2.54747l3.87084,-0.4301l2.24972,-5.02878l-3.17607,-0.62859l1.72037,-7.51009l3.47383,-0.19851l0.39701,-6.6499h-3.10991l-0.03308,-7.77477l2.81215,-0.09925l-0.36392,-6.98074l-2.94448,-0.16542l-0.99253,-3.17607v-3.47383l2.54747,-0.09925l-1.8858,-5.92205l-3.20916,-0.13234l-2.97757,-3.67234l-2.97757,-0.06616l-4.52547,-3.90434l3.30885,-2.74635l4.10297,-0.03309l3.17649,2.94487h3.80517l1.95222,2.94487l-2.35818,0.13234l-0.16542,1.29028l1.62112,2.67981l2.9114,-0.06617l2.64673,6.61682l-3.34149,0.29776l0.26467,2.81215l1.25719,3.30841l3.01065,0.03308l0.46318,7.31159l-3.14299,0.26468l0.06617,7.44392h2.94449l-0.06617,7.44393l-3.47383,-0.36392l-1.38953,7.37775l3.47383,0.39701l-2.21663,5.59122l-3.90392,0.49626l-1.12486,3.80468z" data-paper-data="{&quot;index&quot;:null}" stroke="#f5f5ff" stroke-linecap="round"/><path d="M231.6622,153.38288l-1.54292,-4.25472c0,0 2.04409,-0.45046 2.85308,-0.4965c1.04627,-0.05954 3.41212,2.75257 3.41212,3.67585c0,0.58967 -0.84159,1.44941 -0.84159,1.44941z" stroke="none" stroke-linecap="butt"/><path d="M238.7237,212.05213l-1.48988,-4.10847c0,0 1.97383,-0.43498 2.75501,-0.47943c1.0103,-0.0575 3.29482,2.65795 3.29482,3.5495c0,0.5694 -0.81267,1.39959 -0.81267,1.39959z" stroke="none" stroke-linecap="butt"/></g><path d="M236.14057,143.18719c0,-2.05067 1.6624,-3.71307 3.71307,-3.71307c2.05067,0 3.71307,1.6624 3.71307,3.71307c0,2.05067 -1.6624,3.71307 -3.71307,3.71307c-2.05067,0 -3.71307,-1.6624 -3.71307,-3.71307z" fill="#ff74ff" stroke="#ffffff" stroke-linecap="butt"/><path d="M236.73384,218.20515c0,-2.05068 1.6624,-3.71308 3.71308,-3.71308c2.05068,0 3.71307,1.6624 3.71307,3.71308c0,2.05068 -1.6624,3.71307 -3.71307,3.71307c-2.05068,0 -3.71308,-1.66239 -3.71308,-3.71307z" fill="#ff74ff" stroke="#ffffff" stroke-linecap="butt"/></g></g></svg>