<svg version="1.1" xmlns="http://www.w3.org/2000/svg" xmlns:xlink="http://www.w3.org/1999/xlink" width="26.24215" height="12.46708" viewBox="0,0,26.24215,12.46708"><g transform="translate(-227.45161,-167.89957)"><g data-paper-data="{&quot;isPaintingLayer&quot;:true}" fill-rule="nonzero" stroke-linecap="round" stroke-linejoin="miter" stroke-miterlimit="10" stroke-dasharray="" stroke-dashoffset="0" style="mix-blend-mode: normal"><g data-paper-data="{&quot;index&quot;:null}" fill="#2f2f2f" stroke="#2f2f2f" stroke-width="0.5"><path d="M240.73398,172.75464l2.74304,5.86081c0,0 -3.63067,1.44082 -3.85206,1.50121c-0.67583,0.18436 -3.61931,-2.17875 -3.95963,-2.37066c-0.58855,-0.3319 -4.55109,-1.74418 -4.71371,-1.70977c-0.13159,0.02785 -1.27019,-0.67321 -1.87071,-1.74358c-0.57728,-1.02895 -0.61985,-2.42833 -0.61985,-2.42833v-2.34516z"/></g><g data-paper-data="{&quot;index&quot;:null}" fill="#2f2f2f" stroke="#2f2f2f" stroke-width="0.5"><path d="M252.74078,169.67606v0.26045c0,0 0.00988,2.08744 -0.43093,3.77855c-0.38872,1.4913 -2.32271,2.17451 -2.44365,2.14891c-0.16262,-0.03441 -2.91822,1.10356 -3.50677,1.43546c-0.34032,0.19191 -3.77755,2.22586 -4.45338,2.0415c-0.22138,-0.06039 -3.96177,-3.25675 -3.96177,-3.25675l2.52359,-4.10527z"/></g><path d="M252.74846,168.53949l0.05486,0.43242c0,0 -0.38311,2.48116 -1.97365,4.14817c-1.07649,1.12824 -3.38988,1.70518 -3.88977,1.57161c-0.42262,-0.11293 -3.98516,1.64066 -4.2551,1.64066c-0.38452,0 -1.77014,-0.30879 -2.93485,-0.06612c-0.67348,0.14033 -1.15906,0.67141 -2.4965,0.53661c-0.43809,-0.04416 -3.94762,-2.73716 -4.9959,-3.30157c-0.34477,-0.18562 -1.46433,0.94271 -1.80532,0.74897c-1.32151,-0.75085 -1.99117,-4.70419 -1.99117,-4.70419v-0.9674z" data-paper-data="{&quot;index&quot;:null}" fill="#000000" stroke="#000000" stroke-width="0.5"/><path d="M252.94376,168.64958h-24.74215" data-paper-data="{&quot;index&quot;:null}" fill="none" stroke="#fff7f7" stroke-width="1.5"/></g></g></svg>