<svg version="1.1" xmlns="http://www.w3.org/2000/svg" xmlns:xlink="http://www.w3.org/1999/xlink" width="26.5369" height="23.59601" viewBox="0,0,26.5369,23.59601"><g transform="translate(-226.3401,-168.55892)"><g data-paper-data="{&quot;isPaintingLayer&quot;:true}" fill-rule="nonzero" stroke-linecap="round" stroke-linejoin="miter" stroke-miterlimit="10" stroke-dasharray="" stroke-dashoffset="0" style="mix-blend-mode: normal"><path d="M228.0683,188.6702c0,0 1.03775,-0.88971 1.46473,-1.19086c0.187,-0.13189 1.18378,-0.12754 2.14231,0.17677c0.74206,0.23558 2.69278,0.61664 3.74385,0.61082c1.09997,-0.00608 4.01153,-1.29589 4.34768,-1.21605c0.17501,0.04157 1.97979,0.40142 3.62559,0.50553c1.43914,0.09104 2.75671,-0.06964 2.75671,-0.06964c0,0 1.90447,-0.48016 2.37646,-0.48016c0.22571,0 1.18912,0.1263 2.04229,0.5066c0.75202,0.33522 1.41838,0.93015 1.41838,0.93015v3.46157h-23.918z" fill="#080807" stroke="#080807" stroke-width="0.5"/><path d="M239.7272,185.92176l-7.14327,-1.5048l8.23826,-1.28033" data-paper-data="{&quot;index&quot;:null}" fill="#000000" stroke="#080807" stroke-width="0"/><path d="M235.92877,183.6462l-3.54107,0.60671l-0.53595,-6.81579z" data-paper-data="{&quot;index&quot;:null}" fill="#000000" stroke="#080807" stroke-width="0"/><path d="M236.78312,175.72575l-3.60089,3.19046l-1.18251,-1.85545z" data-paper-data="{&quot;index&quot;:null}" fill="#000000" stroke="#080807" stroke-width="0"/><path d="M235.50026,177.22029l1.50868,-1.40576l2.1527,3.36671z" data-paper-data="{&quot;index&quot;:null}" fill="#000000" stroke="#080807" stroke-width="0"/><path d="M237.35509,178.47098l1.79306,0.96568l-1.83164,2.66932z" data-paper-data="{&quot;index&quot;:null}" fill="#000000" stroke="#080807" stroke-width="0"/><path d="M234.36737,177.70864l1.54554,-8.19265l1.27347,7.18812" data-paper-data="{&quot;index&quot;:null}" fill="#000000" stroke="#080807" stroke-width="0"/><path d="M228.96033,168.55892l6.79494,0.75564l-0.72068,3.51964z" data-paper-data="{&quot;index&quot;:null}" fill="#000000" stroke="#080807" stroke-width="0"/><path d="M228.57938,168.69467l1.81632,1.24178l-3.30501,3.49605z" data-paper-data="{&quot;index&quot;:null}" fill="#000000" stroke="#080807" stroke-width="0"/><path d="M230.46763,175.92131l-3.29548,-2.26024l1.45371,-1.46253z" data-paper-data="{&quot;index&quot;:null}" fill="#000000" stroke="#080807" stroke-width="0"/><path d="M233.4504,174.17151l-2.72704,1.74454l-0.90731,-1.82329z" data-paper-data="{&quot;index&quot;:null}" fill="#000000" stroke="#080807" stroke-width="0"/><path d="M239.19845,187.1468l2.18504,-6.96537l0.48182,8.32323" data-paper-data="{&quot;index&quot;:null}" fill="#000000" stroke="#080807" stroke-width="0"/><path d="M241.82889,183.58491l-0.26322,-3.58301l6.83574,0.12225z" data-paper-data="{&quot;index&quot;:null}" fill="#000000" stroke="#080807" stroke-width="0"/><path d="M249.63041,185.19729l-2.82923,-3.89113l1.96061,-0.99852z" data-paper-data="{&quot;index&quot;:null}" fill="#000000" stroke="#080807" stroke-width="0"/><path d="M248.26622,183.7766l1.25409,1.63693l-3.5582,1.81882z" data-paper-data="{&quot;index&quot;:null}" fill="#000000" stroke="#080807" stroke-width="0"/><path d="M246.84289,185.5025l-1.13371,1.69183l-2.48072,-2.07995z" data-paper-data="{&quot;index&quot;:null}" fill="#000000" stroke="#080807" stroke-width="0"/><path d="M242.16462,180.51205l-0.87315,-7.24765l3.86248,7.38847" data-paper-data="{&quot;index&quot;:null}" fill="#000000" stroke="#080807" stroke-width="0"/><path d="M243.09729,176.18349l-1.7136,-3.15766l6.28107,-2.70006z" data-paper-data="{&quot;index&quot;:null}" fill="#000000" stroke="#080807" stroke-width="0"/><path d="M250.87156,174.44446l-4.17925,-2.38313l1.37642,-1.71654z" data-paper-data="{&quot;index&quot;:null}" fill="#000000" stroke="#080807" stroke-width="0"/><path d="M249.04377,173.71058l1.81637,0.97626l-2.49524,3.12133z" data-paper-data="{&quot;index&quot;:null}" fill="#000000" stroke="#080807" stroke-width="0"/><path d="M248.45625,175.86915l-0.33754,2.0084l-3.11666,-0.87558z" data-paper-data="{&quot;index&quot;:null}" fill="#000000" stroke="#080807" stroke-width="0"/><path d="M248.98908,187.47492l3.125,-4.375l-1.625,4.875" data-paper-data="{&quot;index&quot;:null}" fill="#000000" stroke="#080807" stroke-width="0.5"/><path d="M235.73908,189.72492l0.125,-8.375l1.875,6.75" data-paper-data="{&quot;index&quot;:null}" fill="#000000" stroke="#080807" stroke-width="0.5"/><path d="M230.61408,188.34992l-3.125,-3.5l4.125,2.25" data-paper-data="{&quot;index&quot;:null}" fill="#000000" stroke="#080807" stroke-width="0.5"/><path d="M247.34949,187.89941l2.01459,-2.82043l-1.04759,3.14277" data-paper-data="{&quot;index&quot;:null}" fill="#000000" stroke="#080807" stroke-width="0.5"/><path d="M246.98103,188.23696l-1.82142,-3.51174l2.95453,3.67849" data-paper-data="{&quot;index&quot;:null}" fill="#000000" stroke="#080807" stroke-width="0.5"/><path d="M240.15416,188.79677l3.04475,-4.45942l-1.39147,4.29659" data-paper-data="{&quot;index&quot;:null}" fill="#000000" stroke="#080807" stroke-width="0.5"/><path d="M231.50532,188.1174l0.17094,-3.02001l0.85472,2.90605" data-paper-data="{&quot;index&quot;:null}" fill="#000000" stroke="#080807" stroke-width="0.5"/></g></g></svg>