<svg version="1.1" xmlns="http://www.w3.org/2000/svg" xmlns:xlink="http://www.w3.org/1999/xlink" width="39.30708" height="58.47773" viewBox="0,0,39.30708,58.47773"><g transform="translate(-220.34013,-150.7685)"><g data-paper-data="{&quot;isPaintingLayer&quot;:true}" fill-rule="nonzero" stroke-linecap="butt" stroke-linejoin="miter" stroke-miterlimit="10" stroke-dasharray="" stroke-dashoffset="0" style="mix-blend-mode: normal"><g><path d="M222.19317,155.27983l9.17223,-3.53509l10.06277,28.14729l-9.17224,3.5351z" data-paper-data="{&quot;index&quot;:null}" fill="#d6ffdc" stroke="#d6ffdc" stroke-width="1.5"/><path d="M232.23063,176.09789l9.05857,3.83809l-10.92526,27.79847l-9.05857,-3.83809z" data-paper-data="{&quot;index&quot;:null}" fill="#d6ffdc" stroke="#d6ffdc" stroke-width="1.5"/><path d="M223.53404,155.78641l7.34407,-2.83049l9.58557,26.81247l-7.34407,2.83049z" data-paper-data="{&quot;index&quot;:null}" fill="#00ff25" stroke="#00d720" stroke-width="1"/><path d="M233.29697,176.77638l7.26327,3.04696l-10.31868,26.51751l-7.26327,-3.04696z" data-paper-data="{&quot;index&quot;:null}" fill="#00f223" stroke="#00d620" stroke-width="1"/><path d="M232.46525,179.99657l-1.38772,-4.67643l7.05216,-0.75926l2.07846,5.49118z" data-paper-data="{&quot;index&quot;:null}" fill="#00ff25" stroke="#ffbd00" stroke-width="0"/><path d="M239.45963,155.80064l9.17223,-3.53509l10.06277,28.14729l-9.17224,3.5351z" data-paper-data="{&quot;index&quot;:null}" fill="#d6ffdc" stroke="#d6ffdc" stroke-width="1.5"/><path d="M249.49709,176.6187l9.05857,3.83809l-10.92526,27.79847l-9.05857,-3.83809z" data-paper-data="{&quot;index&quot;:null}" fill="#d6ffdc" stroke="#d6ffdc" stroke-width="1.5"/><path d="M240.8005,156.30722l7.34407,-2.83049l9.58557,26.81247l-7.34407,2.83049z" data-paper-data="{&quot;index&quot;:null}" fill="#00ff25" stroke="#00d720" stroke-width="1"/><path d="M250.56343,177.29719l7.26327,3.04696l-10.31868,26.51751l-7.26327,-3.04696z" data-paper-data="{&quot;index&quot;:null}" fill="#00f223" stroke="#00d620" stroke-width="1"/><path d="M249.73171,180.51738l-1.38772,-4.67643l7.05216,-0.75926l2.07846,5.49118z" data-paper-data="{&quot;index&quot;:null}" fill="#00ff25" stroke="#ffbd00" stroke-width="0"/></g></g></g></svg>