<svg version="1.1" xmlns="http://www.w3.org/2000/svg" xmlns:xlink="http://www.w3.org/1999/xlink" width="16.16696" height="135.97719" viewBox="0,0,16.16696,135.97719"><defs><radialGradient cx="255.44177" cy="213.04891" r="7.7131" gradientUnits="userSpaceOnUse" id="color-1"><stop offset="0" stop-color="#000000"/><stop offset="1" stop-color="#000000" stop-opacity="0"/></radialGradient><radialGradient cx="254.94911" cy="178.25063" r="7.7131" gradientUnits="userSpaceOnUse" id="color-2"><stop offset="0" stop-color="#000000"/><stop offset="1" stop-color="#000000" stop-opacity="0"/></radialGradient><radialGradient cx="254.94911" cy="178.25063" r="7.7131" gradientUnits="userSpaceOnUse" id="color-3"><stop offset="0" stop-color="#000000"/><stop offset="1" stop-color="#000000" stop-opacity="0"/></radialGradient><radialGradient cx="255.33715" cy="195.65522" r="7.71311" gradientUnits="userSpaceOnUse" id="color-4"><stop offset="0" stop-color="#000000"/><stop offset="1" stop-color="#000000" stop-opacity="0"/></radialGradient><radialGradient cx="255.33715" cy="195.65521" r="7.71311" gradientUnits="userSpaceOnUse" id="color-5"><stop offset="0" stop-color="#000000"/><stop offset="1" stop-color="#000000" stop-opacity="0"/></radialGradient><radialGradient cx="254.94911" cy="178.25064" r="7.7131" gradientUnits="userSpaceOnUse" id="color-6"><stop offset="0" stop-color="#000000"/><stop offset="1" stop-color="#000000" stop-opacity="0"/></radialGradient><radialGradient cx="254.94911" cy="178.25063" r="7.7131" gradientUnits="userSpaceOnUse" id="color-7"><stop offset="0" stop-color="#000000"/><stop offset="1" stop-color="#000000" stop-opacity="0"/></radialGradient><radialGradient cx="255.19368" cy="143.93949" r="7.7131" gradientUnits="userSpaceOnUse" id="color-8"><stop offset="0" stop-color="#ffffff"/><stop offset="1" stop-color="#ffffff" stop-opacity="0"/></radialGradient><radialGradient cx="254.70102" cy="109.14122" r="7.7131" gradientUnits="userSpaceOnUse" id="color-9"><stop offset="0" stop-color="#ffffff"/><stop offset="1" stop-color="#ffffff" stop-opacity="0"/></radialGradient><radialGradient cx="254.70102" cy="109.14122" r="7.7131" gradientUnits="userSpaceOnUse" id="color-10"><stop offset="0" stop-color="#ffffff"/><stop offset="1" stop-color="#ffffff" stop-opacity="0"/></radialGradient><radialGradient cx="255.08906" cy="126.5458" r="7.71311" gradientUnits="userSpaceOnUse" id="color-11"><stop offset="0" stop-color="#ffffff"/><stop offset="1" stop-color="#ffffff" stop-opacity="0"/></radialGradient><radialGradient cx="255.08906" cy="126.5458" r="7.71311" gradientUnits="userSpaceOnUse" id="color-12"><stop offset="0" stop-color="#ffffff"/><stop offset="1" stop-color="#ffffff" stop-opacity="0"/></radialGradient><radialGradient cx="254.70102" cy="109.14122" r="7.7131" gradientUnits="userSpaceOnUse" id="color-13"><stop offset="0" stop-color="#ffffff"/><stop offset="1" stop-color="#ffffff" stop-opacity="0"/></radialGradient><radialGradient cx="254.70102" cy="109.14122" r="7.7131" gradientUnits="userSpaceOnUse" id="color-14"><stop offset="0" stop-color="#ffffff"/><stop offset="1" stop-color="#ffffff" stop-opacity="0"/></radialGradient></defs><g transform="translate(-246.98791,-101.42812)"><g data-paper-data="{&quot;isPaintingLayer&quot;:true}" fill-rule="nonzero" stroke-linecap="butt" stroke-linejoin="miter" stroke-miterlimit="10" stroke-dasharray="" stroke-dashoffset="0" style="mix-blend-mode: normal"><path d="M248.01784,148.49143c0,-2.97169 0,-8.45645 0,-10.02716c0,-0.82648 0.98915,-1.70789 1.88825,-1.70789c1.53199,0 6.57527,0 9.55531,0c1.39128,0 2.24057,0.93873 2.24057,2.29772c0,2.99229 0,8.0221 0,9.55531c0,0.87631 -0.80589,1.8311 -2.00463,1.8311c-3.00153,0 -8.466,0 -9.9092,0c-0.65389,0 -1.77029,-0.7801 -1.77029,-1.94907z" fill="#00ff08" stroke="#000000" stroke-width="1"/><path d="M248.01176,165.77191c0,-2.97169 0,-8.45646 0,-10.02716c0,-0.82648 0.98915,-1.70789 1.88825,-1.70789c1.53199,0 6.57527,0 9.5553,0c1.39128,0 2.24058,0.93873 2.24058,2.29773c0,2.99229 0,8.02209 0,9.5553c0,0.87631 -0.8059,1.83111 -2.00463,1.83111c-3.00152,0 -8.466,0 -9.9092,0c-0.65389,0 -1.77029,-0.7801 -1.77029,-1.94907z" fill="#00ff08" stroke="#000000" stroke-width="1"/><path d="M247.89002,113.79048c0,-2.97169 0,-8.45646 0,-10.02716c0,-0.82648 0.98915,-1.70789 1.88825,-1.70789c1.53199,0 6.57527,0 9.5553,0c1.39128,0 2.24058,0.93873 2.24058,2.29773c0,2.99229 0,8.02209 0,9.5553c0,0.87631 -0.8059,1.83111 -2.00463,1.83111c-3.00152,0 -8.466,0 -9.9092,0c-0.65389,0 -1.77029,-0.7801 -1.77029,-1.94907z" fill="#00ff08" stroke="#000000" stroke-width="1"/><path d="M247.88393,131.07096c0,-2.97169 0,-8.45646 0,-10.02716c0,-0.82648 0.98915,-1.70789 1.88825,-1.70789c1.53199,0 6.57527,0 9.5553,0c1.39128,0 2.24058,0.93873 2.24058,2.29773c0,2.99229 0,8.02209 0,9.5553c0,0.87631 -0.8059,1.83111 -2.00463,1.83111c-3.00152,0 -8.466,0 -9.9092,0c-0.65389,0 -1.77029,-0.7801 -1.77029,-1.94907z" fill="#00ff08" stroke="#000000" stroke-width="1"/><path d="M248.35717,217.67575c0,-2.97169 0,-8.45646 0,-10.02716c0,-0.82648 0.98915,-1.70789 1.88825,-1.70789c1.53199,0 6.57527,0 9.5553,0c1.39128,0 2.24058,0.93873 2.24058,2.29773c0,2.99229 0,8.02209 0,9.5553c0,0.87631 -0.8059,1.83111 -2.00463,1.83111c-3.00152,0 -8.466,0 -9.9092,0c-0.65389,0 -1.77029,-0.7801 -1.77029,-1.94907z" fill="#00ff08" stroke="#000000" stroke-width="1"/><path d="M248.35108,234.95622c0,-2.97169 0,-8.45646 0,-10.02716c0,-0.82648 0.98915,-1.70789 1.88825,-1.70789c1.53199,0 6.57527,0 9.5553,0c1.39128,0 2.24058,0.93873 2.24058,2.29773c0,2.99229 0,8.02209 0,9.5553c0,0.87631 -0.8059,1.83111 -2.00463,1.83111c-3.00152,0 -8.466,0 -9.9092,0c-0.65389,0 -1.77029,-0.7801 -1.77029,-1.94907z" fill="#00ff08" stroke="#000000" stroke-width="1"/><path d="M248.22935,182.9748c0,-2.97169 0,-8.45646 0,-10.02716c0,-0.82648 0.98915,-1.70789 1.88825,-1.70789c1.53199,0 6.57527,0 9.5553,0c1.39128,0 2.24058,0.93873 2.24058,2.29773c0,2.99229 0,8.02209 0,9.5553c0,0.87631 -0.8059,1.83111 -2.00463,1.83111c-3.00152,0 -8.466,0 -9.9092,0c-0.65389,0 -1.77029,-0.7801 -1.77029,-1.94907z" fill="#00ff08" stroke="#000000" stroke-width="1"/><path d="M248.22326,200.25528c0,-2.97169 0,-8.45646 0,-10.02716c0,-0.82648 0.98915,-1.70789 1.88825,-1.70789c1.53199,0 6.57527,0 9.5553,0c1.39128,0 2.24058,0.93873 2.24058,2.29773c0,2.99229 0,8.02209 0,9.5553c0,0.87631 -0.8059,1.83111 -2.00463,1.83111c-3.00152,0 -8.466,0 -9.9092,0c-0.65389,0 -1.77029,-0.7801 -1.77029,-1.94907z" fill="#00ff08" stroke="#000000" stroke-width="1"/><path d="M250.59127,234.91596v-9.54198h9.54198v9.54198z" fill="#000000" stroke="#000000" stroke-width="0"/><path d="M250.18414,165.80654v-9.54198h9.54199v9.54198z" fill="#ffffff" stroke="#000000" stroke-width="0"/><path d="M247.72867,213.04891c0,-4.25983 3.45327,-7.7131 7.7131,-7.7131c4.25983,0 7.7131,3.45327 7.7131,7.7131c0,4.25983 -3.45327,7.7131 -7.7131,7.7131c-4.25983,0 -7.7131,-3.45327 -7.7131,-7.7131z" fill="url(#color-1)" stroke="none" stroke-width="0"/><path d="M247.236,178.25063c0,-4.25983 3.45328,-7.7131 7.71311,-7.7131c4.25983,0 7.7131,3.45327 7.7131,7.7131c0,4.25983 -3.45327,7.7131 -7.7131,7.7131c-4.25983,0 -7.71311,-3.45327 -7.71311,-7.7131z" fill="url(#color-2)" stroke="none" stroke-width="0"/><path d="M247.236,178.25063c0,-4.25983 3.45328,-7.7131 7.71311,-7.7131c4.25983,0 7.7131,3.45327 7.7131,7.7131c0,4.25983 -3.45327,7.71311 -7.7131,7.71311c-4.25983,0 -7.71311,-3.45328 -7.71311,-7.71311z" fill="url(#color-3)" stroke="none" stroke-width="0"/><path d="M247.62405,195.65522c0,-4.25983 3.45328,-7.7131 7.71311,-7.7131c4.25983,0 7.71311,3.45327 7.71311,7.7131c0,4.25983 -3.45328,7.71311 -7.71311,7.71311c-4.25983,0 -7.71311,-3.45328 -7.71311,-7.71311z" fill="url(#color-4)" stroke="none" stroke-width="0"/><path d="M247.62405,195.65521c0,-4.25983 3.45328,-7.7131 7.71311,-7.7131c4.25983,0 7.71311,3.45327 7.71311,7.7131c0,4.25983 -3.45328,7.71311 -7.71311,7.71311c-4.25983,0 -7.71311,-3.45328 -7.71311,-7.71311z" fill="url(#color-5)" stroke="none" stroke-width="0"/><path d="M247.236,178.25064c0,-4.25983 3.45328,-7.7131 7.71311,-7.7131c4.25983,0 7.7131,3.45327 7.7131,7.7131c0,4.25983 -3.45327,7.71311 -7.7131,7.71311c-4.25983,0 -7.71311,-3.45328 -7.71311,-7.71311z" fill="url(#color-6)" stroke="none" stroke-width="0"/><path d="M247.236,178.25063c0,-4.25983 3.45328,-7.7131 7.71311,-7.7131c4.25983,0 7.7131,3.45327 7.7131,7.7131c0,4.25983 -3.45327,7.71311 -7.7131,7.71311c-4.25983,0 -7.71311,-3.45328 -7.71311,-7.71311z" fill="url(#color-7)" stroke="none" stroke-width="0"/><path d="M247.48058,143.93949c0,-4.25983 3.45328,-7.7131 7.7131,-7.7131c4.25983,0 7.7131,3.45327 7.7131,7.7131c0,4.25983 -3.45327,7.71311 -7.7131,7.71311c-4.25983,0 -7.7131,-3.45328 -7.7131,-7.71311z" fill="url(#color-8)" stroke="none" stroke-width="0"/><path d="M246.98791,109.14122c0,-4.25983 3.45327,-7.7131 7.7131,-7.7131c4.25983,0 7.7131,3.45327 7.7131,7.7131c0,4.25983 -3.45328,7.71311 -7.7131,7.71311c-4.25983,0 -7.7131,-3.45328 -7.7131,-7.71311z" fill="url(#color-9)" stroke="none" stroke-width="0"/><path d="M246.98791,109.14122c0,-4.25983 3.45327,-7.7131 7.7131,-7.7131c4.25983,0 7.7131,3.45327 7.7131,7.7131c0,4.25983 -3.45328,7.71311 -7.7131,7.71311c-4.25983,0 -7.7131,-3.45328 -7.7131,-7.71311z" fill="url(#color-10)" stroke="none" stroke-width="0"/><path d="M247.37595,126.5458c0,-4.25983 3.45328,-7.7131 7.71311,-7.7131c4.25983,0 7.71311,3.45327 7.71311,7.7131c0,4.25983 -3.45327,7.71311 -7.71311,7.71311c-4.25983,0 -7.71311,-3.45327 -7.71311,-7.71311z" fill="url(#color-11)" stroke="none" stroke-width="0"/><path d="M247.37595,126.5458c0,-4.25983 3.45328,-7.7131 7.71311,-7.7131c4.25983,0 7.71311,3.45327 7.71311,7.7131c0,4.25983 -3.45327,7.71311 -7.71311,7.71311c-4.25983,0 -7.71311,-3.45328 -7.71311,-7.71311z" fill="url(#color-12)" stroke="none" stroke-width="0"/><path d="M246.98791,109.14122c0,-4.25983 3.45327,-7.7131 7.7131,-7.7131c4.25983,0 7.7131,3.45327 7.7131,7.7131c0,4.25983 -3.45328,7.71311 -7.7131,7.71311c-4.25983,0 -7.7131,-3.45328 -7.7131,-7.71311z" fill="url(#color-13)" stroke="none" stroke-width="0"/><path d="M246.98791,109.14122c0,-4.25983 3.45327,-7.7131 7.7131,-7.7131c4.25983,0 7.7131,3.45327 7.7131,7.7131c0,4.25983 -3.45328,7.71311 -7.7131,7.71311c-4.25983,0 -7.7131,-3.45328 -7.7131,-7.71311z" fill="url(#color-14)" stroke="none" stroke-width="0"/></g></g></svg>