<svg version="1.1" xmlns="http://www.w3.org/2000/svg" xmlns:xlink="http://www.w3.org/1999/xlink" width="20.66053" height="26.58943" viewBox="0,0,20.66053,26.58943"><g transform="translate(-232.3144,-168.22375)"><g data-paper-data="{&quot;isPaintingLayer&quot;:true}" fill-rule="nonzero" stroke="#000000" stroke-width="0.5" stroke-linejoin="miter" stroke-miterlimit="10" stroke-dasharray="" stroke-dashoffset="0" style="mix-blend-mode: normal"><path d="M245.66914,190.37955l-5.52084,-6.3769l1.99277,-1.72525l5.52082,6.37691z" data-paper-data="{&quot;index&quot;:null}" fill="#00b6bf" stroke-linecap="butt"/><path d="M242.69562,178.08947c0.1795,1.1235 0.3247,3.21656 -0.37235,4.80182c-0.30949,0.70384 -1.0979,1.6487 -1.59673,1.7284c-0.56896,0.0909 -1.6588,-0.45673 -2.23508,-1.17565c-1.0669,-1.33096 -1.50251,-3.36255 -1.67081,-4.41591c-0.25922,-1.62231 0.84581,-3.14762 2.46813,-3.40683c1.62231,-0.25922 3.14762,0.84581 3.40683,2.46813z" data-paper-data="{&quot;index&quot;:null}" fill="#00bf19" stroke-linecap="butt"/><path d="M251.42493,186.03191l1.19836,1.47807l-7.26721,5.89202l-1.3981,-1.72443l0.16689,-3.09535l2.62426,-2.12767z" data-paper-data="{&quot;index&quot;:null}" fill="#00bf19" stroke-linecap="round"/><path d="M232.578,181.02781l0.45967,-12.54508l18.71961,0.6859l-0.45967,12.54508z" fill="#00ff21" stroke-linecap="butt"/><path d="M232.5734,181.04549l0.1832,-4.99984l1.43041,0.2636l1.87576,-1.56819l1.33208,0.17101l2.27085,-1.77401l2.53078,2.64085l2.90284,0.34918l2.05849,1.27017l4.34705,-1.34838l-0.20714,5.65323z" fill="#00f2ff" stroke-linecap="round"/><path d="M246.05119,173.53038c0.03615,-0.98661 0.86525,-1.7571 1.85186,-1.72095c0.98661,0.03615 1.7571,0.86525 1.72095,1.85186c-0.03615,0.98661 -0.86525,1.7571 -1.85186,1.72095c-0.98661,-0.03615 -1.7571,-0.86525 -1.72095,-1.85186z" fill="#00f2ff" stroke-linecap="butt"/><path d="M243.72867,190.39359l-5.52085,-6.3769l1.99278,-1.72525l5.52082,6.37691z" data-paper-data="{&quot;index&quot;:null}" fill="#00f2ff" stroke-linecap="butt"/><path d="M241.30185,177.98683c0.1795,1.1235 0.3247,3.21656 -0.37235,4.80182c-0.30949,0.70384 -1.0979,1.64871 -1.59673,1.72841c-0.56896,0.0909 -1.6588,-0.45673 -2.23508,-1.17565c-1.06691,-1.33095 -1.50251,-3.36255 -1.67081,-4.41591c-0.25922,-1.62232 0.84581,-3.14762 2.46813,-3.40683c1.62232,-0.25922 3.14762,0.84581 3.40683,2.46813z" data-paper-data="{&quot;index&quot;:null}" fill="#00ff22" stroke-linecap="butt"/><path d="M249.81398,187.09144l1.19836,1.47807l-7.26721,5.89202l-1.3981,-1.72443l0.16689,-3.09535l2.62426,-2.12767z" data-paper-data="{&quot;index&quot;:null}" fill="#00ff22" stroke-linecap="round"/></g></g></svg>