<svg version="1.1" xmlns="http://www.w3.org/2000/svg" xmlns:xlink="http://www.w3.org/1999/xlink" width="37.82174" height="19.08785" viewBox="0,0,37.82174,19.08785"><defs><linearGradient x1="240" y1="168.84515" x2="240" y2="191.15486" gradientUnits="userSpaceOnUse" id="color-1"><stop offset="0" stop-color="#ffffff"/><stop offset="1" stop-color="#ffffff" stop-opacity="0"/></linearGradient></defs><g transform="translate(-221.08913,-168.84514)"><g data-paper-data="{&quot;isPaintingLayer&quot;:true}" fill="url(#color-1)" fill-rule="nonzero" stroke="none" stroke-width="0" stroke-linecap="butt" stroke-linejoin="miter" stroke-miterlimit="10" stroke-dasharray="" stroke-dashoffset="0" style="mix-blend-mode: normal"><path d="M221.08913,179.69535c0,-0.69911 0.69067,-1.94602 0.86162,-2.61058c0.34863,-1.35526 4.0055,-0.80901 4.91198,-1.89975c0.51894,-0.62441 0.87501,-3.05707 1.37114,-3.62374c1.06947,-1.22153 5.97545,0.30596 7.49628,-0.22861c1.40779,-0.49483 2.85004,-2.48752 5.17195,-2.48752c1.43668,0 4.41252,2.81981 5.59182,3.03809c0.94522,0.17495 5.04534,-0.64459 5.7662,-0.41536c1.72216,0.54764 2.38066,2.33689 2.41715,3.37808c0.04887,1.39439 4.23358,0.81239 4.23358,3.39645c0,1.16993 -4.19836,2.54926 -4.94951,3.6934c-0.88015,1.34063 0.99489,2.43778 -0.27762,3.50728c-1.61838,1.3602 -5.36675,-0.58962 -8.04299,0.13312c-3.13863,0.84761 -5.29827,2.33998 -8.21343,2.33998c-5.16035,0 -4.46537,0.3773 -6.71529,-2.44343c-0.25953,-0.32538 -2.05142,-0.46285 -3.45589,-0.91744c-0.99903,-0.32336 -1.73601,-0.96925 -1.88346,-1.2271c-0.41778,-0.73062 -0.51908,-0.48701 -0.84884,-1.25308c-0.21921,-0.50923 -1.50135,-0.62549 -2.28209,-0.93483c-0.82917,-0.32853 -1.15262,-0.85088 -1.15262,-1.44496z"/></g></g></svg>