<svg version="1.1" xmlns="http://www.w3.org/2000/svg" xmlns:xlink="http://www.w3.org/1999/xlink" width="53.81754" height="89.44917" viewBox="0,0,53.81754,89.44917"><defs><linearGradient x1="266.77258" y1="148.67" x2="259.7927" y2="148.67" gradientUnits="userSpaceOnUse" id="color-1"><stop offset="0" stop-color="#00e6ff"/><stop offset="1" stop-color="#00b4ff"/></linearGradient><linearGradient x1="259.7927" y1="148.67" x2="266.77258" y2="148.67" gradientUnits="userSpaceOnUse" id="color-2"><stop offset="0" stop-color="#00b7ff"/><stop offset="1" stop-color="#00e3ff"/></linearGradient><linearGradient x1="266.05373" y1="210.5541" x2="259.07385" y2="210.5541" gradientUnits="userSpaceOnUse" id="color-3"><stop offset="0" stop-color="#00e6ff"/><stop offset="1" stop-color="#00b4ff"/></linearGradient><linearGradient x1="259.07385" y1="210.5541" x2="266.05373" y2="210.5541" gradientUnits="userSpaceOnUse" id="color-4"><stop offset="0" stop-color="#00b7ff"/><stop offset="1" stop-color="#00e3ff"/></linearGradient><linearGradient x1="269.19032" y1="179.70115" x2="250.82682" y2="179.70115" gradientUnits="userSpaceOnUse" id="color-5"><stop offset="0" stop-color="#00e6ff"/><stop offset="1" stop-color="#00b4ff"/></linearGradient><linearGradient x1="257.90935" y1="144.99071" x2="250.03404" y2="144.99071" gradientUnits="userSpaceOnUse" id="color-6"><stop offset="0" stop-color="#00e6ff"/><stop offset="1" stop-color="#00b4ff"/></linearGradient><linearGradient x1="250.03404" y1="144.99071" x2="257.90934" y2="144.99071" gradientUnits="userSpaceOnUse" id="color-7"><stop offset="0" stop-color="#00b7ff"/><stop offset="1" stop-color="#00e3ff"/></linearGradient><linearGradient x1="257.09828" y1="214.81369" x2="249.22297" y2="214.81369" gradientUnits="userSpaceOnUse" id="color-8"><stop offset="0" stop-color="#00e6ff"/><stop offset="1" stop-color="#00b4ff"/></linearGradient><linearGradient x1="249.22297" y1="214.81369" x2="257.09827" y2="214.81369" gradientUnits="userSpaceOnUse" id="color-9"><stop offset="0" stop-color="#00b7ff"/><stop offset="1" stop-color="#00e3ff"/></linearGradient><linearGradient x1="260.63725" y1="180.00273" x2="239.91796" y2="180.00273" gradientUnits="userSpaceOnUse" id="color-10"><stop offset="0" stop-color="#00e6ff"/><stop offset="1" stop-color="#00b4ff"/></linearGradient><linearGradient x1="242.13977" y1="140.00967" x2="233.1241" y2="140.00967" gradientUnits="userSpaceOnUse" id="color-11"><stop offset="0" stop-color="#00e6ff"/><stop offset="1" stop-color="#00b4ff"/></linearGradient><linearGradient x1="233.1241" y1="140.00967" x2="242.13977" y2="140.00967" gradientUnits="userSpaceOnUse" id="color-12"><stop offset="0" stop-color="#00b7ff"/><stop offset="1" stop-color="#00e3ff"/></linearGradient><linearGradient x1="242.16489" y1="219.94316" x2="233.14922" y2="219.94316" gradientUnits="userSpaceOnUse" id="color-13"><stop offset="0" stop-color="#00e6ff"/><stop offset="1" stop-color="#00b4ff"/></linearGradient><linearGradient x1="233.14922" y1="219.94316" x2="242.16489" y2="219.94316" gradientUnits="userSpaceOnUse" id="color-14"><stop offset="0" stop-color="#00b7ff"/><stop offset="1" stop-color="#00e3ff"/></linearGradient><linearGradient x1="247.8487" y1="180.0915" x2="224.12922" y2="180.0915" gradientUnits="userSpaceOnUse" id="color-15"><stop offset="0" stop-color="#00e6ff"/><stop offset="1" stop-color="#00b4ff"/></linearGradient></defs><g transform="translate(-221.62922,-135.25183)"><g data-paper-data="{&quot;isPaintingLayer&quot;:true}" fill-rule="nonzero" stroke-linecap="butt" stroke-linejoin="miter" stroke-miterlimit="10" stroke-dasharray="" stroke-dashoffset="0" style="mix-blend-mode: normal"><g><g data-paper-data="{&quot;index&quot;:null}"><path d="M259.7927,148.67c0,-1.92744 1.5625,-3.48994 3.48994,-3.48994c1.92744,0 3.48994,1.5625 3.48994,3.48994c0,1.92744 -1.5625,3.48994 -3.48994,3.48994c-1.92744,0 -3.48994,-1.5625 -3.48994,-3.48994z" fill="url(#color-1)" stroke="url(#color-2)" stroke-width="0.5"/><path d="M259.07385,210.5541c0,-1.92744 1.5625,-3.48994 3.48994,-3.48994c1.92744,0 3.48994,1.5625 3.48994,3.48994c0,1.92744 -1.5625,3.48994 -3.48994,3.48994c-1.92744,0 -3.48994,-1.5625 -3.48994,-3.48994z" fill="url(#color-3)" stroke="url(#color-4)" stroke-width="0.5"/><g data-paper-data="{&quot;index&quot;:null}" fill="#000000" stroke="none" stroke-width="0"><path d="M266.26045,203.00698v3.66186h-7.99938v-3.66186z" data-paper-data="{&quot;index&quot;:null}"/><path d="M266.1477,152.59181v3.66186h-7.99938v-3.66186z" data-paper-data="{&quot;index&quot;:null}"/><path d="M250.5991,183.26664v-6.07098h4.72187v6.07098z"/><path d="M251.57913,188.87218v-5.10733h4.72187v5.10733z"/><path d="M253.0246,194.65407v-5.39643h4.72187v5.39643z"/><path d="M254.19736,199.1996v-4.14368h4.72187v4.14368z"/><path d="M255.56285,203.8415v-4.14368h4.72187v4.14368z"/><path d="M256.41375,171.67204v5.10733h-4.72187v-5.10733z" data-paper-data="{&quot;index&quot;:null}"/><path d="M257.85922,165.89015v5.39642h-4.72187v-5.39642z" data-paper-data="{&quot;index&quot;:null}"/><path d="M259.03198,161.34462v4.14368h-4.72187v-4.14368z" data-paper-data="{&quot;index&quot;:null}"/><path d="M260.39747,156.70273v4.14368h-4.72187v-4.14368z" data-paper-data="{&quot;index&quot;:null}"/><path d="M269.47104,183.0903v-6.07098h5.97572v6.07098z" data-paper-data="{&quot;index&quot;:null}"/><path d="M269.00169,188.69584v-5.10733h5.97572v5.10733z" data-paper-data="{&quot;index&quot;:null}"/><path d="M267.55786,194.47773v-5.39643h5.97572v5.39643z" data-paper-data="{&quot;index&quot;:null}"/><path d="M266.07368,199.02326v-4.14368h5.97572v4.14368z" data-paper-data="{&quot;index&quot;:null}"/><path d="M264.3456,203.66515v-4.14368h5.97572v4.14368z" data-paper-data="{&quot;index&quot;:null}"/><path d="M274.73837,171.49569v5.10733h-5.97572v-5.10733z" data-paper-data="{&quot;index&quot;:null}"/><path d="M273.39089,165.7138v5.39642h-5.97571v-5.39642z" data-paper-data="{&quot;index&quot;:null}"/><path d="M271.90672,161.16827v4.14368h-5.97572v-4.14368z" data-paper-data="{&quot;index&quot;:null}"/><path d="M270.17864,156.52638v4.14368h-5.97572v-4.14368z" data-paper-data="{&quot;index&quot;:null}"/></g><path d="M269.19032,179.70115c0,14.18235 -4.11081,25.67941 -9.18175,25.67941c-5.07094,0 -9.18175,-11.49706 -9.18175,-25.67941c0,-14.18235 4.11081,-25.67941 9.18175,-25.67941c5.07094,0 9.18175,11.49706 9.18175,25.67941z" data-paper-data="{&quot;index&quot;:null}" fill="none" stroke="url(#color-5)" stroke-width="3"/></g><g data-paper-data="{&quot;index&quot;:null}"><path d="M250.03404,144.99071c0,-2.1747 1.76295,-3.93765 3.93765,-3.93765c2.1747,0 3.93765,1.76295 3.93765,3.93765c0,2.1747 -1.76295,3.93765 -3.93765,3.93765c-2.1747,0 -3.93765,-1.76295 -3.93765,-3.93765z" fill="url(#color-6)" stroke="url(#color-7)" stroke-width="0.5"/><path d="M249.22297,214.81369c0,-2.1747 1.76295,-3.93765 3.93765,-3.93765c2.1747,0 3.93765,1.76295 3.93765,3.93765c0,2.1747 -1.76295,3.93765 -3.93765,3.93765c-2.1747,0 -3.93765,-1.76295 -3.93765,-3.93765z" fill="url(#color-8)" stroke="url(#color-9)" stroke-width="0.5"/><g data-paper-data="{&quot;index&quot;:null}" fill="#000000" stroke="none" stroke-width="0"><path d="M257.33152,206.29838v4.13163h-9.02559v-4.13163z" data-paper-data="{&quot;index&quot;:null}"/><path d="M257.2043,149.41563v4.13163h-9.02559v-4.13163z" data-paper-data="{&quot;index&quot;:null}"/><path d="M239.66103,184.02562v-6.8498h5.32762v6.8498z"/><path d="M240.76679,190.35028v-5.76253h5.32762v5.76253z"/><path d="M242.39769,196.87391v-6.08872h5.32762v6.08872z"/><path d="M243.7209,202.00256v-4.67526h5.32762v4.67526z"/><path d="M245.26156,207.23996v-4.67526h5.32762v4.67526z"/><path d="M246.22162,170.9436v5.76253h-5.32762v-5.76253z" data-paper-data="{&quot;index&quot;:null}"/><path d="M247.85252,164.41997v6.08871h-5.32762v-6.08871z" data-paper-data="{&quot;index&quot;:null}"/><path d="M249.17573,159.29131v4.67526h-5.32762v-4.67526z" data-paper-data="{&quot;index&quot;:null}"/><path d="M250.7164,154.05393v4.67526h-5.32762v-4.67526z" data-paper-data="{&quot;index&quot;:null}"/><path d="M260.95398,183.82666v-6.8498h6.74232v6.8498z" data-paper-data="{&quot;index&quot;:null}"/><path d="M260.42442,190.15132v-5.76253h6.74232v5.76253z" data-paper-data="{&quot;index&quot;:null}"/><path d="M258.79537,196.67494v-6.08872h6.74232v6.08872z" data-paper-data="{&quot;index&quot;:null}"/><path d="M257.12079,201.8036v-4.67526h6.74232v4.67526z" data-paper-data="{&quot;index&quot;:null}"/><path d="M255.17102,207.04098v-4.67526h6.74232v4.67526z" data-paper-data="{&quot;index&quot;:null}"/><path d="M266.89704,170.74462v5.76253h-6.74232v-5.76253z" data-paper-data="{&quot;index&quot;:null}"/><path d="M265.37669,164.221v6.08871h-6.74231v-6.08871z" data-paper-data="{&quot;index&quot;:null}"/><path d="M263.70213,159.09234v4.67526h-6.74232v-4.67526z" data-paper-data="{&quot;index&quot;:null}"/><path d="M261.75236,153.85496v4.67526h-6.74232v-4.67526z" data-paper-data="{&quot;index&quot;:null}"/></g><path d="M260.63725,180.00273c0,16.00175 -4.63817,28.97373 -10.35964,28.97373c-5.72147,0 -10.35964,-12.97198 -10.35964,-28.97373c0,-16.00175 4.63817,-28.97373 10.35964,-28.97373c5.72147,0 10.35964,12.97198 10.35964,28.97373z" data-paper-data="{&quot;index&quot;:null}" fill="none" stroke="url(#color-10)" stroke-width="3"/></g><g data-paper-data="{&quot;index&quot;:null}"><path d="M242.13976,140.00968c0,2.4896 -2.01822,4.50783 -4.50783,4.50783c-2.48961,0 -4.50783,-2.01823 -4.50783,-4.50784c0,-2.48961 2.01822,-4.50784 4.50783,-4.50784c2.48961,0 4.50784,2.01822 4.50784,4.50783z" fill="url(#color-11)" stroke="url(#color-12)" stroke-width="0.5"/><path d="M242.16488,219.94317c0,2.4896 -2.01822,4.50783 -4.50783,4.50783c-2.48961,0 -4.50783,-2.01823 -4.50783,-4.50784c0,-2.48961 2.01822,-4.50784 4.50783,-4.50784c2.48961,0 4.50784,2.01822 4.50784,4.50783z" fill="url(#color-13)" stroke="url(#color-14)" stroke-width="0.5"/><g><g fill="#000000" stroke="none" stroke-width="0"><path d="M244.18178,210.1948v4.72989h-10.33251v-4.72989z" data-paper-data="{&quot;index&quot;:null}"/><path d="M244.03615,145.07531v4.7299h-10.33251v-4.7299z" data-paper-data="{&quot;index&quot;:null}"/><path d="M223.95258,184.69691v-7.84167h6.09907v7.84167z"/><path d="M225.21845,191.93739v-6.59696h6.09907v6.59696z"/><path d="M227.08552,199.40565v-6.97038h6.09907v6.97038z"/><path d="M228.60033,205.27695v-5.35225h6.09907v5.35225z"/><path d="M230.36408,211.27272v-5.35225h6.09907v5.35225z"/><path d="M231.46316,169.72057v6.59696h-6.09907v-6.59696z" data-paper-data="{&quot;index&quot;:null}"/><path d="M233.33022,162.25231v6.97037h-6.09907v-6.97037z" data-paper-data="{&quot;index&quot;:null}"/><path d="M234.84503,156.38101v5.35225h-6.09907v-5.35225z" data-paper-data="{&quot;index&quot;:null}"/><path d="M236.60879,150.38524v5.35225h-6.09907v-5.35225z" data-paper-data="{&quot;index&quot;:null}"/><path d="M248.3288,184.46913v-7.84167h7.71862v7.84167z" data-paper-data="{&quot;index&quot;:null}"/><path d="M247.72256,191.70961v-6.59696h7.71862v6.59696z" data-paper-data="{&quot;index&quot;:null}"/><path d="M245.85761,199.17787v-6.97038h7.71862v6.97038z" data-paper-data="{&quot;index&quot;:null}"/><path d="M243.94055,205.04917v-5.35225h7.71862v5.35225z" data-paper-data="{&quot;index&quot;:null}"/><path d="M241.70845,211.04494v-5.35225h7.71862v5.35225z" data-paper-data="{&quot;index&quot;:null}"/><path d="M255.13241,169.49279v6.59696h-7.71862v-6.59696z" data-paper-data="{&quot;index&quot;:null}"/><path d="M253.39192,162.02453v6.97037h-7.71861v-6.97037z" data-paper-data="{&quot;index&quot;:null}"/><path d="M251.47487,156.15323v5.35225h-7.71862v-5.35225z" data-paper-data="{&quot;index&quot;:null}"/><path d="M249.24277,150.15746v5.35225h-7.71862v-5.35225z" data-paper-data="{&quot;index&quot;:null}"/></g><path d="M235.98896,146.92231c6.54995,0 11.85974,14.85035 11.85974,33.16919c0,18.31884 -5.30979,33.16919 -11.85974,33.16919c-6.54995,0 -11.85974,-14.85035 -11.85974,-33.16919c0,-18.31884 5.30979,-33.16919 11.85974,-33.16919z" data-paper-data="{&quot;index&quot;:null}" fill="none" stroke="url(#color-15)" stroke-width="5"/></g></g></g></g></g></svg>