<svg version="1.1" xmlns="http://www.w3.org/2000/svg" xmlns:xlink="http://www.w3.org/1999/xlink" width="19.70187" height="25.6851" viewBox="0,0,19.70187,25.6851"><g transform="translate(-232.3144,-168.23058)"><g data-paper-data="{&quot;isPaintingLayer&quot;:true}" fill-rule="nonzero" stroke="#000000" stroke-width="0.5" stroke-linejoin="miter" stroke-miterlimit="10" stroke-dasharray="" stroke-dashoffset="0" style="mix-blend-mode: normal"><path d="M239.82094,170.75969l-0.34524,8.42765l-2.63362,-0.10789l0.34526,-8.42765z" data-paper-data="{&quot;index&quot;:null}" fill="#00b6bf" stroke-linecap="butt"/><path d="M242.51875,182.11763c0.80803,1.43046 0.30343,3.24513 -1.12703,4.05314c-1.43046,0.80803 -3.24513,0.30343 -4.05314,-1.12703c-0.52465,-0.92879 -1.44968,-2.78928 -1.44441,-4.49506c0.00284,-0.92138 0.5141,-2.02874 1.01577,-2.31213c0.43984,-0.24846 1.64521,-0.00061 2.32581,0.3571c1.5329,0.80568 2.72339,2.53332 3.28298,3.52394z" data-paper-data="{&quot;index&quot;:null}" fill="#00bf19" stroke-linecap="butt"/><path d="M240.47754,173.04901l-3.37829,-0.02921l-2.05907,-2.31717l0.01918,-2.2199l9.3553,0.08089l-0.01644,1.90276z" data-paper-data="{&quot;index&quot;:null}" fill="#00bf19" stroke-linecap="round"/><path d="M251.29761,180.42571l0.45967,12.54508l-18.71961,0.6859l-0.45967,-12.54508z" data-paper-data="{&quot;index&quot;:null}" fill="#00ff21" stroke-linecap="butt"/><path d="M251.29772,180.43631l0.20714,5.65323l-4.34705,-1.34838l-2.05849,1.27017l-2.90284,0.34918l-2.53078,2.64085l-2.27085,-1.77401l-1.33208,0.17101l-1.87576,-1.56819l-1.43041,0.2636l-0.1832,-4.99984z" data-paper-data="{&quot;index&quot;:null}" fill="#00f2ff" stroke-linecap="round"/><path d="M247.77214,186.75718c0.98661,-0.03615 1.81571,0.73434 1.85186,1.72095c0.03615,0.98661 -0.73434,1.81571 -1.72095,1.85186c-0.98661,0.03615 -1.81571,-0.73434 -1.85186,-1.72095c-0.03615,-0.98661 0.73434,-1.81571 1.72095,-1.85186z" data-paper-data="{&quot;index&quot;:null}" fill="#00f2ff" stroke-linecap="butt"/><path d="M238.29438,171.95771l-0.34524,8.42765l-2.63363,-0.10788l0.34527,-8.42766z" data-paper-data="{&quot;index&quot;:null}" fill="#00f2ff" stroke-linecap="butt"/><path d="M241.4925,183.06628c0.80803,1.43046 0.30343,3.24513 -1.12703,4.05314c-1.43046,0.80803 -3.24513,0.30343 -4.05314,-1.12703c-0.52465,-0.92879 -1.4497,-2.78928 -1.44441,-4.49506c0.00284,-0.92138 0.5141,-2.02874 1.01577,-2.31213c0.43984,-0.24845 1.64522,-0.0006 2.32582,0.35711c1.5329,0.80568 2.72339,2.53332 3.28298,3.52394z" data-paper-data="{&quot;index&quot;:null}" fill="#00ff22" stroke-linecap="butt"/><path d="M238.55734,173.22395l-3.37829,-0.02921l-2.05907,-2.31717l0.01918,-2.2199l9.3553,0.08089l-0.01644,1.90276z" data-paper-data="{&quot;index&quot;:null}" fill="#00ff22" stroke-linecap="round"/></g></g></svg>