<svg version="1.1" xmlns="http://www.w3.org/2000/svg" xmlns:xlink="http://www.w3.org/1999/xlink" width="27.45473" height="23.58588" viewBox="0,0,27.45473,23.58588"><defs><linearGradient x1="239.47779" y1="178.8589" x2="235.42421" y2="168.32975" gradientUnits="userSpaceOnUse" id="color-1"><stop offset="0" stop-color="#00bb19"/><stop offset="1" stop-color="#009614"/></linearGradient><linearGradient x1="247.81821" y1="179.0792" x2="248.26869" y2="167.8057" gradientUnits="userSpaceOnUse" id="color-2"><stop offset="0" stop-color="#00bb19"/><stop offset="1" stop-color="#009614"/></linearGradient><linearGradient x1="232.19086" y1="181.01402" x2="235.28234" y2="177.6638" gradientUnits="userSpaceOnUse" id="color-3"><stop offset="0" stop-color="#00bb19"/><stop offset="1" stop-color="#009614"/></linearGradient><linearGradient x1="226.45661" y1="174.62357" x2="232.21838" y2="172.52492" gradientUnits="userSpaceOnUse" id="color-4"><stop offset="0" stop-color="#00ff22"/><stop offset="1" stop-color="#00c71b"/></linearGradient><linearGradient x1="237.45226" y1="175.28187" x2="243.19178" y2="173.12312" gradientUnits="userSpaceOnUse" id="color-5"><stop offset="0" stop-color="#00ff22"/><stop offset="1" stop-color="#00c71b"/></linearGradient></defs><g transform="translate(-226.34372,-167.78857)"><g data-paper-data="{&quot;isPaintingLayer&quot;:true}" fill-rule="nonzero" stroke-width="0.5" stroke-linejoin="miter" stroke-miterlimit="10" stroke-dasharray="" stroke-dashoffset="0" style="mix-blend-mode: normal"><path d="M235.40126,175.99744c-0.15522,-1.7659 -0.62453,-7.10508 -0.62453,-7.10508c0,0 0.83219,-0.70448 1.3036,-0.80368c0.56467,-0.11882 1.85542,0.13894 1.85542,0.13894c0,0 2.40337,4.71092 3.23551,6.34203c0.52265,1.0245 0.6208,2.74576 0.6208,2.74576c0,0 -0.34388,0.40833 -0.83628,0.82298c-0.42438,0.35736 -1.04176,0.57801 -1.56168,0.68742c-0.46519,0.0979 -1.11104,0.28245 -1.7188,0.15283c-0.89647,-0.19118 -1.70426,-0.49125 -1.70426,-0.49125c0,0 -0.47752,-1.44024 -0.56979,-2.48992z" data-paper-data="{&quot;index&quot;:null}" fill="url(#color-1)" stroke="#000000" stroke-linecap="butt"/><path d="M250.75739,175.05835c0.25035,1.02356 0.26158,2.54086 0.26158,2.54086c0,0 -0.66829,0.544 -1.45558,1.01345c-0.53374,0.31826 -1.20464,0.35132 -1.67659,0.4083c-0.52749,0.06369 -1.18303,0.0534 -1.69982,-0.14843c-0.59961,-0.23418 -1.05659,-0.51016 -1.05659,-0.51016c0,0 -0.46086,-1.66133 -0.2956,-2.7995c0.26312,-1.81211 1.02304,-7.0458 1.02304,-7.0458c0,0 1.13919,-0.65934 1.71207,-0.7285c0.47826,-0.05775 1.49287,0.34154 1.49287,0.34154c0,0 1.27344,5.20629 1.69462,6.92824z" data-paper-data="{&quot;index&quot;:null}" fill="url(#color-2)" stroke="#000000" stroke-linecap="butt"/><path d="M239.01327,181.10658l-3.09148,3.35022l-7.46186,-6.88556l3.09148,-3.35022z" data-paper-data="{&quot;index&quot;:null}" fill="url(#color-3)" stroke="#000000" stroke-linecap="butt"/><path d="M228.10492,168.06702c0.45265,-0.16487 1.53143,-0.00649 1.53143,-0.00649c0,0 2.42273,4.78095 3.22403,6.36222c0.47631,0.93994 0.83189,2.41503 0.83189,2.41503c0,0 -0.52727,0.6816 -1.18734,1.3176c-0.44749,0.43118 -1.09335,0.61577 -1.54002,0.77846c-0.49922,0.18184 -1.13997,0.32071 -1.6891,0.24154c-0.63713,-0.09186 -1.14485,-0.25682 -1.14485,-0.25682c0,0 -0.82617,-1.51322 -0.92376,-2.65918c-0.15538,-1.82451 -0.60411,-7.09401 -0.60411,-7.09401c0,0 0.95965,-0.90085 1.50184,-1.09834z" data-paper-data="{&quot;index&quot;:null}" fill="url(#color-4)" stroke="#000000" stroke-linecap="butt"/><path d="M248.706,175.56195l3.4375,3.4375l1.375,12.125h-25.625l11.85806,-15.625z" data-paper-data="{&quot;index&quot;:null}" fill="#00f220" stroke="#000000" stroke-linecap="round"/><path d="M236.5789,191.05854v-6.06092l3.54849,-3.54849l0.0518,-5.98321l8.41795,0.0518v15.48902z" data-paper-data="{&quot;index&quot;:null}" fill="#00ff22" stroke="#00e51e" stroke-linecap="round"/><path d="M248.66658,175.54056l3.4375,3.4375l1.375,12.125h-25.625l11.90986,-15.625z" data-paper-data="{&quot;index&quot;:null}" fill="none" stroke="#000000" stroke-linecap="round"/><path d="M248.62303,181.11241c1.70228,0 3.08226,1.37997 3.08226,3.08226c0,1.70228 -1.37997,3.08226 -3.08226,3.08226c-1.70228,0 -3.08226,-1.37997 -3.08226,-3.08226c0,-1.70228 1.37997,-3.08226 3.08226,-3.08226z" data-paper-data="{&quot;index&quot;:null}" fill="#00f2ff" stroke="#000000" stroke-linecap="butt"/><path d="M240.56326,168.68598c0,0 2.47256,4.75536 3.29035,6.32818c0.4861,0.93491 0.85708,2.4062 0.85708,2.4062c0,0 -0.52011,0.68705 -1.1735,1.32992c-0.44297,0.43583 -1.08686,0.62716 -1.5318,0.79451c-0.4973,0.18704 -1.13656,0.33261 -1.68649,0.25919c-0.63807,-0.0852 -1.14748,-0.24485 -1.14748,-0.24485c0,0 -0.84194,-1.50451 -0.9515,-2.64938c-0.17443,-1.82278 -0.67822,-7.0873 -0.67822,-7.0873c0,0 0.95019,-0.91084 1.49028,-1.11398c0.4509,-0.1696 1.53127,-0.02249 1.53127,-0.02249z" data-paper-data="{&quot;index&quot;:null}" fill="url(#color-5)" stroke="#000000" stroke-linecap="butt"/></g></g></svg>