<svg version="1.1" xmlns="http://www.w3.org/2000/svg" xmlns:xlink="http://www.w3.org/1999/xlink" width="45.61575" height="22.67799" viewBox="0,0,45.61575,22.67799"><g transform="translate(-228.60169,-170.07388)"><g data-paper-data="{&quot;isPaintingLayer&quot;:true}" fill-rule="nonzero" stroke-linejoin="miter" stroke-miterlimit="10" stroke-dasharray="" stroke-dashoffset="0" style="mix-blend-mode: normal"><path d="M228.85738,181.03806l0.89664,-6.80491l1.8018,-1.89642l6.51355,-2.00832l7.19727,0.86241l6.17163,3.47993l3.25775,2.49704l3.30194,-1.59056l3.35163,2.51187l6.89769,-1.52026l5.52989,0.64971l-1.54566,2.25407l-0.84778,2.53343l1.03315,5.03891l-1.45576,2.16804l-18.30131,-6.06708l-0.86907,3.50099l-2.9898,3.89434l-3.01776,1.16563l-3.88962,0.79443l-5.1017,-0.11227l-3.56379,-2.01449l-1.60349,-3.11539l2.36332,0.58002l1.36974,-2.25793l3.40723,1.13102l1.63362,-2.25212l2.6001,1.81728l1.46931,-2.78376l2.79537,0.94155l2.60312,-2.3188l-1.47791,-0.82456l-1.622,1.72436l-2.95388,-1.73706l-1.57663,3.66143l-2.14287,-2.59924l-0.84004,2.18158l-3.76487,-0.87488l-2.42913,2.41062l-3.04184,-1.739z" fill="#000000" stroke="#000000" stroke-width="0.5" stroke-linecap="round"/><path d="M232.08914,178.59976c0,-1.38484 1.12264,-2.50748 2.50748,-2.50748c1.38484,0 2.50748,1.12264 2.50748,2.50748c0,1.38484 -1.12264,2.50748 -2.50748,2.50748c-1.38484,0 -2.50748,-1.12264 -2.50748,-2.50748z" fill="#ffffff" stroke="#080807" stroke-width="0" stroke-linecap="butt"/></g></g></svg>