<svg version="1.1" xmlns="http://www.w3.org/2000/svg" xmlns:xlink="http://www.w3.org/1999/xlink" width="29.32458" height="29.23607" viewBox="0,0,29.32458,29.23607"><defs><linearGradient x1="240" y1="180.15" x2="240" y2="206.15" gradientUnits="userSpaceOnUse" id="color-1"><stop offset="0" stop-color="#000000" stop-opacity="0"/><stop offset="0.8367" stop-color="#000000" stop-opacity="0.8"/></linearGradient><linearGradient x1="239.5" y1="204.73166" x2="239.5" y2="180.65759" gradientUnits="userSpaceOnUse" id="color-2"><stop offset="0" stop-color="#0083ff"/><stop offset="1" stop-color="#000000"/></linearGradient></defs><g transform="translate(-224.82351,-179.15)"><g data-paper-data="{&quot;isPaintingLayer&quot;:true}" fill-rule="nonzero" stroke-linejoin="miter" stroke-miterlimit="10" stroke-dasharray="" stroke-dashoffset="0" style="mix-blend-mode: normal"><path d="M253,180.15l-13,26l-13,-26h26" fill="url(#color-1)" stroke="none" stroke-width="1" stroke-linecap="butt"/><path d="M253,180.15l-13,26l-13,-26h26" fill="none" stroke="#ffffff" stroke-width="2" stroke-linecap="butt"/><path d="M252.5,180.65759h-26l13,24.07407l13,-24.07407" fill="url(#color-2)" stroke="none" stroke-width="1" stroke-linecap="butt"/><path d="M226.46055,180.22125l13.25,25l12.78945,-24.56366h-26l13,24.07407l13,-24.07407" fill="none" stroke="#00acf7" stroke-width="2" stroke-linecap="round"/><path d="M237.71055,180.56847l1.375,4.39815l2.375,-4.05093" fill="none" stroke="#00acf7" stroke-width="0.5" stroke-linecap="round"/><path d="M234.58555,181.14717l4,7.06018l5.375,-6.71296" fill="none" stroke="#00acf7" stroke-width="0.5" stroke-linecap="round"/><path d="M231.96055,181.26291l7.125,12.61574l7.25,-12.38426" fill="none" stroke="#00acf7" stroke-width="0.5" stroke-linecap="round"/></g></g></svg>