<svg version="1.1" xmlns="http://www.w3.org/2000/svg" xmlns:xlink="http://www.w3.org/1999/xlink" width="25.66667" height="21.81475"><g transform="translate(-240.17287,-197.0997)"><g data-paper-data="{&quot;isPaintingLayer&quot;:true}" fill="none" fill-rule="nonzero" stroke="none" stroke-width="none" stroke-linecap="none" stroke-linejoin="miter" stroke-miterlimit="10" stroke-dasharray="" stroke-dashoffset="0" font-family="none" font-weight="none" font-size="none" text-anchor="none" style="mix-blend-mode: normal"><path d="M253.25783,197.8497c2.7717,0 5.2826,1.125 7.1011,2.9436c1.8186,1.8185 2.9436,4.3294 2.9436,7.1011c0,2.7717 -1.125,5.2825 -2.9436,7.1011c-1.8185,1.8185 -4.3294,2.9435 -7.1011,2.9435c-2.7717,0 -5.2825,-1.125 -7.1011,-2.9435c-1.8185,-1.8186 -2.9435,-4.3294 -2.9435,-7.1011c0,-2.7717 1.125,-5.2826 2.9435,-7.1011c1.8186,-1.8186 4.3294,-2.9436 7.1011,-2.9436z" data-paper-data="{&quot;origPos&quot;:null}" id="ID0.16053227661177516" stroke="#ffffff" stroke-width="1.5" stroke-linecap="butt"/><path d="M264.58955,208.16446l-23.16667,-9.16667" data-paper-data="{&quot;origPos&quot;:null}" stroke="#ff00a5" stroke-width="2.5" stroke-linecap="round"/><path d="M264.58955,208.49779l-23.16667,9.16666" data-paper-data="{&quot;origPos&quot;:null,&quot;index&quot;:null}" stroke="#ff00a5" stroke-width="2.5" stroke-linecap="round"/></g></g></svg>